<svg width="51" height="50" viewBox="0 0 51 50" fill="none" xmlns="http://www.w3.org/2000/svg">
<rect x="0.0600586" width="50" height="50" rx="25" fill="white"/>
<rect x="1.16006" y="1.1" width="47.8" height="47.8" rx="23.9" stroke="black" stroke-opacity="0.2" stroke-width="2.2"/>
<path d="M18.2843 24.8999C18.2203 26.0119 19.0763 26.9638 20.1882 27.0278C20.2282 27.0278 20.2682 27.0278 20.3082 27.0278C21.4282 27.0278 22.3321 26.1239 22.3241 25.0039C22.3241 23.884 21.4202 22.98 20.3002 22.988C19.2283 22.988 18.3403 23.828 18.2843 24.8999Z" fill="#0033AD"/>
<path d="M10.7487 24.3807C10.3887 24.3567 10.0767 24.6367 10.0607 24.9967C10.0447 25.3567 10.3167 25.6686 10.6767 25.6846C11.0367 25.7086 11.3407 25.4287 11.3647 25.0687C11.3887 24.7087 11.1087 24.4047 10.7487 24.3807Z" fill="#0033AD"/>
<path d="M18.1564 13.1722C18.4764 13.0123 18.6044 12.6123 18.4444 12.2923C18.2844 11.9723 17.8844 11.8443 17.5644 12.0043C17.2445 12.1643 17.1165 12.5563 17.2765 12.8763C17.4365 13.2042 17.8284 13.3402 18.1564 13.1722Z" fill="#0033AD"/>
<path d="M20.2043 16.7492C20.7003 16.5012 20.9003 15.8933 20.6523 15.3973C20.4043 14.9013 19.7963 14.7013 19.3003 14.9493C18.8043 15.1973 18.6044 15.8053 18.8523 16.3012C19.1003 16.7972 19.7083 16.9972 20.2043 16.7492Z" fill="#0033AD"/>
<path d="M13.3086 19.2041C13.6926 19.4521 14.2046 19.3481 14.4606 18.9641C14.7086 18.5801 14.6046 18.0682 14.2206 17.8122C13.8366 17.5642 13.3246 17.6682 13.0686 18.0522C12.8126 18.4361 12.9246 18.9561 13.3086 19.2041Z" fill="#0033AD"/>
<path d="M14.5326 24.0201C13.9726 23.9881 13.5006 24.4121 13.4686 24.9721C13.4366 25.5321 13.8606 26.004 14.4206 26.036C14.9805 26.068 15.4525 25.6441 15.4845 25.0841C15.5165 24.5321 15.0925 24.0521 14.5326 24.0201Z" fill="#0033AD"/>
<path d="M13.4206 30.7968C13.0126 31.0048 12.8446 31.5008 13.0526 31.9168C13.2606 32.3247 13.7566 32.4927 14.1726 32.2847C14.5805 32.0767 14.7485 31.5808 14.5405 31.1648C14.3325 30.7568 13.8286 30.5888 13.4206 30.7968Z" fill="#0033AD"/>
<path d="M17.3404 21.9321C17.8924 22.2921 18.6284 22.1401 18.9804 21.5881C19.3404 21.0362 19.1884 20.3002 18.6364 19.9482C18.0844 19.5882 17.3484 19.7402 16.9965 20.2922C16.6365 20.8362 16.7885 21.5721 17.3404 21.9321Z" fill="#0033AD"/>
<path d="M29.7799 16.6685C30.2438 16.9725 30.8758 16.8445 31.1798 16.3805C31.4838 15.9165 31.3558 15.2846 30.8918 14.9806C30.4278 14.6766 29.7959 14.8046 29.4919 15.2686C29.1799 15.7405 29.3079 16.3645 29.7799 16.6685Z" fill="#0033AD"/>
<path d="M31.8438 13.1099C32.1478 13.3098 32.5477 13.2219 32.7477 12.9179C32.9477 12.6139 32.8597 12.2139 32.5557 12.0139C32.2518 11.8139 31.8518 11.9019 31.6518 12.1979C31.4598 12.5019 31.5478 12.9099 31.8438 13.1099Z" fill="#0033AD"/>
<path d="M29.9318 22.9715C28.8199 22.9075 27.8599 23.7635 27.8039 24.8754C27.7399 25.9874 28.5959 26.9473 29.7078 27.0033C29.7478 27.0033 29.7878 27.0033 29.8198 27.0033C30.9318 27.0033 31.8357 26.0994 31.8357 24.9794C31.8437 23.9155 31.0038 23.0275 29.9318 22.9715Z" fill="#0033AD"/>
<path d="M20.8684 21.7872C21.2124 22.4672 21.9084 22.8991 22.6763 22.8991C23.7883 22.8991 24.6922 21.9952 24.6922 20.8752C24.6922 20.5632 24.6202 20.2513 24.4762 19.9633C23.9723 18.9633 22.7563 18.5633 21.7644 19.0673C20.7644 19.5793 20.3644 20.7952 20.8684 21.7872Z" fill="#0033AD"/>
<path d="M36.6994 19.2043C37.1074 18.9963 37.2674 18.4923 37.0594 18.0843C36.8514 17.6764 36.3475 17.5164 35.9395 17.7244C35.5315 17.9324 35.3715 18.4283 35.5715 18.8363C35.7875 19.2443 36.2835 19.4123 36.6994 19.2043Z" fill="#0033AD"/>
<path d="M31.5798 19.8442C30.9958 20.1402 30.7558 20.8522 31.0518 21.4362C31.3478 22.0201 32.0598 22.2601 32.6438 21.9641C33.2277 21.6681 33.4677 20.9562 33.1717 20.3722C32.8757 19.7882 32.1638 19.5562 31.5798 19.8442Z" fill="#0033AD"/>
<path d="M24.9801 12.8046C25.4361 12.8286 25.8281 12.4766 25.8601 12.0207C25.8921 11.5647 25.5321 11.1727 25.0761 11.1407C24.6201 11.1167 24.2282 11.4607 24.1962 11.9167C24.1722 12.3807 24.5242 12.7726 24.9801 12.8046Z" fill="#0033AD"/>
<path d="M24.9721 18.0284C25.6281 18.0684 26.1881 17.5644 26.2201 16.9084C26.2601 16.2525 25.7561 15.6925 25.1001 15.6605C24.4441 15.6205 23.8842 16.1245 23.8522 16.7804C23.8202 17.4364 24.3162 17.9964 24.9721 18.0284Z" fill="#0033AD"/>
<path d="M18.5403 30.1559C19.1243 29.8599 19.3643 29.148 19.0683 28.564C18.7723 27.98 18.0603 27.74 17.4764 28.036C16.8924 28.332 16.6524 29.044 16.9484 29.6279C17.2444 30.2119 17.9563 30.4519 18.5403 30.1559Z" fill="#0033AD"/>
<path d="M25.74 19.7644C25.132 20.7003 25.388 21.9483 26.324 22.5562C27.26 23.1642 28.5079 22.9082 29.1159 21.9723C29.7238 21.0363 29.4679 19.7884 28.5319 19.1804C28.2039 18.9644 27.8199 18.8524 27.4279 18.8524C26.748 18.8524 26.116 19.1964 25.74 19.7644Z" fill="#0033AD"/>
<path d="M29.2516 28.2128C28.7477 27.2128 27.5317 26.8129 26.5398 27.3168C25.5398 27.8208 25.1398 29.0367 25.6438 30.0287C26.1478 31.0287 27.3637 31.4286 28.3557 30.9247C29.3476 30.4287 29.7556 29.2287 29.2596 28.2288C29.2596 28.2208 29.2596 28.2208 29.2516 28.2128Z" fill="#0033AD"/>
<path d="M32.7798 28.0681C32.2278 27.7082 31.4918 27.8602 31.1398 28.4121C30.7798 28.9641 30.9318 29.7001 31.4838 30.052C32.0358 30.412 32.7718 30.26 33.1237 29.7081C33.4837 29.1641 33.3317 28.4281 32.7798 28.0681Z" fill="#0033AD"/>
<path d="M36.6516 25.0372C36.6836 24.4772 36.2597 24.0053 35.6997 23.9733C35.1397 23.9413 34.6677 24.3652 34.6357 24.9252C34.6037 25.4852 35.0277 25.9572 35.5877 25.9892C36.1397 26.0212 36.6196 25.5892 36.6516 25.0372Z" fill="#0033AD"/>
<path d="M39.4435 24.3148C39.0835 24.2908 38.7715 24.5708 38.7555 24.9308C38.7395 25.2907 39.0115 25.6027 39.3715 25.6187C39.7314 25.6427 40.0354 25.3627 40.0594 25.0028C40.0754 24.6428 39.8034 24.3388 39.4435 24.3148Z" fill="#0033AD"/>
<path d="M36.8116 30.7958C36.4276 30.5478 35.9156 30.6518 35.6596 31.0358C35.4117 31.4197 35.5156 31.9317 35.8996 32.1877C36.2836 32.4357 36.7956 32.3317 37.0516 31.9477C37.3076 31.5637 37.1956 31.0438 36.8116 30.7958Z" fill="#0033AD"/>
<path d="M18.2683 36.8914C17.9643 36.6915 17.5643 36.7795 17.3643 37.0754C17.1643 37.3794 17.2523 37.7794 17.5483 37.9794C17.8523 38.1794 18.2523 38.0914 18.4523 37.7954C18.6603 37.4994 18.5723 37.0914 18.2683 36.8914Z" fill="#0033AD"/>
<path d="M31.9638 36.8273C31.6438 36.9873 31.5158 37.3873 31.6758 37.7073C31.8358 38.0273 32.2358 38.1553 32.5558 37.9953C32.8758 37.8353 33.0038 37.4433 32.8438 37.1233C32.6838 36.7953 32.2918 36.6594 31.9638 36.8273Z" fill="#0033AD"/>
<path d="M24.3801 30.236C24.9881 29.3 24.7321 28.0521 23.7961 27.4361C22.8602 26.8281 21.6122 27.0841 20.9962 28.0201C20.3803 28.956 20.6443 30.204 21.5802 30.8199C21.9082 31.0359 22.2922 31.1479 22.6842 31.1479C23.3721 31.1559 24.0041 30.8119 24.3801 30.236Z" fill="#0033AD"/>
<path d="M20.3404 33.3308C19.8764 33.0268 19.2444 33.1548 18.9405 33.6188C18.6365 34.0827 18.7645 34.7147 19.2284 35.0187C19.6924 35.3227 20.3244 35.1947 20.6284 34.7307C20.9404 34.2667 20.8124 33.6348 20.3404 33.3308Z" fill="#0033AD"/>
<path d="M25.0522 37.1954C24.5962 37.1714 24.2042 37.5234 24.1722 37.9793C24.1402 38.4353 24.5002 38.8273 24.9562 38.8593C25.4122 38.8833 25.8041 38.5393 25.8361 38.0833C25.8601 37.6193 25.5081 37.2274 25.0522 37.1954Z" fill="#0033AD"/>
<path d="M25.06 31.9718C24.4041 31.9318 23.8441 32.4358 23.8121 33.0918C23.7721 33.7477 24.2761 34.3077 24.9321 34.3397C25.588 34.3717 26.148 33.8757 26.18 33.2198C26.22 32.5718 25.716 32.0038 25.06 31.9718Z" fill="#0033AD"/>
<path d="M29.9159 33.2518C29.4199 33.5078 29.2199 34.1158 29.4759 34.6118C29.7319 35.1077 30.3399 35.3077 30.8359 35.0517C31.3318 34.8037 31.5318 34.1958 31.2839 33.6998C31.0279 33.2038 30.4199 32.9958 29.9159 33.2518Z" fill="#0033AD"/>
</svg>
