<svg width="51" height="50" viewBox="0 0 51 50" fill="none" xmlns="http://www.w3.org/2000/svg">
<rect x="0.0600586" width="50" height="50" rx="25" fill="white"/>
<rect x="1.16006" y="1.1" width="47.8" height="47.8" rx="23.9" stroke="black" stroke-opacity="0.2" stroke-width="2.2"/>
<path d="M15.2982 40L19.6368 32.4868L23.9755 25L28.2876 17.4868L29.0019 16.2963L29.3194 17.4868L30.6421 22.4339L29.1607 25L24.822 32.4868L20.5099 40H25.695L30.0337 32.4868L32.2824 28.5979L33.3406 32.4868L35.3511 40H40.0072L37.9966 32.4868L35.9861 25L35.457 23.0688L38.6845 17.4868H33.9755L33.8167 16.9312L32.1765 10.7937L31.9649 10H27.4411L27.3353 10.1587L23.1025 17.4868L18.7638 25L14.4517 32.4868L10.113 40H15.2982Z" fill="black"/>
</svg>
