<svg width="51" height="50" viewBox="0 0 51 50" fill="none" xmlns="http://www.w3.org/2000/svg">
<rect x="0.0600586" width="50" height="50" rx="25" fill="white"/>
<rect x="1.16006" y="1.1" width="47.8" height="47.8" rx="23.9" stroke="black" stroke-opacity="0.2" stroke-width="2.2"/>
<path d="M33.2627 20.0362H30.6199C30.3144 20.0362 30.0215 19.9053 29.8158 19.6747L28.7437 18.4654C28.5816 18.2847 28.3572 18.1787 28.1141 18.1787C27.8711 18.1787 27.6467 18.2847 27.4846 18.4654L26.5621 19.5064C26.2629 19.843 25.8266 20.0424 25.3778 20.0424H10.9107C10.4994 21.208 10.2313 22.4484 10.1254 23.7387H23.7821C24.0252 23.7387 24.2496 23.6389 24.4179 23.4644L25.6895 22.1367C25.8453 21.9684 26.0697 21.875 26.2941 21.875H26.3439C26.587 21.875 26.8114 21.9809 26.9735 22.1617L28.0456 23.3709C28.2513 23.6015 28.5442 23.7324 28.8497 23.7324H39.9945C39.8885 22.4484 39.6205 21.2018 39.2091 20.0299L33.2627 20.0362Z" fill="black"/>
<path d="M18.3905 31.5169C18.6336 31.5169 18.858 31.4172 19.0263 31.2426L20.2979 29.915C20.4599 29.7467 20.6781 29.6532 20.9087 29.6532H20.9586C21.2017 29.6532 21.4323 29.7591 21.5881 29.9337L22.6602 31.1429C22.8659 31.3735 23.1589 31.5044 23.4643 31.5044H38.5734C39.1406 30.3326 39.552 29.0797 39.8013 27.7646H25.2968C24.9914 27.7646 24.6985 27.6337 24.4928 27.403L23.4207 26.2063C23.2586 26.0255 23.0342 25.9258 22.7911 25.9258C22.548 25.9258 22.3174 26.0317 22.1616 26.2063L21.2391 27.2472C20.9399 27.59 20.5036 27.7832 20.0485 27.7832H10.3311C10.5804 29.0984 10.9918 30.3513 11.559 31.5231L18.3905 31.5169Z" fill="black"/>
<path d="M29.1053 15.99C29.3483 15.99 29.5727 15.8903 29.741 15.7158L31.0126 14.3881C31.1684 14.2198 31.3928 14.1263 31.6234 14.1263H31.6733C31.9164 14.1263 32.1408 14.2323 32.3028 14.413L33.3749 15.6285C33.5806 15.8591 33.8736 15.99 34.179 15.99H37.0525C34.3161 12.3499 29.9654 10 25.0662 10C20.167 10 15.81 12.3499 13.0737 15.99H29.1053Z" fill="black"/>
<path d="M23.3397 35.2255H19.4128C19.1074 35.2255 18.8144 35.0946 18.6087 34.8639L17.5366 33.6547C17.3746 33.4739 17.1502 33.3742 16.9071 33.3742C16.664 33.3742 16.4334 33.4802 16.2775 33.6547L15.355 34.6956C15.0558 35.0385 14.6195 35.2317 14.1645 35.2317H14.1022C16.8385 38.1613 20.7342 40 25.0662 40C29.3982 40 33.2877 38.1613 36.0303 35.2317L23.3397 35.2255Z" fill="black"/>
</svg>
