<svg width="51" height="50" viewBox="0 0 51 50" fill="none" xmlns="http://www.w3.org/2000/svg">
<rect x="0.0600586" width="50" height="50" rx="25" fill="url(#paint0_linear_28_1775)"/>
<rect x="1.16006" y="1.1" width="47.8" height="47.8" rx="23.9" stroke="black" stroke-opacity="0.5" stroke-width="2.2" style="mix-blend-mode:soft-light"/>
<path d="M11.1971 18.3808V31.6479C11.1971 32.5008 11.6438 33.2725 12.3884 33.7057L23.8821 40.3392C24.6131 40.7589 25.5202 40.7589 26.2512 40.3392L37.7449 33.7057C38.476 33.286 38.9363 32.5008 38.9363 31.6479V18.3808C38.9363 17.5279 38.4895 16.7562 37.7449 16.323L26.2512 9.68942C25.5202 9.26975 24.6131 9.26975 23.8821 9.68942L12.3884 16.323C11.6574 16.7427 11.2106 17.5279 11.2106 18.3808H11.1971Z" fill="#213147"/>
<path d="M27.5644 27.5854L25.9263 32.08C25.8857 32.2019 25.8857 32.3372 25.9263 32.4726L28.7422 40.2028L32.0049 38.321L28.0924 27.5854C27.9976 27.3418 27.6592 27.3418 27.5644 27.5854Z" fill="#12AAFF"/>
<path d="M30.8542 20.0312C30.7594 19.7875 30.421 19.7875 30.3262 20.0312L28.6881 24.5258C28.6475 24.6476 28.6475 24.783 28.6881 24.9184L33.3045 37.5763L36.5672 35.6946L30.8542 20.0447V20.0312Z" fill="#12AAFF"/>
<path d="M25.0601 10.1895C25.1413 10.1895 25.2225 10.2166 25.2902 10.2572L37.718 17.4323C37.8669 17.5135 37.9481 17.676 37.9481 17.8384V32.1886C37.9481 32.3511 37.8534 32.5135 37.718 32.5948L25.2902 39.7699C25.2225 39.8105 25.1413 39.8375 25.0601 39.8375C24.9788 39.8375 24.8976 39.8105 24.8299 39.7699L12.4021 32.5948C12.2532 32.5135 12.172 32.3511 12.172 32.1886V17.8249C12.172 17.6625 12.2667 17.5 12.4021 17.4188L24.8299 10.2437C24.8976 10.2031 24.9788 10.176 25.0601 10.176V10.1895ZM25.0601 8.09116C24.6133 8.09116 24.1801 8.19946 23.774 8.4296L11.3462 15.6047C10.5474 16.065 10.0601 16.9043 10.0601 17.8249V32.1751C10.0601 33.0957 10.5474 33.935 11.3462 34.3953L23.774 41.5704C24.1666 41.8005 24.6133 41.9088 25.0601 41.9088C25.5068 41.9088 25.94 41.8005 26.3462 41.5704L38.774 34.3953C39.5727 33.935 40.0601 33.0957 40.0601 32.1751V17.8249C40.0601 16.9043 39.5727 16.065 38.774 15.6047L26.3326 8.4296C25.94 8.19946 25.4933 8.09116 25.0465 8.09116H25.0601Z" fill="#9DCCED"/>
<path d="M16.8291 37.5887L17.9798 34.4479L20.2813 36.3568L18.1287 38.3333L16.8291 37.5887Z" fill="#213147"/>
<path d="M24.0041 16.8108H20.8497C20.6196 16.8108 20.403 16.9597 20.3218 17.1764L13.5663 35.6962L16.829 37.578L24.2748 17.1764C24.3425 16.9868 24.2071 16.7973 24.0176 16.7973L24.0041 16.8108Z" fill="white"/>
<path d="M29.5275 16.8108H26.3732C26.143 16.8108 25.9264 16.9597 25.8452 17.1764L18.1286 38.3226L21.3912 40.2043L29.7847 17.1764C29.8524 16.9868 29.717 16.7973 29.5275 16.7973V16.8108Z" fill="white"/>
<defs>
<linearGradient id="paint0_linear_28_1775" x1="33.0601" y1="13" x2="15.9601" y2="37.1" gradientUnits="userSpaceOnUse">
<stop stop-color="#9DCCED"/>
<stop offset="1" stop-color="white"/>
</linearGradient>
</defs>
</svg>
