<svg width="51" height="50" viewBox="0 0 51 50" fill="none" xmlns="http://www.w3.org/2000/svg">
<rect x="0.0600586" width="50" height="50" rx="25" fill="#2E3148"/>
<rect x="1.16006" y="1.1" width="47.8" height="47.8" rx="23.9" stroke="black" stroke-opacity="0.5" stroke-width="2.2" style="mix-blend-mode:soft-light"/>
<path d="M25.0249 34.9176C30.5217 34.9176 34.9778 30.4615 34.9778 24.9647C34.9778 19.4678 30.5217 15.0117 25.0249 15.0117C19.528 15.0117 15.072 19.4678 15.072 24.9647C15.072 30.4615 19.528 34.9176 25.0249 34.9176Z" fill="#1B1E36"/>
<path d="M25.0602 10C23.2087 10 21.7073 16.7157 21.7073 25C21.7073 33.2843 23.2087 40 25.0602 40C26.9118 40 28.4131 33.2843 28.4131 25C28.4131 16.7157 26.9118 10 25.0602 10ZM25.2917 39.1535C25.08 39.4359 24.8683 39.224 24.8683 39.224C24.0156 38.236 23.5892 36.4005 23.5892 36.4005C22.0977 31.6006 22.4527 21.2947 22.4527 21.2947C23.1537 13.1129 24.4287 11.1801 24.8626 10.751C24.9069 10.7072 24.9653 10.6805 25.0274 10.6754C25.0895 10.6704 25.1514 10.6875 25.2021 10.7236C25.8317 11.1697 26.3597 13.0354 26.3597 13.0354C27.919 18.8236 27.7778 24.2589 27.7778 24.2589C27.919 28.9883 26.9965 34.2823 26.9965 34.2823C26.2863 38.3057 25.2917 39.1535 25.2917 39.1535Z" fill="#6F7390"/>
<path d="M38.0711 17.5362C37.1492 15.9296 30.5774 17.9696 23.3882 22.092C16.1989 26.2145 11.1277 30.8591 12.0489 32.465C12.9701 34.0709 19.5425 32.0316 26.7318 27.9092C33.921 23.7867 38.9922 19.1421 38.0711 17.5362ZM12.8994 32.2446C12.5465 32.2002 12.6262 31.9101 12.6262 31.9101C13.0591 30.679 14.4368 29.3957 14.4368 29.3957C17.8596 25.7132 26.9762 20.8927 26.9762 20.8927C34.4211 17.4289 36.7336 17.5751 37.3202 17.7366C37.3804 17.7534 37.4327 17.7909 37.4679 17.8426C37.503 17.8943 37.5188 17.9568 37.5123 18.019C37.4418 18.7874 36.0828 20.1734 36.0828 20.1734C31.841 24.4079 27.0559 26.9908 27.0559 26.9908C23.0239 29.4676 17.9727 31.3008 17.9727 31.3008C14.1292 32.6858 12.8995 32.2446 12.8995 32.2446H12.8994Z" fill="#6F7390"/>
<path d="M38.0386 32.5178C38.9676 30.9155 33.9091 26.2496 26.7451 22.0961C19.5811 17.9427 13.0102 15.8775 12.082 17.4826C11.1538 19.0877 16.2114 23.7508 23.3796 27.9043C30.5477 32.0577 37.1104 34.1231 38.0386 32.5178ZM12.6976 18.1017C12.5603 17.7764 12.85 17.698 12.85 17.698C14.1325 17.4558 15.934 18.0077 15.934 18.0077C20.8349 19.1238 29.5739 24.5979 29.5739 24.5979C36.3024 29.3061 37.3343 31.38 37.489 31.9687C37.5047 32.0291 37.4986 32.093 37.4717 32.1494C37.4449 32.2057 37.399 32.2507 37.3422 32.2765C36.6405 32.5977 34.7614 32.1191 34.7614 32.1191C28.9696 30.5661 24.3377 27.7208 24.3377 27.7208C20.1758 25.4761 16.0605 22.0222 16.0605 22.0222C12.9334 19.3893 12.6985 18.1053 12.6985 18.1053L12.6976 18.1017Z" fill="#6F7390"/>
<path d="M25.0248 26.7301C25.9994 26.7301 26.7895 25.94 26.7895 24.9654C26.7895 23.9908 25.9994 23.2007 25.0248 23.2007C24.0502 23.2007 23.2601 23.9908 23.2601 24.9654C23.2601 25.94 24.0502 26.7301 25.0248 26.7301Z" fill="#B7B9C8"/>
<path d="M32.2601 19.2469C32.8254 19.2469 33.2837 18.7728 33.2837 18.1881C33.2837 17.6033 32.8254 17.1293 32.2601 17.1293C31.6948 17.1293 31.2366 17.6033 31.2366 18.1881C31.2366 18.7728 31.6948 19.2469 32.2601 19.2469Z" fill="#B7B9C8"/>
<path d="M15.4601 22.8476C16.0254 22.8476 16.4837 22.3736 16.4837 21.7888C16.4837 21.204 16.0254 20.73 15.4601 20.73C14.8948 20.73 14.4366 21.204 14.4366 21.7888C14.4366 22.3736 14.8948 22.8476 15.4601 22.8476Z" fill="#B7B9C8"/>
<path d="M22.9424 35.8359C23.5077 35.8359 23.966 35.3618 23.966 34.7771C23.966 34.1923 23.5077 33.7183 22.9424 33.7183C22.3771 33.7183 21.9189 34.1923 21.9189 34.7771C21.9189 35.3618 22.3771 35.8359 22.9424 35.8359Z" fill="#B7B9C8"/>
</svg>
