<svg width="51" height="50" viewBox="0 0 51 50" fill="none" xmlns="http://www.w3.org/2000/svg">
<rect x="0.0600586" width="50" height="50" rx="25" fill="#E84142"/>
<rect x="1.16006" y="1.1" width="47.8" height="47.8" rx="23.9" stroke="black" stroke-opacity="0.5" stroke-width="2.2" style="mix-blend-mode:soft-light"/>
<path d="M12.5449 35.1131H17.5892C18.7769 35.1131 19.3707 35.1131 19.9007 34.9664C20.4818 34.7937 21.0117 34.4874 21.4523 34.0658C21.857 33.6803 22.1489 33.1694 22.7249 32.1614L22.7252 32.1608L22.7421 32.1312L29.2845 20.5662C29.8656 19.5509 30.1529 19.0401 30.2806 18.5037C30.4211 17.9227 30.4211 17.3097 30.2806 16.7286C30.1539 16.1963 29.8636 15.6891 29.2912 14.689L29.2781 14.6662L26.7176 10.1965C26.1877 9.26427 25.9195 8.79815 25.5811 8.62575C25.2171 8.44059 24.7829 8.44059 24.4189 8.62575C24.0805 8.79815 23.8124 9.26427 23.2824 10.1965L10.8273 32.1503C10.3037 33.0698 10.0419 33.5297 10.061 33.9063C10.0866 34.315 10.2973 34.6853 10.6421 34.9089C10.9614 35.1131 11.4849 35.1131 12.5449 35.1131Z" fill="white"/>
<path d="M37.5558 35.1131H30.3279C29.2615 35.1131 28.7252 35.1131 28.4123 34.9089C28.0675 34.6853 27.8568 34.3088 27.8312 33.9C27.8122 33.5263 28.0761 33.0708 28.6041 32.1593L28.6042 32.1591L28.6166 32.1377L32.2243 25.944C32.7543 25.031 33.0224 24.5776 33.3545 24.4052C33.7182 24.22 34.1464 24.22 34.5101 24.4052C34.8398 24.573 35.0965 25.0072 35.6048 25.8666L35.6055 25.8679L35.6467 25.9377L39.2673 32.1313C39.2849 32.1619 39.3023 32.192 39.3196 32.2215C39.8214 33.0874 40.0775 33.5294 40.0591 33.8938C40.0398 34.3022 39.8228 34.6791 39.478 34.9027C39.1586 35.1131 38.6221 35.1131 37.5558 35.1131Z" fill="white"/>
</svg>
