<svg width="51" height="50" viewBox="0 0 51 50" fill="none" xmlns="http://www.w3.org/2000/svg">
<rect x="0.0600586" width="50" height="50" rx="25" fill="#0055D5"/>
<rect x="1.16006" y="1.1" width="47.8" height="47.8" rx="23.9" stroke="black" stroke-opacity="0.5" stroke-width="2.2" style="mix-blend-mode:soft-light"/>
<path fill-rule="evenodd" clip-rule="evenodd" d="M13.0668 15.8459C13.0668 15.8459 10.3267 13.6558 10.1382 19.0647C9.9498 23.2563 9.95489 31.395 11.8954 35.2403C12.7153 36.6867 13.8104 36.2436 15.8476 34.8023C17.62 33.4934 24.0322 27.5854 26.7468 24.993C29.4614 22.4006 34.967 14.9648 36.1129 20.0171C36.5662 22.1409 37.1264 23.9439 36.6986 28.6549C36.5662 30.1065 35.9449 31.2066 33.1131 29.2406C30.974 27.8655 28.9419 26.3885 28.9419 26.3885C28.9419 26.3885 28.5497 25.6857 27.6228 26.8265C26.8945 27.7382 26.5278 27.9623 27.6941 28.6549C28.8655 29.3476 34.7887 33.4322 37.0602 34.0689C38.9345 34.6138 40.004 34.6037 40.0601 30.9214C40.0499 27.9979 39.8818 19.63 38.8173 16.0649C38.0126 13.8443 36.831 12.8359 34.2794 15.3315C31.7278 17.8271 23.6807 25.6297 19.2803 29.1643C16.362 31.3543 15.1142 33.3304 14.0141 29.6787C13.2399 26.9131 12.2366 18.3058 15.4045 19.9458C17.3857 20.8931 18.3737 20.888 17.5996 21.4839C16.8255 22.0747 14.5998 24.117 14.5998 24.117C14.5998 24.117 13.9122 24.6722 14.2331 25.8741C14.5539 26.7145 14.5539 27.1321 16.2805 25.5074C18.007 23.8827 19.2803 22.6553 19.2803 22.6553C19.2803 22.6553 19.5553 22.2224 20.3753 23.022C21.1953 23.8216 21.3277 24.0457 21.3277 24.0457C21.3277 24.0457 21.5467 24.6416 22.4227 23.6077C23.3038 22.5738 23.8692 21.9423 22.2037 20.9746C20.5434 19.9967 13.0668 15.8459 13.0668 15.8459Z" fill="white"/>
</svg>
