<svg width="51" height="50" viewBox="0 0 51 50" fill="none" xmlns="http://www.w3.org/2000/svg">
<rect x="0.0600586" width="50" height="50" rx="25" fill="#0AC18E"/>
<rect x="1.16006" y="1.1" width="47.8" height="47.8" rx="23.9" stroke="black" stroke-opacity="0.5" stroke-width="2.2" style="mix-blend-mode:soft-light"/>
<path d="M33.0474 17.0336C31.8322 14.2778 29.0396 13.6886 25.621 14.2594L24.5224 10L21.9324 10.669L23.0126 14.9161C22.3313 15.088 21.6317 15.2353 20.9381 15.4317L19.8579 11.2091L17.2679 11.8781L18.3665 16.1375C17.808 16.2971 13.1374 17.4939 13.1374 17.4939L13.8493 20.268C13.8493 20.268 15.752 19.734 15.7335 19.777C16.7892 19.5008 17.2863 20.0286 17.5196 20.5258L20.5392 32.1993C20.576 32.5368 20.5146 33.1137 19.7904 33.3101C19.8334 33.3347 17.9062 33.795 17.9062 33.795L18.1885 37.0295C18.1885 37.0295 22.8162 35.8449 23.4238 35.6915L24.5347 40L27.1247 39.331L26.0138 34.9918C26.7258 34.8261 27.4193 34.6543 28.0944 34.4763L29.1992 38.7909L31.7892 38.1219L30.6783 33.8196C34.6677 32.8498 37.4848 30.3335 36.9078 26.4853C36.5396 24.1653 34.0048 22.2627 31.8997 22.0479C33.1947 20.9002 33.8514 19.2246 33.0474 17.0336ZM31.8015 27.1911C32.317 31.0025 27.0204 31.4689 25.2712 31.9292L23.7491 26.2275C25.5044 25.7672 30.9299 23.8339 31.8015 27.1911ZM28.61 19.4272C29.1562 22.8151 24.6268 23.2079 23.166 23.5822L21.779 18.4083C23.2458 18.0462 27.4991 16.2909 28.61 19.4272Z" fill="white"/>
</svg>
