<svg width="51" height="50" viewBox="0 0 51 50" fill="none" xmlns="http://www.w3.org/2000/svg">
<rect x="0.0600586" width="50" height="50" rx="25" fill="#F0B90B"/>
<rect x="1.16006" y="1.1" width="47.8" height="47.8" rx="23.9" stroke="black" stroke-opacity="0.5" stroke-width="2.2" style="mix-blend-mode:soft-light"/>
<path d="M15.1767 25L15.1925 30.8024L20.1227 33.7036V37.1006L12.3071 32.5167V23.3033L15.1767 25ZM15.1767 19.1976V22.5788L12.3054 20.8803V17.4991L15.1767 15.8006L18.062 17.4991L15.1767 19.1976ZM22.1817 17.4991L25.053 15.8006L27.9383 17.4991L25.053 19.1976L22.1817 17.4991Z" fill="white"/>
<path d="M17.2515 29.5997V26.2027L20.1227 27.9012V31.2824L17.2515 29.5997ZM22.1817 34.9203L25.053 36.6188L27.9384 34.9203V38.3015L25.053 40L22.1817 38.3015V34.9203ZM32.0563 17.4991L34.9276 15.8006L37.8129 17.4991V20.8803L34.9276 22.5788V19.1976L32.0563 17.4991ZM34.9276 30.8024L34.9434 25L37.8147 23.3015V32.5149L29.9991 37.0988V33.7018L34.9276 30.8024Z" fill="white"/>
<path d="M32.8686 29.5997L29.9973 31.2824V27.9012L32.8686 26.2027V29.5997Z" fill="white"/>
<path d="M32.8686 20.4003L32.8844 23.7973L27.9401 26.6985V32.5149L25.0688 34.1976L22.1975 32.5149V26.6985L17.2532 23.7973V20.4003L20.1368 18.7018L25.0512 21.617L29.9956 18.7018L32.8809 20.4003H32.8686ZM17.2515 14.5997L25.053 10L32.8686 14.5997L29.9973 16.2982L25.053 13.383L20.1227 16.2982L17.2515 14.5997Z" fill="white"/>
</svg>
