<svg width="51" height="50" viewBox="0 0 51 50" fill="none" xmlns="http://www.w3.org/2000/svg">
<rect x="0.0600586" width="50" height="50" rx="25" fill="#EAB300"/>
<rect x="1.16006" y="1.1" width="47.8" height="47.8" rx="23.9" stroke="black" stroke-opacity="0.5" stroke-width="2.2" style="mix-blend-mode:soft-light"/>
<path d="M34.2612 19.2335C33.9461 15.9573 31.1181 14.8594 27.5445 14.5463V10H24.7792V14.4249C24.0531 14.4249 23.3094 14.4386 22.5716 14.4543V10H19.8062L19.8043 14.5424C19.2054 14.5541 18.6163 14.5659 18.0429 14.5659V14.5522L14.2286 14.5502V17.5054C14.2286 17.5054 16.2718 17.4662 16.2365 17.5034C17.3579 17.5034 17.722 18.1532 17.8276 18.7149V23.8933V23.9102V23.9128L17.8257 31.1677C17.7768 31.52 17.5693 32.0817 16.7865 32.0836C16.8217 32.1149 14.7766 32.0836 14.7766 32.0836L14.2266 35.3872H17.8276C18.497 35.3872 19.1565 35.3989 19.8023 35.4028L19.8043 40H22.5677V35.4518C23.3251 35.4674 24.059 35.4733 24.7772 35.4733L24.7753 40H27.5406V35.4126C32.1906 35.1465 35.4491 33.9742 35.8523 29.606C36.1791 26.0891 34.5254 24.5176 31.8853 23.8835C33.4921 23.0693 34.496 21.6309 34.2612 19.2335ZM30.3901 29.0619C30.3901 32.4966 24.5091 32.1071 22.6323 32.1071V26.0147C24.5091 26.0187 30.3901 25.4805 30.3901 29.0619ZM29.1024 20.4684C29.1024 23.5938 24.194 23.2279 22.6323 23.2298V17.707C24.196 17.707 29.1043 17.2099 29.1024 20.4684Z" fill="white"/>
</svg>
