<svg width="51" height="50" viewBox="0 0 51 50" fill="none" xmlns="http://www.w3.org/2000/svg">
<rect x="0.0600586" width="50" height="50" rx="25" fill="#F7931A"/>
<rect x="1.16006" y="1.1" width="47.8" height="47.8" rx="23.9" stroke="black" stroke-opacity="0.5" stroke-width="2.2" style="mix-blend-mode:soft-light"/>
<path d="M37.0841 21.8643C37.587 18.5018 35.0271 16.6944 31.5265 15.4886L32.6621 10.9339L29.8895 10.243L28.7841 14.6779C28.0552 14.4961 27.3066 14.3248 26.5626 14.155L27.6761 9.69087L24.9053 9L23.769 13.5533C23.1659 13.4159 22.5734 13.2802 21.9986 13.1372L22.0019 13.1229L18.1784 12.1681L17.4408 15.1294C17.4408 15.1294 19.4979 15.6009 19.4545 15.6299C20.5773 15.9102 20.7803 16.6534 20.7466 17.2425L19.453 22.4314C19.5303 22.4511 19.6306 22.4795 19.7413 22.5239C19.6488 22.5009 19.5503 22.4759 19.4482 22.4514L17.6351 29.7204C17.4979 30.0615 17.1496 30.5734 16.3646 30.379C16.3924 30.4193 14.3494 29.8761 14.3494 29.8761L12.9729 33.0498L16.581 33.9493C17.2522 34.1176 17.91 34.2937 18.5578 34.4594L17.4104 39.0663L20.1798 39.7572L21.316 35.1991C22.0726 35.4045 22.8068 35.594 23.5256 35.7725L22.3932 40.3091L25.166 41L26.3132 36.4017C31.0411 37.2964 34.596 36.9357 36.0924 32.6593C37.2981 29.2163 36.0324 27.2304 33.5451 25.9354C35.3567 25.5176 36.7213 24.3261 37.0851 21.8647L37.0842 21.864L37.0841 21.8643ZM30.7493 30.7473C29.8925 34.1902 24.0956 32.3291 22.2161 31.8624L23.7387 25.7589C25.618 26.2281 31.6449 27.1566 30.7495 30.7473H30.7493ZM31.6068 21.8144C30.8252 24.9462 26.0003 23.3551 24.4352 22.9649L25.8156 17.4295C27.3807 17.8196 32.4211 18.5478 31.6071 21.8144H31.6068Z" fill="white"/>
</svg>
