<svg width="51" height="50" viewBox="0 0 51 50" fill="none" xmlns="http://www.w3.org/2000/svg">
<rect x="0.0600586" width="50" height="50" rx="25" fill="#F5AC37"/>
<rect x="1.16006" y="1.1" width="47.8" height="47.8" rx="23.9" stroke="black" stroke-opacity="0.5" stroke-width="2.2" style="mix-blend-mode:soft-light"/>
<path d="M27.0183 26.6239H35.7372C35.923 26.6239 36.0108 26.6239 36.0242 26.3802C36.0955 25.4932 36.0955 24.6011 36.0242 23.7131C36.0242 23.5407 35.9385 23.4694 35.7516 23.4694H18.3995C18.1848 23.4694 18.1269 23.5407 18.1269 23.742V26.2945C18.1269 26.6239 18.1269 26.6239 18.4708 26.6239H27.0183ZM35.0505 20.4864C35.0753 20.4213 35.0753 20.3501 35.0505 20.286C34.9049 19.969 34.7325 19.6665 34.5322 19.3826C34.2307 18.8973 33.8755 18.4502 33.4707 18.0485C33.2797 17.8058 33.0587 17.588 32.8109 17.4031C31.5698 16.3468 30.0943 15.5993 28.5083 15.2234C27.708 15.0438 26.8902 14.9581 26.0704 14.9653H18.3696C18.1548 14.9653 18.1259 15.051 18.1259 15.2379V20.3284C18.1259 20.5432 18.1259 20.601 18.3985 20.601H34.9473C34.9473 20.601 35.0908 20.5721 35.1197 20.4864H35.0495H35.0505ZM35.0505 29.6069C34.8068 29.5801 34.5611 29.5801 34.3174 29.6069H18.414C18.1992 29.6069 18.1269 29.6069 18.1269 29.894V34.8709C18.1269 35.1001 18.1269 35.1579 18.414 35.1579H25.7565C26.1076 35.1848 26.4586 35.16 26.8025 35.0867C27.8681 35.0103 28.9161 34.779 29.9156 34.398C30.2791 34.272 30.6302 34.1078 30.9616 33.9106H31.0618C32.783 33.0154 34.1811 31.6091 35.0629 29.8826C35.0629 29.8826 35.1631 29.6658 35.0505 29.609V29.6069ZM15.2451 37.7383V37.6526V34.3113V33.1785V29.8083C15.2451 29.6214 15.2451 29.5935 15.0158 29.5935H11.9037C11.7313 29.5935 11.66 29.5935 11.66 29.3643V26.6394H14.9869C15.1728 26.6394 15.2451 26.6394 15.2451 26.3957V23.6997C15.2451 23.5272 15.2451 23.4849 15.0158 23.4849H11.9037C11.7313 23.4849 11.66 23.4849 11.66 23.2557V20.7321C11.66 20.5741 11.66 20.5318 11.8893 20.5318H14.9725C15.1872 20.5318 15.2451 20.5318 15.2451 20.2592V12.5295C15.2451 12.3003 15.2451 12.2424 15.5321 12.2424H26.2872C27.0678 12.2734 27.8433 12.3591 28.6105 12.5006C30.1913 12.7928 31.7102 13.3576 33.099 14.164C34.02 14.7061 34.8678 15.3608 35.6226 16.1145C36.1905 16.7041 36.7026 17.3422 37.1569 18.0216C37.6082 18.7104 37.983 19.4466 38.2773 20.2158C38.3134 20.4161 38.5055 20.5514 38.7058 20.5173H41.2727C41.6021 20.5173 41.6021 20.5173 41.6166 20.8333V23.1855C41.6166 23.4147 41.5309 23.4725 41.3006 23.4725H39.3212C39.1209 23.4725 39.063 23.4725 39.0775 23.7307C39.156 24.6042 39.156 25.4808 39.0775 26.3544C39.0775 26.5981 39.0775 26.627 39.3511 26.627H41.6155C41.7157 26.756 41.6155 26.8851 41.6155 27.0152C41.63 27.1815 41.63 27.3498 41.6155 27.516V29.2517C41.6155 29.4954 41.5443 29.5677 41.3285 29.5677H38.618C38.4291 29.5316 38.2453 29.6524 38.2019 29.8403C37.5565 31.5182 36.524 33.0226 35.1899 34.2286C34.7026 34.6675 34.1904 35.0805 33.6555 35.4615C33.0814 35.7919 32.5228 36.1358 31.9343 36.4084C30.8511 36.8957 29.7153 37.2551 28.5496 37.4833C27.4427 37.6815 26.3203 37.7713 25.1937 37.7559H15.2409V37.7414L15.2451 37.7383Z" fill="#FEFEFD"/>
</svg>
