<svg width="51" height="50" viewBox="0 0 51 50" fill="none" xmlns="http://www.w3.org/2000/svg">
<rect x="0.0600586" width="50" height="50" rx="25" fill="#008DE4"/>
<rect x="1.16006" y="1.1" width="47.8" height="47.8" rx="23.9" stroke="black" stroke-opacity="0.5" stroke-width="2.2" style="mix-blend-mode:soft-light"/>
<path d="M29.7075 12.823H18.7868L17.8811 17.8831L27.7384 17.8948C32.594 17.8948 34.0256 19.6594 33.9847 22.581C33.9613 24.0768 33.3127 26.6127 33.0323 27.4366C32.2844 29.6277 30.7476 32.1228 24.9863 32.1169L15.4036 32.1111L14.5009 37.177H25.3983C29.243 37.177 30.8732 36.7271 32.6087 35.9325C36.4476 34.1503 38.7322 30.364 39.6496 25.4207C41.0081 18.0584 39.3136 12.823 29.7075 12.823Z" fill="white"/>
<path d="M14.0742 22.4592C11.2111 22.4592 10.8021 24.3231 10.5333 25.4509C10.1769 26.9233 10.06 27.5252 10.06 27.5252H21.2437C24.1069 27.5252 24.5159 25.6612 24.7847 24.5335C25.1411 23.061 25.258 22.4592 25.258 22.4592H14.0742Z" fill="white"/>
</svg>
