<svg width="51" height="50" viewBox="0 0 51 50" fill="none" xmlns="http://www.w3.org/2000/svg">
<rect x="0.860059" y="0.8" width="48.4" height="48.4" rx="24.2" fill="#7A6A2A"/>
<rect x="0.860059" y="0.8" width="48.4" height="48.4" rx="24.2" stroke="#988430" stroke-width="1.6"/>
<path d="M25.0601 46.7691C37.0828 46.7691 46.8292 37.0228 46.8292 25C46.8292 12.9772 37.0828 3.23086 25.0601 3.23086C13.0373 3.23086 3.29092 12.9772 3.29092 25C3.29092 37.0228 13.0373 46.7691 25.0601 46.7691Z" fill="#BA9F33"/>
<path fill-rule="evenodd" clip-rule="evenodd" d="M12.1493 22.5714C12.0195 22.4528 11.8823 22.334 11.7561 22.2154C11.63 22.0968 11.5004 21.978 11.3705 21.8594L10.9847 21.4926C10.9216 21.4295 10.8549 21.374 10.7918 21.3107C10.7287 21.2552 10.6546 21.1921 10.5915 21.1364C10.0795 20.6505 9.5646 20.1647 9.05969 19.6786C9.5827 20.1571 10.0947 20.6322 10.6177 21.1178L10.7994 21.2997C10.8625 21.3625 10.9292 21.4183 10.9923 21.4814L11.3779 21.8374C11.5077 21.956 11.6339 22.0748 11.7637 22.2041C11.8936 22.3335 12.0197 22.4526 12.1496 22.5709L12.1493 22.5714ZM5.35416 22.498C5.35416 22.498 7.21609 22.6907 8.12493 22.8206C8.96678 22.9394 11.6004 23.3436 11.6004 23.3436L5.35416 22.498ZM5.35416 22.498C5.87716 22.5425 6.40017 22.5981 6.92317 22.6538C7.19018 22.6797 7.44618 22.7093 7.70218 22.7352L8.0951 22.78C8.22494 22.7983 8.3511 22.8169 8.48094 22.8355L10.039 23.0839L10.8177 23.2137C11.0737 23.2582 11.3297 23.3066 11.5967 23.3511C11.3407 23.3252 11.0737 23.2881 10.8177 23.2509L10.039 23.1396L8.48094 22.9098C8.3511 22.8912 8.22494 22.8651 8.0951 22.8467L7.70193 22.8015C7.44593 22.7756 7.17893 22.7384 6.92293 22.7086C6.39992 22.6457 5.87692 22.5787 5.35391 22.4973L5.35416 22.498ZM11.415 23.8287C11.415 23.8287 9.42694 24.3333 8.75552 24.5263C8.09535 24.7079 6.096 25.3163 6.096 25.3163L11.4148 23.8289L11.415 23.8287Z" fill="#CFB66C"/>
<path fill-rule="evenodd" clip-rule="evenodd" d="M11.4149 23.829C10.9736 23.9588 10.5347 24.085 10.087 24.2038L8.75909 24.5598C8.31775 24.6897 7.87885 24.8158 7.43874 24.9457L6.77856 25.1273C6.55973 25.1904 6.33722 25.2459 6.11105 25.3093C6.32964 25.2359 6.55239 25.1608 6.77123 25.0978L7.4314 24.8865C7.87274 24.7491 8.31164 24.6193 8.75175 24.4821C9.20043 24.3708 9.64201 24.252 10.0907 24.1444C10.5171 24.0368 10.966 23.9295 11.4149 23.8292V23.829ZM6.37439 26.5406C6.59298 26.4589 9.11534 25.2833 9.70143 25.0088C9.99484 24.8713 10.8477 24.5686 10.8477 24.5686L6.37439 26.5406Z" fill="#CFB66C"/>
<path fill-rule="evenodd" clip-rule="evenodd" d="M6.37427 26.5389C6.56694 26.4655 6.74886 26.3758 6.93419 26.2905L7.48312 26.0345L8.58487 25.5041C8.95164 25.3298 9.30813 25.1374 9.68639 24.9735C9.87931 24.8921 10.0722 24.8254 10.2649 24.7623L10.5583 24.6696C10.6583 24.6437 10.7512 24.6139 10.8517 24.588C10.485 24.7623 10.0989 24.9107 9.73162 25.0811C9.36486 25.263 8.98978 25.4115 8.61128 25.5745L7.49119 26.0677C7.11513 26.2201 6.74837 26.3831 6.37402 26.5389H6.37427ZM6.61878 27.5658C6.61878 27.5658 8.90347 26.2269 9.68981 25.7966C10.1016 25.5667 11.4332 24.9063 11.4332 24.9063L6.61878 27.5658Z" fill="#CFB66C"/>
<path fill-rule="evenodd" clip-rule="evenodd" d="M6.61887 27.5676C7.00446 27.3302 7.39763 27.0891 7.7908 26.8444L8.37762 26.4881C8.57787 26.3695 8.77079 26.2583 8.97496 26.1397C9.17521 26.0209 9.36813 25.9023 9.57205 25.791C9.66912 25.7311 9.77084 25.679 9.87622 25.6353L10.1877 25.4795C10.5995 25.2793 11.0112 25.0751 11.4452 24.9008C11.0521 25.1494 10.6476 25.3609 10.2435 25.5795C10.0432 25.6908 9.83905 25.791 9.6388 25.9023C9.43854 26.0135 9.24563 26.1324 9.04146 26.24C8.84121 26.3585 8.64829 26.4698 8.44437 26.5774L7.8397 26.9075L6.61935 27.5676H6.61887ZM11.4147 25.201C11.4147 25.201 9.99407 26.2915 9.53415 26.6402C9.07423 26.9889 7.72038 27.9681 7.72038 27.9681L11.4147 25.201Z" fill="#CFB66C"/>
<path fill-rule="evenodd" clip-rule="evenodd" d="M19.5678 33.9945L18.8409 32.6184L19.2636 30.8973L22.2791 29.7327L20.9957 27.0993L21.63 24.4398L22.8207 22.0583L26.5003 21.4798L29.2041 18.9019L35.0425 19.3432L36.1885 25.5858L33.9816 33.4455L32.7243 37.5147L27.6278 37.7076L25.2614 36.0682L22.4906 34.9106L19.5678 33.9945Z" fill="#E2CC85"/>
<path fill-rule="evenodd" clip-rule="evenodd" d="M28.507 33.9502C28.507 33.9502 27.802 34.273 26.5998 34.1986C26.2519 33.7314 23.8151 33.5126 23.8151 33.5126C23.8151 33.5126 23.5109 33.4199 22.973 33.6424C22.4316 33.8624 21.9196 33.8353 21.4411 33.9539C20.9626 34.0725 20.4876 33.4495 20.1208 33.3196C19.754 33.1825 19.2677 32.8524 19.2677 32.8524L18.2408 32.7521L16.1786 31.8805L12.9024 28.6165L12.0121 30.0102L11.7375 31.735L12.7281 33.7788L15.3949 36.2083L20.5951 37.5286L23.6774 36.6205L27.5387 34.9884L28.507 33.95V33.9502Z" fill="#F1D789"/>
<path fill-rule="evenodd" clip-rule="evenodd" d="M10.0317 22.4136L10.6919 20.4145L11.4784 19.1235L14.0116 18.912L13.2511 21.1302L11.1334 24.8988L12.0124 28.263L10.4547 29.0418L9.97593 28.3075L9.59034 26.6236L9.56442 24.7318L10.0317 22.4136Z" fill="#F4ECB4"/>
<path fill-rule="evenodd" clip-rule="evenodd" d="M12.8726 33.8131L12.3868 33.1344C12.3868 33.1344 12.257 32.8116 12.3313 32.5297C12.4046 32.2441 12.3941 32.2255 12.3572 32.1179C12.3203 32.0103 12.0085 31.6394 12.0271 31.3203C12.0455 30.9976 12.0012 30.89 12.2384 30.6342C12.4868 30.3858 12.4127 29.9555 12.4127 29.9555L12.7355 30.1557L12.8088 30.0445C12.8088 30.0445 12.9274 30.1372 12.9274 30.2819C12.9533 30.0817 12.8457 29.1542 13.0905 28.943C13.3352 28.7317 13.7692 29.9332 13.7692 29.9332L13.5022 28.1899L12.8159 26.4023L11.5956 24.7702L11.5222 22.9711V22.8153C11.5222 22.8153 10.962 23.676 10.8063 24.3557C10.695 24.823 10.962 25.3905 10.9065 26.0619C10.8618 26.7297 10.8063 26.6776 10.9694 26.9422C11.1325 27.2067 11.5295 27.7507 11.3738 28.1439C11.2366 28.4816 10.7691 28.2442 10.7691 28.2442C10.7691 28.2442 10.6764 28.5185 10.5503 28.6188C10.5058 28.4557 10.4576 28.3518 10.3686 28.252C10.361 28.3151 10.3427 28.4004 10.3427 28.4004C10.3427 28.4004 10.261 28.1444 10.1794 27.8217C10.0684 27.3916 9.94952 26.8241 9.84194 26.5199C9.79744 26.6942 9.68619 27.2246 9.68619 27.2246L9.74927 28.0407L10.0534 29.1608L10.3469 29.8944L10.6324 30.792L10.8806 31.3949L11.0809 31.8548L11.2552 32.8898L12.097 33.7799L12.546 33.9804L12.8721 33.8134L12.8726 33.8131Z" fill="#F3E19D"/>
<path fill-rule="evenodd" clip-rule="evenodd" d="M10.4726 20.7821C10.4726 20.7821 9.86788 21.8091 9.69379 22.8443C9.5197 23.8796 9.3637 24.9735 9.47373 26.3828C9.58498 27.8037 9.79648 28.6751 9.96715 29.2984C10.2606 30.3334 11.0205 31.7726 11.0205 31.7726L11.0464 31.7168C10.9187 31.4747 10.8167 31.2198 10.7422 30.9564C10.642 30.5632 10.6048 30.096 10.5122 29.8845C10.4305 29.6732 10.2933 29.4913 10.2266 29.2316C10.1635 28.9832 10.1532 28.59 9.95957 28.2971C9.87791 28.1783 9.77766 27.8668 9.74807 27.5553C9.71091 27.0878 9.76665 26.5648 9.72215 26.1347C9.64049 25.4187 9.58498 24.9329 9.65907 24.5581C9.73316 24.1832 10.1192 23.1191 10.3567 22.2734C10.5124 21.7318 10.4195 21.2755 10.7051 20.8044C10.9907 20.3371 11.1652 19.9254 11.2281 19.6398C11.3014 19.3801 10.4716 20.7821 10.4716 20.7821H10.4726Z" fill="#F2E8B0"/>
<path fill-rule="evenodd" clip-rule="evenodd" d="M13.34 20.3695C13.34 20.3695 13.0285 20.4624 12.8801 20.6255C12.7316 20.7813 12.6686 20.9111 12.4683 21.1745C12.2681 21.4378 12.2568 21.653 12.0935 21.983C11.9304 22.3058 11.5705 22.7916 11.526 22.966C11.4815 23.1403 11.4074 23.9562 11.3147 24.3421C11.233 24.7279 11.4074 25.2027 11.4074 25.2027L11.6186 25.158C11.6186 25.158 11.6186 25.4326 11.8301 25.6182C12.0414 25.7998 12.0786 25.0022 12.0786 25.0022L12.8686 22.3354L14.0591 21.5268L14.1889 20.874L13.3395 20.3695H13.34Z" fill="#F5EEC0"/>
<path fill-rule="evenodd" clip-rule="evenodd" d="M13.9188 21.5804C13.9188 21.5804 13.3586 21.6173 13.0843 21.8178C12.973 21.8993 12.9285 21.966 12.8099 22.0663C12.5911 22.2479 12.3684 22.4149 12.261 22.6531C12.1422 22.8902 12.0124 23.2502 11.9234 23.9289C11.8862 24.2145 11.8862 24.4778 11.8603 24.7079C11.8231 25.0194 11.7676 25.2679 11.7972 25.4415C11.8344 25.7975 12.2016 25.983 12.2373 26.3872L12.9977 26.0016L13.7136 23.1788L15.2345 22.2252L14.3738 21.2608L13.9178 21.5787L13.9188 21.5804Z" fill="#E6DB9D"/>
<path fill-rule="evenodd" clip-rule="evenodd" d="M9.90707 40.5874C9.91025 40.5595 9.91343 40.5317 9.91661 40.503C10.0276 39.5495 10.0464 38.8267 10.1279 38.3741C10.2465 37.7325 10.3281 37.4939 10.3095 37.2538C10.2836 36.8682 10.254 36.5863 10.2912 36.2894C10.3467 35.8963 10.7325 35.429 10.7215 35.1062C10.714 34.8502 10.5841 34.6835 10.4729 34.5277C10.3616 34.372 10.2726 34.2421 10.2726 34.2421C10.2726 34.2421 11.033 33.7191 11.0257 31.6122C11.0412 31.6166 11.0562 31.6228 11.0702 31.6308L11.4448 32.6951L11.7008 33.0066L12.6837 34.839L13.9486 36.0669L15.8178 37.3242L16.99 38.5998L17.1086 42.0012L15.5768 43.9893L15.3259 44.4436C13.3328 43.443 11.5052 42.1424 9.90683 40.5872L9.90707 40.5874Z" fill="#E5CB7A"/>
<path fill-rule="evenodd" clip-rule="evenodd" d="M14.5861 43.8434C14.5861 43.8434 14.612 43.4206 14.9607 43.1461C15.0164 43.2387 15.0533 43.328 15.0423 43.3945C15.1054 43.2835 15.5468 42.5712 16.5446 42.3856C17.5424 42.204 17.7835 41.477 17.7835 41.477L19.9012 39.552L22.3233 37.3228L25.2684 36.2878L26.6448 35.9502C26.6448 35.9502 26.6707 36.0504 26.6189 36.2729C26.8746 36.2546 27.4421 36.1247 28.0319 35.9169C28.2693 35.8242 28.4921 35.7871 28.6106 35.9096C28.785 36.0727 28.8109 36.4585 28.8219 36.6883C29.1075 36.6252 29.4376 36.3509 29.7021 36.3768C30.1251 36.4213 30.4997 36.9184 30.9301 36.9184C31.4976 36.9184 31.7533 36.5697 32.1504 36.2952C32.3878 36.1321 32.7289 35.9284 32.9218 35.7907C33.3817 35.4531 38.2482 33.9657 38.2482 33.9657L39.9544 34.077L40.229 35.9093L40.0823 40.6993C40.0642 40.7166 40.0461 40.7347 40.0278 40.7521L32.27 44.8038L21.5165 46.4523C19.1076 46.0588 16.7831 45.2592 14.6418 44.0877L14.5868 43.8432L14.5861 43.8434Z" fill="#D8C173"/>
<path fill-rule="evenodd" clip-rule="evenodd" d="M10.5593 41.1984C10.7121 40.8789 10.8495 40.6116 10.8737 40.516C10.8928 40.7087 10.9278 41.1314 10.9982 41.5809C10.8503 41.4552 10.704 41.3276 10.5593 41.1982V41.1984Z" fill="#F1D789"/>
<path fill-rule="evenodd" clip-rule="evenodd" d="M18.4144 45.7045L19.8052 45.3177L19.9238 45.3548C19.9238 45.3548 19.9868 45.392 19.9868 45.5179C20.1612 45.4179 20.3096 45.4363 20.4172 45.3697C20.4727 45.4883 20.5282 45.8815 20.7732 45.9297C21.0289 45.9854 21.3035 45.8184 21.5818 45.6072C21.8561 45.3883 22.1686 45.1137 22.405 45.0025C22.4918 45.162 22.5686 45.3267 22.6351 45.4957C22.9466 45.2472 23.4882 44.2384 24.2596 44.2567C24.4826 43.7298 24.8551 43.2798 25.3311 42.9623C26.047 42.4765 26.4957 42.4393 27.0558 42.4838C27.2783 42.1948 27.5525 41.9496 27.8644 41.7605C27.9571 41.7977 28.2131 41.9535 28.5322 41.805C28.8549 41.6569 29.2183 41.0818 29.6968 41.0077C29.9546 40.9722 30.2168 41.0273 30.4386 41.1635C30.4386 41.1635 31.8323 39.7798 32.794 39.3199C32.7568 39.2086 32.6827 38.7895 33.8102 37.8621C33.8732 37.9178 33.8287 38.0736 33.8732 38.0822C33.8916 38.0822 34.1667 37.9636 34.5148 37.6963C34.9452 37.3738 35.4606 37.0361 35.7721 36.9435C36.3589 36.7691 36.9814 37.1251 36.9814 37.1251C37.0344 37.088 37.0934 37.0604 37.1558 37.0435C37.304 37.0176 37.4115 36.999 37.4932 36.9701C37.4859 37.163 37.5935 37.4931 37.4932 37.7787C37.6093 37.844 37.7323 37.8963 37.86 37.9345C37.7971 38.0716 37.6597 38.4203 37.4299 38.5873C37.6225 38.68 37.6485 38.7876 37.9231 38.8807C37.8118 39.0365 37.6296 39.3037 37.5485 39.4675C37.4668 39.6419 37.1736 40.3651 37.0438 40.6395C36.9066 40.9141 36.7213 41.4185 36.632 41.5197C36.5428 41.6209 36.2203 42.05 35.9719 42.2613C36.1919 42.1796 37.0922 41.9053 37.4741 41.8014C37.3604 41.9681 36.7841 42.8232 36.2301 43.6455C33.5773 45.2355 30.616 46.2419 27.5437 46.5975C24.4714 46.9532 21.3586 46.65 18.4127 45.7081L18.4144 45.7045Z" fill="#E0CD81"/>
<path fill-rule="evenodd" clip-rule="evenodd" d="M14.0103 21.481C14.0103 21.481 13.6878 21.481 13.6247 21.5255C13.5616 21.57 13.9474 21.6629 14.066 21.7074C14.1846 21.7519 14.4406 21.9559 14.5074 22.1192C14.5704 22.2749 16.8256 23.1835 16.8256 23.1835L18.4205 23.1019L18.9704 22.3422L17.9244 21.426L18.6579 19.2636L17.6862 19.4193L15.3495 20.813L14.1773 21.2619L14.0103 21.481Z" fill="#DFC57C"/>
<path fill-rule="evenodd" clip-rule="evenodd" d="M17.5127 22.1966C17.5358 22.2339 17.5683 22.2645 17.6069 22.2853C17.6455 22.3061 17.6889 22.3164 17.7328 22.3151C18.0629 22.3151 18.3668 22.3968 18.493 22.5636C18.7045 22.8308 19.2906 23.6839 19.2906 23.6839L20.6926 24.1883L20.783 22.5374L19.2512 21.473L17.5078 22.1146V22.1963H17.5118L17.5127 22.1966Z" fill="#E5CC7C"/>
<path fill-rule="evenodd" clip-rule="evenodd" d="M17.2376 22.8079C17.2376 22.8079 17.4933 22.8264 17.8161 22.7076C18.1388 22.5888 18.6692 22.333 18.8993 22.4333C19.2218 22.5704 19.155 23.0008 19.5039 23.3869C19.7152 23.6243 20.101 23.6169 20.3199 23.8729C20.5387 24.1289 21.2915 24.0101 21.2915 24.0101L21.5771 25.5505L20.4311 27.0195L20.0563 28.8443H18.5066L17.0909 28.2827L16.3935 26.5956L16.7422 24.8894L17.2376 22.8079Z" fill="#D2C281"/>
<path fill-rule="evenodd" clip-rule="evenodd" d="M20.2355 22.8831C20.2739 22.895 20.3139 22.9012 20.3541 22.9017C20.3096 22.9389 20.2167 23.0203 20.2538 23.2318C20.291 23.4433 20.4096 23.7103 20.3096 23.8734C20.3894 23.9607 20.449 24.0646 20.4839 24.1776C20.547 24.3595 20.5656 24.5262 20.9771 24.5524C20.9177 24.589 20.863 24.6326 20.814 24.6822C20.814 24.6822 21.0996 24.9307 21.2443 25.1605C21.3925 25.1541 21.7857 25.0319 21.7857 25.0319L21.8674 25.0876L22.0417 25.0143C22.0417 25.0143 21.8786 24.9512 21.9972 24.5544C22.1084 24.2057 22.2087 24.2243 22.2173 24.1984C22.2258 24.1724 22.2989 23.8052 22.2989 23.6568C22.3544 23.4641 22.3989 22.878 22.3989 22.878L22.2803 21.5836L21.6128 21.1792L21.07 20.6552L20.558 21.6195L20.2208 21.9557L20.1949 22.7902L20.2355 22.8831Z" fill="#E2C270"/>
<path fill-rule="evenodd" clip-rule="evenodd" d="M21.8414 21.7985C21.8414 21.7985 21.96 22.1359 22.0048 22.3956C22.0205 22.3451 22.0293 22.2927 22.0307 22.2399C22.0307 22.2399 22.1233 22.7519 22.1417 22.9634C22.1789 22.9558 22.215 22.9448 22.2234 22.9817C22.2317 23.0186 22.3163 23.4306 22.2967 23.6605C22.4512 23.4056 22.6649 23.1919 22.9197 23.0375C23.0681 22.9445 23.2425 22.8445 23.4244 22.837C23.71 22.8296 23.9176 23.0189 24.2589 23.0189C25.0822 23.0189 25.8279 22.4142 26.3768 22.2289C26.781 22.0914 27.1297 21.9914 27.3744 21.7687C27.4933 21.6687 27.7048 21.4462 27.8974 21.1159C28.1534 20.6757 28.4204 20.2926 28.6877 20.2444C28.5668 20.2666 28.4438 20.2753 28.3209 20.2703C28.3209 20.2703 28.4026 20.1887 28.541 20.0774C28.6794 19.9662 28.8451 19.829 29.0823 19.829C29.5053 19.829 29.7166 19.8918 29.954 19.8918C30.1914 19.8845 30.3286 19.829 30.3286 19.829C30.3286 19.829 30.5773 20.0033 31.1372 20.0033C31.6973 20.0107 32.0719 20.0588 32.3651 20.085C32.6583 20.1112 33.641 20.0033 33.9229 20.0117C34.1067 20.0187 34.2871 20.0629 34.4535 20.1415L33.5446 17.5008L30.2799 14.6474L28.3363 16.0235L25.3465 19.0131L22.4534 20.085L21.8488 20.7638V21.7985H21.8414Z" fill="#CCB360"/>
<path fill-rule="evenodd" clip-rule="evenodd" d="M28.3327 20.2865C28.3327 20.2865 28.4144 20.2051 28.5513 20.0938C28.6882 19.9826 28.8557 19.8452 29.0929 19.8452C29.5156 19.8452 29.7271 19.9083 29.9646 19.9083C30.202 19.9009 30.3391 19.8452 30.3391 19.8452C30.3391 19.8452 30.5881 20.0193 31.1477 20.0193C31.7079 20.0266 32.0825 20.0748 32.3757 20.1007C32.6688 20.1266 33.6515 20.0193 33.9334 20.0273C34.1172 20.0343 34.2976 20.0784 34.4638 20.1572L34.052 18.9664L33.5738 18.0578L32.2087 16.5629C32.2087 16.5629 30.5705 15.5985 30.558 15.5912C30.5507 15.5839 29.9905 15.4354 29.9905 15.4354L28.5068 16.333L27.1605 19.8161L27.1346 20.5496L28.006 20.9614C28.2249 20.5946 28.4662 20.3012 28.6924 20.264C28.4882 20.2863 28.3325 20.2863 28.3325 20.2863L28.3327 20.2865Z" fill="#D5B457"/>
<path fill-rule="evenodd" clip-rule="evenodd" d="M28.3139 20.5339C28.184 20.5413 28.0767 20.5153 28.0469 20.4227C27.9356 20.1112 27.8466 20.0667 27.7535 20.0667C27.6603 20.0667 27.5346 20.2669 27.4601 20.2853C27.3855 20.3036 27.297 20.0554 27.297 20.0554L27.2153 20.0183C27.2153 20.0183 26.7368 20.3298 26.3994 20.697C26.062 21.0643 25.5091 21.6875 25.2607 21.7985C25.0123 21.9095 24.1589 21.9469 23.867 22.01C23.5751 22.0731 23.2513 22.2846 23.2068 22.3328C23.1623 22.381 23.3369 22.4328 23.3628 22.481C23.3887 22.5255 23.077 22.5069 23.0511 22.5543C23.0327 22.5915 23.1244 22.8027 23.1699 22.9103C23.2495 22.8707 23.3368 22.8492 23.4257 22.8472C23.7112 22.8399 23.9191 23.0291 24.2602 23.0291C25.0837 23.0291 25.8292 22.4245 26.3781 22.2389C26.7825 22.1017 27.1312 22.0015 27.3759 21.779C27.4945 21.679 27.706 21.4562 27.8989 21.1261C28.0398 20.9 28.1772 20.6885 28.3146 20.5327L28.3139 20.5339Z" fill="#D2B257"/>
<path fill-rule="evenodd" clip-rule="evenodd" d="M16.5045 38.8895C16.5045 38.8895 16.4311 38.6149 15.7514 37.9066C15.5585 37.7063 15.4399 37.5398 15.3101 37.4207C14.9873 37.1163 14.7981 37.0349 14.5682 36.8606C14.0638 36.486 13.5149 36.486 13.0921 36.026C12.6694 35.5661 12.1767 34.6874 11.8344 33.7893C11.4969 32.8917 11.404 32.6061 11.404 32.5802C11.404 32.5543 11.4969 32.3799 11.6155 32.4058C11.7341 32.4318 11.7341 32.6616 11.7639 32.7173C11.823 32.8083 11.89 32.8939 11.9642 32.9731C12.1385 33.1736 12.3869 33.4132 12.5131 33.7707C12.4872 33.4665 12.3833 33.1291 12.3833 33.1291C12.3833 33.1291 13.0361 33.5409 13.5924 33.9709C14.1525 34.4013 14.3824 34.5497 14.546 34.824C14.7095 35.0984 15.0949 35.8219 15.2795 36.0334C15.4641 36.2449 17.9935 37.0422 17.9935 37.0422L19.1968 37.9393L19.7941 39.2487L19.3266 39.9822L18.429 40.1751L16.9713 39.5223L16.5045 38.8892V38.8895Z" fill="#D2B159"/>
<path fill-rule="evenodd" clip-rule="evenodd" d="M13.2659 34.3801C13.2659 34.3801 13.5701 34.8659 14.3119 35.3259C14.9797 35.7303 16.0367 36.0975 16.979 36.3164C17.5204 36.4462 18.0619 36.5462 18.5478 36.5538C19.8571 36.5721 20.7584 36.1978 21.8751 36.0753C22.4797 36.0122 23.2216 35.964 23.993 35.7819C24.9833 35.5445 25.5694 35.2772 26.3669 34.9016C26.9455 34.6346 27.476 34.4344 27.9061 34.1784C28.5108 33.8224 28.9521 33.4255 29.4641 33.3069C29.4011 33.4813 29.3343 33.7928 28.8299 34.1155C29.0969 34.108 29.4641 34.0896 29.4641 34.0896C29.4641 34.0896 29.1081 34.3009 28.4812 34.7757C28.0954 35.0691 27.5836 35.5657 27.0606 35.8958C26.7229 36.1073 26.3557 36.2626 26.1146 36.3892C25.5278 36.712 25.2911 36.8751 24.9055 37.2695C25.0427 37.2621 25.0539 37.2695 25.0539 37.2695C25.0539 37.2695 24.5678 37.3325 24.2194 37.5179C24.1461 37.5179 24.0189 37.492 23.7964 37.555C23.6221 37.6106 23.392 37.737 23.1548 37.8035C22.8172 37.9037 22.7062 37.8592 22.7062 37.8592L22.7617 37.9705C22.7617 37.9705 22.3215 37.9629 22.1748 37.9778C22.2008 37.9851 22.1934 37.9964 22.1934 37.9964C22.1676 38.0007 22.1428 38.0095 22.1201 38.0223C22.0495 38.068 21.9718 38.1018 21.8902 38.1223C21.8457 38.1296 21.8086 38.1296 21.7528 38.1409C21.7714 38.1854 21.9161 38.4343 21.9829 38.581C21.9274 38.6182 21.0926 39.2488 21.0926 39.2488C21.1185 39.2895 21.1397 39.3331 21.1557 39.3786C21.1816 39.46 21.1929 39.5789 21.2188 39.6344C21.2816 39.7456 21.3188 39.7642 21.3188 39.7642C21.3188 39.7642 21.2188 39.7828 21.0442 39.8273C20.8961 39.8644 20.7141 39.9273 20.4574 39.9644C20.3786 39.9747 20.2994 39.9809 20.22 39.983C20.2571 40.0647 20.4202 40.3762 20.1197 40.7359C19.8192 41.0955 19.7266 41.1479 19.6339 41.3777C19.5872 41.3424 19.5376 41.3113 19.4855 41.2848C19.3855 41.2403 19.2481 41.1738 19.1999 41.0845C19.1718 41.2034 19.1346 41.32 19.0886 41.4332C18.996 41.6816 18.8588 41.9266 18.8329 42.112C18.7326 42.0007 18.5473 41.7819 18.2913 41.8264C18.0353 41.8709 17.8314 42.2196 17.7869 42.3198C17.7869 42.2567 17.7424 42.2085 17.7314 42.2826C17.7238 42.3643 17.583 43.2171 16.7966 43.9072C16.7893 43.7328 16.7893 43.347 16.7707 43.2211C16.6973 43.2944 16.6076 43.4027 16.0734 43.6328C15.5503 43.8627 15.6332 44.0927 15.6332 44.0927C15.6332 44.0927 15.5887 43.726 15.8707 43.3396C16.1562 42.9541 16.3306 42.7721 16.3306 42.7426C16.326 42.7124 16.3131 42.6842 16.2934 42.6609C16.2562 42.6237 16.1822 42.5792 16.1822 42.5496C16.2267 42.5313 16.668 42.3198 16.6421 41.8819C16.6162 41.489 16.4494 41.2848 16.3306 41.1403C16.3122 41.1217 16.5052 40.9845 16.479 40.94C16.4604 40.9141 16.2232 40.7395 16.1934 40.6466C16.2004 40.5912 16.2129 40.5365 16.2306 40.4835C16.2565 40.4019 16.2751 40.3461 16.2677 40.2906C16.2492 40.1979 16.1489 39.9419 16.1193 39.916C16.1452 39.9234 16.3306 39.916 16.3306 39.916C16.3306 39.916 16.1824 39.6786 16.1562 39.5674C16.1301 39.4561 16.0746 39.1629 16.045 39.1074C16.1081 39.1148 16.2638 39.1258 16.2638 39.1074C16.2714 39.0517 16.1267 38.959 16.1905 38.8874C16.235 38.8947 16.3203 38.9319 16.4017 39.0358C16.3572 38.917 16.2831 38.6871 16.1271 38.5945C16.2005 38.5685 16.4499 38.5015 16.6687 38.6314C16.8876 38.7612 16.9621 38.9429 16.9621 38.9429C16.9621 38.9429 17.092 39.0431 17.2925 39.1916C17.5223 39.3732 17.8152 39.6317 18.2827 39.8146C18.383 39.8703 18.6387 39.8703 18.8243 39.8331C18.9051 39.8139 18.9826 39.7827 19.0542 39.7405C19.08 39.7252 19.1074 39.7128 19.1358 39.7033C19.096 39.6233 19.0501 39.5464 18.9987 39.4732C19.0617 39.4732 19.1358 39.4808 19.1358 39.4808C19.1358 39.4808 19.1803 39.3806 18.9801 39.1874C19.0246 39.1429 19.0803 39.114 19.0803 39.039C19.0172 39.0316 18.906 38.939 18.8801 38.9018C18.917 38.8759 18.9727 38.7906 19.0358 38.7646C18.9801 38.7201 18.8429 38.5346 18.7798 38.5162C18.8401 38.4938 18.8984 38.4665 18.9542 38.4345C18.9542 38.4345 18.6427 38.3529 18.5424 38.2861C18.4422 38.2128 18.294 38.0859 18.205 38.0487C18.1121 38.0115 17.949 37.9932 17.8822 37.9189C17.9451 37.9375 18.0453 37.9189 18.1197 37.9189C18.1752 37.9189 18.2013 37.9262 18.2197 37.9262C18.2123 37.9003 18.2123 37.8445 18.3571 37.8262C18.4267 37.8157 18.4943 37.7944 18.5573 37.7631C18.5573 37.7631 18.4199 37.7558 18.2639 37.6074C18.1079 37.459 17.9783 37.3404 17.8893 37.3218C17.7967 37.3032 17.6223 37.3849 17.5147 37.3773C17.3663 37.359 17.3032 37.2846 17.3032 37.2846C17.3032 37.2846 16.8101 37.3291 15.7159 36.6616C14.7699 36.0829 14.3581 35.5711 14.3581 35.5711C14.2696 35.539 14.184 35.4992 14.1024 35.4523C13.7464 35.2669 13.2529 34.8811 13.2679 34.3764L13.2659 34.3801Z" fill="#C2A44D"/>
<path fill-rule="evenodd" clip-rule="evenodd" d="M26.9119 12.1175C26.9977 12.1454 27.074 12.1968 27.132 12.2659C27.3063 12.4662 27.4175 12.8444 27.0207 13.2489C27.1765 13.3044 27.2408 13.3222 27.3767 13.3044C27.2395 13.4677 26.928 13.8164 26.9095 14.1205C26.8909 14.369 27.0466 14.4433 27.0466 14.4433C27.0466 14.4433 26.8092 14.7176 26.7982 15.1768C26.9103 15.0504 27.033 14.9337 27.165 14.8281C27.4396 14.6093 27.8178 14.3609 28.0738 14.2051C28.0703 14.2704 28.0791 14.3358 28.0997 14.3978C28.0997 14.3978 28.578 14.0046 28.98 14.1792C29.1616 14.2609 29.08 14.5166 29.08 14.5166C29.08 14.5166 29.3286 14.424 29.503 14.5983C29.6773 14.7726 29.9238 15.2223 30.0502 15.3966C30.1057 15.4783 30.2504 15.634 30.3986 15.8751C30.601 16.2127 30.7701 16.5691 30.9033 16.9395C30.9106 16.7466 30.9588 16.4463 31.5079 16.6353C32.0569 16.8282 32.6799 17.2326 33.2029 18.029C33.7259 18.8254 33.8555 19.7244 34.1188 20.0668C34.3858 20.3968 34.6604 20.9458 34.679 21.1758C34.6976 21.4059 34.5973 22.1475 35.1462 24.1542C35.302 23.5312 35.5394 22.1475 35.5394 22.1475L35.6692 20.9272L35.8177 17.1512L31.8747 13.8755L28.7924 11.6388L26.7857 11.8317L26.9117 12.1173L26.9119 12.1175Z" fill="#CAA13E"/>
<path fill-rule="evenodd" clip-rule="evenodd" d="M34.2374 17.7361C34.2374 17.7361 34.1816 17.3694 33.2544 16.7459C32.327 16.1302 31.6038 16.1302 30.9363 15.6072C30.4243 15.1954 29.8902 14.2494 29.5426 13.9379C29.2049 13.6301 29.1494 12.7398 29.1494 12.7398L30.2881 11.7862L31.9815 9.33846L33.4131 7.76211L34.0992 8.7157L35.0528 9.83579L35.5832 12.0836L35.7761 15.3737L34.2357 17.7364L34.2374 17.7361Z" fill="#B59544"/>
<path fill-rule="evenodd" clip-rule="evenodd" d="M35.3839 21.681C35.4119 21.182 35.3503 20.6821 35.2019 20.2049C34.9574 19.4445 34.4232 18.0943 34.175 17.5886C34.0748 17.0285 34.1491 16.984 34.2567 16.9209C34.3643 16.8578 34.7687 16.6275 34.9902 15.8194C35.2117 15.0113 35.899 14.9849 35.899 14.9849L36.3218 14.6734L36.9636 16.2793L37.5236 17.7297L37.6979 18.8388L37.8277 19.7846L37.5236 21.7839L36.0215 23.1414L35.3836 21.681H35.3839Z" fill="#C89D3A"/>
<path fill-rule="evenodd" clip-rule="evenodd" d="M14.4235 43.9644V43.9233C14.4547 43.9038 14.4823 43.879 14.5049 43.85C14.5309 43.8128 14.5497 43.7683 14.568 43.7573C14.6052 43.7387 14.7795 43.6839 14.8722 43.7015C14.9649 43.7192 15.2099 43.8201 15.3397 43.8128C15.6067 43.8055 15.9182 43.6013 16.4116 43.6942C17.1535 43.8314 17.3278 44.3358 17.7581 44.6214C18.0515 44.8219 18.3552 44.7326 18.3997 44.7326H18.4997C18.5183 44.7326 18.6555 44.5769 18.7298 44.5845C18.8782 44.5918 18.8929 44.7143 18.9856 44.7216C19.2044 44.7476 19.6274 44.6104 19.8389 44.6661C19.9016 44.6858 19.9587 44.7203 20.0051 44.7667C20.0516 44.8132 20.0862 44.8702 20.1059 44.9329C20.1504 45.0701 20.1132 45.2444 20.0057 45.3446C19.7758 45.5559 19.557 45.7564 19.5125 45.9315C19.5691 45.9746 19.6234 46.0207 19.6753 46.0694C17.8401 45.6018 16.0743 44.8948 14.4235 43.9666V43.9644Z" fill="#CEB052"/>
<path fill-rule="evenodd" clip-rule="evenodd" d="M34.1745 36.5539C34.1745 36.5539 34.753 35.7825 34.9535 35.4003C35.1537 35.0064 34.3192 30.0184 34.3192 30.0184L35.9958 24.5253L35.9511 22.7374C35.9511 22.7374 36.0327 21.0867 36.2257 20.3708C36.4557 20.7826 37.1717 21.2797 37.3274 21.543C37.4008 21.0383 37.6499 19.974 37.613 18.839C37.7502 19.0502 38.0803 21.1757 38.0803 21.1757L38.4103 22.6073L38.8407 24.1282L39.3192 25.7344L39.6048 26.8435L39.7679 27.1105L39.9053 27.5777L40.0351 28.0824L40.4097 29.2656L40.6298 30.2373L40.8041 31.9992C40.842 32.1341 40.8693 32.2718 40.8858 32.4109C40.8931 32.6039 40.8598 32.7151 40.8598 32.7486C40.8598 32.7821 40.9229 33.1714 40.897 33.4645C40.8598 33.7579 40.8598 33.9875 40.6298 34.1981C40.3997 34.4086 40.2552 35.6668 40.2552 35.6668L39.8434 35.3925C39.8434 35.3925 39.9251 35.0177 39.7322 34.6766C39.5392 34.3355 39.1647 34.2648 38.9532 34.3206C38.7419 34.3651 38.3191 34.4316 38.1817 34.5504C38.0519 34.669 37.7331 35.0362 37.4399 35.2032C37.0731 35.4233 36.4755 35.4407 36.1567 35.5147C35.834 35.5881 35.4779 35.8082 35.1031 36.0637C34.8092 36.2539 34.4989 36.4176 34.1759 36.5527L34.1745 36.5539Z" fill="#CCA847"/>
<path fill-rule="evenodd" clip-rule="evenodd" d="M34.1745 44.6584C34.1745 44.6584 34.1989 44.6743 34.2461 44.7002C36.8813 43.4656 39.2425 41.7155 41.1902 39.5533C41.1689 38.8026 41.1413 38.0332 41.1109 37.7481C41.0481 37.1434 41.0926 36.5277 41.074 36.1717C41.0554 35.8157 40.8552 34.3653 40.7625 33.9907C40.6623 33.6161 40.4691 33.4305 40.4398 33.4305C40.4139 33.4381 40.2579 34.1355 40.2579 34.3108C40.2579 34.4861 40.2207 34.9081 40.2207 35.0157C40.1948 35.0081 40.1838 34.9423 40.1838 34.9154C40.1466 35.0081 40.1021 35.1714 40.0835 35.19C40.0649 35.2086 40.1094 35.0343 40.0835 34.9971C40.0576 34.9599 40.0102 34.9785 40.0204 34.8858C40.0248 34.8309 40.0335 34.7764 40.0464 34.7228C40.0464 34.7228 39.9351 34.8859 39.8537 35.3013C39.772 35.713 39.772 35.7243 39.7424 35.7612C39.7165 35.8059 39.5681 35.9541 39.5605 36.0099C39.5532 36.1099 39.6979 36.2101 39.7089 36.2656C39.7163 36.3585 39.5791 36.7886 39.5346 36.9991C39.4901 37.2097 39.5087 37.6222 39.4612 37.8337C39.4241 38.0266 39.3879 38.1378 39.261 38.2192C39.3537 38.2378 39.4427 38.2637 39.4427 38.2637C39.4427 38.2637 39.5725 38.8127 39.2424 39.2802C39.1238 39.4433 39.0942 39.5176 38.9681 39.666C38.7194 39.9403 38.5265 40.2528 38.5079 40.456C38.4951 40.396 38.4864 40.3353 38.482 40.2741C38.482 40.2741 38.0964 40.723 37.9331 40.979C37.7218 41.3091 37.4286 41.2905 37.3462 41.3722C37.2638 41.4539 37.246 41.602 37.2729 41.7209C37.1995 41.7392 37.0616 41.7654 36.9687 42.0509C36.9242 42.1991 36.813 42.3444 36.6386 42.4441C36.4643 42.5439 36.2528 42.5739 36.1452 42.5999C36.2379 42.6258 36.275 42.6258 36.3195 42.6554C36.264 42.748 36.008 42.8928 35.7225 43.0784C35.4369 43.2527 35.2995 43.5085 35.229 43.6755C35.1557 43.8312 35.0474 43.9315 34.873 43.95C34.9464 43.9945 35.0549 44.0982 35.1104 44.1317C35.0288 44.1503 34.8904 44.1503 34.6432 44.3618C34.3835 44.577 34.2945 44.6401 34.1757 44.6586L34.1745 44.6584Z" fill="#C39D3C"/>
<path fill-rule="evenodd" clip-rule="evenodd" d="M29.0133 46.3764C29.1553 46.2768 29.3091 46.1953 29.4712 46.1336C30.0497 45.9037 30.6618 45.8592 30.9028 45.7852C31.1329 45.7118 31.3146 45.6106 31.6002 45.5551C31.5926 45.6201 31.5862 45.6812 31.5794 45.7389C30.7374 46.0036 29.88 46.2165 29.0121 46.3764H29.0133Z" fill="#D2BA6B"/>
<path fill-rule="evenodd" clip-rule="evenodd" d="M39.6837 31.1609C39.6837 31.1609 39.5651 31.8025 39.3536 32.2069C39.1421 32.6113 38.9135 33.1713 38.9135 33.1713C38.9149 33.0451 38.9298 32.9194 38.958 32.7964C38.691 32.9522 38.0418 33.327 37.8577 33.4938C37.6833 33.6495 37.3902 33.9241 37.3161 34.0539C37.4904 33.5422 37.6721 33.0823 37.7019 32.8708C37.4349 33.0637 36.1884 34.0911 35.5395 34.7699L33.5179 36.4056C33.2846 36.5315 33.0444 36.644 32.7983 36.7426C32.4499 36.8907 32.0381 37.0169 31.7339 37.1357C31.8156 36.9169 31.9452 36.7237 32.1271 36.5384C32.32 36.3567 32.8985 35.7298 32.9875 35.4381C33.0692 35.1339 33.0878 34.9523 32.9802 34.6963C32.88 34.7222 32.6501 34.7334 32.4944 34.7779C32.3386 34.8224 32.1716 34.9892 32.1716 34.9892C32.1716 34.9892 32.2902 34.3104 32.5462 33.6688C32.3533 33.6762 32.0232 33.7317 32.0232 33.7317C32.0232 33.7317 32.4831 32.9602 33.2702 32.4226C33.0292 32.4739 32.7933 32.547 32.5655 32.6412C32.1056 32.8341 31.6012 33.1197 31.2266 33.2754C31.4378 32.982 32.9215 30.8646 33.8045 28.8911C34.6847 26.9216 35.0136 26.4172 35.2065 25.3602C35.3065 24.8372 35.2798 24.0643 35.3065 23.3721C35.3324 22.6857 35.4177 22.0701 35.3622 21.6583C35.5921 21.9439 36.4527 22.7488 36.4823 24.5479C36.5082 26.3468 35.6591 28.7765 34.7576 30.0856C34.9776 30.1486 35.5478 30.223 36.1336 29.2053C36.7195 28.1877 36.7124 27.9036 36.9239 27.4806C36.9498 27.6921 36.9422 27.7661 36.9422 27.7661C36.9422 27.7661 37.7956 26.7314 38.1998 25.4294C38.2814 25.9895 38.5225 26.483 38.144 27.5104C37.8066 28.4376 37.3652 28.664 37.3652 28.664C37.3652 28.664 37.5841 28.6268 37.9066 28.4339C37.9623 28.5711 37.9513 28.7273 38.044 28.7826C38.1367 28.8378 38.2628 28.931 38.2814 29.02C38.3814 28.8716 38.5372 28.6823 38.5856 28.5415C38.5484 28.8349 38.5225 30.1178 38.6589 30.7707C38.9448 30.7447 39.2377 30.7262 39.4379 30.2105C39.3008 30.7152 39.3008 31.0191 39.3934 31.4494C39.5455 31.3458 39.6827 31.1602 39.6827 31.1602L39.6837 31.1609Z" fill="#C0993A"/>
<path fill-rule="evenodd" clip-rule="evenodd" d="M30.0462 10.7143C30.0462 10.7143 29.7606 10.8329 29.2748 10.8329C28.852 10.8329 28.9706 10.6698 28.3104 10.6698C27.2943 10.6698 23.7445 11.2566 23.1212 11.2483C22.7168 11.241 24.4861 11.4227 24.4861 11.4227L29.0078 11.4858L29.9164 11.4124L30.254 10.7253L30.0462 10.7143Z" fill="#A88F33"/>
<path fill-rule="evenodd" clip-rule="evenodd" d="M18.3213 19.5553C18.3213 19.5553 17.7426 19.9967 17.4978 20.3343C17.2531 20.672 17.1233 20.8943 16.845 21.1688C16.9103 21.1713 16.9756 21.1626 17.0379 21.1429C17.0379 21.1429 17.0379 21.2163 16.9934 21.2356C17.0319 21.2313 17.0708 21.2357 17.1074 21.2483C17.1439 21.261 17.1772 21.2817 17.2047 21.309C17.123 21.3535 16.9005 21.5762 17.0748 21.8395C17.2047 22.0398 17.4793 22.0581 17.4793 22.0581C17.4793 22.0581 17.4162 22.24 17.6795 22.2215C18.247 22.1955 18.8813 21.9469 19.1742 22.01C19.4676 22.0833 19.6344 22.1102 19.8419 22.4701C20.062 22.8261 20.2537 22.8819 20.2537 22.8819C20.2537 22.8819 20.3835 22.5515 20.354 22.0584C20.4604 21.7925 20.5194 21.5101 20.5283 21.2239L20.3354 19.8033L19.4935 18.7387L18.403 19.3433L18.3213 19.5546V19.5553Z" fill="#E3C571"/>
<path fill-rule="evenodd" clip-rule="evenodd" d="M19.3563 19.3438C19.3563 19.3438 19.438 19.5367 19.7793 19.5551C19.7421 19.6368 19.7421 19.648 19.7534 19.7108C19.7607 19.7739 19.7717 19.8666 19.7717 19.8666C19.8093 19.8484 19.8433 19.8236 19.872 19.7932C19.8905 19.8749 19.8534 20.0045 19.872 20.0974C19.8834 20.1539 19.9021 20.2087 19.9275 20.2605C19.9329 20.2478 19.9391 20.2355 19.946 20.2236C19.9534 20.205 20.0194 20.4238 20.202 20.5903C20.2019 20.5647 20.2082 20.5395 20.2204 20.517C20.2232 20.5635 20.2386 20.6084 20.2649 20.6468C20.2512 20.6403 20.2387 20.6315 20.228 20.6209C20.228 20.6209 20.2463 21.2077 20.3466 21.5112C20.3633 21.4916 20.3782 21.4704 20.3911 21.4481C20.3911 21.4297 20.3837 21.6114 20.3651 21.7415C20.3392 21.8713 20.3578 22.053 20.3578 22.053C20.4247 22.0003 20.4982 21.9567 20.5764 21.9232C20.6876 21.8784 20.8698 21.7412 20.9808 21.4371C21.0452 21.2648 21.0949 21.0874 21.1292 20.9067C21.1651 20.9758 21.1898 21.05 21.2026 21.1268C21.2102 21.2195 21.3845 21.1713 21.3845 21.1713L21.4217 20.7669L21.6417 19.8507L21.842 19.2832L22.8063 17.7812L24.5487 16.4393L26.0695 16.788L27.3527 15.0446L25.1421 13.7167L23.0501 13.9355L21.1515 16.5652L19.6309 18.9504L19.3563 19.3436V19.3438Z" fill="#D8B65B"/>
<path fill-rule="evenodd" clip-rule="evenodd" d="M30.3131 15.5368C30.3131 15.5368 30.1833 15.5627 29.8087 15.7569C29.4341 15.951 29.1744 16.0126 29.0297 16.2982C28.8849 16.5838 28.8739 16.8102 28.8739 16.8102C28.8739 16.8102 29.1299 16.699 29.2784 16.6618C29.4341 16.6249 29.6084 16.6359 29.5899 16.699C29.572 16.7422 29.5473 16.7823 29.5165 16.8176C29.5165 16.8176 29.8099 16.8102 29.8021 16.955C29.7943 17.0997 29.7466 17.2591 29.6911 17.3296C29.6353 17.4029 29.4055 17.5115 29.3796 17.5968C29.3165 17.7711 29.4055 17.7785 29.372 17.9193C29.3461 18.0567 29.2238 18.3237 28.8231 18.791C28.4113 19.2585 28.2363 19.5886 28.2363 19.5886C28.2363 19.5886 28.036 19.214 27.9321 18.8912C27.8587 18.9282 27.4648 19.147 27.4648 19.147L26.5523 15.9684L26.5707 15.7569C26.5707 15.7569 26.6523 15.6569 26.6709 15.4713C26.5337 15.4268 26.5152 15.3896 26.3332 15.2155C26.1513 15.0414 26.0032 14.8297 25.6992 14.685C25.6547 14.6033 25.599 14.4923 25.3765 14.4475C25.154 14.4028 25.0205 14.3661 25.0205 14.3661C25.0205 14.3661 25.1391 14.3214 25.1948 14.2287C25.0574 14.2473 24.9464 14.2918 24.6459 14.2844C24.3417 14.2769 24.3082 14.2659 24.1415 14.2918C23.9747 14.3177 23.7747 14.392 23.7001 14.136C23.6185 14.0729 23.4441 14.1287 23.2957 14.3473C23.1473 14.5659 23.0955 14.7405 22.8099 14.8258C22.7898 14.9517 22.7457 15.0725 22.68 15.1818C22.5984 15.3192 22.4685 15.4564 22.2942 15.6603C22.0196 15.9831 22.0641 16.5134 21.6264 16.9178C21.1851 17.322 21.6998 15.7975 21.6998 15.7975L22.4045 14.1104L24.4112 12.1482L27.5269 11.9369L27.8311 13.5507L29.352 14.0737L30.3126 15.5388L30.3131 15.5368Z" fill="#D3AE4D"/>
<path fill-rule="evenodd" clip-rule="evenodd" d="M30.8069 15.8939L29.4975 14.006L28.5814 13.3011C28.5814 13.3011 27.9285 12.0996 27.884 12.0624C27.8469 12.0365 27.2312 11.9698 26.838 11.9438L26.9114 12.1255C26.9972 12.1534 27.0734 12.2048 27.1314 12.2739C27.3058 12.4742 27.417 12.8524 27.0202 13.2569C27.1759 13.3124 27.2402 13.3302 27.3762 13.3124C27.239 13.4757 26.9275 13.8244 26.9089 14.1285C26.8903 14.377 27.0461 14.451 27.0461 14.451C27.0461 14.451 26.8087 14.7256 26.7977 15.1846C26.9098 15.0581 27.0325 14.9415 27.1644 14.8359C27.439 14.6158 27.8173 14.3684 28.0733 14.2126C28.0698 14.278 28.0786 14.3434 28.0992 14.4056C28.0992 14.4056 28.5774 14.0124 28.9794 14.1867C29.1611 14.2684 29.0794 14.5244 29.0794 14.5244C29.0794 14.5244 29.3281 14.4317 29.5024 14.6061C29.6768 14.7804 29.9252 15.2291 30.0514 15.4037C30.1069 15.4853 30.2516 15.6411 30.3998 15.8819C30.6023 16.2195 30.7713 16.5761 30.9044 16.9465C30.9118 16.7981 30.9416 16.5905 31.1979 16.5905L30.8084 15.8932L30.8069 15.8939Z" fill="#CAA13E"/>
<path fill-rule="evenodd" clip-rule="evenodd" d="M11.1778 21.2571C11.1778 21.2571 11.0851 21.027 11.1778 20.5783C11.2705 20.1296 11.4152 19.9181 11.4634 19.258C11.5115 18.5978 11.9419 17.7743 11.9419 17.7743L13.1324 17.2329L13.9745 17.4628L14.2229 18.5904L13.1583 19.1773C13.1583 19.1773 13.1028 19.4257 12.8023 19.6259C12.5018 19.8262 12.0864 19.9819 11.9864 20.1861C11.9266 20.3111 11.883 20.4433 11.8565 20.5793C11.8565 20.5793 11.5524 20.5162 11.3707 20.7165C11.1778 20.9206 11.1851 21.1023 11.1778 21.258V21.2571Z" fill="#F4EFC8"/>
<path fill-rule="evenodd" clip-rule="evenodd" d="M13.5811 20.9568C13.5811 20.9568 13.4809 21.0199 13.4068 21.1769C13.3334 21.0583 13.1581 20.3534 13.1508 19.7191C13.1434 19.0849 13.1055 18.9277 13.2522 18.7091C13.3989 18.4905 13.9743 18.2602 13.8926 17.8665C13.8109 17.4919 13.4696 17.3362 13.0505 17.4437C12.7571 17.5171 12.5388 18.1411 12.2346 18.4526C12.0045 18.69 11.7302 18.6528 11.6561 18.7827C11.5558 18.957 11.6485 19.1313 11.6189 19.2426C11.6113 19.2798 11.5187 19.48 11.3517 19.7211C11.0142 20.2069 10.4431 20.8933 10.3687 21.509C10.3947 21.1603 10.3763 21.1529 10.469 20.7671L10.4132 20.6744L10.78 19.4727L11.0174 18.4824L11.548 16.8242L12.4825 15.1292L13.3914 14.1128L14.3371 14.1759L14.4484 15.5965L14.99 18.2636L16.1286 19.6656L14.3036 20.8938L13.5804 20.9568H13.5811Z" fill="#EBCC73"/>
<path fill-rule="evenodd" clip-rule="evenodd" d="M14.1487 21.4597C14.1487 21.4597 13.993 21.4968 13.9372 21.4672C13.8815 21.4377 13.8262 21.4042 13.8446 21.367C13.8629 21.3298 13.9631 21.267 13.9631 21.2372C13.9652 21.2102 13.9567 21.1835 13.9394 21.1627C13.9221 21.142 13.8974 21.1288 13.8705 21.1259C13.7851 21.1149 13.7592 21.1704 13.7592 21.1704C13.7592 21.1704 13.6776 21.1076 13.6111 21.0971C13.6504 21.0922 13.69 21.0897 13.7296 21.0895C13.6271 21.043 13.5184 21.0118 13.4069 20.9968C13.4996 20.9413 13.6815 20.778 13.8001 20.778C13.9186 20.778 13.993 20.7596 13.9744 20.6966C13.9558 20.6335 13.8631 20.5408 13.7631 20.5036C13.8001 20.4591 13.8262 20.3924 13.7372 20.2102C13.6443 20.0286 13.6815 19.9061 13.7113 19.8618C13.7372 19.8061 13.8299 19.706 13.8744 19.643C13.9189 19.5799 13.9561 19.4945 14.0301 19.45C14.0673 19.4241 14.1859 19.3767 14.3047 19.3315C14.4346 19.287 14.5421 19.2312 14.6162 19.287C14.6979 19.3425 14.6607 19.4168 14.6607 19.4168C14.6607 19.4168 14.9167 19.3239 15.1466 19.4427C15.3767 19.5537 15.9368 19.6244 15.9368 19.6244L16.1376 20.0288L14.8096 21.1675L14.2607 21.4421L14.1495 21.4604L14.1487 21.4597Z" fill="#E5C66B"/>
<path fill-rule="evenodd" clip-rule="evenodd" d="M15.992 19.5991C15.992 19.5991 15.5802 19.8737 15.4876 19.9737C15.5431 19.9812 15.6357 20.0184 15.5986 20.0739C15.5541 20.1294 15.2871 20.3223 15.1387 20.5043C14.9829 20.6859 14.8345 20.916 14.7826 21.0273C14.7271 21.1273 14.3041 21.4204 14.1596 21.4574C14.4638 21.4574 15.0758 21.0828 15.3057 21.0828C15.2983 21.194 15.3687 21.3202 15.4986 21.3312C15.6284 21.3422 16.003 21.4129 16.5074 21.1013C17.0118 20.7972 16.8451 20.5708 17.0563 20.4226C17.4608 20.1553 17.6238 19.9179 17.8463 19.7697C18.0688 19.6216 18.184 19.5878 18.184 19.5878C18.184 19.5878 18.1913 19.4766 18.2574 19.4878C18.2754 19.4899 18.2926 19.4969 18.307 19.508C18.3214 19.5191 18.3325 19.534 18.339 19.5509C18.339 19.5509 18.7249 19.2763 19.2193 19.2022C19.2077 19.1971 19.1985 19.1879 19.1933 19.1763C19.1933 19.1763 19.2303 19.1577 19.2378 19.1392C19.2378 19.1392 19.2638 19.102 19.2823 19.1206C19.3009 19.1392 19.3268 19.2763 19.364 19.3321C19.4457 19.2949 19.6014 18.9462 19.6014 18.9462L19.9763 17.8743V16.8951L19.6829 16.9508L17.4823 17.8853L16.1468 19.269L15.991 19.5991H15.992Z" fill="#E6BD62"/>
<path fill-rule="evenodd" clip-rule="evenodd" d="M22.3272 14.7951C22.4462 14.7662 22.5604 14.7199 22.6659 14.6576C22.6214 14.7765 22.6214 14.9063 22.4284 15.1882C22.2355 15.4701 22.2282 15.511 22.0724 15.8039C21.9167 16.1081 21.8981 16.5457 21.7497 16.7384C21.8162 16.7061 21.8876 16.6849 21.9609 16.6756C21.9609 16.6756 21.8128 16.8054 21.7497 16.9426C21.6866 17.0798 21.5753 17.3653 21.301 17.5399C21.0267 17.7145 20.6778 17.8255 20.3032 18.2373C19.9283 18.6414 19.5427 19.1534 19.3496 19.3375C19.4498 19.1632 19.587 18.8145 19.6242 18.5847C19.6613 18.3549 19.6166 18.08 19.6797 17.7761C19.7427 17.4722 19.7427 17.2531 20.0464 16.7225C20.3501 16.1919 20.8699 14.3486 20.8699 14.3486L21.99 13.9926L22.3277 14.7938L22.3272 14.7951Z" fill="#B6933F"/>
<path fill-rule="evenodd" clip-rule="evenodd" d="M21.5188 14.1174C21.5188 14.1174 21.1814 14.6032 21.0887 15.0335C20.996 15.4639 21.0811 15.4267 21.0256 15.6382C20.9924 15.7672 20.9924 15.9024 21.0256 16.0314C21.1425 15.8431 21.3025 15.6854 21.4924 15.5712C21.8115 15.3785 22.0712 15.2411 22.2259 15.078C22.3817 14.9037 22.5115 14.6181 22.8489 14.3993C22.7118 14.3807 22.5188 14.3176 22.4822 14.3259C22.6196 14.1702 23.0311 13.9328 23.4465 13.6472C23.8583 13.3538 23.8324 13.2354 24.5001 12.9425C24.2813 12.9797 24.1774 12.9239 23.9954 12.9425C24.0688 12.7867 24.3255 12.7124 24.5823 12.4567C24.839 12.2009 24.4192 11.8224 24.4192 11.8224L22.4631 13.0056L21.5173 14.1183L21.5188 14.1174Z" fill="#C49937"/>
<path fill-rule="evenodd" clip-rule="evenodd" d="M16.2105 13.2332L16.255 12.8772L16.8152 11.9796L17.4013 10.4033V8.24818L17.3568 7.00192L17.4495 6.18575L17.5199 5.92632L17.5942 5.82607L18.0725 6.0745L18.7329 6.97209L18.796 8.70444L18.1541 11.438L16.3218 13.4374L16.2105 13.2332Z" fill="#DFC068"/>
<path fill-rule="evenodd" clip-rule="evenodd" d="M17.6687 5.72785C17.6687 5.72785 17.3753 5.73543 17.3127 6.95577C17.2501 8.17612 17.2198 8.81771 17.1753 9.42238C17.1308 10.027 17.0271 10.3941 16.975 10.7503C16.9229 11.1066 16.8933 11.5922 16.7266 11.889C16.6532 12.0262 16.4965 12.4565 16.1292 12.7792C15.7175 13.1352 15.1023 13.3839 15.0091 13.4025C14.8458 13.4394 14.0186 13.5211 13.6812 13.7067C13.5626 13.7698 13.3585 13.8438 13.1323 14.0553C12.6834 14.4595 12.0863 15.1828 11.656 16.0544C10.9958 17.3565 10.3356 21.0322 10.3356 21.0322L10.484 20.7837C10.484 20.7837 10.5026 20.4537 10.8327 19.8749C11.1554 19.2964 11.0628 18.6472 11.5114 17.5381C11.6858 17.1154 11.9046 16.5664 12.1716 16.0989C12.5946 15.3385 13.1064 14.6857 13.622 14.3297C14.4639 13.7512 15.3913 13.625 15.3913 13.625L16.3892 12.9648C16.3892 12.9648 16.5635 12.6274 16.7936 12.2416C17.1161 11.7002 17.5271 11.0956 17.6168 10.2165C17.7543 8.91453 17.4239 8.06144 17.4425 7.29001C17.4611 6.51859 17.4684 5.95108 17.6244 5.81367C17.7804 5.67625 17.6689 5.72834 17.6689 5.72834L17.6687 5.72785Z" fill="#A88F33"/>
<path fill-rule="evenodd" clip-rule="evenodd" d="M17.6688 11.5502C17.6688 11.5502 18.1089 10.467 18.3104 9.50634C18.3475 9.31343 18.4216 9.12075 18.4402 8.965C18.5329 8.05616 18.5588 7.68157 18.4402 7.18448C18.3475 6.81772 17.9915 6.48715 17.806 6.2309C17.6243 5.96365 17.539 5.86414 17.5761 5.8079C17.6133 5.75166 17.7578 5.65973 17.8986 5.67073C18.0483 5.67509 18.1956 5.70985 18.3314 5.7729C18.4673 5.83595 18.5889 5.92597 18.6889 6.03749C18.9745 6.36758 19.2006 7.48792 19.2006 7.48792L19.4385 8.96622L20.0432 10.8282L17.6693 11.5517L17.6688 11.5502Z" fill="#C99E3D"/>
<path fill-rule="evenodd" clip-rule="evenodd" d="M21.8041 10.4231C21.8041 10.4231 21.7225 10.46 21.5743 10.4231C21.5806 10.4836 21.5701 10.5447 21.5439 10.5997C21.5177 10.6547 21.4769 10.7013 21.4259 10.7346C21.2701 10.6715 19.8121 10.7977 19.8121 10.7977C19.8121 10.7977 19.1334 10.6788 18.9219 9.78124C18.7737 9.1839 19.0331 8.36064 18.9478 7.81905C18.8179 7.02146 18.6363 6.86546 18.6177 6.61729C18.5991 6.36911 18.5805 6.30578 18.5805 6.15003C18.4989 6.13145 18.4507 6.10553 18.3693 6.10553C18.3507 6.03218 18.3876 5.96812 18.3062 5.83828C18.3507 5.85686 18.6549 5.89403 19.0109 6.23145C19.3043 6.50604 19.3043 6.60604 19.3485 6.66179C19.404 6.71729 19.8529 7.1019 20.0459 7.4853C20.2388 7.86869 20.6134 9.09123 20.6987 9.29148C20.7246 9.37315 20.7804 9.45482 20.9188 9.64015C21.1339 9.9074 21.4491 10.3492 21.8051 10.4226L21.8041 10.4231Z" fill="#B58634"/>
<path fill-rule="evenodd" clip-rule="evenodd" d="M19.4006 6.68C19.6253 7.04298 19.8272 7.4196 20.0051 7.80768C20.2239 8.30085 20.3537 8.70527 20.6283 9.03536C20.4799 8.60526 20.2166 7.75951 20.0608 7.45901C19.8865 7.14114 19.5305 6.79883 19.4006 6.68024V6.68Z" fill="#A88F33"/>
<path fill-rule="evenodd" clip-rule="evenodd" d="M16.8787 12.777C16.8787 12.777 16.5041 12.8697 15.8068 13.2369C15.5767 13.3555 15.3581 13.4555 15.1466 13.5484C14.5972 13.7969 14.0079 14.0264 13.5404 14.1531C13.5776 14.1976 13.5959 14.2159 13.5959 14.2159C13.5959 14.2159 13.5959 14.3979 13.6961 14.5015C13.6406 14.5573 12.8986 15.0617 13.1176 16.7493C13.2658 16.6938 13.4401 16.6195 13.4661 16.6195C13.5108 16.627 13.5218 16.7493 13.5773 16.7493C13.6328 16.7493 13.8147 16.6759 14.0077 16.4265C14.0003 16.5268 13.8891 17.5356 14.4862 18.2144C14.5974 18.0846 14.8793 17.6542 14.8793 17.6542L14.8867 17.5171C14.8867 17.5171 14.9126 17.0386 15.0686 16.6009C15.2246 16.1632 15.5285 15.8405 15.5285 15.8405L17.1156 13.5741L16.8782 12.7768L16.8787 12.777Z" fill="#E6C367"/>
<path fill-rule="evenodd" clip-rule="evenodd" d="M15.3949 16.1057C15.3222 16.157 15.2421 16.197 15.1574 16.2243C15.1315 16.1316 15.0944 15.8125 15.3132 15.501C15.5692 15.1262 16.1291 14.6403 16.2849 14.254C16.3851 14.0053 16.3406 13.3823 17.2309 12.5847C18.1211 11.7871 18.4696 11.5128 18.4696 11.5128L19.9087 10.7896L21.678 11.4869L20.799 14.932L20.1166 16.5458L17.4025 16.034L15.3946 16.1057H15.3949Z" fill="#DCBA5A"/>
<path fill-rule="evenodd" clip-rule="evenodd" d="M16.4309 15.1704L16.7686 14.7476V14.4471C16.7686 14.4471 17.1432 14.3468 17.5474 13.9351C17.9515 13.5233 18.5117 12.7333 19.0051 12.7815C19.4986 12.8373 19.5467 13.8534 19.5653 14.1393C19.5839 14.4251 19.647 15.0738 19.747 15.4227C19.8582 15.7714 18.5452 17.0917 18.5452 17.0917L17.6535 17.7705L16.4309 15.1704Z" fill="#E9CE77"/>
<path fill-rule="evenodd" clip-rule="evenodd" d="M17.4758 18.6912C17.4758 18.6912 17.7504 18.2609 17.5492 18.1682C17.6677 17.9012 17.8866 17.6193 17.8866 17.6193C17.8866 17.6193 18.0423 17.2337 18.5468 16.7589C19.0512 16.284 19.3629 15.9686 19.4446 15.6498C19.4949 15.442 19.5223 15.2293 19.5263 15.0155C19.5808 15.0601 19.6391 15.0998 19.7006 15.1341C19.7823 15.1713 20.1678 15.4901 20.1123 16.132C20.0568 16.7738 19.8189 17.0408 19.8189 17.0408C19.8189 17.0408 19.5891 17.2706 19.426 17.3895C19.2514 17.5081 19.1886 17.6452 18.8954 17.6565C18.9256 17.6325 18.9594 17.6137 18.9957 17.6007C18.9957 17.6007 18.6915 17.5638 18.5282 17.712C18.3648 17.8601 18.0176 18.3166 17.8433 18.4541C17.669 18.5653 17.4765 18.6915 17.4765 18.6915L17.4758 18.6912Z" fill="#CDAE50"/>
<path fill-rule="evenodd" clip-rule="evenodd" d="M29.8087 11.4744C29.3705 11.3147 28.9099 11.2246 28.4438 11.2074C27.6648 11.1815 26.5262 11.226 25.4097 11.2333C24.208 11.2407 23.1175 10.8216 21.6042 10.7475C21.3558 10.5991 20.7239 9.9499 18.7517 11.326C18.8703 11.3187 20.1836 11.0218 20.6396 11.5932C21.0995 12.1608 20.9697 13.1251 20.9068 13.3549C20.788 13.8669 20.4022 14.6124 20.2467 15.1354C20.0912 15.6585 20.1278 15.9333 20.0166 16.3C19.9053 16.6668 19.6606 16.849 19.8051 17.2717C19.998 17.1531 20.0985 17.1531 20.4208 16.4299C20.743 15.7066 20.6768 15.191 21.211 14.5789C21.734 13.9633 22.6047 13.1212 22.9358 12.9097C23.2668 12.6982 25.8956 11.3333 28.648 12.6353C29.3118 12.5649 29.8089 11.4742 29.8089 11.4742L29.8087 11.4744Z" fill="#D2A83E"/>
<path fill-rule="evenodd" clip-rule="evenodd" d="M19.8607 10.9713C19.858 10.9434 19.8519 10.916 19.8424 10.8897C19.8167 10.8354 19.7829 10.7854 19.7421 10.7412C19.7421 10.7412 19.0893 10.6226 18.7592 10.6596C18.1805 10.7227 17.6575 11.4386 17.4127 11.8058C17.168 12.1731 16.8638 12.7403 16.5337 13.0335C16.5373 13.0049 16.5307 12.976 16.5151 12.9518C16.5151 12.9518 16.5337 12.9778 16.4968 13.0149C16.4599 13.0521 16.4596 13.0704 16.4782 13.0883L16.5339 13.1438C16.5523 13.1438 17.0643 12.9137 17.7616 12.2635C18.5035 11.5848 19.071 11.2366 19.3678 11.1173C19.5261 11.05 19.6916 11.001 19.861 10.9713H19.8607Z" fill="#C29637"/>
<path fill-rule="evenodd" clip-rule="evenodd" d="M32.5239 8.1823C32.5239 8.1823 32.4051 8.33047 32.2567 8.4938C31.9266 8.84247 31.4963 9.2354 31.129 9.63982C30.7806 10.0257 30.3874 10.3262 29.9458 10.8306C29.5042 11.335 28.9922 11.8949 28.8626 12.0583C28.7441 12.2216 28.6514 12.4886 28.6514 12.6258C28.5883 12.5813 28.5142 12.5331 28.5142 12.5331C28.5454 12.5913 28.5827 12.6461 28.6255 12.6964C28.7181 12.8263 28.8626 12.9898 28.937 13.0896C29.0282 13.2166 29.0936 13.3602 29.1297 13.5124C29.1742 13.5197 29.4597 13.5754 29.816 12.9893C30.1722 12.4033 30.6393 11.7617 30.6393 11.7617L31.3811 10.6599L31.8486 9.72539L32.4354 8.67938L32.5247 8.1823H32.5239Z" fill="#AC8132"/>
<path fill-rule="evenodd" clip-rule="evenodd" d="M33.2845 7.43291C33.2845 7.43291 32.8356 7.79967 32.6612 8.01973C32.4869 8.23979 32.0744 8.81732 32.0744 8.81732L32.2228 8.79874L32.9759 8.13123L33.2693 7.60822L33.2842 7.43389L33.2845 7.43291Z" fill="#A88F33"/>
<path fill-rule="evenodd" clip-rule="evenodd" d="M33.147 36.9106C33.147 36.9106 33.1397 36.6064 33.3103 36.4247C33.4847 36.2428 33.926 35.9758 34.3563 34.9743C34.7867 33.9728 34.8346 33.7466 34.8346 33.7466C34.8346 33.7466 34.0632 34.4068 33.5876 34.5625C33.6989 34.3324 33.7619 34.1694 33.8177 34.0505C33.7546 33.995 33.4876 33.9319 33.4617 33.9024C33.6099 33.7539 33.6915 33.3904 33.992 33.1493C34.3779 32.8559 35.0825 32.3517 35.6302 31.9023C36.1779 31.4529 37.2548 30.4076 37.3922 30.1034C37.4738 30.222 37.4922 30.2961 37.4922 30.2961C37.4922 30.2961 36.9508 31.001 36.6689 31.4497C36.4202 31.8355 36.4388 32.0544 36.4388 32.0544L36.9508 31.8343C36.9508 31.8343 37.099 32.3832 36.4278 33.218C36.7212 33.1067 36.8396 33.1735 37.0063 33.0806C36.7318 33.2551 36.3535 33.4926 35.9975 34.1452C35.6488 34.798 35.174 35.5584 34.373 36.033C33.594 36.5338 33.1451 36.9084 33.1451 36.9084L33.147 36.9106Z" fill="#A67A2E"/>
<path fill-rule="evenodd" clip-rule="evenodd" d="M31.1367 11.8618C31.1367 11.8618 30.8325 12.4958 30.788 12.9893C30.7807 13.1081 30.7508 13.2008 30.7508 13.3379C30.7435 13.7793 30.7768 14.2727 30.6775 14.5025C30.6403 14.4099 30.6217 14.3468 30.5846 14.3099C30.5291 14.4656 30.4288 14.9514 30.3472 15.1331C30.3102 15.0145 30.2286 14.6028 30.2361 14.1169C30.2437 13.6311 30.2545 13.5382 30.2545 13.4382C30.2361 13.5864 30.1359 13.7868 30.0987 13.9054C30.0432 13.8054 29.9801 13.6756 29.9058 13.568C29.8613 13.6414 29.8058 13.7497 29.7576 13.8054C29.7501 13.7609 29.7317 13.6421 29.7205 13.4753C29.7131 13.2824 29.7019 13.034 29.7131 12.9819C29.7315 12.8819 29.8875 12.4887 30.2176 12.1288C30.6107 11.6985 31.0151 10.8716 31.1337 10.6156C31.2523 10.3596 31.7567 9.29522 31.7567 9.29522H32.1426L31.5824 10.5711C31.5824 10.5711 31.245 11.2684 31.0707 11.5247C30.8963 11.7809 30.5291 12.5152 30.3657 12.8007C30.4843 12.645 30.5846 12.5633 30.7034 12.4149C30.8183 12.311 31.1372 11.8623 31.1372 11.8623L31.1367 11.8618Z" fill="#8C6228"/>
<path fill-rule="evenodd" clip-rule="evenodd" d="M33.2918 7.38369C33.2288 7.57767 33.1292 7.75778 32.9984 7.91428C32.7683 8.18886 32.2749 8.55587 32.034 8.84879C31.814 9.13438 31.3738 9.91338 31.5739 10.8369C31.6472 10.6366 31.7854 10.2398 32.1526 9.79088C32.5199 9.34196 32.913 8.82654 33.1062 8.42603C33.2989 8.02162 33.3248 7.70278 33.3248 7.70278L33.3981 7.61011L33.3536 7.39861L33.2906 7.38369H33.2918Z" fill="#CBA94C"/>
<path fill-rule="evenodd" clip-rule="evenodd" d="M40.8029 31.9877C40.8029 31.9877 40.6545 31.5835 40.61 31.2163C40.5655 30.849 40.6834 30.7762 40.5469 30.3559C40.4653 30.0999 40.3171 30.1358 40.2799 30.0999C40.2428 30.0639 40.2168 29.6771 40.2242 29.4656C40.2315 29.2541 40.2168 28.9798 40.1797 28.8609C40.1242 28.8164 40.087 28.7793 40.0053 28.5049C39.9127 28.2303 39.8682 28.0932 39.8237 28.0117C39.7792 27.9303 39.6491 27.856 39.6491 27.7743C39.6491 27.611 39.7975 27.5259 39.7975 27.4809C39.7902 27.3882 39.6789 27.4626 39.6491 27.4364C39.6122 27.3919 39.742 27.1249 39.6938 27.0877C39.6753 27.0694 39.5454 27.2252 39.5119 27.1807C39.4748 27.1359 39.4303 26.6946 39.3635 26.4017C39.3007 26.1161 39.2337 25.9085 39.2263 25.8231C39.219 25.7415 38.7143 24.3023 38.5921 23.9536C38.4936 23.659 38.4106 23.3594 38.3437 23.056C38.3065 22.8817 38.2806 22.5254 38.262 22.5626C38.2434 22.5998 38.2547 22.7814 38.2248 22.7741C38.1989 22.7665 38.1062 22.1325 38.0767 22.0323C38.0507 21.932 37.8947 21.5922 37.8566 21.3462C37.8194 21.0975 37.738 20.4483 37.6823 20.007C37.6265 19.5657 37.6006 19.384 37.6006 19.2735C37.6097 19.0032 37.5948 18.7326 37.5561 18.4649C37.4827 17.9974 37.336 17.4299 37.2074 17.1C36.959 16.4768 36.2986 14.8818 36.1805 14.485C36.1805 14.3848 36.3103 14.4405 36.3103 14.4405C36.3103 14.4405 36.6328 15.2491 36.8702 15.8721C37.1003 16.4954 37.3192 17.0443 37.3749 17.1C37.4194 17.1555 37.7681 17.7675 37.9238 18.7691C38.0796 19.7706 38.1351 20.6941 38.228 21.3097C38.2725 21.6032 38.3097 21.9144 38.4023 22.2259C38.5023 22.5636 38.6581 22.9123 38.8623 23.4463C39.0366 23.8952 39.1664 24.2698 39.2368 24.5925C39.3185 25.0043 39.3185 25.3158 39.3667 25.52C39.4114 25.6943 39.4779 26.0427 39.6339 26.5469C39.7899 27.0511 40.0195 27.7005 40.1753 28.1047C40.4797 28.9132 40.6154 29.5883 40.6614 29.9483C40.7019 30.3192 40.8394 31.6026 40.8022 31.9882L40.8029 31.9877Z" fill="#A88F33"/>
<path fill-rule="evenodd" clip-rule="evenodd" d="M33.3106 7.34027L33.292 7.38477C33.292 7.38477 33.3475 7.40336 33.3365 7.47769C33.3373 7.57938 33.3311 7.68101 33.3179 7.78186C33.2996 7.91169 33.2624 8.01169 33.2551 8.09336C33.2551 8.2677 33.281 8.46795 33.035 8.96504C32.9617 9.10221 32.9165 9.22079 32.8793 9.30246C32.7866 9.50271 32.768 9.53254 32.6864 9.62521C32.8162 9.55186 33.2837 9.25845 33.5209 9.30246C33.3578 9.39513 33.1091 9.57704 32.9534 9.81446C32.9905 9.8218 33.1463 9.85163 33.3935 9.81446C33.8052 9.75138 34.2652 9.60296 34.6693 9.63255C35.1109 9.65846 34.9366 9.10221 34.9366 9.10221L34.427 7.98211L33.4627 7.3036L33.3106 7.34052V7.34027Z" fill="#BE9C44"/>
<path fill-rule="evenodd" clip-rule="evenodd" d="M35.825 15.7305C35.825 15.7305 35.3947 15.3002 35.2203 13.8234C35.046 12.3397 35.0832 10.1557 35.0832 10.1557L34.7345 9.30265C34.7345 9.30265 34.6611 8.73514 34.4785 8.52389C34.2959 8.31263 33.9372 7.95638 33.7738 7.78205C33.6105 7.60771 33.4252 7.37029 33.3139 7.33313C33.3694 7.24046 33.6181 6.71746 34.5712 6.71012C35.5243 6.70278 35.8182 7.23313 35.9177 7.42604C36.0172 7.61896 36.4666 8.45298 36.6334 10.0423C36.7891 11.6296 36.7967 11.7485 36.7708 12.2974C36.7522 12.6016 36.6519 13.3062 36.4774 14.0591C36.3179 14.6973 36.1436 15.4095 35.8245 15.732L35.825 15.7305Z" fill="#A17C34"/>
<path fill-rule="evenodd" clip-rule="evenodd" d="M34.4755 16.9961C34.6189 17.0064 34.7622 16.9741 34.8873 16.9031C35.0244 16.8958 35.5215 16.9589 35.9034 16.473C35.9294 16.5841 35.9964 16.8848 35.8218 17.1518C35.9147 17.0589 36.0519 17.022 36.0704 16.9961C36.0778 17.1332 36.2076 17.556 35.6587 18.5834C35.8069 18.4203 35.9812 18.4277 36.1369 18.4091C36.1445 18.602 36.2482 19.2509 35.9739 19.5998C35.7922 19.8372 35.4954 19.7629 35.4954 19.7629C35.4997 19.7111 35.4997 19.659 35.4954 19.6072C35.488 19.5069 35.4509 19.4069 35.477 19.3402C35.3336 19.2746 35.2029 19.1842 35.0912 19.0729C34.7684 18.7687 34.3493 18.2497 34.3198 17.8638C34.2826 17.4335 34.6684 17.3408 34.6684 17.3408C34.6361 17.3119 34.6085 17.2781 34.5868 17.2406C34.5682 17.1777 34.5496 17.0775 34.4755 16.9961Z" fill="#8C6228"/>
<path fill-rule="evenodd" clip-rule="evenodd" d="M31.6147 12.3291C31.6147 12.3291 31.5962 12.3032 31.4962 12.4218C31.5147 12.3032 31.5333 12.1917 31.5407 12.0841C31.588 11.9845 31.6492 11.8922 31.7226 11.8098C31.6668 11.9208 31.6297 12.0211 31.6297 12.0211C31.6297 12.0211 31.7671 11.7651 31.9673 11.6093C32.1045 11.4981 32.2788 11.4462 32.3529 11.3423C32.4346 11.2311 32.416 11.2125 32.4346 11.1939C32.4346 11.1939 32.6165 11.0753 32.8947 10.7264C32.9317 10.6819 32.9874 10.6337 33.0246 10.5892C33.0874 10.5633 33.2358 10.4965 33.4102 10.4073C33.5921 10.3073 33.796 10.1701 33.9222 10.1139C34.1706 10.0026 34.4342 10.0139 34.5564 9.83931C34.6491 9.81339 34.7491 9.53514 34.7308 9.29796C34.8679 9.35347 35.5726 9.79114 35.8139 10.7481C35.9883 11.4269 35.6765 12.4729 35.5467 12.9776C35.4169 13.4822 35.3985 13.8566 35.2166 14.0864C34.9865 14.3908 34.2449 14.82 34.063 15.0324C33.9073 15.2068 33.44 15.6481 33.4583 15.967C33.4769 16.2044 33.7698 16.3337 33.8332 16.3787C33.8965 16.4237 33.896 16.479 34.0148 16.4521C34.1337 16.4252 34.1779 16.3704 34.2263 16.3704C34.2818 16.3777 34.2818 16.389 34.3078 16.389C34.3266 16.3884 34.3452 16.3859 34.3635 16.3814C34.3635 16.3814 34.3449 16.7191 33.5549 16.8215C33.4992 16.8291 33.4437 16.8474 33.373 16.8587C33.4659 16.8142 33.5214 16.8142 33.6217 16.677C33.5104 16.6584 33.1913 16.6398 33.1097 16.6139C33.1356 16.5694 33.2209 16.4506 33.2913 16.3951C33.3544 16.3396 33.284 16.3217 33.2285 16.3506C33.1329 16.4156 33.0413 16.4861 32.9539 16.5618C32.8612 16.6435 32.7796 16.7548 32.6312 16.8553C32.5867 16.7068 32.594 16.4249 32.7686 16.221C32.7238 16.2283 32.6385 16.3582 32.5571 16.3322C32.5424 16.197 32.5511 16.0601 32.583 15.9278C32.6275 15.7608 32.8686 15.4679 32.8686 15.4679L34.0332 13.3869L34.2816 11.8105L31.6147 12.3287V12.3291Z" fill="#92723A"/>
<path fill-rule="evenodd" clip-rule="evenodd" d="M31.552 12.4188C31.552 12.4188 31.4889 12.4633 31.6151 12.5487C31.5965 12.5746 31.552 12.6672 31.4963 12.7303C31.4334 12.8037 31.3664 12.8492 31.3405 12.9122C31.285 13.0421 31.2405 13.1311 31.2405 13.1868C31.2405 13.2426 31.2219 13.5986 31.0662 13.8284C31.0104 13.9101 30.9473 14.0473 30.9028 14.1399C30.8102 14.303 30.7285 14.4333 30.7099 14.5067C30.673 14.6365 30.6471 14.9925 30.6471 14.9925C30.6471 14.9925 30.7287 14.8923 30.7583 14.8554C30.7136 14.948 30.6654 15.048 30.595 15.1224C30.6395 15.0852 30.7693 14.9925 30.9882 14.7996C31.2923 14.5439 31.7672 14.1135 32.3459 13.7727C32.1714 13.8358 32.0232 13.8358 31.9046 13.8543C31.9973 13.7617 32.8318 12.7824 33.2694 12.6897C33.296 12.656 33.3092 12.6137 33.3066 12.5709L32.9318 12.534L32.1714 12.6971L32.0603 12.1103L31.552 12.4181V12.4188Z" fill="#B18E3E"/>
<path fill-rule="evenodd" clip-rule="evenodd" d="M32.7613 15.7558C32.7613 15.7558 32.6611 15.8558 32.5684 16.1045C32.4971 16.03 32.4359 15.9464 32.3865 15.8558C32.2493 15.626 32.0381 15.3328 31.5447 15.4998C31.5373 15.3441 31.5261 15.2624 31.5447 15.1512C31.6263 15.1328 31.8747 14.9326 32.1232 14.6394C32.2977 14.4392 32.4608 14.2091 32.5721 13.9162C32.6454 13.8604 32.7723 13.7677 32.9389 13.6602C33.1763 13.4971 33.4619 13.2743 33.5064 13.0259C33.3951 13.0704 33.1577 13.1817 32.8014 13.1633C32.9389 13.1002 33.1501 13.0335 33.1242 12.7589C33.1799 12.7217 33.2244 12.6958 33.2244 12.6958C33.1826 12.6819 33.1386 12.6756 33.0946 12.6772C33.087 12.6513 33.076 12.6144 33.0129 12.6327C32.9499 12.6511 32.9396 12.6513 32.9313 12.6772C32.9054 12.6848 32.82 12.6772 32.7569 12.722C32.6939 12.7667 32.5195 12.9146 32.4528 12.9406C32.4787 12.8961 32.5156 12.8296 32.5156 12.8296C32.5156 12.8296 32.3339 12.8479 32.2041 12.9029C31.9667 12.9846 31.6923 13.133 31.4141 13.2775C31.44 13.233 31.4513 13.2041 31.4696 13.1958C31.4879 13.1875 31.5327 13.1775 31.5327 13.1699C31.5327 13.1623 31.5143 13.0966 31.5253 13.0699C31.6085 12.8937 31.7067 12.7249 31.8188 12.5655C31.9486 12.3909 31.9745 12.1425 31.9745 12.1425L32.542 11.8569L34.1369 11.4901L35.172 11.5532L35.0421 12.2691L34.4308 13.5191L33.9078 14.6578L33.3105 15.3553L32.7616 15.7558H32.7613Z" fill="#543E26"/>
<path fill-rule="evenodd" clip-rule="evenodd" d="M35.3465 12.6595C35.3465 12.6595 34.7232 13.4309 34.5489 13.5497C34.6601 13.3123 35.3465 11.8991 35.5949 11.5059C35.5394 11.4614 35.4651 11.4614 35.6394 10.7724C35.4912 11.1208 35.4391 11.3027 35.3169 11.3954C35.1946 11.488 35.1795 11.4585 35.0968 11.4585C35.1124 11.4302 35.1188 11.3978 35.1152 11.3658C35.1152 11.3658 34.5922 11.3027 34.2349 11.3027C33.8777 11.3027 33.1706 11.4956 32.7772 11.6514C32.4657 11.7812 32.2913 11.7812 32.1801 11.8626C32.0688 11.9553 32.0057 12.0555 31.95 12.0815C31.9055 12.1074 31.6942 12.1741 31.6458 12.2446C31.6013 12.3179 31.5272 12.4003 31.5272 12.4189C31.5272 12.4375 31.5087 12.4636 31.5644 12.4448C31.5827 12.4375 31.7202 12.3631 31.8759 12.2705C32.0872 12.1519 32.3432 12.0147 32.5287 11.933C33.0591 11.7215 33.2261 11.7587 33.4633 11.7142C33.7117 11.6697 34.0679 11.5658 34.3051 11.5658C34.5425 11.5585 34.9914 11.5658 35.0954 11.5844C35.0509 11.6215 35.0137 11.666 35.0323 11.8218C35.0323 11.8663 34.9951 11.9145 34.9589 12.022C34.8479 12.3262 34.6364 12.8306 34.5188 13.0866C34.3557 13.4351 34.1704 13.7282 34.0787 13.9099C33.987 14.0916 33.7853 14.5701 33.5855 14.8261C33.3857 15.0821 33.2813 15.2378 33.2187 15.2936C33.1562 15.3493 32.7067 15.6792 32.7402 15.798C32.8219 15.7721 33.3376 15.5779 33.7119 15.1564C34.0863 14.7349 34.1608 14.4777 34.4538 14.2476C34.7467 14.0175 34.9768 13.6319 35.1139 13.3131C35.2289 13.0162 35.2029 12.9236 35.3474 12.6602L35.3465 12.6595Z" fill="#806031"/>
<path fill-rule="evenodd" clip-rule="evenodd" d="M21.9158 18.415C21.9158 18.415 21.8341 18.7525 21.6485 18.9195C21.4668 19.0828 21.1441 19.2236 21.1072 19.4982C21.0627 19.7726 21.4299 19.91 21.4299 19.91C21.4299 19.91 21.2294 20.2401 21.2294 20.4885C21.2294 20.7445 21.2221 20.7926 21.248 21.0374C21.2186 21.0563 21.1936 21.0813 21.1746 21.1108C21.1746 21.1108 21.193 21.3482 21.3749 21.4963C21.5568 21.6445 21.7123 21.7338 21.805 21.6966C21.8191 21.7268 21.8316 21.7579 21.8422 21.7895C21.8422 21.7895 21.9796 21.4408 22.0722 21.1367C22.1649 20.8252 22.2466 20.8694 22.2835 20.4503C22.3204 20.0312 22.7236 19.3117 22.7236 19.3117L22.9987 18.6967L22.55 18.348L21.9158 18.4148V18.415Z" fill="#B6903C"/>
<path fill-rule="evenodd" clip-rule="evenodd" d="M22.7504 19.0219C22.6579 19.1169 22.5725 19.2185 22.4949 19.326C22.3764 19.4894 22.2837 19.6375 22.1093 19.7009C21.935 19.7642 21.8238 19.7637 21.8348 19.9383C21.8458 20.1129 22.0091 20.1867 22.1018 20.2757C22.202 20.3684 22.2837 20.5241 22.2392 20.6987C22.2947 20.6728 22.3949 20.643 22.4876 20.4427C22.5803 20.2425 23.2285 19.0221 23.2285 19.0221H22.7504V19.0219Z" fill="#685026"/>
<path fill-rule="evenodd" clip-rule="evenodd" d="M25.3067 16.2059C25.3067 16.2059 25.3622 16.0578 25.3067 15.9502C25.251 15.8389 24.9136 15.8018 24.7466 15.6756C24.5722 15.5458 24.3607 15.4555 24.1864 15.5125C24.2123 15.4494 24.3162 15.312 24.2309 15.2824C24.1492 15.2565 23.8453 15.3937 23.7636 15.4568C23.682 15.5198 23.4964 15.5939 23.4595 15.6387C23.4226 15.6834 23.3592 15.7685 23.3221 15.7313C23.2849 15.7054 23.2666 15.6387 23.2035 15.6756C23.1404 15.7125 22.8367 15.9612 22.7807 16.1059C22.7247 16.2507 22.5988 16.5734 22.2205 16.9404C21.8423 17.3074 21.679 17.5451 21.7902 17.6823C21.9015 17.8194 21.9535 17.7194 21.9721 17.838C21.9864 17.9544 21.9801 18.0725 21.9535 18.1867C21.909 18.3796 21.835 18.5613 21.935 18.5985C22.191 18.6801 22.4396 18.5251 22.4951 18.5725C22.6064 18.6725 22.432 19.0325 22.6954 19.1029C22.9626 19.1762 23.226 19.0398 23.226 19.0398L24.1976 18.5168L25.1324 18.0236L25.6107 17.0776L25.3542 16.2876L25.3053 16.2059H25.3067Z" fill="#D4B968"/>
<path fill-rule="evenodd" clip-rule="evenodd" d="M24.3895 18.4643C24.3895 18.4643 24.2262 18.2159 24.4267 17.9968C24.6272 17.7777 24.9125 17.6853 25.0238 17.5481C25.0026 17.522 24.9742 17.5027 24.9421 17.4926C25.0159 17.3605 25.1286 17.2542 25.2648 17.1882C25.2093 17.1327 25.135 17.0882 25.0536 17.0882C24.8717 17.0882 24.7602 17.1995 24.5934 17.1995C24.4303 17.1995 24.4117 17.1178 24.4117 17.1178C24.4117 17.1178 24.6863 17.0919 24.6602 16.9694C24.6343 16.8395 24.5868 16.8395 24.5868 16.8395C24.5868 16.8395 25.1172 16.6195 25.2098 16.5021C25.3025 16.3848 25.2915 16.2461 25.3101 16.1906C25.3729 16.1906 25.7402 15.9977 25.8886 16.0794C26.037 16.161 25.9331 16.3835 25.9331 16.3835C25.9331 16.3835 26.3822 16.0459 26.6111 15.7148C26.8114 15.7334 26.9045 15.5776 27.0512 15.5776C27.2331 15.5776 27.5187 15.8261 27.5742 16.3564C27.6114 16.6606 27.6669 16.8349 27.6114 17.3728C27.5855 17.677 27.5928 18.3264 27.6847 18.6487C27.7476 18.9047 27.896 18.8788 27.896 18.8788C27.8732 18.9568 27.8281 19.0264 27.7662 19.079C27.6659 19.1717 27.6549 19.4167 27.6659 19.5093C27.6807 19.5771 27.6993 19.644 27.7217 19.7096C27.7217 19.7096 27.6031 19.8468 27.5733 19.9397C27.5473 20.0323 27.4251 20.0954 27.3358 20.0954C27.2466 20.0954 27.2913 20.0879 27.1727 20.0954C27.0542 20.103 27.017 20.1213 26.9427 20.0954C26.8683 20.0695 26.8128 20.0397 26.8427 19.802C26.8686 19.5646 25.9265 19.012 25.9265 19.012L24.3861 18.4631L24.3895 18.4643Z" fill="#CCA849"/>
<path fill-rule="evenodd" clip-rule="evenodd" d="M22.6205 20.8082C22.6205 20.8082 22.9579 21.2572 24.3453 21.2572C25.0055 21.2572 25.2355 21.1941 25.3722 21.1569C25.5206 21.1198 26.0769 20.9012 26.6371 20.2407C27.1415 19.6436 27.0302 19.3989 27.0302 19.3989L26.7368 19.3544L25.7832 19.4842L22.9616 20.686L22.6193 20.8082H22.6205Z" fill="#585136"/>
<path fill-rule="evenodd" clip-rule="evenodd" d="M23.6552 20.9191C23.6552 20.9191 22.4535 21.1864 22.4535 20.4259C22.4535 19.6841 23.1953 18.9051 23.3809 18.7679C23.5738 18.6305 24.0337 18.4745 24.0337 18.4745H25.1428L25.3541 19.0347L25.2614 20.2438L23.6552 20.9189V20.9191Z" fill="#252211"/>
<path fill-rule="evenodd" clip-rule="evenodd" d="M24.7641 18.7014C24.7641 18.7014 24.5343 18.4899 24.0113 18.7748C23.4883 19.0596 23.0653 19.655 23.0394 20.1956C23.0135 20.6739 23.4325 21.0301 24.0854 21.0487C24.5712 21.067 24.8644 21.0115 25.0128 20.9753C24.9756 20.9308 24.7827 20.6898 24.7827 20.6898L24.7644 18.7017L24.7641 18.7014Z" fill="#C3B378"/>
<path fill-rule="evenodd" clip-rule="evenodd" d="M24.538 18.8201C24.538 18.8201 24.4825 18.7756 24.318 18.8646C24.1808 18.9379 23.9805 19.1318 23.8248 19.269C23.7245 19.3506 23.6615 19.3876 23.6047 19.4506C23.3746 19.7252 23.1817 20.1741 23.2932 20.3966C23.4047 20.6192 23.7717 20.8752 24.7065 20.7008L24.5353 18.8203L24.538 18.8201Z" fill="#E6D89C"/>
<path fill-rule="evenodd" clip-rule="evenodd" d="M24.234 19.2806C24.234 19.2806 24.0856 19.5107 24.0856 19.878C24.0856 20.2526 24.2971 20.8496 25.0761 20.8941C25.6732 20.9313 26.0737 20.0337 26.5077 19.685C26.8378 19.418 27.038 19.4105 27.038 19.4105C27.038 19.4105 26.7006 19.0437 25.7993 18.5686C24.9091 18.0901 23.9112 18.027 23.3697 18.7615C23.6257 18.743 24.4528 18.5315 24.4528 18.5315L24.8573 18.6613L24.234 19.2809V19.2806Z" fill="#252211"/>
<path fill-rule="evenodd" clip-rule="evenodd" d="M25.3988 19.7668C25.3729 19.7113 25.3543 19.637 25.4619 19.6187C25.5695 19.6003 25.6177 19.6111 25.6548 19.692C25.692 19.7729 25.7282 19.8404 25.6732 19.8739C25.6177 19.9035 25.4729 19.8739 25.3986 19.7663L25.3988 19.7668ZM25.2245 19.2438C25.2245 19.2438 25.1873 19.2697 25.2059 19.2179C25.2133 19.1551 25.2617 19.0436 25.3803 19.0697C25.4988 19.0959 25.4732 19.2255 25.4536 19.2626C25.434 19.2998 25.335 19.3626 25.2607 19.336C25.2513 19.3336 25.2425 19.329 25.2352 19.3226C25.2279 19.3162 25.2222 19.3081 25.2186 19.2991C25.215 19.2901 25.2135 19.2803 25.2144 19.2706C25.2152 19.2609 25.2184 19.2516 25.2235 19.2433L25.2245 19.2438Z" fill="#6F674D"/>
<path fill-rule="evenodd" clip-rule="evenodd" d="M15.1837 19.4798C15.1837 19.4798 15.4771 19.6999 15.818 19.6913C16.1554 19.6837 16.5894 19.3353 16.7897 19.1125C16.9082 18.9827 17.0097 18.8455 17.1197 18.738C17.2127 18.6453 17.2755 18.6008 17.32 18.5377C17.3831 18.4644 17.4498 18.3265 17.4833 18.2817C17.4017 18.3448 17.2831 18.4563 17.1606 18.5304C17.042 18.6037 16.786 18.7416 16.6821 18.7788C16.5821 18.816 15.5434 19.3656 15.5434 19.3656L15.1837 19.4798Z" fill="#AC924C"/>
<path fill-rule="evenodd" clip-rule="evenodd" d="M15.6325 16.7384C15.6325 16.7384 15.7956 16.6272 16.111 16.5565C16.4152 16.4831 17.0272 16.4267 17.0272 16.4267L17.5316 16.6467L17.7319 17.4071L17.3651 18.1974L16.8979 18.4908L16.3673 17.6377L15.6338 16.7399L15.6325 16.7384Z" fill="#9F8E57"/>
<path fill-rule="evenodd" clip-rule="evenodd" d="M14.972 17.4185L14.7974 17.5488C14.7974 17.5488 14.8421 17.4672 14.8791 17.2187C14.916 16.9703 15.1091 16.3656 15.3911 16.017C15.673 15.6683 15.6656 15.6869 15.6656 15.6869C15.6397 15.6821 15.613 15.683 15.5875 15.6893C15.5619 15.6957 15.5379 15.7075 15.5172 15.7238C15.5544 15.6416 15.7918 15.3482 16.0292 15.2015C16.2666 15.0548 16.3593 15.0086 16.6077 15.1282C16.8562 15.2477 16.9192 15.3098 17.1012 15.3025C17.2831 15.2952 17.4386 15.1023 17.4386 15.1023C17.4386 15.1023 17.4757 15.2208 17.3386 15.4954C17.2014 15.77 16.6598 16.3299 16.6598 16.3299L15.5321 17.1014L14.972 17.4192V17.4185Z" fill="#EAC970"/>
<path fill-rule="evenodd" clip-rule="evenodd" d="M15.8062 16.6452C15.8062 16.6452 16.6224 16.7565 16.8708 16.5267C16.8782 16.5526 16.908 16.5526 16.908 16.5712C16.906 16.5852 16.8995 16.5981 16.8894 16.6081C16.9164 16.6038 16.9437 16.6013 16.9711 16.6007C17.0038 16.6105 17.0374 16.6167 17.0713 16.6193C17.0987 16.6187 17.126 16.6162 17.153 16.6117C17.1504 16.6302 17.1442 16.6479 17.1346 16.6639C17.125 16.6798 17.1123 16.6937 17.0973 16.7047C17.1344 16.7047 17.1706 16.712 17.1706 16.7416C17.1706 16.7712 17.1779 16.8604 17.1334 16.879C17.0966 16.8892 17.0573 16.8865 17.0222 16.8714C17.0251 16.9416 17.0442 17.0102 17.0779 17.0719C17.1513 17.2091 17.3078 17.3653 17.5181 17.3203C17.5181 17.3203 17.6291 17.5873 17.1618 18.1808C17.099 18.2624 17.032 18.3737 16.9505 18.4663C16.9184 18.5365 16.8938 18.6098 16.8772 18.6852C16.8772 18.6852 17.6674 18.381 17.8936 17.6873C18.1237 16.99 18.1682 16.3039 18.1237 15.6623C18.1161 15.4804 18.0865 15.3508 18.042 15.2579C17.9308 15.0278 17.619 15.065 17.4931 15.1948C17.3112 15.3767 17.007 15.8291 16.5843 16.1406C16.1539 16.4521 16.1356 16.5073 15.8053 16.6452H15.8062Z" fill="#D7BC6B"/>
<path fill-rule="evenodd" clip-rule="evenodd" d="M14.8273 17.6469C14.8273 17.6469 14.6715 17.7396 14.5899 18.0871C14.5082 18.4431 14.6632 18.8771 14.753 19.0142C14.8427 19.1514 15.0464 19.5262 15.4689 19.5448C15.5735 19.5443 15.6769 19.5228 15.7731 19.4817C15.9206 19.4141 16.0589 19.3281 16.1848 19.2257C16.3667 19.0886 16.5149 18.97 16.4963 18.9587C16.4518 18.9402 15.3762 18.0499 15.3762 18.0499L14.9718 17.5985L14.8271 17.6474L14.8273 17.6469Z" fill="#585136"/>
<path fill-rule="evenodd" clip-rule="evenodd" d="M15.8441 19.1244C15.8441 19.1244 16.0629 19.1061 16.1928 19.0244C16.3226 18.9427 15.4323 18.06 15.4323 18.06L15.4954 19.0136L15.8441 19.1244Z" fill="#453A25"/>
<path fill-rule="evenodd" clip-rule="evenodd" d="M14.8979 17.5807C14.8979 17.5807 14.7866 17.7922 14.7866 17.848C14.768 18.0296 14.8238 18.6008 14.8683 18.7825C14.9128 18.9754 15.1539 19.2683 15.4656 19.2683C15.6583 19.2683 15.9255 19.1497 15.9255 19.1202C15.9255 19.083 15.6509 19.0468 15.5769 18.9087C15.5324 18.8353 15.5138 18.6529 15.5035 18.4685C15.4962 18.35 15.4962 18.2201 15.5407 18.1751C15.6409 18.0639 15.6593 17.7448 15.6593 17.7448L16.0153 17.0834H15.547L14.9869 17.4321L14.8979 17.5807Z" fill="#84754B"/>
<path fill-rule="evenodd" clip-rule="evenodd" d="M14.7605 17.785C14.7605 17.785 15.1273 17.2992 15.4579 17.1877C15.7884 17.0762 15.9364 17.1432 15.9364 17.1432L15.7435 17.6366L15.4689 17.9408L15.4875 18.0965C15.4875 18.0965 15.4427 18.5083 15.7173 18.7939C15.9919 19.0795 16.1958 19.0685 16.3146 19.0685C16.4335 19.0685 16.7745 18.9682 16.9489 18.5565C17.1046 18.1709 17.2345 17.6762 16.923 17.1804C16.6186 16.6869 16.0809 16.6679 15.977 16.6679C15.873 16.6679 15.0571 16.7087 14.7605 17.7843V17.785Z" fill="#252211"/>
<path fill-rule="evenodd" clip-rule="evenodd" d="M24.1782 19.4372C24.041 19.3742 24.1708 18.9886 24.308 18.8697C24.4452 18.7509 24.6195 18.614 24.9239 18.5952C25.0349 18.5878 25.1425 18.6582 25.1242 18.7326C25.0982 18.8697 24.9053 19.0627 24.731 19.1998C24.4899 19.3891 24.3339 19.5077 24.1782 19.4372Z" fill="#F7F7E7"/>
<path fill-rule="evenodd" clip-rule="evenodd" d="M16.7596 17.3326C16.8599 17.3253 16.9897 17.406 17.0156 17.5145C17.0416 17.6331 16.9526 17.8705 16.7596 17.8705C16.6039 17.8705 16.5222 17.6776 16.5222 17.6221C16.524 17.5765 16.5367 17.5319 16.5594 17.4923C16.5667 17.481 16.5853 17.3512 16.7596 17.3326Z" fill="#F8F6DE"/>
<path fill-rule="evenodd" clip-rule="evenodd" d="M15.3131 17.4183C15.3131 17.4183 15.0571 17.5369 14.9385 17.7851C14.8538 17.9683 14.8282 18.1734 14.8652 18.3719C14.8838 18.4646 14.9764 18.6944 15.0395 18.7761C15.1026 18.8577 15.1879 18.9135 15.251 18.9059C15.3141 18.8983 15.4437 18.7316 15.4437 18.6316C15.4437 18.5316 15.4513 18.1086 15.5735 17.8785C15.6811 17.6486 15.3139 17.4186 15.3139 17.4186L15.3131 17.4183Z" fill="#D4C38B"/>
<path fill-rule="evenodd" clip-rule="evenodd" d="M15.3504 17.3996C15.3059 17.4255 15.2318 17.4627 15.2501 17.5109C15.2687 17.5554 15.4244 17.5842 15.4802 17.6928C15.5433 17.804 15.5433 17.9226 15.5247 17.9784C15.5731 17.9554 15.6171 17.9239 15.6545 17.8855C15.7362 17.7928 15.8362 17.6669 15.9215 17.6669C15.9773 17.6669 16.0328 17.6928 16.0849 17.6928C16.1665 17.6928 16.248 17.6669 16.2592 17.5815C16.2775 17.4703 16.1035 17.37 16.0032 17.3886C16.0218 17.3153 16.0477 17.2069 15.966 17.1326C15.8844 17.0583 15.6286 17.1884 15.5729 17.2255C15.5171 17.2627 15.3504 17.3999 15.3504 17.3999V17.3996Z" fill="#E2D59D"/>
<path fill-rule="evenodd" clip-rule="evenodd" d="M21.2442 25.1922L21.7931 25.0301L21.9489 25.1414C21.9489 25.1414 22.0599 25.3788 22.2345 25.4084C22.1787 25.527 22.034 25.6285 22.0416 25.7126C22.0491 25.7967 22.1232 25.861 22.1232 25.861C22.1232 25.861 21.6298 26.6769 22.6017 27.4992C22.3717 27.5919 22.0787 27.7192 21.923 27.7926C22.034 27.8185 22.2714 27.866 22.3717 27.9559C22.4719 28.0459 22.4719 28.0745 22.5646 28.1303C22.6572 28.186 22.7127 28.2601 22.6944 28.2934C22.6313 28.2562 22.4198 28.1452 22.3829 28.2489C22.346 28.3525 21.4667 28.3119 21.4667 28.3119L19.983 28.5975C19.983 28.5975 20.0386 28.4491 19.8828 28.3119C19.7011 28.1489 19.4786 28.3193 19.2412 28.1376C18.9297 27.9002 18.9185 27.6256 18.8185 27.5219C18.9185 27.4588 19.1226 27.3662 19.6085 27.3019C19.5899 27.2647 19.5268 27.1535 19.564 27.0535C19.6085 26.9236 19.7938 26.842 19.7383 26.6867C19.82 26.6681 19.8569 26.6681 20.061 26.4121C20.254 26.1561 20.3726 26.1006 20.521 26.082C20.6694 26.0634 20.7584 26.082 21.033 25.826C21.2256 25.6443 21.1628 25.4886 21.1628 25.4886C21.1628 25.4886 21.2887 25.4478 21.2445 25.1918L21.2442 25.1922Z" fill="#CBAC5A"/>
<path fill-rule="evenodd" clip-rule="evenodd" d="M19.6236 25.2754C19.631 25.2382 19.6608 25.2197 19.861 25.2382C20.0613 25.2568 21.3298 25.1196 21.6748 25.1011C22.0235 25.0751 23.2512 25.0935 23.8485 25.2197C24.4458 25.3458 25.0503 25.4942 25.3432 25.5683C25.6366 25.65 25.729 25.6793 25.7178 25.7165C25.7104 25.7537 25.6444 25.7898 25.6065 25.7796C25.5696 25.7722 24.5977 25.4754 24.2974 25.4128C23.9972 25.3502 22.9582 25.1827 22.3902 25.1928C21.8599 25.2003 21.6484 25.1854 21.1997 25.2373C20.7508 25.293 20.009 25.3671 19.7865 25.3375C19.5664 25.3116 19.6119 25.3116 19.6231 25.2744L19.6236 25.2754Z" fill="#D6BC6F"/>
<path fill-rule="evenodd" clip-rule="evenodd" d="M22.6092 28.1814C22.6092 28.1814 23.3696 28.5931 23.6442 29.0976C23.8444 29.4722 23.5256 29.6577 23.5256 29.6577C23.5256 29.6577 23.9559 29.6577 23.9002 29.8952C23.8743 30.0433 23.1583 30.4438 22.6798 30.6553C22.194 30.8668 22.2126 30.8558 21.9752 30.8928C21.7451 30.9299 21.1145 30.8194 20.9847 31.004C20.8548 31.1886 20.9113 31.3788 20.9475 31.4084C20.9847 31.4343 21.2852 31.4715 21.2852 31.4715C21.2852 31.4715 21.2221 31.6458 20.5991 31.6644C19.9761 31.683 19.8201 31.7273 19.7829 31.7943C19.7457 31.8571 19.9015 31.8202 20.1873 31.8676C20.4729 31.9121 20.8734 31.941 20.8734 31.941C20.8734 31.941 20.7436 32.0522 20.4061 32.1412C20.0203 32.2412 19.4156 32.3341 19.234 32.4454C19.3266 32.5085 19.4641 32.6011 19.5274 32.6085C19.3716 32.6456 19.1525 32.7273 19.1156 32.7569C19.1711 32.7941 19.2455 32.8386 19.2455 32.8386C19.2455 32.8386 18.9337 33.2131 18.752 33.3061C18.5704 33.399 17.5244 33.8846 17.1644 33.7919C16.2669 33.5545 16.1556 32.5716 15.9368 32.4975C15.6067 32.3862 15.4509 32.6085 15.1578 32.4527C15.2876 32.3601 15.3583 32.3046 15.4954 32.2415C15.347 32.1681 14.5792 31.6813 14.5792 31.6813C14.499 31.5063 14.4098 31.3355 14.3122 31.1695C14.1638 30.9135 13.9455 30.5722 13.7817 30.2717C13.4257 29.6115 13.4071 29.3074 13.0843 28.9328C13.1401 28.8594 13.3327 28.8697 13.3327 28.8697L16.037 29.7599L20.8321 29.8988L22.0791 28.1186L22.6094 28.1816L22.6092 28.1814Z" fill="#DFC677"/>
<path fill-rule="evenodd" clip-rule="evenodd" d="M15.5059 30.8963C15.5348 30.9285 15.5686 30.9561 15.6059 30.978C15.6988 31.0411 15.836 31.1154 15.9286 31.2264C15.9658 31.1709 16.0585 31.0707 16.2221 31.2264C16.3856 31.3822 16.5888 31.2712 16.7152 31.3081C16.8451 31.3528 16.8524 31.3712 16.8524 31.3712C16.8524 31.3712 16.9258 31.3081 17.0898 31.2413C17.1901 31.2042 17.3087 31.1782 17.4385 31.1413C17.5571 31.1154 17.6869 31.0782 17.7762 31.0782C17.8578 31.1337 18.1507 31.445 19.3266 30.9856C20.4357 30.5552 20.6914 30.5071 20.877 30.5736C20.8956 30.5291 20.9142 30.4437 21.1998 30.455C21.1998 30.3364 20.9624 29.932 20.9624 29.932L19.653 29.4833H18.9368L16.7893 29.8765L15.5993 30.5555L15.5066 30.8978L15.5059 30.8963Z" fill="#C4A859"/>
<path fill-rule="evenodd" clip-rule="evenodd" d="M14.7903 30.1444C14.7903 30.1444 14.8162 30.3447 15.1131 30.5562C15.4065 30.7674 15.4987 30.8936 15.4987 30.8936C15.4987 30.8936 15.5544 30.8202 15.5989 30.7454C15.6434 30.6638 15.6806 30.5711 15.7547 30.5452C15.9031 30.4821 16.2405 30.6007 16.3148 30.5821C16.3779 30.5637 16.3593 30.4339 16.4261 30.4339C16.5818 30.4263 16.6818 30.5339 16.7376 30.5339C16.7933 30.5339 16.9303 30.5266 16.9488 30.497C16.9674 30.4674 16.9748 30.1593 17.1863 30.0109C17.4163 29.8478 17.6983 29.9182 17.7731 29.9554C17.7731 30.0109 17.7804 30.1483 17.9288 30.1557C18.0772 30.163 18.0919 30.1371 18.2222 30.1816C18.3526 30.2261 18.5078 30.1742 18.5782 30.3928C18.6413 30.3745 18.7897 30.3559 18.7526 30.1444C18.8259 30.0889 18.89 30.0517 19.046 29.8329C19.0832 29.7774 19.146 29.7143 19.1944 29.6327C19.3242 29.6327 19.48 29.6067 19.6876 29.7884C19.6245 29.8329 19.5873 29.8618 19.569 29.907C19.6233 29.9608 19.6729 30.0191 19.7172 30.0813C19.7729 30.1547 19.8101 30.2447 19.8805 30.2632C20.0363 30.3077 20.2923 30.2447 20.5778 30.2632C20.8524 30.2818 21.0823 30.3818 21.1825 30.4449C21.2197 30.4266 21.2197 30.419 21.3123 30.4376C21.405 30.4562 21.4754 30.4635 21.3754 30.3449C21.4309 30.3708 21.494 30.4266 21.5498 30.3708C21.6055 30.3151 21.6498 30.2337 21.8055 30.2151C21.9613 30.1965 22.017 30.2224 22.0801 30.0593C22.1618 29.8591 21.8799 29.8591 21.8799 29.8591C21.8799 29.8591 22.0097 29.7402 22.1544 29.5845C22.3288 29.4214 22.529 29.2099 22.5772 28.9502C22.6589 28.4717 22.1916 28.4089 22.1916 28.4089L19.9252 29.1062L17.1545 28.9688L14.7918 30.1447L14.7903 30.1444Z" fill="#927D49"/>
<path fill-rule="evenodd" clip-rule="evenodd" d="M12.7539 23.5985C12.7539 23.5985 12.6806 23.6912 12.6354 23.91C12.5901 24.1288 12.6094 24.1029 12.5723 24.2587C12.5351 24.4144 12.0786 25.9649 12.2498 26.4879C12.4209 27.0109 12.7173 27.2038 12.9026 27.6265C12.9398 27.7192 12.976 27.775 12.9953 27.8566C13.0584 28.131 13.0029 28.3425 13.0769 28.617C13.1029 28.7097 13.1699 28.8173 13.2699 28.9286C13.4899 29.1584 13.8486 29.3772 14.0034 29.533C14.222 29.7631 14.5337 30.2306 14.9306 30.2748C15.1421 30.3007 15.4426 30.2117 15.691 30.0636C15.911 29.9261 16.047 29.7335 16.2778 29.6234C16.4409 29.5418 16.6152 29.5122 16.771 29.475C17.0937 29.4119 17.3869 29.4017 17.5612 29.4379C17.8282 29.4936 18.4588 29.6865 18.8082 29.6865C19.0813 29.6821 19.3528 29.6448 19.6168 29.5753C20.1472 29.4195 20.7888 29.1523 21.2118 29.0337C21.4602 28.9603 21.6604 28.941 21.8646 28.8965C22.2133 28.8149 22.5062 28.7036 22.6732 28.4921C22.5619 28.3623 22.4248 28.162 21.6827 28.1693C20.8408 28.1879 19.8689 28.6552 19.3904 28.7295C18.9119 28.8039 18.7043 28.8667 18.1701 28.6738C17.6463 28.4789 17.629 28.35 17.629 28.35C17.629 28.35 17.0791 27.9654 16.849 26.9849C16.6189 26.0045 16.849 25.29 17.4463 24.611C17.6021 24.4367 17.5649 24.2809 17.5649 24.2809C17.5649 24.2809 17.9581 23.7506 17.8505 23.254C17.7319 22.7606 16.9715 22.8608 16.9715 22.8608L12.7542 23.5985H12.7539Z" fill="#6E6342"/>
<path fill-rule="evenodd" clip-rule="evenodd" d="M13.3881 25.2475C13.3554 25.3089 13.34 25.3782 13.3436 25.4477C13.351 25.5477 13.3808 25.6776 13.681 25.9707C13.937 26.2265 13.8813 26.5121 13.8813 26.5121C13.8813 26.5121 14.0101 26.538 14.3598 26.3744C14.6344 26.2446 14.7266 26.4747 14.7266 26.4747C14.8065 26.4327 14.8931 26.4051 14.9826 26.393C15.0636 26.3855 15.142 26.3605 15.2124 26.3196C15.2124 26.3196 15.5352 26.6497 15.8171 26.8055C16.0731 26.9429 16.2215 27.0356 16.3477 26.9429C16.4662 26.8612 16.4662 26.6942 16.4587 26.6201C16.4292 26.5518 16.392 26.487 16.3477 26.4272C16.266 26.3086 16.1362 26.1712 16.1276 26.0605C16.109 25.8047 16.3205 25.5003 16.2758 25.4262C16.231 25.3521 16.0645 25.3335 15.6528 25.4819C15.2263 25.6228 13.3864 25.2482 13.3864 25.2482L13.3881 25.2475Z" fill="#39331F"/>
<path fill-rule="evenodd" clip-rule="evenodd" d="M14.3603 26.9056C14.3603 26.9056 14.149 26.7054 14.2231 25.7334C14.3128 25.7321 14.4024 25.7408 14.4901 25.7593C14.4901 25.7593 14.6053 26.5124 14.3603 26.9056Z" fill="#292311"/>
<path fill-rule="evenodd" clip-rule="evenodd" d="M12.8542 22.8561C12.8837 22.8342 12.9111 22.8097 12.9359 22.7827C12.8625 22.9199 12.5239 23.4688 12.7985 24.3331C13.0731 25.1936 13.7628 25.8352 14.6123 25.865C15.4617 25.8948 15.9082 25.4792 16.4187 24.8561C16.6189 24.6077 16.849 24.296 17.0529 24.0847C17.3571 23.7544 17.5945 23.6617 17.5945 23.3429C17.5945 22.69 16.9268 22.3969 15.9438 22.104C14.9609 21.811 14.0743 21.8472 13.6144 22.0477C13.1657 22.2663 12.9728 22.4964 12.854 22.8563L12.8542 22.8561Z" fill="#252211"/>
<path fill-rule="evenodd" clip-rule="evenodd" d="M16.0108 27.1988L16.0841 27.1616C16.0841 27.1616 16.1025 26.8682 16.2213 26.876C16.3399 26.8946 16.3956 27.0506 16.3844 27.1061C16.377 27.1616 16.3475 27.2545 16.2286 27.2433C16.0729 27.247 16.01 27.1988 16.01 27.1988H16.0108Z" fill="#3F3824"/>
<path fill-rule="evenodd" clip-rule="evenodd" d="M15.6805 25.9541C15.6805 25.9541 15.7538 25.9282 15.8435 26.0172C15.9169 26.0172 16.2367 25.98 16.337 26.0431C16.4372 26.1062 16.4668 26.1617 16.4668 26.1617C16.4668 26.1617 16.0922 26.2434 15.888 26.1617C15.6805 26.0913 15.6805 25.9541 15.6805 25.9541Z" fill="#2D2815"/>
<path fill-rule="evenodd" clip-rule="evenodd" d="M17.3313 26.0081C17.3313 25.9896 17.131 25.8524 16.9195 25.8076C16.8823 25.8003 16.8748 25.8262 16.8462 25.8262C16.8276 25.8189 16.8202 25.7631 16.8202 25.7631L16.6999 25.8265C16.6999 25.8265 16.6814 25.8524 16.7444 25.8998C16.7999 25.9443 16.8929 25.9815 16.9188 26.0556C16.9447 26.1297 16.9447 26.1556 16.9559 26.1668C16.9633 26.1742 17.0931 26.1668 17.1562 26.1297C17.2193 26.0925 17.3381 26.0319 17.3305 26.0074L17.3313 26.0081Z" fill="#82764F"/>
<path fill-rule="evenodd" clip-rule="evenodd" d="M15.4583 26.7606C15.4583 26.7606 15.4952 26.5048 15.7439 26.4936C15.9996 26.475 16.048 26.7234 16.048 26.7234L15.8996 26.8718C15.8996 26.8682 15.7884 26.7124 15.4595 26.7606H15.4583Z" fill="#2D2816"/>
<path fill-rule="evenodd" clip-rule="evenodd" d="M17.0715 25.661C17.0715 25.661 16.9341 25.8095 16.6302 25.854C16.6043 25.8168 16.5485 25.7427 16.6302 25.6241C16.7119 25.5055 16.8045 25.4684 16.8972 25.5053C16.9381 25.5119 16.9762 25.5301 17.0071 25.5577C17.038 25.5853 17.0604 25.6212 17.0715 25.661Z" fill="#574F35"/>
<path fill-rule="evenodd" clip-rule="evenodd" d="M17.6314 25.8429C17.639 25.8057 17.6131 25.7984 17.6314 25.7798C17.6497 25.7612 17.7502 25.7243 17.7688 25.7426C17.7762 25.7502 17.7688 25.7798 17.7688 25.816C17.7688 25.8522 17.7688 25.8893 17.7502 25.916C17.7243 25.9531 17.6502 25.9717 17.6131 25.9607C17.5759 25.9497 17.5686 25.8976 17.5686 25.8874C17.5869 25.88 17.6314 25.8615 17.6314 25.8429ZM18.2647 25.4424C18.2647 25.4238 18.3278 25.3866 18.3649 25.3866C18.4204 25.3866 18.4204 25.4311 18.428 25.4424C18.4464 25.4497 18.4464 25.4348 18.4649 25.4683C18.4835 25.5018 18.5097 25.561 18.4909 25.5981C18.472 25.6353 18.3982 25.661 18.3799 25.6536C18.3539 25.635 18.2723 25.4683 18.2647 25.4424Z" fill="#82764F"/>
<path fill-rule="evenodd" clip-rule="evenodd" d="M16.9899 25.9267C16.9899 25.9267 17.0715 25.945 17.1828 26.038C17.1456 26.0639 17.0899 26.0935 17.0899 26.0935C17.0899 26.0935 17.0825 26.0081 16.9899 25.9265V25.9267Z" fill="#6E6342"/>
<path fill-rule="evenodd" clip-rule="evenodd" d="M16.808 25.1109C16.7894 25.0926 16.8635 25.0481 16.908 25.0554C16.9525 25.0628 16.9711 25.0926 17.0193 25.0999C17.0674 25.1073 17.075 25.0813 17.0926 25.0628C17.1102 25.0442 17.1743 25.0554 17.1853 25.0628C17.1921 25.0709 17.1984 25.0796 17.2039 25.0887C17.2047 25.0746 17.2083 25.0608 17.2147 25.0481C17.221 25.0355 17.2299 25.0243 17.2408 25.0153C17.255 25.0049 17.2714 24.9978 17.2888 24.9945C17.3062 24.9913 17.324 24.9921 17.341 24.9967C17.3484 25.0227 17.3855 25.1153 17.3782 25.1339C17.3709 25.1525 17.2596 25.1786 17.2408 25.1598C17.2594 25.2046 17.341 25.2972 17.352 25.3156C17.3631 25.3339 17.2704 25.3787 17.2335 25.3713C17.1816 25.3677 16.8625 25.1821 16.807 25.1117L16.808 25.1109ZM17.2939 24.4952C17.287 24.4766 17.2739 24.4608 17.2567 24.4507C17.2308 24.4434 17.1454 24.4507 17.1454 24.4952C17.1454 24.5397 17.2188 24.7887 17.3012 24.9182C17.3941 25.0481 17.4569 25.1554 17.52 25.1853C17.5398 25.1943 17.5623 25.1954 17.583 25.1886C17.6036 25.1817 17.6209 25.1672 17.6313 25.1481C17.6386 25.1295 17.6572 24.9923 17.6499 24.6696C17.6425 24.3468 17.6313 24.0353 17.6127 24.0167C17.5941 23.9982 17.52 23.9984 17.4941 24.0353C17.4682 24.0722 17.3012 24.4397 17.2936 24.4952H17.2939Z" fill="#585136"/>
<path fill-rule="evenodd" clip-rule="evenodd" d="M16.9642 26.3939C16.9642 26.3939 16.8344 26.3123 16.7082 26.368C16.5896 26.4238 16.597 26.6426 16.597 26.6426C16.6237 26.653 16.6525 26.6568 16.681 26.6536C16.7094 26.6503 16.7367 26.6402 16.7603 26.624C16.842 26.5685 16.9457 26.4758 16.9642 26.3942V26.3939Z" fill="#574F35"/>
<path fill-rule="evenodd" clip-rule="evenodd" d="M17.2087 26.6872C17.2013 26.6139 17.1353 26.6139 17.1353 26.576C17.1399 26.5578 17.1504 26.5418 17.1651 26.5303C17.1799 26.5189 17.1981 26.5127 17.2167 26.5129C17.2539 26.5129 17.2901 26.5574 17.3356 26.5862C17.3801 26.6121 17.4468 26.6596 17.4542 26.7161C17.4615 26.7725 17.3808 26.9273 17.2911 26.9273C17.2013 26.9273 17.228 26.7603 17.2094 26.6862L17.2087 26.6872ZM17.9246 26.587C17.9246 26.587 17.7762 26.6315 17.7872 26.587C17.7982 26.5425 17.8319 26.5315 17.8801 26.5315C17.9046 26.5058 17.9375 26.4899 17.9728 26.4867C17.9929 26.4857 18.0128 26.4923 18.0283 26.5053C18.0283 26.5053 18.1285 26.4608 18.1581 26.4867C18.1877 26.5126 18.1657 26.5126 18.184 26.5425C18.2074 26.5756 18.2227 26.6137 18.2288 26.6537C18.2288 26.6833 18.1175 26.7464 18.0283 26.7354C17.9246 26.7131 17.9429 26.6055 17.9246 26.587ZM18.7887 26.42C18.7887 26.42 18.8332 26.4459 18.7963 26.4757C18.7703 26.5016 18.6405 26.5491 18.529 26.5574C18.4178 26.5574 18.3178 26.5757 18.3178 26.5388C18.3178 26.5019 18.4104 26.4275 18.4659 26.409C18.4771 26.395 18.4912 26.3838 18.5073 26.3761C18.5234 26.3684 18.541 26.3644 18.5588 26.3645C18.6033 26.3645 18.7774 26.3459 18.8259 26.3385C18.8704 26.331 18.9075 26.3569 18.8814 26.394C18.8704 26.42 18.7887 26.42 18.7887 26.42ZM19.0447 25.2747C19.0447 25.2747 18.9889 25.3933 18.9261 25.3933C18.863 25.3859 18.863 25.3673 18.863 25.3488C18.863 25.3228 18.9261 25.2561 18.9185 25.2375C18.9002 25.2375 18.8554 25.2375 18.863 25.193C18.863 25.1558 18.9261 25.1113 18.9816 25.1197C19.0235 25.0852 19.0758 25.0657 19.13 25.0642C19.1931 25.0642 19.2486 25.0825 19.2486 25.1197C19.2486 25.1568 19.1753 25.2382 19.1484 25.2571C19.1188 25.2867 19.0816 25.306 19.0447 25.2754V25.2747ZM18.1989 27.4667C18.1989 27.4667 18.1256 27.4743 18.1256 27.5112C18.1256 27.5298 18.1439 27.5298 18.1701 27.5188C18.1851 27.5179 18.2001 27.5154 18.2146 27.5112C18.2219 27.5188 18.2219 27.5557 18.2777 27.5557C18.3234 27.5495 18.3676 27.5344 18.4075 27.5112C18.452 27.4929 18.4892 27.474 18.4892 27.4378C18.4706 27.3748 18.4334 27.3449 18.3779 27.3449C18.3495 27.3431 18.3211 27.3496 18.2962 27.3635C18.2962 27.3635 18.2777 27.3264 18.2146 27.3635C18.1515 27.4007 18.1588 27.4007 18.1774 27.4193C18.2107 27.4488 18.1997 27.4682 18.1997 27.4682L18.1989 27.4667ZM17.7798 27.8525C17.7798 27.834 17.8725 27.7968 17.8984 27.808C17.9243 27.8154 17.9984 27.9562 17.9984 27.9711C17.9984 27.9897 17.9058 28.0342 17.8686 28.0342C17.8314 28.0342 17.7686 27.9711 17.7686 27.9609C17.7686 27.9535 17.8131 27.9425 17.8131 27.9349C17.8241 27.9166 17.7798 27.8719 17.7798 27.8533V27.8525ZM17.4864 27.3109C17.505 27.3036 17.505 27.285 17.5309 27.2664C17.539 27.261 17.5483 27.2576 17.558 27.2563C17.5676 27.255 17.5774 27.256 17.5867 27.2591C17.5932 27.2474 17.6023 27.2374 17.6132 27.2296C17.6241 27.2219 17.6366 27.2167 17.6498 27.2144C17.6943 27.207 17.7314 27.2144 17.7231 27.2329C17.7231 27.2887 17.7603 27.3256 17.7603 27.3701C17.7603 27.4146 17.7344 27.4704 17.6417 27.5075C17.549 27.5334 17.4229 27.5334 17.4043 27.5261C17.3857 27.5188 17.3671 27.4444 17.3857 27.4073C17.4043 27.3701 17.4561 27.3295 17.4859 27.3109H17.4864Z" fill="#82764F"/>
<path fill-rule="evenodd" clip-rule="evenodd" d="M17.6046 27.3373C17.6046 27.3373 17.5416 27.3745 17.5416 27.3931C17.536 27.411 17.5335 27.4298 17.5342 27.4486C17.5342 27.4596 17.6159 27.4412 17.6269 27.43C17.6306 27.4226 17.6046 27.3566 17.6046 27.3373Z" fill="#6E6342"/>
<path fill-rule="evenodd" clip-rule="evenodd" d="M17.053 27.1619C17.09 27.1695 17.153 27.1619 17.2012 27.1805C17.2384 27.199 17.2643 27.2362 17.2271 27.2807C17.19 27.3252 17.1538 27.392 17.0714 27.3807C16.9787 27.3734 16.8897 27.3252 16.8897 27.288C16.8881 27.2645 16.8913 27.2409 16.8989 27.2187C16.9066 27.1964 16.9186 27.1758 16.9342 27.1582C16.9714 27.1286 16.9897 27.1472 17.0528 27.1619H17.053Z" fill="#585136"/>
<path fill-rule="evenodd" clip-rule="evenodd" d="M17.0085 27.2006C17.0085 27.2006 16.8899 27.2933 16.86 27.338C16.8229 27.3825 16.6412 27.6123 16.5857 27.6605C16.6041 27.628 16.6251 27.597 16.6485 27.5678C16.5752 27.6147 16.5202 27.6855 16.4928 27.7681C16.4483 27.9055 16.7414 27.9796 16.9341 28.0353C17.1268 28.0911 17.2014 28.1087 17.2014 28.1087C17.1304 28.0021 17.0695 27.8891 17.0195 27.7713C16.9461 27.5969 16.9082 27.5784 16.9564 27.4967C16.9935 27.415 17.0493 27.3595 17.0493 27.2964C17.027 27.2378 17.0085 27.2006 17.0085 27.2006Z" fill="#574F35"/>
<path fill-rule="evenodd" clip-rule="evenodd" d="M12.78 27.4923C12.807 27.4972 12.8346 27.4972 12.8616 27.4923C12.9171 27.4847 13.4959 27.2722 14.1006 27.3103C14.5532 27.3377 15.0019 27.4114 15.4395 27.5304C16.1999 27.7307 17.1457 28.1275 17.7577 28.3539C17.9208 28.4167 18.0804 28.5282 18.1978 28.5725C18.6653 28.7544 18.6836 28.7544 18.9582 28.8026C19.281 28.8471 19.6111 28.7395 19.9561 28.6654C20.3788 28.5725 21.1021 28.528 21.7363 28.4353C21.9414 28.4069 22.1437 28.361 22.341 28.2982C22.341 28.2982 21.8366 28.8026 20.6272 28.9843C20.1384 29.0585 19.6417 29.0647 19.1511 29.0028C18.7653 28.9657 18.5096 28.9099 18.3166 28.8544C18.0978 28.7913 17.6489 28.6243 17.0963 28.4877C16.7105 28.3874 16.2801 28.3133 15.7869 28.2206C14.5703 27.9979 13.2499 27.7421 12.7795 27.4937L12.78 27.4923Z" fill="#252211"/>
<path fill-rule="evenodd" clip-rule="evenodd" d="M11.4147 25.2011C11.1213 25.4495 10.8101 25.6869 10.5061 25.9168L9.58996 26.6207C9.27846 26.8505 8.97429 27.088 8.66254 27.318C8.35079 27.5481 8.03953 27.7667 7.70895 27.9782C8.00236 27.7298 8.31363 27.4997 8.62513 27.2735C8.93663 27.0474 9.25963 26.8256 9.56013 26.5962L10.4763 25.8913C10.7915 25.6615 11.0956 25.4241 11.4147 25.2016V25.2011ZM9.79388 27.7975C9.79388 27.7975 10.124 27.5229 10.5357 27.1373C11.0475 26.6591 11.6744 26.0468 11.8747 25.9358L9.79364 27.7978L9.79388 27.7975Z" fill="#CFB66C"/>
<path fill-rule="evenodd" clip-rule="evenodd" d="M9.79388 27.796C9.95722 27.6329 10.1316 27.4735 10.3059 27.3175L10.5729 27.0876C10.6546 27.0143 10.7475 26.9319 10.8289 26.8502C10.992 26.6871 11.1516 26.5126 11.3147 26.3458C11.3956 26.2619 11.481 26.1827 11.5707 26.1084C11.6156 26.0687 11.6654 26.035 11.7189 26.0081C11.7636 25.9822 11.8118 25.9348 11.8747 25.9265C11.8377 25.9822 11.7932 26.0081 11.7561 26.0563C11.7116 26.0935 11.6744 26.138 11.6375 26.1749C11.5558 26.2566 11.4631 26.3306 11.3815 26.405C11.2071 26.5534 11.0255 26.6984 10.8511 26.8536C10.6768 27.0089 10.5137 27.1764 10.3391 27.3322C10.1501 27.4918 9.9758 27.6476 9.79388 27.7967V27.796ZM12.0121 26.3123C12.0121 26.3123 10.803 27.4957 10.5543 27.6884L12.0121 26.3123Z" fill="#CFB66C"/>
<path fill-rule="evenodd" clip-rule="evenodd" d="M12.0122 26.3119C11.9034 26.4378 11.7868 26.5567 11.663 26.6679L11.2963 27.0166C11.1777 27.1352 11.0662 27.254 10.9402 27.3726C10.8104 27.4838 10.6918 27.5927 10.5544 27.6953L10.9104 27.3467C11.0292 27.2281 11.1591 27.1281 11.2853 27.0093L11.6413 26.6606C11.7635 26.5383 11.8823 26.4195 12.0122 26.3119ZM12.0677 26.9535C11.9562 27.2646 11.8249 27.5681 11.6745 27.8623C11.363 28.4856 10.8957 29.2644 10.6916 29.6614L12.0677 26.9535Z" fill="#CFB66C"/>
<path fill-rule="evenodd" clip-rule="evenodd" d="M12.0678 26.954C12.0678 27.0912 12.0307 27.21 11.9862 27.3286C11.9428 27.4473 11.8933 27.5637 11.838 27.6773C11.7822 27.7885 11.7192 27.9073 11.6561 28.0149C11.593 28.1225 11.5189 28.2335 11.4632 28.345L11.0886 29.0052C10.9587 29.2252 10.8326 29.4465 10.6954 29.658C10.7881 29.4206 10.9142 29.1981 11.0331 28.9793C11.1629 28.7592 11.2815 28.5392 11.3998 28.3115C11.4576 28.1981 11.5096 28.0818 11.5556 27.9631C11.6111 27.8443 11.6666 27.733 11.7113 27.6254C11.7668 27.5068 11.8113 27.3953 11.8671 27.288C11.9299 27.1728 11.982 27.0616 12.0673 26.954H12.0678Z" fill="#CFB66C"/>
<path fill-rule="evenodd" clip-rule="evenodd" d="M13.3882 29.9958C13.3882 29.9958 13.0214 30.4816 13.0581 31.0973C13.1581 30.7748 13.2843 30.2814 13.3882 29.9958ZM13.7369 30.4829C13.7369 30.4829 13.607 31.8032 13.4995 32.4524C13.6515 31.702 13.6811 31.7651 13.7369 30.4829ZM16.1663 32.5304C16.1663 32.5304 15.6174 34.1441 15.6062 34.5926C15.725 34.1314 15.9548 33.1893 16.1663 32.5292V32.5304Z" fill="#DEC270"/>
<path fill-rule="evenodd" clip-rule="evenodd" d="M17.45 29.896C17.45 29.896 18.3402 31.3648 19.008 32.6184C18.8273 31.9875 18.4116 30.8305 17.45 29.896Z" fill="#CBAF59"/>
<path fill-rule="evenodd" clip-rule="evenodd" d="M19.8421 32.059C20.3309 32.923 20.7717 33.8133 21.1625 34.7258C21.0884 34.0953 20.8879 33.016 19.8421 32.059Z" fill="#E3C677"/>
<path fill-rule="evenodd" clip-rule="evenodd" d="M26.8748 34.223C27.0229 34.1303 27.3161 33.6257 27.5721 33.4998C27.8279 33.3699 28.0208 33.344 28.2509 33.088C28.4807 32.8207 28.5443 32.6577 29.0482 32.4464C29.7531 32.142 29.2683 31.7488 29.2683 31.7488C29.3459 31.6726 29.4289 31.602 29.5167 31.5376C29.6986 31.4004 29.9098 31.2334 29.8915 30.9402C29.8656 30.4471 29.7729 29.7311 29.3685 29.3157C29.7617 29.234 30.5145 29.1785 30.9823 29.06C31.5236 28.9225 31.7723 28.7296 31.7723 28.7296C31.7723 28.7296 31.4608 28.1993 31.9652 27.6653C32.4696 27.1313 32.8814 26.8122 33.1855 26.2148C32.8369 26.1703 32.3053 25.985 30.9488 26.5004C31.022 26.5349 31.0927 26.5745 31.1603 26.619C31.1603 26.619 30.3258 26.8491 30.0216 27.1051C29.491 27.5538 29.4243 27.921 28.8494 28.1956C28.2746 28.4702 27.6958 28.3959 27.2176 28.6184C26.7393 28.8409 26.6686 29.0301 26.4941 29.1118C26.5312 29.1563 26.4867 29.2304 26.5571 29.2935C26.5126 29.3565 26.253 29.7793 25.9896 29.7793C26.0156 29.8795 26.2381 29.9536 26.2381 29.9536C26.2381 29.9536 26.075 30.0725 25.6595 30.1021C25.8708 30.3221 26.0713 30.562 26.6239 30.9106C26.5794 31.0033 26.3938 31.1407 26.4681 31.3151C26.5498 31.4894 26.7615 31.7268 27.6068 31.9197C27.1765 31.9381 26.6723 32.0383 25.9931 31.9456C25.3143 31.864 25.203 31.8158 24.784 31.9197C24.8285 31.9642 24.947 31.9642 25.051 32.0828C24.9397 32.0902 24.2424 32.0012 24.005 32.3129C23.7565 32.6354 23.6489 33.166 23.6675 33.522C23.5377 33.5851 23.4115 33.6963 23.4746 33.9264C23.5377 34.1565 23.8678 34.2306 24.0793 34.3751C24.2905 34.5308 24.3091 34.5863 24.5096 34.5494C24.7209 34.5049 25.0324 34.2937 25.2143 34.2937C25.3962 34.2937 25.5258 34.4308 25.5258 34.4308C25.5258 34.4308 26.0192 34.1934 26.0674 34.2379C26.1119 34.2824 26.0747 34.568 26.1229 34.6125C26.1718 34.646 26.7276 34.3159 26.876 34.223H26.8748Z" fill="#ECD592"/>
<path fill-rule="evenodd" clip-rule="evenodd" d="M37.6573 19.3817C35.3391 13.3951 29.6083 12.286 29.6083 12.286H13.2582L13.3213 18.3838H16.5774V32.0003H13.258V38.0871H29.1557C32.9872 38.0871 36.0584 34.2368 36.0584 34.2368C40.9767 27.2563 37.657 19.3817 37.657 19.3817H37.6573ZM29.241 30.1345C29.241 30.1345 27.994 31.9336 26.6373 31.9336H23.9232L23.8589 18.3988H27.3419C27.3419 18.3988 28.9557 18.7362 30.0831 21.9297C30.0831 21.9297 31.5778 26.502 29.241 30.1345Z" fill="white" fill-opacity="0.8"/>
</svg>
