<svg width="51" height="50" viewBox="0 0 51 50" fill="none" xmlns="http://www.w3.org/2000/svg">
<rect x="0.0600586" width="50" height="50" rx="25" fill="#E6007A"/>
<rect x="1.16006" y="1.1" width="47.8" height="47.8" rx="23.9" stroke="black" stroke-opacity="0.5" stroke-width="2.2" style="mix-blend-mode:soft-light"/>
<g clip-path="url(#clip0_28_1528)">
<path d="M25.059 16.2923C28.0572 16.2923 30.4878 14.8837 30.4878 13.1461C30.4878 11.4086 28.0572 10 25.059 10C22.0607 10 19.6301 11.4086 19.6301 13.1461C19.6301 14.8837 22.0607 16.2923 25.059 16.2923Z" fill="white"/>
<path d="M25.059 39.9978C28.0572 39.9978 30.4878 38.5892 30.4878 36.8516C30.4878 35.1141 28.0572 33.7055 25.059 33.7055C22.0607 33.7055 19.6301 35.1141 19.6301 36.8516C19.6301 38.5892 22.0607 39.9978 25.059 39.9978Z" fill="white"/>
<path d="M17.4936 20.6463C18.9928 18.059 18.983 15.2569 17.4719 14.3875C15.9608 13.5181 13.5204 14.9108 12.0213 17.498C10.5222 20.0852 10.5319 22.8874 12.043 23.7568C13.5542 24.6261 15.9945 23.2335 17.4936 20.6463Z" fill="white"/>
<path d="M38.0945 32.4996C39.5936 29.9124 39.5847 27.1107 38.0746 26.2419C36.5645 25.3731 34.125 26.7662 32.6259 29.3535C31.1267 31.9407 31.1356 34.7424 32.6457 35.6112C34.1559 36.4799 36.5953 35.0869 38.0945 32.4996Z" fill="white"/>
<path d="M17.4725 35.6096C18.9836 34.7402 18.9934 31.938 17.4942 29.3508C15.9951 26.7636 13.5548 25.371 12.0437 26.2403C10.5325 27.1097 10.5228 29.9118 12.0219 32.4991C13.5211 35.0863 15.9614 36.4789 17.4725 35.6096Z" fill="white"/>
<path d="M38.0759 23.7585C39.5861 22.8897 39.595 20.088 38.0958 17.5008C36.5967 14.9135 34.1572 13.5205 32.6471 14.3892C31.137 15.258 31.1281 18.0597 32.6272 20.6469C34.1263 23.2342 36.5658 24.6273 38.0759 23.7585Z" fill="white"/>
</g>
<defs>
<clipPath id="clip0_28_1528">
<rect width="28.3099" height="30" fill="white" transform="translate(10.9051 10)"/>
</clipPath>
</defs>
</svg>
