<svg width="51" height="50" viewBox="0 0 51 50" fill="none" xmlns="http://www.w3.org/2000/svg">
<rect x="0.0600586" width="50" height="50" rx="25" fill="white"/>
<rect x="1.16006" y="1.1" width="47.8" height="47.8" rx="23.9" stroke="black" stroke-opacity="0.2" stroke-width="2.2"/>
<path d="M15.7991 26.3378C19.0626 28.0709 22.4679 29.8851 25.0981 31.2888L34.321 26.3378C30.9815 31.2989 28.199 35.4291 25.0981 40C21.9916 35.4391 18.5609 30.4065 15.7991 26.3378ZM16.1538 24.9694L25.1082 20.1913L33.946 24.9345L25.1132 29.7179L16.1538 24.9694ZM25.0981 18.6604L15.7991 23.5557L25.0575 10L34.321 23.5861L25.0981 18.6604Z" fill="#3AB83A"/>
<path d="M25.0981 31.2888L34.321 26.3378C30.9815 31.2989 25.0981 40 25.0981 40V31.2888ZM25.1082 20.1913L33.946 24.9345L25.1132 29.7179L25.1082 20.1913ZM25.0981 18.6608L25.0575 10L34.321 23.5861L25.0981 18.6608Z" fill="#0B8311"/>
<path d="M16.1538 24.9694L25.1086 25.7043L33.9465 24.9391L25.1132 29.7228L16.1538 24.9694Z" fill="#0B8311"/>
<path d="M25.1082 25.7043L33.946 24.9391L25.1132 29.7228L25.1082 25.7043Z" fill="#146714"/>
</svg>
