<svg width="32" height="28" viewBox="0 0 32 28" fill="none" xmlns="http://www.w3.org/2000/svg">
<path d="M15.3669 27.4899C22.8173 27.4899 28.857 21.4502 28.857 13.9998C28.857 6.54946 22.8173 0.509766 15.3669 0.509766C7.91659 0.509766 1.87689 6.54946 1.87689 13.9998C1.87689 21.4502 7.91659 27.4899 15.3669 27.4899Z" fill="#1F272E"/>
<path d="M15.3671 27.9991C7.64725 27.9991 1.36714 21.719 1.36714 13.9992C1.36714 6.27926 7.6481 0 15.3671 0C23.0862 0 29.3671 6.28011 29.3671 14C29.3671 21.7199 23.087 28 15.3671 28V27.9991ZM15.3671 1.01991C8.20991 1.01991 2.38705 6.84276 2.38705 14C2.38705 21.1572 8.20991 26.9801 15.3671 26.9801C22.5244 26.9801 28.3472 21.1572 28.3472 14C28.3472 6.84276 22.5244 1.01991 15.3671 1.01991Z" fill="#FF7800"/>
<path d="M15.481 27.2485C22.7981 27.2485 28.7298 21.3168 28.7298 13.9997C28.7298 6.68264 22.7981 0.750977 15.481 0.750977C8.16396 0.750977 2.2323 6.68264 2.2323 13.9997C2.2323 21.3168 8.16396 27.2485 15.481 27.2485Z" fill="#1F272E"/>
<path d="M15.4813 27.9991C7.7618 27.9991 1.48134 21.7187 1.48134 13.9992C1.48134 6.27963 7.7618 0 15.4813 0C23.2009 0 29.4813 6.28046 29.4813 14C29.4813 21.7195 23.2009 28 15.4813 28V27.9991ZM15.4813 1.5025C8.59068 1.5025 2.98384 7.10851 2.98384 14C2.98384 20.8915 8.58985 26.4975 15.4813 26.4975C22.3728 26.4975 27.9788 20.8915 27.9788 14C27.9788 7.10851 22.372 1.5025 15.4813 1.5025Z" fill="#FF7800"/>
<path d="M31.0588 4.10449H26.7817V4.60616H31.0588V4.10449Z" fill="url(#paint0_linear_251_224203)"/>
<path d="M28.3863 15.604H20.13V16.1057H28.3863V15.604Z" fill="url(#paint1_linear_251_224203)"/>
<path d="M10.4188 16.106L4.5565 23.7896H9.2176L14.6141 16.4774L16.958 23.7896H21.4689L18.64 16.106H10.4188Z" fill="#FF7800"/>
<path d="M11.3973 16.1063H19.4565L18.6861 13.9853L26.1126 4.10547H21.424L16.4774 11.1647L14.3931 4.10547H10.0317L13.2754 13.6163L11.3981 16.1071L11.3973 16.1063Z" fill="#FF7800"/>
<path d="M12.8456 16.1063H20.9049L20.1344 13.9853L27.5618 4.10547H22.8732L17.9266 11.1647L15.8423 4.10547H11.4809L14.7246 13.6163L12.8473 16.1071L12.8456 16.1063Z" fill="#B3C0CC"/>
<path d="M11.7226 16.106L5.8587 23.7896H10.5198L15.9163 16.4774L18.2602 23.7896H22.771L19.9438 16.106H11.7226Z" fill="#B3C0CC"/>
<path d="M10.9988 16.106L5.13486 23.7896H9.79596L15.1924 16.4774L17.5364 23.7896H22.0472L19.22 16.106H10.9988Z" fill="white"/>
<path d="M11.9764 16.1063H20.0356L19.2635 13.9853L26.6917 4.10547H22.0031L17.0565 11.1647L14.9722 4.10547H10.6108L13.8545 13.6163L11.9772 16.1071L11.9764 16.1063Z" fill="white"/>
<path d="M10.6164 16.106H4.76328V16.6076H10.6164V16.106Z" fill="url(#paint2_linear_251_224203)"/>
<path d="M10.4383 4.10449H1.75629V4.59364H10.4383V4.10449Z" fill="url(#paint3_linear_251_224203)"/>
<path d="M5.00417 23.2866H0V23.7883H5.00417V23.2866Z" fill="url(#paint4_linear_251_224203)"/>
<path d="M6.01849 22.0996H2.2614V22.6013H6.01849V22.0996Z" fill="url(#paint5_linear_251_224203)"/>
<defs>
<linearGradient id="paint0_linear_251_224203" x1="26.7783" y1="4.32069" x2="31.4336" y2="4.39581" gradientUnits="userSpaceOnUse">
<stop stop-color="#B3C0CC"/>
<stop offset="1" stop-color="white" stop-opacity="0"/>
</linearGradient>
<linearGradient id="paint1_linear_251_224203" x1="20.1308" y1="15.8553" x2="28.3863" y2="15.8553" gradientUnits="userSpaceOnUse">
<stop stop-color="#B3C0CC"/>
<stop offset="1" stop-color="white" stop-opacity="0"/>
</linearGradient>
<linearGradient id="paint2_linear_251_224203" x1="4.76328" y1="16.3572" x2="10.6164" y2="16.3572" gradientUnits="userSpaceOnUse">
<stop stop-color="white" stop-opacity="0"/>
<stop offset="1" stop-color="#FF7800"/>
</linearGradient>
<linearGradient id="paint3_linear_251_224203" x1="1.75629" y1="4.34907" x2="10.4383" y2="4.34907" gradientUnits="userSpaceOnUse">
<stop stop-color="white" stop-opacity="0"/>
<stop offset="1" stop-color="#FF7800"/>
</linearGradient>
<linearGradient id="paint4_linear_251_224203" x1="0" y1="23.5379" x2="5.00417" y2="23.5379" gradientUnits="userSpaceOnUse">
<stop stop-color="white" stop-opacity="0"/>
<stop offset="1" stop-color="#FF7800"/>
</linearGradient>
<linearGradient id="paint5_linear_251_224203" x1="2.2614" y1="22.3509" x2="6.01849" y2="22.3509" gradientUnits="userSpaceOnUse">
<stop stop-color="white" stop-opacity="0"/>
<stop offset="1" stop-color="#FF7800"/>
</linearGradient>
</defs>
</svg>
