<svg width="38" height="42" viewBox="0 0 38 42" fill="none" xmlns="http://www.w3.org/2000/svg">
<path d="M18.6606 37.3812C27.7077 37.3812 35.0418 30.047 35.0418 20.9999C35.0418 11.9528 27.7077 4.61862 18.6606 4.61862C9.61344 4.61862 2.2793 11.9528 2.2793 20.9999C2.2793 30.047 9.61344 37.3812 18.6606 37.3812Z" fill="#1C2334"/>
<path d="M18.6607 37.9995C9.28624 37.9995 1.66016 30.3734 1.66016 20.999C1.66016 11.6245 9.28727 3.99948 18.6607 3.99948C28.0341 3.99948 35.6612 11.6256 35.6612 21C35.6612 30.3744 28.0351 38.0005 18.6607 38.0005V37.9995ZM18.6607 5.23798C9.96948 5.23798 2.89866 12.3088 2.89866 21C2.89866 29.6912 9.96948 36.762 18.6607 36.762C27.3519 36.762 34.4227 29.6912 34.4227 21C34.4227 12.3088 27.3519 5.23798 18.6607 5.23798Z" fill="#FF7901"/>
<path d="M18.7992 37.088C27.6845 37.088 34.8874 29.8851 34.8874 20.9998C34.8874 12.1145 27.6845 4.91153 18.7992 4.91153C9.91389 4.91153 2.71094 12.1145 2.71094 20.9998C2.71094 29.8851 9.91389 37.088 18.7992 37.088Z" fill="#1C2334"/>
<path d="M18.7993 37.9995C9.42534 37.9995 1.79883 30.373 1.79883 20.999C1.79883 11.625 9.42534 3.99948 18.7993 3.99948C28.1733 3.99948 35.7998 11.626 35.7998 21C35.7998 30.374 28.1733 38.0005 18.7993 38.0005V37.9995ZM18.7993 5.824C10.4319 5.824 3.62335 12.6315 3.62335 21C3.62335 29.3685 10.4309 36.176 18.7993 36.176C27.1678 36.176 33.9753 29.3685 33.9753 21C33.9753 12.6315 27.1668 5.824 18.7993 5.824Z" fill="#FF7901"/>
<path d="M37.7153 8.98386H32.5215V9.59304H37.7153V8.98386Z" fill="url(#paint0_linear_142_9418)"/>
<path d="M34.4701 22.9478H24.4443V23.557H34.4701V22.9478Z" fill="url(#paint1_linear_142_9418)"/>
<path d="M12.6519 23.5572L5.5332 32.8876H11.1933L17.7464 24.0083L20.5926 32.8876H26.0702L22.6351 23.5572H12.6519Z" fill="#FF7901"/>
<path d="M13.8399 23.5578H23.6265L22.6909 20.9822L31.7091 8.98489H26.0156L20.0088 17.5571L17.4778 8.98489H12.1816L16.1206 20.5341L13.8409 23.5588L13.8399 23.5578Z" fill="#FF7901"/>
<path d="M15.5987 23.5578H25.3852L24.4497 20.9822L33.4689 8.98489H27.7754L21.7686 17.5571L19.2376 8.98489H13.9414L17.8804 20.5341L15.6007 23.5588L15.5987 23.5578Z" fill="#00C6FF"/>
<path d="M14.235 23.5572L7.11426 32.8876H12.7743L19.3274 24.0083L22.1737 32.8876H27.6513L24.2182 23.5572H14.235Z" fill="#00C6FF"/>
<path d="M13.3561 23.5572L6.23535 32.8876H11.8954L18.4485 24.0083L21.2948 32.8876H26.7724L23.3392 23.5572H13.3561Z" fill="white"/>
<path d="M14.5431 23.5578H24.3296L23.392 20.9822L32.4122 8.98489H26.7187L20.712 17.5571L18.181 8.98489H12.8848L16.8237 20.5341L14.5441 23.5588L14.5431 23.5578Z" fill="white"/>
<path d="M12.8917 23.5572H5.78418V24.1664H12.8917V23.5572Z" fill="url(#paint2_linear_142_9418)"/>
<path d="M12.6755 8.98386H2.13281V9.57784H12.6755V8.98386Z" fill="url(#paint3_linear_142_9418)"/>
<path d="M6.07668 32.2769H0V32.8861H6.07668V32.2769Z" fill="url(#paint4_linear_142_9418)"/>
<path d="M7.30842 30.8355H2.74609V31.4447H7.30842V30.8355Z" fill="url(#paint5_linear_142_9418)"/>
<defs>
<linearGradient id="paint0_linear_142_9418" x1="32.5174" y1="9.24639" x2="38.1704" y2="9.33761" gradientUnits="userSpaceOnUse">
<stop stop-color="#00C6FF"/>
<stop offset="1" stop-color="white" stop-opacity="0"/>
</linearGradient>
<linearGradient id="paint1_linear_142_9418" x1="24.4453" y1="23.2529" x2="34.4701" y2="23.2529" gradientUnits="userSpaceOnUse">
<stop stop-color="#00C6FF"/>
<stop offset="1" stop-color="white" stop-opacity="0"/>
</linearGradient>
<linearGradient id="paint2_linear_142_9418" x1="5.78418" y1="23.8623" x2="12.8917" y2="23.8623" gradientUnits="userSpaceOnUse">
<stop stop-color="white" stop-opacity="0"/>
<stop offset="1" stop-color="#FF7901"/>
</linearGradient>
<linearGradient id="paint3_linear_142_9418" x1="2.13281" y1="9.28085" x2="12.6755" y2="9.28085" gradientUnits="userSpaceOnUse">
<stop stop-color="white" stop-opacity="0"/>
<stop offset="1" stop-color="#FF7901"/>
</linearGradient>
<linearGradient id="paint4_linear_142_9418" x1="0" y1="32.582" x2="6.07668" y2="32.582" gradientUnits="userSpaceOnUse">
<stop stop-color="white" stop-opacity="0"/>
<stop offset="1" stop-color="#FF7901"/>
</linearGradient>
<linearGradient id="paint5_linear_142_9418" x1="2.74609" y1="31.1406" x2="7.30842" y2="31.1406" gradientUnits="userSpaceOnUse">
<stop stop-color="white" stop-opacity="0"/>
<stop offset="1" stop-color="#FF7901"/>
</linearGradient>
</defs>
</svg>
