<svg width="51" height="50" viewBox="0 0 51 50" fill="none" xmlns="http://www.w3.org/2000/svg">
<rect x="0.0600586" width="50" height="50" rx="25" fill="#0090FF"/>
<rect x="1.16006" y="1.1" width="47.8" height="47.8" rx="23.9" stroke="black" stroke-opacity="0.5" stroke-width="2.2" style="mix-blend-mode:soft-light"/>
<path fill-rule="evenodd" clip-rule="evenodd" d="M26.9833 22.4261L26.3239 25.9429L32.5882 26.8221L32.1486 28.4705L25.9942 27.5913C25.5546 29.02 25.3348 30.5586 24.7854 31.8774C24.2359 33.416 23.6864 34.9546 23.027 36.3832C22.1478 38.2515 20.6092 39.5703 18.5211 39.9C17.3122 40.1198 15.9935 40.0099 15.0044 39.2406C14.6747 39.0208 14.345 38.5812 14.345 38.2515C14.345 37.8119 14.5648 37.2624 14.8945 37.0426C15.1143 36.9327 15.6638 37.0426 15.9935 37.1525C16.3231 37.4822 16.6528 37.9218 16.8726 38.3614C17.532 39.2406 18.4112 39.3505 19.2904 38.6911C20.2795 37.8119 20.829 36.603 21.1587 35.3941C21.8181 32.7566 22.4775 30.2289 23.027 27.5913V27.1517L17.2023 26.2726L17.4221 24.6241L23.4666 25.5033L24.2359 22.0964L17.9716 21.1073L18.1914 19.3489L24.6755 20.2281C24.8952 19.5687 25.0051 19.0192 25.2249 18.4697C25.7744 16.4916 26.3239 14.5134 27.6427 12.755C28.9615 10.9966 30.5001 9.89765 32.808 10.0075C33.797 10.0075 34.7861 10.3372 35.4455 11.1065C35.5554 11.2164 35.7752 11.4362 35.7752 11.656C35.7752 12.0956 35.7752 12.6451 35.4455 12.9748C35.0059 13.3045 34.4564 13.1946 34.0168 12.755C33.6871 12.4253 33.4674 12.0956 33.1377 11.7659C32.4783 10.8867 31.4892 10.7768 30.7199 11.5461C30.1704 12.0956 29.6209 12.8649 29.2912 13.6342C28.5219 15.9421 27.9724 18.3598 27.2031 20.7776L33.2476 21.6568L32.808 23.3053L26.9833 22.4261Z" fill="white"/>
</svg>
