<svg width="51" height="50" viewBox="0 0 51 50" fill="none" xmlns="http://www.w3.org/2000/svg">
<rect x="0.0600586" width="50" height="50" rx="25" fill="#1969FF"/>
<rect x="1.16006" y="1.1" width="47.8" height="47.8" rx="23.9" stroke="black" stroke-opacity="0.5" stroke-width="2.2" style="mix-blend-mode:soft-light"/>
<path d="M23.754 10.2876C24.4787 9.90415 25.5867 9.90415 26.3114 10.2876L33.7266 14.1974C34.1648 14.4291 34.4049 14.7704 34.4471 15.1285H34.4555V34.7788C34.4471 35.1664 34.2027 35.5498 33.7266 35.8026L26.3114 39.7125C25.5867 40.0959 24.4787 40.0959 23.754 39.7125L16.3388 35.8026C15.8669 35.554 15.6394 35.1664 15.6268 34.7788C15.6268 34.7409 15.6268 34.7072 15.6268 34.6819V15.2633C15.6268 15.238 15.6268 15.2086 15.6268 15.1833V15.1327H15.631C15.6647 14.7746 15.8922 14.4375 16.3388 14.2016L23.754 10.2876ZM33.2758 26.0533L26.3072 29.7398C25.5825 30.1232 24.4787 30.1232 23.7498 29.7398L16.798 26.0617V34.7198L23.7498 38.3769C24.1627 38.596 24.5882 38.8108 25.0053 38.8193H25.0306C25.4477 38.8193 25.848 38.6086 26.2566 38.4106L33.2758 34.6861V26.0533ZM14.4597 34.3533C14.4597 35.1074 14.5482 35.6004 14.7167 35.9501C14.86 36.2408 15.0748 36.4599 15.4667 36.7295L15.4877 36.7464C15.572 36.8054 15.6689 36.8643 15.7827 36.936L15.9175 37.0202L16.3346 37.273L15.7405 38.2715L15.2729 37.9893L15.1928 37.9387C15.058 37.8544 14.9442 37.7828 14.8431 37.7112C13.7266 36.9528 13.3137 36.127 13.3053 34.4038V34.3533H14.4597ZM24.4702 20.8289C24.4155 20.8458 24.3649 20.8711 24.3186 20.8921L16.916 24.8146C16.9076 24.8188 16.8991 24.823 16.8949 24.8273L16.8865 24.8315L16.8991 24.8399L16.916 24.8483L24.3186 28.7708C24.3649 28.7961 24.4155 28.8171 24.4702 28.834V20.8289ZM25.6499 20.8289V28.834C25.7047 28.8171 25.7553 28.7919 25.8016 28.7708L33.2042 24.8483C33.2126 24.8441 33.221 24.8399 33.2252 24.8357L33.2295 24.8315L33.2168 24.823L33.2 24.8146L25.7974 20.8921C25.7553 20.8711 25.7047 20.8458 25.6499 20.8289ZM33.2758 16.5315L26.619 20.0284L33.2758 23.5254V16.5315ZM16.8022 16.5315V23.5254L23.4591 20.0284L16.8022 16.5315ZM25.7932 11.3324C25.4098 11.1302 24.7104 11.1302 24.327 11.3324L16.916 15.2507C16.9076 15.2549 16.8991 15.2591 16.8949 15.2633L16.8865 15.2675L16.8991 15.276L16.916 15.2844L24.327 19.2027C24.7104 19.4049 25.4098 19.4049 25.7932 19.2027L33.2042 15.2844C33.2126 15.2802 33.221 15.276 33.2252 15.2718L33.2295 15.2675L33.2168 15.2591L33.2 15.2507L25.7932 11.3324ZM34.3797 11.7285L34.8473 12.0107L34.9274 12.0613C35.0622 12.1456 35.176 12.2172 35.2771 12.2888C36.3936 13.0472 36.8065 13.873 36.8149 15.5962V15.6467H35.6605C35.6605 14.8926 35.572 14.3996 35.4035 14.0499C35.2602 13.7592 35.0453 13.5401 34.6535 13.2705L34.6325 13.2536C34.5482 13.1946 34.4513 13.1357 34.3375 13.064L34.2027 12.9798L33.7856 12.727L34.3797 11.7285Z" fill="white"/>
</svg>
