<svg width="24" height="24" viewBox="0 0 24 24" fill="none" xmlns="http://www.w3.org/2000/svg">
<path d="M9 11.2129C7.34314 11.2129 6 9.86975 6 8.21289V5.21289C6 3.97025 7.00736 2.96289 8.25 2.96289H9.75C10.9926 2.96289 12 3.97025 12 5.21289V8.21289C12 9.86975 10.6569 11.2129 9 11.2129Z" stroke="#9CA7BB" stroke-width="1.2" stroke-miterlimit="10" stroke-linecap="round" stroke-linejoin="round"/>
<path d="M7.875 10.9922V12.3373C7.875 12.9586 8.37866 13.4623 9 13.4623C9.62134 13.4623 10.125 12.9586 10.125 12.3373V10.9922" stroke="#9CA7BB" stroke-width="1.2" stroke-miterlimit="10" stroke-linecap="round" stroke-linejoin="round"/>
<path d="M11.9996 6.71289H10.7821C9.39312 6.71289 8.05325 6.19895 7.0205 5.27012L6.12305 4.46289" stroke="#9CA7BB" stroke-width="1.2" stroke-miterlimit="10" stroke-linecap="round" stroke-linejoin="round"/>
<path d="M19.875 10.5391H14.625C14.0037 10.5391 13.5 11.0427 13.5 11.6641V19.9141C13.5 20.5354 14.0037 21.0391 14.625 21.0391H19.875C20.4963 21.0391 21 20.5354 21 19.9141V11.6641C21 11.0427 20.4963 10.5391 19.875 10.5391Z" stroke="#9CA7BB" stroke-width="1.2" stroke-miterlimit="10" stroke-linecap="round" stroke-linejoin="round"/>
<path d="M13.5 12.718C12.8728 12.246 12.0954 11.9629 11.25 11.9629H10.125" stroke="#9CA7BB" stroke-width="1.2" stroke-miterlimit="10" stroke-linecap="round" stroke-linejoin="round"/>
<path d="M7.875 11.9629H6.75C4.67895 11.9629 3 13.6418 3 15.7129V18.3379H13.5" stroke="#9CA7BB" stroke-width="1.2" stroke-miterlimit="10" stroke-linecap="round" stroke-linejoin="round"/>
<path d="M18.375 15.7891L17.25 17.2891L16.125 15.7891L17.25 14.2891L18.375 15.7891Z" stroke="#9CA7BB" stroke-width="1.2" stroke-miterlimit="10" stroke-linecap="round" stroke-linejoin="round"/>
<path d="M15.375 13.1641V12.4141" stroke="#9CA7BB" stroke-width="1.2" stroke-miterlimit="10" stroke-linecap="round" stroke-linejoin="round"/>
<path d="M19.125 19.1641V18.4141" stroke="#9CA7BB" stroke-width="1.2" stroke-miterlimit="10" stroke-linecap="round" stroke-linejoin="round"/>
<path d="M6.12341 4.46323C5.28686 3.53803 3.75 4.12978 3.75 5.3771V7.23613C3.75 8.11775 3.48904 8.97965 3 9.71323C4.37831 10.4024 6 9.4001 6 7.85912V7.46323" stroke="#9CA7BB" stroke-width="1.2" stroke-miterlimit="10" stroke-linecap="round" stroke-linejoin="round"/>
</svg>
