<svg width="24" height="24" viewBox="0 0 24 24" fill="none" xmlns="http://www.w3.org/2000/svg">
<path d="M17.5599 11.4065V11.7815H17.9349H19.1219C19.8966 11.7815 20.5273 12.4123 20.5273 13.187V18.5284C20.5273 19.1345 20.1371 19.6509 19.5895 19.8461L19.3404 19.9349V20.1993V20.3089C19.3404 20.4297 19.2426 20.5273 19.1219 20.5273C19.0011 20.5273 18.9034 20.4297 18.9034 20.3089V19.9339H18.5284H5.47161H5.09661V20.3089C5.09661 20.4297 4.99889 20.5273 4.87812 20.5273C4.75736 20.5273 4.65964 20.4297 4.65964 20.3089V20.1993V19.9349L4.41055 19.8461C3.86287 19.6509 3.47266 19.1345 3.47266 18.5284V13.187C3.47266 12.4123 4.10342 11.7815 4.87812 11.7815H6.0651H6.4401V11.4065C6.4401 10.4778 6.84579 9.59555 7.55481 8.98597L7.55496 8.98583C7.62321 8.92709 7.71849 8.91601 7.79912 8.95832L7.79915 8.95834C8.92019 9.54647 10.3319 9.54647 11.4529 8.95834L11.4533 8.95813C11.5333 8.91603 11.6293 8.92727 11.6967 8.98545L11.6973 8.98597C12.4063 9.59555 12.812 10.4778 12.812 11.4065V11.7815H13.187H14.374H14.749V11.4065C14.749 10.8004 15.1392 10.284 15.6868 10.0888L15.9359 10V9.73558V9.62604C15.9359 9.50523 16.0337 9.40755 16.1544 9.40755C16.2752 9.40755 16.3729 9.50523 16.3729 9.62604V9.73558V10L16.622 10.0888C17.1697 10.284 17.5599 10.8004 17.5599 11.4065ZM16.7479 11.7815H17.1229V11.4065C17.1229 10.8718 16.6886 10.438 16.1544 10.438C15.6203 10.438 15.1859 10.8718 15.1859 11.4065V11.7815H15.5609H16.7479ZM7.96453 9.51665L7.71324 9.41372L7.53704 9.62035C7.11426 10.1162 6.87708 10.7475 6.87708 11.4065V11.7815H7.25208H9.62604H12H12.375V11.4065C12.375 10.7475 12.1378 10.1162 11.715 9.62035L11.5388 9.41372L11.2876 9.51665C10.9356 9.66081 10.5596 9.75355 10.1738 9.80097L9.84453 9.84143V10.1732V10.813C9.84453 10.9338 9.74681 11.0315 9.62604 11.0315C9.50528 11.0315 9.40755 10.9338 9.40755 10.813V10.1732V9.84143L9.0783 9.80097C8.69249 9.75355 8.31648 9.66081 7.96453 9.51665ZM19.1219 19.4969C19.656 19.4969 20.0904 19.0631 20.0904 18.5284V13.187C20.0904 12.6523 19.656 12.2185 19.1219 12.2185H4.87812C4.34396 12.2185 3.90964 12.6523 3.90964 13.187V18.5284C3.90964 19.0631 4.34396 19.4969 4.87812 19.4969H19.1219ZM18.1534 14.374C18.1534 14.4948 18.0557 14.5924 17.9349 14.5924H6.0651C5.94434 14.5924 5.84661 14.4948 5.84661 14.374C5.84661 14.2531 5.94434 14.1555 6.0651 14.1555H17.9349C18.0557 14.1555 18.1534 14.2531 18.1534 14.374ZM11.625 5.47161C11.625 6.57375 10.7279 7.47057 9.62604 7.47057C8.52414 7.47057 7.62708 6.57375 7.62708 5.47161C7.62708 4.36948 8.52414 3.47266 9.62604 3.47266C10.7279 3.47266 11.625 4.36948 11.625 5.47161ZM11.188 5.47161C11.188 4.61022 10.4878 3.90964 9.62604 3.90964C8.76424 3.90964 8.06406 4.61022 8.06406 5.47161C8.06406 6.33301 8.76424 7.03359 9.62604 7.03359C10.4878 7.03359 11.188 6.33301 11.188 5.47161Z" fill="#252C42" stroke="#9CA7BB" stroke-width="0.75"/>
</svg>
