<svg width="24" height="24" viewBox="0 0 24 24" fill="none" xmlns="http://www.w3.org/2000/svg">
<path d="M20 13.1101C20 20.2213 13.9556 21.999 10.9333 21.999C8.28889 21.999 3 20.2213 3 13.1101C3 10.3286 4.46147 8.4604 5.85996 7.39356C6.63841 6.79972 7.6304 7.391 7.73017 8.36501L7.816 9.20284C7.92052 10.2232 8.84932 11.0597 9.70932 10.5008C11.3938 9.40607 12 6.77422 12 5.33236V5.00873C12 3.57902 13.4438 2.65887 14.6023 3.4967C17.1653 5.35029 20 8.58329 20 13.1101Z" stroke="#9CA7BB" stroke-width="1.5"/>
<path d="M8 18.4435C8 21.2879 10.4889 21.999 11.7333 21.999C12.8222 21.999 15 21.2879 15 18.4435C15 17.3425 14.4107 16.5992 13.8404 16.1703C13.4424 15.871 12.8828 16.1398 12.7459 16.6186C12.5675 17.2428 11.9228 17.635 11.5944 17.075C11.2941 16.5628 11.2941 15.7947 11.2941 15.3324C11.2941 14.6959 10.6539 14.2837 10.1389 14.6579C9.10649 15.4081 8 16.6805 8 18.4435Z" stroke="#9CA7BB" stroke-width="1.5"/>
</svg>
