<svg width="24" height="24" viewBox="0 0 24 24" fill="none" xmlns="http://www.w3.org/2000/svg">
<path d="M12.5857 8.56391H12.5661V8.58344V11.2648H8.73242V2.0293H12.5661V4.71066V4.7302H12.5857H15.267V8.56391H12.5857ZM11.4138 10.132H11.4333V10.1125V7.43109H14.1147H14.1342V7.41156V5.88254V5.86301H14.1147H11.4333V3.18164V3.16211H11.4138H9.88477H9.86523V3.18164V10.1125V10.132H9.88477H11.4138Z" fill="#9CA7BB" stroke="#9CA7BB" stroke-width="0.0390625"/>
<path d="M19.2901 15.4443V15.4638H19.3096H21.9805V21.9729H2.01953V12.7734H8.52855V18.1347V18.1542H8.54809H10.0712H10.0907V18.1347V15.4638H15.4519H15.4714V15.4443V12.7734H19.2901V15.4443ZM3.1673 13.9017H3.14777V13.9212V18.1346V18.1542H3.1673H7.38074H7.40027V18.1346V13.9212V13.9017H7.38074H3.1673ZM12.7615 20.8446H12.7811V20.8251V19.302V19.2825H12.7615H3.1673H3.14777V19.302V20.8251V20.8446H3.1673H12.7615ZM13.9093 20.8251V20.8446H13.9288H18.1227H18.1423H18.1423V20.8251H18.1618V19.302V19.2825H18.1423H15.4714V16.6116V16.5921H15.4519H11.2384H11.2189V16.6116V18.1347V18.1542H11.2384H13.9093V20.8251ZM19.2901 20.8251V20.8446H19.3096H20.8131H20.8327H20.8327V20.8251H20.8522V16.6116V16.5921H20.8327H18.1618V13.9212V13.9017H18.1423H16.6192H16.5997V13.9212V15.4443V18.1347V18.1542H16.6192H19.2901V20.8251Z" fill="#9CA7BB" stroke="#9CA7BB" stroke-width="0.0390625"/>
</svg>
