<?xml version="1.0" encoding="UTF-8"?>
<svg id="Capa_1" xmlns="http://www.w3.org/2000/svg" version="1.1" xmlns:xlink="http://www.w3.org/1999/xlink" viewBox="0 0 23.6 22.7">
  <!-- Generator: Adobe Illustrator 29.1.0, SVG Export Plug-In . SVG Version: 2.1.0 Build 142)  -->
  <defs>
    <style>
      .st0 {
        fill: none;
      }

      .st1 {
        fill: #8d98a9;
      }

      .st2 {
        clip-path: url(#clippath);
      }
    </style>
    <clipPath id="clippath">
      <path class="st0" d="M15.1,15.5h-1.2l3.3-8.7c.3.2.7.3,1.1.4l-3.1,8.3h0ZM16.9,17.9h.3c1.1.4,2,1.2,2.2,2.3h-10.8c.2-.7.9-1.2,1.7-1.2h4.3v-1.2h-3.5c.2-.5.6-.9,1.2-1.1.2,0,.4,0,.6,0h2.3c.7,0,1.3.4,1.6,1v.2c.1,0,.1,0,.1,0ZM11.3,12.9c-.2-.5-.6-1-1.1-1.2-.6-.2-1.2-.2-1.7.1-.6.4-1.3.5-1.9.4l1.3-1h0c.4-.8.2-1.8-.5-2.3-.6-.5-1.3-.8-1.9-.9-.4,0-.9-.1-1.3,0,.8-.9,2.1-1.3,3.4-.9l.8.2c.8.2,1.7,0,2.2-.7l.2-.3c.6-.9,1.7-1.4,2.8-1.4s2,.5,2.7,1.3l-3.5,9.3c-.2,0-.4,0-.6,0-.6,0-1.1,0-1.6-.3.3-.1.5-.3.7-.6.4-.5.5-1.1.3-1.7h0ZM18.8,2.5c1,0,1.8.8,1.8,1.8s-.8,1.8-1.8,1.8-1.8-.8-1.8-1.8.8-1.8,1.8-1.8ZM21.8,4.3c0-1.6-1.4-2.9-3-2.9s-3,1.3-3,2.9c-.7-.4-1.5-.6-2.3-.6-1.5,0-2.9.7-3.8,2l-.2.3c-.2.2-.5.4-.8.3l-.8-.2c-2.4-.7-4.8.6-5.6,2.8l-.5,1.3,1.3-.6c1.2-.6,2.3-.4,3.5.4.2.1.3.4.2.6l-2.7,2.1.8.4c1.4.7,2.8.6,4.1,0,.2-.1.5-.1.7,0,.2,0,.4.2.4.4,0,.2,0,.5-.1.7s-.4.3-.6.3h-2c1.1,1.1,1,1,1.2,1.1.5.5,1.1.9,1.8,1.1-.3.4-.6.8-.7,1.4-1.4.2-2.5,1.5-2.5,2.9v.6h13.4v-.6c0-1.8-1.2-3.3-2.9-3.9-.3-.5-.8-.9-1.3-1.1l3.2-8.7c1.2-.4,2.2-1.5,2.2-2.8h0Z"/>
    </clipPath>
  </defs>
  <g class="st2">
    <path class="st1" d="M15.3,14.1h-.1v2.7h0s0-2.7,0-2.7ZM17.1,6.7l-3.1,8.3,2.5.9,3.1-8.3-2.5-.9ZM16.5,7.9c.5.3,1,.5,1.6.6l.4-2.6c-.2,0-.5-.1-.6-.2l-1.4,2.3h0ZM15.2,15.9l3.3-8.7-2.5-.9-3.3,8.7,2.5.9ZM15.1,14.1h-1.2v2.7h1.2v-2.7ZM15.6,18.2v.2c.1,0,2.5-1.2,2.5-1.2v-.2c-.1,0-2.5,1.2-2.5,1.2ZM15.1,18c.2,0,.4.1.4.3l2.4-1.2c-.5-1.1-1.6-1.7-2.8-1.7,0,0,0,2.7,0,2.7ZM12.8,18h2.3v-2.7h-2.3v2.7ZM12.3,18c.3,0,.5,0,.8,0l-.4-2.6c-.2,0-.3,0-.5,0l.2,2.7h0ZM12.2,18.3c0-.1.1-.2.3-.3l-.7-2.6c-.9.3-1.7,1-2.1,1.9l2.5.9h0ZM14.5,16.5h-3.5v2.7h3.5v-2.7ZM15.9,19v-1.2h-2.7v1.2h2.7ZM10.3,20.3h4.3v-2.7h-4.3v2.7ZM9.8,20.6c0-.1.2-.3.5-.3v-2.7c-1.4,0-2.5.8-3,2l2.5.9h0ZM19.3,18.8h-10.8v2.7h10.8v-2.7ZM16.8,19.2c.6.2,1.1.7,1.2,1.2l2.6-.6c-.3-1.6-1.6-2.8-3.1-3.2l-.7,2.6h0ZM16.5,19.1h.3c0,0,.7-2.5.7-2.5h-.3c0,0-.7,2.5-.7,2.5ZM12.1,15.4c.6-.9.8-1.9.5-2.9l-2.5.9c0,.2,0,.3,0,.5,0,0,2.1,1.6,2.1,1.6ZM11,16.4c.4-.2.8-.6,1.1-1l-2.1-1.6c0,0-.1.1-.2.2l1.2,2.4ZM11.9,14.2c-.4,0-.7,0-1-.2l-1.2,2.4c.7.4,1.5.5,2.3.5,0,0-.1-2.7-.1-2.7ZM12.6,14.1c-.3,0-.6,0-.9.1l.6,2.6c.1,0,.2,0,.4,0v-2.7c0,0,0,0,0,0ZM14.9,5.7l-3.5,9.3,2.5.9,3.5-9.3s-2.5-.9-2.5-.9ZM13.5,6.2c.7,0,1.3.3,1.6.8l2.1-1.6c-.9-1.1-2.3-1.8-3.7-1.8v2.7h0ZM11.8,7c.4-.5,1-.9,1.7-.9v-2.7c-1.5,0-3,.7-3.9,2l2.2,1.5ZM11.6,7.3l.2-.3-2.2-1.5-.2.3s2.2,1.5,2.2,1.5ZM7.9,8.6c1.3.4,2.8,0,3.7-1.2l-2.2-1.5c-.1.2-.4.3-.7.2l-.8,2.5h0ZM7.2,8.4l.7.2.8-2.6-.8-.2s-.8,2.5-.8,2.5ZM5.1,8.9c.5-.5,1.3-.8,2-.6l.8-2.6c-1.8-.5-3.6,0-4.8,1.3l2,1.8h0ZM5.7,6.8c-.6-.1-1.2-.2-1.7-.1l.3,2.7c.3,0,.6,0,.9,0l.6-2.6h0ZM8.2,8c-.8-.6-1.6-1-2.4-1.2l-.6,2.6c.4.1.9.3,1.4.7,0,0,1.6-2.1,1.6-2.1ZM9,11.8c.7-1.3.3-2.9-.9-3.8l-1.6,2.1c.2.1.2.3.1.5,0,0,2.4,1.2,2.4,1.2ZM9,11.9h0c0-.1-2.4-1.3-2.4-1.3h0c0,.1,2.4,1.3,2.4,1.3ZM7.3,13.3l1.3-1-1.6-2.1-1.3,1s1.6,2.1,1.6,2.1ZM7.8,10.8c-.4.2-.8.3-1.1.2l-.4,2.6c1,.1,1.9,0,2.8-.5l-1.3-2.3h0ZM10.6,10.5c-.9-.3-2-.3-2.8.2l1.3,2.3c.2-.1.4-.1.6,0l.9-2.5h0ZM12.6,12.5c-.3-.9-1-1.6-1.9-2l-.9,2.5c.2,0,.3.2.4.3,0,0,2.5-.9,2.5-.9ZM18.3,4.3c0-.2.2-.4.5-.4V1.2c-1.7,0-3.2,1.3-3.2,3.1,0,0,2.7,0,2.7,0ZM18.8,4.7c-.3,0-.5-.2-.5-.4h-2.7c0,1.8,1.5,3.1,3.2,3.1,0,0,0-2.7,0-2.7ZM19.3,4.3c0,.2-.2.4-.5.4v2.7c1.7,0,3.2-1.3,3.2-3.1h-2.7ZM18.8,3.8c.3,0,.5.2.5.4h2.7c0-1.8-1.5-3.1-3.2-3.1v2.7ZM20,8.3c1.8-.5,3.1-2.1,3.1-4.1h-2.7c0,.7-.5,1.3-1.2,1.5l.8,2.6h0ZM17.7,16.2l3.2-8.7-2.5-.9-3.2,8.7,2.5.9ZM18.8,16.2c-.5-.7-1.1-1.3-1.9-1.6l-1.1,2.4c.3.1.5.4.7.6l2.2-1.4h0ZM21.9,20.7c0-2.4-1.6-4.4-3.8-5.1l-.8,2.5c1.2.4,2,1.5,2,2.6h2.7,0ZM21.9,21.3v-.6h-2.7v.6h2.7ZM7.2,22.7h13.4v-2.7H7.2v2.7ZM5.9,20.7v.6h2.7v-.6h-2.7ZM9.5,16.5c-2,.4-3.6,2.1-3.6,4.2h2.7c0-.7.6-1.4,1.4-1.6l-.5-2.6h0ZM9.4,15.6c-.5.6-.9,1.2-1,2l2.6.5c0-.3.2-.5.4-.7l-2-1.8h0ZM7.6,16.3c.6.7,1.5,1.2,2.3,1.5l.8-2.5c-.5-.2-.9-.4-1.2-.8,0,0-1.9,1.9-1.9,1.8ZM6.5,15.2c1.2,1.1,1,.9,1.1,1.1l1.9-1.9c-.2-.2,0-.1-1.2-1.2,0,0-1.8,1.9-1.9,1.9ZM9.5,12.9h-2v2.7h2v-2.7ZM9,13.2c.1-.2.3-.2.5-.2v2.7c.6,0,1.3-.3,1.7-.8l-2.1-1.6h0ZM8.9,13.7c0-.2,0-.4,0-.6l2.1,1.6c.4-.5.5-1.2.3-1.9,0,0-2.5.9-2.5.9ZM9.3,14.1c0,0-.1,0-.2-.1,0,0-.1-.1-.1-.2l2.5-.9c-.2-.6-.6-1-1.2-1.2l-.9,2.5h0ZM9.7,14.1c-.1,0-.3,0-.4,0l.9-2.5c-.6-.2-1.3-.1-1.8.1l1.3,2.3h0ZM4.4,14.2c1.7.8,3.6.8,5.3-.1l-1.3-2.3c-.9.5-1.9.5-2.8,0l-1.2,2.4h0ZM3.6,13.8l.8.4,1.2-2.4-.8-.4-1.2,2.4ZM6,9.5l-2.7,2.1,1.6,2.1,2.7-2.1s-1.6-2.1-1.6-2.1ZM5.8,11c-.3-.2-.4-.6-.3-.8l2.6.8c.2-.7,0-1.6-.7-2.1l-1.6,2.1h0ZM3.7,10.7c.4-.2.7-.2,1-.2.3,0,.7.2,1.1.5l1.6-2.1c-.7-.5-1.5-.9-2.3-1-.9-.1-1.7,0-2.5.4l1.2,2.4h0ZM2.4,11.3l1.3-.6-1.2-2.4-1.3.6s1.2,2.4,1.2,2.4ZM1,8.4l-.5,1.3,2.5.9.5-1.3s-2.5-.9-2.5-.9ZM8.3,4.7c-3-.9-6.2.7-7.2,3.7l2.5.9c.5-1.6,2.3-2.5,4-2l.8-2.6h0ZM9,4.9l-.8-.2-.8,2.5.8.2.8-2.5ZM8.4,5.2c.2-.2.4-.3.7-.2l-.8,2.6c.8.2,1.8,0,2.3-.8l-2.2-1.5h0ZM8.6,4.9l-.2.3,2.2,1.5.2-.3s-2.2-1.5-2.2-1.5ZM13.5,2.3c-1.9,0-3.8.9-4.9,2.5l2.2,1.5c.6-.8,1.6-1.4,2.7-1.4,0,0,0-2.7,0-2.7ZM16.4,3.1c-.9-.5-1.9-.8-2.9-.8v2.7c.6,0,1.2.2,1.6.4,0,0,1.3-2.3,1.3-2.3ZM14.4,4.3h2.7c0-.1-2.7,0-2.7,0ZM18.8,0C16.4,0,14.4,1.9,14.4,4.3h2.7c0-.8.7-1.6,1.7-1.6V0h0ZM23.2,4.3C23.2,1.9,21.1,0,18.8,0v2.7c1,0,1.7.8,1.7,1.6h2.7,0ZM15.2,15.5v1.3s.9,0,.9,0l.3-.9-1.2-.5h0ZM18.3,7.2l1.2.5.6-1.5-1.6-.2-.2,1.3h0ZM17.2,6.8l.7-1.2-1.4-.8-.6,1.5s1.2.5,1.2.5ZM13.9,15.5l-1.2-.5-.7,1.8h1.9s0-1.3,0-1.3ZM16.8,17.6l-1.2.6h0l1.2-.6ZM12.8,16.6v-1.3h-.2s.2,1.3.2,1.3h0ZM12.2,16.7v-1.3h-.4c0,0,.4,1.3.4,1.3ZM11,17.8l-1.2-.5-.7,1.8h1.9v-1.3ZM14.5,17.8h1.3v-1.3h-1.3v1.3ZM14.5,19v1.3h1.3v-1.3h-1.3ZM8.5,20.2l-1.2-.5-.7,1.8h1.9v-1.3ZM19.3,20.2v1.3h1.6l-.4-1.6-1.3.3ZM17.1,17.9l-.3,1.3h0l.3-1.3ZM16.9,17.9l-1.2.6.3.5h.6c0,.1.3-1.1.3-1.1h0ZM11,14.6l1.1.8h0l-1.1-.8ZM10.4,15.2l-.6-1.2-2.4,1.2,2.4,1.2.6-1.2ZM12,15.6v1.3h.3s-.3-1.3-.3-1.3ZM12.6,15.5v1.3s.9,0,.9,0l.3-.9-1.2-.5h0ZM16.1,6.1l1.2.5.3-.7-.5-.6s-1,.8-1.1.8ZM10.7,6.3l-1.1-.8h0s1.1.8,1.1.8ZM10.5,6.6l1.1.8h0l-1.1-.8ZM8.3,7.3l.4-1.3h0s-.4,1.3-.4,1.3ZM7.5,7.1l-.4,1.3h0l.4-1.3ZM4.1,8l-1-.9-2.4,2.6,3.5-.4v-1.3ZM5.4,8.1l.3-1.3h0l-.3,1.3ZM7.4,9l.8-1.1h0s-.8,1.1-.8,1.1ZM7.8,11.2l-1.2-.6h0l1.2.6ZM7.8,11.3l.8,1.1.2-.2v-.3c.1,0-1.1-.6-1-.6ZM6.5,12.3l-.8-1.1-2.4,1.9,3,.5s.2-1.3.2-1.3ZM8.4,11.9l.6,1.2h0l-.6-1.2ZM10.2,11.8l.5-1.2h0l-.5,1.2ZM11.3,12.9l-1.3.4h0l1.3-.4ZM19.7,7.1l-.4-1.3-.6.2-.2.6s1.2.5,1.2.5ZM16.4,15.7l-1.2-.5-.4,1.2,1.1.5.5-1.2h0ZM17.7,16.9l-1.1.7.3.4h.5c0,.1.4-1.1.4-1.1h0ZM20.6,21.3v1.3h1.3v-1.3h-1.3ZM7.2,21.3h-1.3v1.3h1.3v-1.3ZM9.7,17.9l.2,1.3.9-.2.2-.9s-1.3-.2-1.3-.2ZM10.4,16.5l1,.9,1.3-1.5-1.9-.6s-.4,1.3-.4,1.3ZM8.6,15.4l1-.9h0l-1,.9ZM7.4,14.3v-1.3h-3.3l2.4,2.3s.9-1,.9-1ZM10.1,14l-1.1-.8,1.1.8ZM10.2,13.3l-1.3.4h0l1.3-.4ZM9.7,12.9l-.5,1.2h0l.5-1.2ZM9,12.9l-.6-1.2h0l.6,1.2ZM5,13l.6-1.2h0l-.6,1.2ZM4.1,12.6l-.8-1.1-1.7,1.3,1.9.9.6-1.2ZM6.8,10.6l.8,1.1.3-.3v-.4c.1,0-1.2-.4-1.2-.4h0ZM6.6,9.9l-.8,1.1h0s.8-1.1.8-1.1ZM3.1,9.5l-.6-1.2h0l.6,1.2ZM1.8,10.1l-1.3-.4-1,3,2.9-1.4s-.6-1.2-.6-1.2ZM2.3,8.8l1.3.4h0s-1.3-.4-1.3-.4ZM7.9,6l-.4,1.3h0s.4-1.3.4-1.3ZM8.6,6.2l.4-1.3h0l-.4,1.3ZM9.4,5.9l1.1.8h0l-1.1-.8ZM9.7,5.6l-1.1-.8h0l1.1.8ZM15.7,4.3l-.6,1.2,2.1,1.2v-2.4c-.1,0-1.5,0-1.5,0h0ZM15.7,4.3h-1.3c0,0,1.3,0,1.3,0Z"/>
  </g>
</svg>