<svg width="24" height="24" viewBox="0 0 24 24" fill="none" xmlns="http://www.w3.org/2000/svg">
<g clip-path="url(#clip0_7836_224412)">
<mask id="path-1-inside-1_7836_224412" fill="white">
<path d="M12 0.09375C9.64517 0.09375 7.34322 0.792039 5.38525 2.10031C3.42727 3.40859 1.90122 5.26809 1.00006 7.44368C0.0989088 9.61926 -0.136875 12.0132 0.322531 14.3228C0.781936 16.6324 1.9159 18.7539 3.58102 20.419C5.24613 22.0841 7.36762 23.2181 9.67721 23.6775C11.9868 24.1369 14.3807 23.9011 16.5563 22.9999C18.7319 22.0988 20.5914 20.5727 21.8997 18.6148C23.208 16.6568 23.9063 14.3548 23.9063 12C23.9027 8.84336 22.6471 5.81704 20.415 3.58496C18.183 1.35288 15.1566 0.0973231 12 0.09375ZM22.5938 12C22.5938 13.1704 22.3992 14.3326 22.0178 15.4391L20.4555 14.7919C21.0565 12.9791 21.0565 11.0209 20.4555 9.20813L22.0178 8.56088C22.3992 9.66737 22.5938 10.8296 22.5938 12ZM12 19.5938C10.4981 19.5938 9.02993 19.1484 7.78114 18.314C6.53236 17.4796 5.55905 16.2936 4.9843 14.906C4.40954 13.5184 4.25916 11.9916 4.55217 10.5185C4.84517 9.04549 5.56841 7.69241 6.63041 6.63041C7.69242 5.5684 9.04549 4.84517 10.5185 4.55216C11.9916 4.25916 13.5184 4.40954 14.906 4.98429C16.2936 5.55904 17.4796 6.53235 18.314 7.78114C19.1484 9.02992 19.5938 10.4981 19.5938 12C19.5915 14.0133 18.7907 15.9435 17.3671 17.3671C15.9435 18.7907 14.0133 19.5915 12 19.5938ZM1.40626 12C1.4062 10.8296 1.60085 9.66737 1.98226 8.56088L3.54451 9.20813C2.94352 11.0209 2.94352 12.9791 3.54451 14.7919L1.98226 15.4391C1.60085 14.3326 1.4062 13.1704 1.40626 12ZM21.5153 7.35L19.95 7.99612C19.0881 6.29431 17.7057 4.9119 16.0039 4.05L16.65 2.48475C18.7647 3.52444 20.4756 5.23527 21.5153 7.35ZM15.4403 1.98375L14.7919 3.5445C12.9791 2.94351 11.0209 2.94351 9.20813 3.5445L8.56088 1.98225C10.7893 1.21426 13.2107 1.21426 15.4391 1.98225L15.4403 1.98375ZM7.35001 2.48475L7.99763 4.0485C6.29503 4.91053 4.91204 6.29352 4.05001 7.99612L2.48476 7.35C3.52445 5.23527 5.23527 3.52444 7.35001 2.48475ZM2.48476 16.65L4.04851 16.0024C4.91054 17.705 6.29353 19.088 7.99613 19.95L7.35001 21.5153C5.23527 20.4756 3.52445 18.7647 2.48476 16.65ZM8.55976 22.0162L9.20701 20.454C11.0197 21.055 12.978 21.055 14.7908 20.454L15.438 22.0162C13.2096 22.7842 10.7882 22.7842 8.55976 22.0162ZM16.65 21.5153L16.0039 19.95C17.7057 19.0881 19.0881 17.7057 19.95 16.0039L21.5138 16.6515C20.4742 18.7654 18.7639 20.4757 16.65 21.5153Z"/>
</mask>
<path d="M12 0.09375C9.64517 0.09375 7.34322 0.792039 5.38525 2.10031C3.42727 3.40859 1.90122 5.26809 1.00006 7.44368C0.0989088 9.61926 -0.136875 12.0132 0.322531 14.3228C0.781936 16.6324 1.9159 18.7539 3.58102 20.419C5.24613 22.0841 7.36762 23.2181 9.67721 23.6775C11.9868 24.1369 14.3807 23.9011 16.5563 22.9999C18.7319 22.0988 20.5914 20.5727 21.8997 18.6148C23.208 16.6568 23.9063 14.3548 23.9063 12C23.9027 8.84336 22.6471 5.81704 20.415 3.58496C18.183 1.35288 15.1566 0.0973231 12 0.09375ZM22.5938 12C22.5938 13.1704 22.3992 14.3326 22.0178 15.4391L20.4555 14.7919C21.0565 12.9791 21.0565 11.0209 20.4555 9.20813L22.0178 8.56088C22.3992 9.66737 22.5938 10.8296 22.5938 12ZM12 19.5938C10.4981 19.5938 9.02993 19.1484 7.78114 18.314C6.53236 17.4796 5.55905 16.2936 4.9843 14.906C4.40954 13.5184 4.25916 11.9916 4.55217 10.5185C4.84517 9.04549 5.56841 7.69241 6.63041 6.63041C7.69242 5.5684 9.04549 4.84517 10.5185 4.55216C11.9916 4.25916 13.5184 4.40954 14.906 4.98429C16.2936 5.55904 17.4796 6.53235 18.314 7.78114C19.1484 9.02992 19.5938 10.4981 19.5938 12C19.5915 14.0133 18.7907 15.9435 17.3671 17.3671C15.9435 18.7907 14.0133 19.5915 12 19.5938ZM1.40626 12C1.4062 10.8296 1.60085 9.66737 1.98226 8.56088L3.54451 9.20813C2.94352 11.0209 2.94352 12.9791 3.54451 14.7919L1.98226 15.4391C1.60085 14.3326 1.4062 13.1704 1.40626 12ZM21.5153 7.35L19.95 7.99612C19.0881 6.29431 17.7057 4.9119 16.0039 4.05L16.65 2.48475C18.7647 3.52444 20.4756 5.23527 21.5153 7.35ZM15.4403 1.98375L14.7919 3.5445C12.9791 2.94351 11.0209 2.94351 9.20813 3.5445L8.56088 1.98225C10.7893 1.21426 13.2107 1.21426 15.4391 1.98225L15.4403 1.98375ZM7.35001 2.48475L7.99763 4.0485C6.29503 4.91053 4.91204 6.29352 4.05001 7.99612L2.48476 7.35C3.52445 5.23527 5.23527 3.52444 7.35001 2.48475ZM2.48476 16.65L4.04851 16.0024C4.91054 17.705 6.29353 19.088 7.99613 19.95L7.35001 21.5153C5.23527 20.4756 3.52445 18.7647 2.48476 16.65ZM8.55976 22.0162L9.20701 20.454C11.0197 21.055 12.978 21.055 14.7908 20.454L15.438 22.0162C13.2096 22.7842 10.7882 22.7842 8.55976 22.0162ZM16.65 21.5153L16.0039 19.95C17.7057 19.0881 19.0881 17.7057 19.95 16.0039L21.5138 16.6515C20.4742 18.7654 18.7639 20.4757 16.65 21.5153Z" fill="#9CA7BB"/>
<path d="M12 0.09375L12.0018 -1.53337H12V0.09375ZM23.9063 12L25.5334 12L25.5334 11.9982L23.9063 12ZM22.5938 12L20.9666 11.9999L20.9666 12.0001L22.5938 12ZM22.0178 15.4391L21.395 16.9423L22.9925 17.6042L23.5561 15.9694L22.0178 15.4391ZM20.4555 14.7919L18.9111 14.2798L18.4349 15.716L19.8327 16.2951L20.4555 14.7919ZM20.4555 9.20813L19.8327 7.70491L18.4349 8.28403L18.9111 9.72017L20.4555 9.20813ZM22.0178 8.56088L23.5561 8.03063L22.9925 6.39578L21.395 7.05766L22.0178 8.56088ZM12 19.5938L12 21.2209L12.0018 21.2209L12 19.5938ZM19.5938 12L21.2209 12.0018V12H19.5938ZM1.40626 12L3.03337 12.0001L3.03337 11.9999L1.40626 12ZM1.98226 8.56088L2.60505 7.05766L1.00748 6.39578L0.443958 8.03063L1.98226 8.56088ZM3.54451 9.20813L5.08896 9.72017L5.56509 8.28403L4.1673 7.70491L3.54451 9.20813ZM3.54451 14.7919L4.1673 16.2951L5.56509 15.716L5.08896 14.2798L3.54451 14.7919ZM1.98226 15.4391L0.443958 15.9694L1.00748 17.6042L2.60505 16.9423L1.98226 15.4391ZM21.5153 7.35L22.1361 8.85402L23.7419 8.19114L22.9754 6.63211L21.5153 7.35ZM19.95 7.99612L18.4984 8.73129L19.1788 10.0748L20.5709 9.50014L19.95 7.99612ZM16.0039 4.05L14.4999 3.42915L13.9253 4.82116L15.2687 5.50157L16.0039 4.05ZM16.65 2.48475L17.3679 1.02456L15.8089 0.258078L15.146 1.8639L16.65 2.48475ZM15.4403 1.98375L16.9429 2.60798L17.299 1.75068L16.7422 1.00785L15.4403 1.98375ZM14.7919 3.5445L14.2798 5.08895L15.7146 5.56463L16.2945 4.16873L14.7919 3.5445ZM9.20813 3.5445L7.70492 4.16729L8.28403 5.56508L9.72017 5.08895L9.20813 3.5445ZM8.56088 1.98225L8.03072 0.443923L6.39575 1.00739L7.05767 2.60504L8.56088 1.98225ZM15.4391 1.98225L16.7411 1.00635L16.4415 0.606671L15.9693 0.443923L15.4391 1.98225ZM7.35001 2.48475L8.8533 1.86216L8.18934 0.258966L6.63212 1.02456L7.35001 2.48475ZM7.99763 4.0485L8.73261 5.50016L10.0779 4.81904L9.50093 3.42591L7.99763 4.0485ZM4.05001 7.99612L3.42916 9.50014L4.82134 10.0748L5.50167 8.7311L4.05001 7.99612ZM2.48476 7.35L1.02457 6.63211L0.258082 8.19114L1.86391 8.85402L2.48476 7.35ZM2.48476 16.65L1.86217 15.1467L0.258971 15.8107L1.02457 17.3679L2.48476 16.65ZM4.04851 16.0024L5.50017 15.2674L4.81905 13.9221L3.42592 14.4991L4.04851 16.0024ZM7.99613 19.95L9.50015 20.5708L10.0748 19.1787L8.73111 18.4983L7.99613 19.95ZM7.35001 21.5153L6.63212 22.9754L8.19115 23.7419L8.85402 22.1361L7.35001 21.5153ZM8.55976 22.0162L7.05654 21.3935L6.39463 22.9911L8.0296 23.5546L8.55976 22.0162ZM9.20701 20.454L9.71905 18.9095L8.28291 18.4334L7.70379 19.8312L9.20701 20.454ZM14.7908 20.454L16.294 19.8312L15.7149 18.4334L14.2787 18.9095L14.7908 20.454ZM15.438 22.0162L15.9682 23.5546L17.6031 22.9911L16.9412 21.3935L15.438 22.0162ZM16.65 21.5153L15.146 22.1361L15.8089 23.7421L17.368 22.9754L16.65 21.5153ZM16.0039 19.95L15.2687 18.4984L13.9253 19.1788L14.4999 20.5708L16.0039 19.95ZM19.95 16.0039L20.5726 14.5006L19.1796 13.9237L18.4984 15.2687L19.95 16.0039ZM21.5138 16.6515L22.9739 17.3695L23.7397 15.8122L22.1363 15.1482L21.5138 16.6515ZM12 -1.53337C9.32336 -1.53337 6.70682 -0.73965 4.48127 0.747415L6.28923 3.45321C7.97962 2.32373 9.96698 1.72087 12 1.72087V-1.53337ZM4.48127 0.747415C2.25572 2.23448 0.521112 4.3481 -0.503197 6.821L2.50333 8.06635C3.28133 6.18808 4.59883 4.5827 6.28923 3.45321L4.48127 0.747415ZM-0.503197 6.821C-1.52751 9.2939 -1.79551 12.015 -1.27332 14.6402L1.91838 14.0054C1.52176 12.0114 1.72532 9.94461 2.50333 8.06635L-0.503197 6.821ZM-1.27332 14.6402C-0.751135 17.2654 0.537793 19.6769 2.43047 21.5695L4.73156 19.2684C3.294 17.8309 2.31501 15.9993 1.91838 14.0054L-1.27332 14.6402ZM2.43047 21.5695C4.32314 23.4622 6.73456 24.7511 9.35978 25.2733L9.99465 22.0816C8.00069 21.685 6.16912 20.706 4.73156 19.2684L2.43047 21.5695ZM9.35978 25.2733C11.985 25.7955 14.7061 25.5275 17.179 24.5032L15.9337 21.4967C14.0554 22.2747 11.9886 22.4782 9.99465 22.0816L9.35978 25.2733ZM17.179 24.5032C19.6519 23.4789 21.7655 21.7443 23.2526 19.5187L20.5468 17.7108C19.4173 19.4012 17.8119 20.7187 15.9337 21.4967L17.179 24.5032ZM23.2526 19.5187C24.7397 17.2932 25.5334 14.6766 25.5334 12H22.2791C22.2791 14.033 21.6763 16.0204 20.5468 17.7108L23.2526 19.5187ZM25.5334 11.9982C25.5293 8.41062 24.1024 4.97118 21.5656 2.43441L19.2645 4.7355C21.1919 6.66289 22.2761 9.2761 22.2791 12.0018L25.5334 11.9982ZM21.5656 2.43441C19.0288 -0.102364 15.5894 -1.52931 12.0018 -1.53337L11.9982 1.72087C14.7239 1.72395 17.3371 2.80811 19.2645 4.7355L21.5656 2.43441ZM20.9666 12.0001C20.9667 12.99 20.802 13.973 20.4795 14.9089L23.5561 15.9694C23.9963 14.6922 24.2209 13.3508 24.2209 11.9999L20.9666 12.0001ZM22.6405 13.9359L21.0783 13.2887L19.8327 16.2951L21.395 16.9423L22.6405 13.9359ZM22 15.3039C22.7112 13.1587 22.7112 10.8413 22 8.69608L18.9111 9.72017C19.4018 11.2004 19.4018 12.7996 18.9111 14.2798L22 15.3039ZM21.0783 10.7113L22.6405 10.0641L21.395 7.05766L19.8327 7.70491L21.0783 10.7113ZM20.4795 9.09112C20.802 10.027 20.9667 11.01 20.9666 11.9999L24.2209 12.0001C24.2209 10.6492 23.9963 9.30776 23.5561 8.03063L20.4795 9.09112ZM12 17.9666C10.8199 17.9666 9.66633 17.6167 8.68512 16.9611L6.87716 19.6669C8.39353 20.6801 10.1763 21.2209 12 21.2209V17.9666ZM8.68512 16.9611C7.70391 16.3055 6.93916 15.3736 6.48756 14.2833L3.48103 15.5287C4.17894 17.2136 5.3608 18.6537 6.87716 19.6669L8.68512 16.9611ZM6.48756 14.2833C6.03596 13.1931 5.9178 11.9934 6.14802 10.836L2.95631 10.2011C2.60052 11.9898 2.78313 13.8438 3.48103 15.5287L6.48756 14.2833ZM6.14802 10.836C6.37825 9.67855 6.94651 8.6154 7.78096 7.78095L5.47987 5.47986C4.1903 6.76942 3.3121 8.41242 2.95631 10.2011L6.14802 10.836ZM7.78096 7.78095C8.61541 6.94651 9.67856 6.37824 10.836 6.14802L10.2011 2.95631C8.41243 3.3121 6.76943 4.1903 5.47987 5.47986L7.78096 7.78095ZM10.836 6.14802C11.9934 5.91779 13.1931 6.03595 14.2833 6.48755L15.5287 3.48103C13.8438 2.78312 11.9898 2.60052 10.2011 2.95631L10.836 6.14802ZM14.2833 6.48755C15.3736 6.93915 16.3055 7.70391 16.9611 8.68512L19.6669 6.87716C18.6537 5.3608 17.2136 4.17893 15.5287 3.48103L14.2833 6.48755ZM16.9611 8.68512C17.6167 9.66632 17.9666 10.8199 17.9666 12H21.2209C21.2209 10.1763 20.6801 8.39352 19.6669 6.87716L16.9611 8.68512ZM17.9666 11.9982C17.9648 13.5805 17.3354 15.0976 16.2165 16.2165L18.5176 18.5176C20.2459 16.7893 21.2181 14.446 21.2209 12.0018L17.9666 11.9982ZM16.2165 16.2165C15.0976 17.3354 13.5805 17.9648 11.9982 17.9666L12.0018 21.2209C14.446 21.2181 16.7893 20.2459 18.5176 18.5176L16.2165 16.2165ZM3.03337 11.9999C3.03332 11.01 3.19796 10.027 3.52055 9.09112L0.443958 8.03063C0.00374139 9.30776 -0.220933 10.6492 -0.220863 12.0001L3.03337 11.9999ZM1.35947 10.0641L2.92171 10.7113L4.1673 7.70491L2.60505 7.05766L1.35947 10.0641ZM2.00005 8.69608C1.28884 10.8413 1.28884 13.1587 2.00005 15.3039L5.08896 14.2798C4.59819 12.7996 4.59819 11.2004 5.08896 9.72017L2.00005 8.69608ZM2.92171 13.2887L1.35946 13.9359L2.60505 16.9423L4.1673 16.2951L2.92171 13.2887ZM3.52055 14.9089C3.19796 13.973 3.03332 12.99 3.03337 12.0001L-0.220863 11.9999C-0.220933 13.3508 0.00374135 14.6922 0.443958 15.9694L3.52055 14.9089ZM20.8944 5.84598L19.3292 6.49211L20.5709 9.50014L22.1361 8.85402L20.8944 5.84598ZM21.4016 7.26096C20.3832 5.25019 18.7498 3.6168 16.739 2.59843L15.2687 5.50157C16.6616 6.20699 17.793 7.33843 18.4984 8.73129L21.4016 7.26096ZM17.5079 4.67085L18.154 3.1056L15.146 1.8639L14.4999 3.42915L17.5079 4.67085ZM15.9321 3.94494C17.7242 4.826 19.174 6.27581 20.0551 8.06789L22.9754 6.63211C21.7771 4.19473 19.8053 2.22288 17.3679 1.02456L15.9321 3.94494ZM13.9376 1.35952L13.2893 2.92027L16.2945 4.16873L16.9429 2.60798L13.9376 1.35952ZM15.3039 2.00005C13.1587 1.28884 10.8413 1.28884 8.69609 2.00005L9.72017 5.08895C11.2004 4.59819 12.7996 4.59819 14.2798 5.08895L15.3039 2.00005ZM10.7113 2.92171L10.0641 1.35946L7.05767 2.60504L7.70492 4.16729L10.7113 2.92171ZM9.09104 3.52058C10.976 2.87098 13.0241 2.87098 14.909 3.52058L15.9693 0.443923C13.3973 -0.442456 10.6027 -0.442456 8.03072 0.443923L9.09104 3.52058ZM14.1372 2.95815L14.1383 2.95965L16.7422 1.00785L16.7411 1.00635L14.1372 2.95815ZM5.84671 3.10734L6.49433 4.67109L9.50093 3.42591L8.8533 1.86216L5.84671 3.10734ZM7.26265 2.59684C5.25095 3.61537 3.61688 5.24944 2.59834 7.26115L5.50167 8.7311C6.2072 7.33761 7.33911 6.20569 8.73261 5.50016L7.26265 2.59684ZM4.67085 6.49211L3.1056 5.84598L1.86391 8.85402L3.42916 9.50014L4.67085 6.49211ZM3.94494 8.06789C4.82601 6.27581 6.27581 4.826 8.06789 3.94494L6.63212 1.02456C4.19474 2.22288 2.22288 4.19473 1.02457 6.63211L3.94494 8.06789ZM3.10734 18.1533L4.67109 17.5057L3.42592 14.4991L1.86217 15.1467L3.10734 18.1533ZM2.59684 16.7374C3.61537 18.7491 5.24945 20.3831 7.26115 21.4017L8.73111 18.4983C7.33761 17.7928 6.2057 16.6609 5.50017 15.2674L2.59684 16.7374ZM6.49211 19.3292L5.84599 20.8944L8.85402 22.1361L9.50015 20.5708L6.49211 19.3292ZM8.06789 20.0551C6.27581 19.174 4.82601 17.7242 3.94494 15.9321L1.02457 17.3679C2.22288 19.8053 4.19474 21.7771 6.63212 22.9754L8.06789 20.0551ZM10.063 22.639L10.7102 21.0768L7.70379 19.8312L7.05654 21.3935L10.063 22.639ZM8.69496 21.9985C10.8402 22.7097 13.1576 22.7097 15.3028 21.9985L14.2787 18.9095C12.7984 19.4003 11.1993 19.4003 9.71905 18.9095L8.69496 21.9985ZM13.2875 21.0768L13.9348 22.639L16.9412 21.3935L16.294 19.8312L13.2875 21.0768ZM14.9078 20.4779C13.0229 21.1275 10.9748 21.1275 9.08991 20.4779L8.0296 23.5546C10.6016 24.441 13.3962 24.441 15.9682 23.5546L14.9078 20.4779ZM18.154 20.8944L17.5079 19.3292L14.4999 20.5708L15.146 22.1361L18.154 20.8944ZM16.739 21.4016C18.7498 20.3832 20.3832 18.7498 21.4016 16.739L18.4984 15.2687C17.793 16.6616 16.6616 17.793 15.2687 18.4984L16.739 21.4016ZM19.3274 17.5072L20.8912 18.1548L22.1363 15.1482L20.5726 14.5006L19.3274 17.5072ZM20.0536 15.9335C19.1727 17.7249 17.7234 19.1742 15.932 20.0551L17.368 22.9754C19.8045 21.7772 21.7757 19.806 22.9739 17.3695L20.0536 15.9335Z" fill="#9CA7BB" mask="url(#path-1-inside-1_7836_224412)"/>
<path d="M12 12.6562C12.3624 12.6562 12.6562 12.3624 12.6562 12C12.6562 11.6376 12.3624 11.3438 12 11.3438C11.6376 11.3438 11.3438 11.6376 11.3438 12C11.3438 12.3624 11.6376 12.6562 12 12.6562Z" fill="#9CA7BB"/>
<path d="M17.9062 13.125V10.875C17.9063 10.701 17.8371 10.534 17.714 10.411C17.591 10.2879 17.424 10.2188 17.25 10.2188C17.076 10.2188 16.909 10.2879 16.786 10.411C16.6629 10.534 16.5938 10.701 16.5938 10.875V11.3438H15.2153C15.0853 10.7139 14.7737 10.1358 14.319 9.68103C13.8642 9.22625 13.2861 8.91466 12.6562 8.78475V7.40625H13.125C13.299 7.40625 13.466 7.33711 13.589 7.21404C13.7121 7.09097 13.7812 6.92405 13.7812 6.75C13.7812 6.57595 13.7121 6.40903 13.589 6.28596C13.466 6.16289 13.299 6.09375 13.125 6.09375H10.875C10.701 6.09375 10.534 6.16289 10.411 6.28596C10.2879 6.40903 10.2188 6.57595 10.2188 6.75C10.2188 6.92405 10.2879 7.09097 10.411 7.21404C10.534 7.33711 10.701 7.40625 10.875 7.40625H11.3438V8.78475C10.7139 8.91466 10.1358 9.22625 9.68103 9.68103C9.22625 10.1358 8.91466 10.7139 8.78475 11.3438H7.40625V10.875C7.40625 10.701 7.33711 10.534 7.21404 10.411C7.09097 10.2879 6.92405 10.2188 6.75 10.2188C6.57595 10.2188 6.40903 10.2879 6.28596 10.411C6.16289 10.534 6.09375 10.701 6.09375 10.875V13.125C6.09375 13.299 6.16289 13.466 6.28596 13.589C6.40903 13.7121 6.57595 13.7812 6.75 13.7812C6.92405 13.7812 7.09097 13.7121 7.21404 13.589C7.33711 13.466 7.40625 13.299 7.40625 13.125V12.6562H8.78475C8.91466 13.2861 9.22625 13.8642 9.68103 14.319C10.1358 14.7737 10.7139 15.0853 11.3438 15.2153V16.5938H10.875C10.701 16.5938 10.534 16.6629 10.411 16.786C10.2879 16.909 10.2188 17.076 10.2188 17.25C10.2188 17.424 10.2879 17.591 10.411 17.714C10.534 17.8371 10.701 17.9062 10.875 17.9062H13.125C13.299 17.9063 13.466 17.8371 13.589 17.714C13.7121 17.591 13.7812 17.424 13.7812 17.25C13.7812 17.076 13.7121 16.909 13.589 16.786C13.466 16.6629 13.299 16.5938 13.125 16.5938H12.6562V15.2153C13.2861 15.0853 13.8642 14.7737 14.319 14.319C14.7737 13.8642 15.0853 13.2861 15.2153 12.6562H16.5938V13.125C16.5938 13.299 16.6629 13.466 16.786 13.589C16.909 13.7121 17.076 13.7812 17.25 13.7812C17.424 13.7812 17.591 13.7121 17.714 13.589C17.8371 13.466 17.9062 13.299 17.9062 13.125ZM12 13.9688C11.6106 13.9688 11.23 13.8533 10.9062 13.637C10.5825 13.4206 10.3301 13.1131 10.1811 12.7534C10.0321 12.3937 9.99311 11.9978 10.0691 11.6159C10.145 11.234 10.3325 10.8832 10.6079 10.6079C10.8832 10.3325 11.234 10.145 11.6159 10.0691C11.9978 9.99311 12.3937 10.0321 12.7534 10.1811C13.1131 10.3301 13.4206 10.5825 13.637 10.9062C13.8533 11.23 13.9688 11.6106 13.9688 12C13.9682 12.522 13.7605 13.0224 13.3915 13.3915C13.0224 13.7605 12.522 13.9682 12 13.9688Z" fill="#9CA7BB"/>
</g>
<defs>
<clipPath id="clip0_7836_224412">
<rect width="24" height="24" fill="white"/>
</clipPath>
</defs>
</svg>
