<svg width="25" height="24" viewBox="0 0 25 24" fill="none" xmlns="http://www.w3.org/2000/svg">
<path d="M20.6807 6.05721V12.3525C20.6807 12.7055 20.3946 12.9916 20.0415 12.9916H17.4851V11.0103H19.4024V9.02909H17.4851V7.04784H19.4024V6.05721C19.4024 5.52857 18.9724 5.09854 18.4438 5.09854H17.4851V7.04784H15.5038V5.09854H13.5226V7.04784H11.5413V5.09854H9.56007V7.04784H7.57882V5.09854H6.55624C6.02759 5.09854 5.59756 5.52857 5.59756 6.05721V7.04784H7.57882V9.02909H5.59756V11.0103H7.57882V12.9916H5.59756V14.845H7.57882V12.9916H9.56007V14.845H11.5413V12.9916H13.5226V14.845H15.5038V12.9916H17.4851V14.845H18.4438C18.6532 14.845 18.8519 14.7789 19.0186 14.6537C19.3008 14.4417 19.7014 14.4986 19.9135 14.7809C20.1254 15.0631 20.0685 15.4638 19.7863 15.6758C19.3964 15.9685 18.9322 16.1233 18.4438 16.1233H5.59756V19.5425C5.59756 19.8955 5.31146 20.1816 4.95845 20.1816C4.60544 20.1816 4.31934 19.8955 4.31934 19.5425V6.05721C4.31934 4.8238 5.32282 3.82031 6.55624 3.82031H18.4438C19.6772 3.82031 20.6807 4.8238 20.6807 6.05721ZM15.5038 9.02909V7.04784H13.5226V9.02909H15.5038ZM11.5413 9.02909V7.04784H9.56007V9.02909H11.5413ZM9.56007 9.02909H7.57882V11.0103H9.56007V9.02909ZM11.5413 9.02909V11.0103H13.5226V9.02909H11.5413ZM15.5038 11.0103H17.4851V9.02909H15.5038V11.0103ZM13.5226 11.0103V12.9916H15.5038V11.0103H13.5226ZM9.56007 11.0103V12.9916H11.5413V11.0103H9.56007Z" fill="#FF7901"/>
</svg>
