<svg width="25" height="24" viewBox="0 0 25 24" fill="none" xmlns="http://www.w3.org/2000/svg">
<path d="M7.07791 11.9727L5.43262 9.74559L7.07791 7.51856L8.7232 9.74559L7.07791 11.9727Z" stroke="#FF7901" stroke-width="1.16342" stroke-miterlimit="10"/>
<mask id="mask0_210_178553" style="mask-type:luminance" maskUnits="userSpaceOnUse" x="2" y="2" width="21" height="20">
<path d="M2.75928 1.9997H22.6148V21.8555H2.75928V1.9997Z" fill="white"/>
</mask>
<g mask="url(#mask0_210_178553)">
<path d="M4.74463 16.7273L12.4711 18.905C12.5329 18.9224 12.5972 18.8864 12.6146 18.8245L16.3388 5.61091C16.3562 5.54907 16.3202 5.48481 16.2583 5.46737L11.1434 4.02573" stroke="#FF7901" stroke-width="1.16342" stroke-miterlimit="10" stroke-linecap="round"/>
<path d="M8.27002 17.5791L13.3696 21.1247C13.4225 21.1615 13.4952 21.1483 13.5318 21.0952L21.3605 9.73385C21.3969 9.68098 21.3836 9.60858 21.3308 9.5721L16.3253 6.11634" stroke="#FF7901" stroke-width="1.16342" stroke-miterlimit="10" stroke-linecap="round"/>
<path d="M14.5072 7.09963C14.4529 7.28819 14.3476 7.38396 14.2691 7.4307C14.2181 7.46085 14.1042 7.4584 14.0457 7.46747C14.1284 7.54853 14.1952 7.7028 14.1202 7.79384C14.1014 7.81672 14.0782 7.83566 14.0521 7.84959C14.0259 7.86352 13.9973 7.87215 13.9678 7.875C13.9383 7.87785 13.9085 7.87486 13.8802 7.8662C13.8518 7.85754 13.8255 7.84338 13.8026 7.82452C13.7439 7.77617 13.6643 7.73568 13.5844 7.71327C13.5045 7.69094 13.4154 7.68438 13.34 7.69529C13.2958 7.70177 13.2506 7.6949 13.2103 7.67557C13.1769 7.65959 13.1479 7.6356 13.1259 7.60572C13.1039 7.57585 13.0897 7.54101 13.0844 7.5043C13.0672 7.38626 13.2037 7.28872 13.3185 7.26387C13.2744 7.22642 13.1784 7.17137 13.1506 7.12126C13.0831 6.99973 13.0708 6.85498 13.1154 6.70278C13.2174 6.35376 13.7433 6.18361 13.9021 6.13976C13.9399 6.12931 13.9798 6.12891 14.0179 6.13861C14.0559 6.1483 14.0907 6.16776 14.119 6.19504C14.2026 6.27591 14.6146 6.69926 14.5092 7.09254L14.5072 7.09963Z" fill="#FF7901"/>
</g>
<path d="M5.17567 4.35946C5.20297 4.37097 5.22774 4.38775 5.24856 4.40883L5.75321 4.91953C5.79526 4.9621 5.81869 5.01963 5.81833 5.07947C5.81797 5.13931 5.79386 5.19656 5.75129 5.23862L5.24059 5.74325C5.21952 5.76408 5.19455 5.78056 5.16711 5.79173C5.13967 5.80291 5.1103 5.80858 5.08067 5.8084C5.05104 5.80823 5.02173 5.80222 4.99442 5.79071C4.96712 5.77921 4.94235 5.76244 4.92152 5.74136L4.41689 5.23062C4.37484 5.18806 4.35142 5.13052 4.35177 5.07069C4.35213 5.01085 4.37625 4.9536 4.41881 4.91154L4.92951 4.40694C4.95058 4.3861 4.97555 4.36962 5.00298 4.35844C5.03042 4.34726 5.0598 4.34159 5.08943 4.34177C5.11906 4.34194 5.14836 4.34796 5.17567 4.35946Z" fill="#FF7901"/>
<path d="M9.19129 13.6681C9.2186 13.6796 9.24336 13.6963 9.26418 13.7174L9.76883 14.2281C9.81089 14.2707 9.83431 14.3282 9.83395 14.3881C9.83359 14.4479 9.80948 14.5051 9.76692 14.5472L9.25622 15.0518C9.23515 15.0727 9.21018 15.0891 9.18274 15.1003C9.1553 15.1115 9.12592 15.1172 9.09629 15.117C9.06666 15.1168 9.03736 15.1108 9.01005 15.0993C8.98274 15.0878 8.95797 15.071 8.93715 15.05L8.43252 14.5392C8.39046 14.4966 8.36704 14.4391 8.3674 14.3793C8.36776 14.3194 8.39187 14.2622 8.43443 14.2201L8.94514 13.7155C8.9662 13.6947 8.99117 13.6782 9.01861 13.667C9.04605 13.6558 9.07542 13.6502 9.10505 13.6504C9.13468 13.6505 9.16399 13.6565 9.19129 13.6681Z" fill="#FF7901"/>
<mask id="mask1_210_178553" style="mask-type:luminance" maskUnits="userSpaceOnUse" x="2" y="2" width="21" height="20">
<path d="M2.38574 2.14423H22.2412V22H2.38574V2.14423Z" fill="white"/>
</mask>
<g mask="url(#mask1_210_178553)">
<path d="M11.1504 16.5666C11.1504 16.6549 11.0788 16.7266 10.9904 16.7266H3.12777C3.03941 16.7266 2.96777 16.6549 2.96777 16.5666V2.88669C2.96777 2.79833 3.03941 2.72669 3.12777 2.72669H10.9904C11.0788 2.72669 11.1504 2.79833 11.1504 2.88669V16.5666Z" stroke="#FF7901" stroke-width="1.16342" stroke-miterlimit="10"/>
<path d="M18.4925 10.5817C18.4594 10.5605 18.4325 10.5311 18.4143 10.4963C18.3379 10.3504 18.1029 9.84996 18.2881 9.53705C18.3688 9.40073 18.4828 9.31082 18.6178 9.27707C18.7461 9.24499 18.8848 9.26869 19.0083 9.34382C19.0739 9.38376 19.085 9.48705 19.1243 9.54773C19.1866 9.55391 19.2978 9.52033 19.3642 9.56028C19.5297 9.66094 19.5877 9.79109 19.6078 9.88281C19.6362 10.0125 19.6092 10.1478 19.5274 10.2847C19.3095 10.6346 18.7189 10.6228 18.6028 10.6169C18.5636 10.615 18.5256 10.6028 18.4925 10.5817Z" fill="#FF7901"/>
</g>
</svg>
