<svg width="18" height="16" viewBox="0 0 18 16" fill="none" xmlns="http://www.w3.org/2000/svg">
<g clip-path="url(#clip0_364_114116)">
<path d="M15.5877 4.99926H15.0925V3.50184C15.0925 3.10096 14.9392 2.72366 14.6562 2.44068C14.5029 2.2874 14.3025 2.16949 14.0903 2.09875V1.49742C14.0903 1.09654 13.937 0.719234 13.654 0.436256C13.371 0.153279 12.9937 0 12.5928 0H3.58473C3.18384 0 2.80654 0.153279 2.52356 0.436256C2.24059 0.719234 2.08731 1.09654 2.08731 1.49742V2.49963V5.37657C1.3327 5.57701 0.66063 6.06043 0.295118 6.81503C-0.365163 8.13559 0.141838 9.72734 1.40344 10.4584C1.203 10.93 1.0851 11.4606 1.0851 12.0029C1.0851 14.2078 2.87728 16 5.09394 16C7.31059 16 9.10278 14.2078 9.10278 12.0029H13.6068C14.0077 12.0029 14.385 11.8497 14.668 11.5667C14.951 11.2837 15.1043 10.9064 15.1043 10.5055V9.00811H15.5995C16.4248 9.00811 17.0969 8.33604 17.0969 7.51069V6.50847C17.0969 5.68312 16.4248 5.01105 15.5995 5.01105L15.5877 4.99926ZM3.08952 1.49742C3.08952 1.36772 3.13668 1.23803 3.23101 1.1437C3.32533 1.04937 3.45503 1.00221 3.58473 1.00221H12.5928C12.7225 1.00221 12.8522 1.04937 12.9466 1.1437C13.0409 1.23803 13.088 1.36772 13.088 1.49742V1.99263H3.08952V1.49742ZM1.04972 7.19234C1.27375 6.74429 1.65105 6.43773 2.08731 6.27266V9.37362C1.99298 9.47974 1.89865 9.58585 1.81612 9.70376C0.943607 9.19676 0.601676 8.10022 1.06151 7.18055L1.04972 7.19234ZM5.08215 14.9978C3.41966 14.9978 2.07552 13.6536 2.07552 12.0029C2.07552 11.1894 2.40566 10.4466 2.93624 9.9042C3.47861 9.35004 4.24501 9.00811 5.08215 9.00811C5.28259 9.00811 5.47124 9.03169 5.65989 9.06706C5.70706 9.06706 5.75422 9.09064 5.80138 9.11422C5.94287 9.1496 6.07257 9.18497 6.20227 9.24392C6.26122 9.2675 6.30838 9.29108 6.35555 9.31467C6.47345 9.37362 6.59136 9.43257 6.69748 9.50332C6.74464 9.53869 6.7918 9.57406 6.83896 9.60943C6.94508 9.69197 7.03941 9.76271 7.13373 9.85704C7.1691 9.89241 7.21627 9.93957 7.25164 9.97495C7.34597 10.0693 7.4285 10.1754 7.49924 10.2815C7.53462 10.3287 7.5582 10.3758 7.59357 10.4112C7.66431 10.5291 7.73506 10.647 7.79401 10.7649C7.81759 10.8121 7.84118 10.8592 7.85297 10.9064C7.90013 11.0361 7.94729 11.1776 7.98266 11.3191C7.98266 11.3663 8.00625 11.4134 8.01804 11.4606C8.05341 11.6374 8.07699 11.8261 8.07699 12.0147C8.07699 13.6654 6.73285 15.0096 5.07036 15.0096L5.08215 14.9978ZM14.102 10.4937C14.102 10.6234 14.0549 10.7531 13.9606 10.8475C13.8662 10.9418 13.7365 10.9889 13.6068 10.9889H8.97308C8.92592 10.8121 8.86697 10.647 8.79622 10.4819C8.79622 10.4584 8.79622 10.4466 8.77264 10.423C8.66653 10.1872 8.54862 9.96316 8.40713 9.75092C8.40713 9.75092 8.40713 9.73913 8.39534 9.72734C8.26564 9.53869 8.11236 9.36183 7.95908 9.19676C7.91192 9.1496 7.86476 9.11422 7.81759 9.06706C7.6879 8.94915 7.5582 8.83125 7.40492 8.72513C7.34597 8.67797 7.27522 8.64259 7.21627 8.59543C7.07478 8.5129 6.93329 8.43036 6.78001 8.35962C6.70927 8.32425 6.63852 8.28887 6.55599 8.26529C6.39092 8.20634 6.22585 8.15918 6.06078 8.11201C5.99003 8.08843 5.91929 8.06485 5.83675 8.05306C5.60094 8.0059 5.35333 7.98231 5.10573 7.98231C5.10573 7.98231 5.09394 7.98231 5.08215 7.98231C5.08215 7.98231 5.05857 7.98231 5.04678 7.98231C4.81096 7.98231 4.58694 8.0059 4.37471 8.05306C4.30396 8.06485 4.24501 8.07664 4.17426 8.08843C3.96203 8.13559 3.7498 8.19455 3.54935 8.27708C3.50219 8.28887 3.46682 8.31245 3.43145 8.33604C3.31354 8.39499 3.19563 8.44215 3.07773 8.5129V2.99484H13.5833C13.713 2.99484 13.8426 3.042 13.937 3.13633C14.0313 3.23066 14.0785 3.36035 14.0785 3.49005V4.98747H13.5833C12.7579 4.98747 12.0858 5.65954 12.0858 6.48489V7.4871C12.0858 8.31245 12.7579 8.98453 13.5833 8.98453H14.0903V10.4819L14.102 10.4937ZM16.0947 7.4989C16.0947 7.77008 15.8707 7.99411 15.5995 7.99411H14.609H13.6068C13.3356 7.99411 13.1116 7.77008 13.1116 7.4989V6.49668C13.1116 6.28445 13.2413 6.10759 13.4182 6.03685C13.4771 6.01326 13.5361 6.00147 13.6068 6.00147H15.6113C15.8824 6.00147 16.1065 6.2255 16.1065 6.49668V7.4989H16.0947Z" fill="white"/>
<path d="M3.92613 12.3451L4.58641 11.6848V13.5005C4.58641 13.7717 4.81044 13.9958 5.08162 13.9958C5.35281 13.9958 5.57683 13.7717 5.57683 13.5005V11.6966L6.23711 12.3569C6.43756 12.5573 6.74411 12.5573 6.94456 12.3569C7.145 12.1564 7.145 11.8499 6.94456 11.6494L5.44714 10.152C5.34102 10.0459 5.21132 10.0105 5.08162 10.0105C4.95193 10.0105 4.81044 10.0577 4.71611 10.152L3.21869 11.6494C3.01825 11.8499 3.01825 12.1564 3.21869 12.3569C3.41913 12.5573 3.72569 12.5573 3.92613 12.3569V12.3451Z" fill="white"/>
</g>
<defs>
<clipPath id="clip0_364_114116">
<rect width="17.0965" height="16" fill="white"/>
</clipPath>
</defs>
</svg>
