<?xml version="1.0" encoding="UTF-8"?>
<svg id="Capa_1" data-name="Capa 1" xmlns="http://www.w3.org/2000/svg" viewBox="0 0 16 13.33">
  <defs>
    <style>
      .cls-1 {
        fill-rule: evenodd;
      }

      .cls-1, .cls-2 {
        fill: #ff7901;
      }
    </style>
  </defs>
  <path class="cls-2" d="M2.67,2.67h3.33v1.33h-3.33v-1.33Z"/>
  <path class="cls-2" d="M13.33,2.67h-3.33v1.33h3.33v-1.33Z"/>
  <path class="cls-2" d="M10,5.33h3.33v1.33h-3.33v-1.33Z"/>
  <path class="cls-2" d="M6,5.33h-3.33v1.33h3.33v-1.33Z"/>
  <path class="cls-2" d="M10,8h3.33v1.33h-3.33v-1.33Z"/>
  <path class="cls-2" d="M6,8h-3.33v1.33h3.33v-1.33Z"/>
  <path class="cls-1" d="M16,0h-6.67c-.56,0-1.04.18-1.39.51-.34-.29-.78-.51-1.28-.51H0v12.67h6.67c.12,0,.29.07.45.22.16.16.22.33.22.45h1.33c0-.21.06-.38.15-.48.08-.09.22-.19.51-.19h6.67V0ZM6.67,1.33H1.33v10h5.33c.49,0,.94.22,1.28.51.35-.33.82-.51,1.39-.51h5.33V1.33h-5.33c-.29,0-.44.1-.51.19-.09.1-.15.27-.15.48v8h-1.33V2c0-.12-.06-.29-.22-.45-.16-.16-.33-.22-.45-.22Z"/>
</svg>