<svg xmlns="http://www.w3.org/2000/svg" width="26" height="26" viewBox="0 0 26 26" fill="none">
<mask id="path-1-outside-1_262_6922" maskUnits="userSpaceOnUse" x="0" y="0" width="26" height="26" fill="black">
<rect fill="white" width="26" height="26"/>
<path d="M13 1C6.37 1 1 6.37 1 13C1 19.63 6.37 25 13 25C19.63 25 25 19.63 25 13C25 6.37 19.63 1 13 1ZM24.06 10.86L21.13 11.41C20.92 10.34 20.51 9.35 19.93 8.47L22.38 6.77C23.19 7.99 23.77 9.37 24.06 10.87V10.86ZM20.55 13C20.55 15.09 19.7 16.97 18.34 18.34C16.97 19.71 15.08 20.55 13 20.55C10.91 20.55 9.03 19.7 7.66 18.34C6.29 16.97 5.45 15.08 5.45 13C5.45 10.91 6.3 9.03 7.66 7.66C9.03 6.29 10.92 5.45 13 5.45C15.09 5.45 16.98 6.3 18.34 7.66C19.71 9.03 20.55 10.92 20.55 13ZM20.96 5.03C21.32 5.39 21.65 5.77 21.95 6.17L19.5 7.87C19.1 7.36 18.63 6.89 18.12 6.49L19.8 4.01C20.21 4.32 20.6 4.66 20.97 5.03H20.96ZM15.22 1.95C16.67 2.24 18.02 2.81 19.21 3.59L17.54 6.06C16.68 5.5 15.72 5.09 14.68 4.88L15.23 1.95H15.22ZM13 1.73C13.51 1.73 14.01 1.77 14.5 1.83L13.95 4.77C13.64 4.73 13.32 4.71 13 4.71C12.66 4.71 12.32 4.73 11.99 4.77L11.44 1.83C11.95 1.76 12.47 1.72 13 1.72V1.73ZM10.72 1.96L11.27 4.9C10.23 5.12 9.26 5.54 8.4 6.11L6.72 3.64C7.91 2.84 9.27 2.26 10.72 1.96ZM5.03 5.03C5.37 4.69 5.74 4.36 6.13 4.07L7.81 6.54C7.3 6.95 6.85 7.41 6.45 7.92L3.99 6.22C4.31 5.8 4.65 5.4 5.02 5.03H5.03ZM3.58 6.82L6.04 8.51C5.48 9.38 5.08 10.36 4.87 11.41L1.94 10.86C2.22 9.39 2.79 8.02 3.58 6.81V6.82ZM1.73 13C1.73 12.52 1.76 12.05 1.82 11.59L4.76 12.14C4.73 12.42 4.71 12.71 4.71 13C4.71 13.35 4.73 13.7 4.78 14.05L1.84 14.6C1.77 14.08 1.73 13.55 1.73 13.01V13ZM1.97 15.31L4.91 14.76C5.14 15.8 5.56 16.77 6.14 17.63L3.69 19.33C2.87 18.13 2.28 16.77 1.98 15.31H1.97ZM5.03 20.97C4.7 20.64 4.4 20.29 4.11 19.93L6.56 18.23C6.96 18.72 7.41 19.16 7.91 19.55L6.23 22.03C5.8 21.71 5.4 21.36 5.02 20.98L5.03 20.97ZM10.76 24.05C9.34 23.76 8.01 23.21 6.84 22.44L8.51 19.97C9.35 20.51 10.29 20.91 11.3 21.12L10.75 24.05H10.76ZM13 24.27C12.48 24.27 11.98 24.23 11.48 24.17L12.03 21.23C12.35 21.27 12.67 21.29 13 21.29C13.31 21.29 13.61 21.27 13.91 21.24L14.46 24.18C13.98 24.24 13.49 24.28 13 24.28V24.27ZM15.18 24.06L14.63 21.13C15.65 20.93 16.61 20.53 17.46 19.98L19.14 22.45C17.95 23.22 16.61 23.78 15.18 24.06ZM20.97 20.97C20.59 21.35 20.18 21.71 19.75 22.03L18.07 19.56C18.57 19.17 19.03 18.72 19.44 18.23L21.9 19.93C21.61 20.3 21.31 20.65 20.98 20.97H20.97ZM22.32 19.34L19.86 17.65C20.44 16.79 20.86 15.82 21.09 14.78L24.03 15.33C23.72 16.79 23.13 18.15 22.32 19.34ZM21.22 14.06C21.26 13.71 21.29 13.36 21.29 13C21.29 12.7 21.27 12.41 21.24 12.12L24.18 11.57C24.24 12.04 24.27 12.51 24.27 12.99C24.27 13.54 24.23 14.07 24.15 14.59L21.21 14.04L21.22 14.06Z"/>
</mask>
<path d="M13 1C6.37 1 1 6.37 1 13C1 19.63 6.37 25 13 25C19.63 25 25 19.63 25 13C25 6.37 19.63 1 13 1ZM24.06 10.86L21.13 11.41C20.92 10.34 20.51 9.35 19.93 8.47L22.38 6.77C23.19 7.99 23.77 9.37 24.06 10.87V10.86ZM20.55 13C20.55 15.09 19.7 16.97 18.34 18.34C16.97 19.71 15.08 20.55 13 20.55C10.91 20.55 9.03 19.7 7.66 18.34C6.29 16.97 5.45 15.08 5.45 13C5.45 10.91 6.3 9.03 7.66 7.66C9.03 6.29 10.92 5.45 13 5.45C15.09 5.45 16.98 6.3 18.34 7.66C19.71 9.03 20.55 10.92 20.55 13ZM20.96 5.03C21.32 5.39 21.65 5.77 21.95 6.17L19.5 7.87C19.1 7.36 18.63 6.89 18.12 6.49L19.8 4.01C20.21 4.32 20.6 4.66 20.97 5.03H20.96ZM15.22 1.95C16.67 2.24 18.02 2.81 19.21 3.59L17.54 6.06C16.68 5.5 15.72 5.09 14.68 4.88L15.23 1.95H15.22ZM13 1.73C13.51 1.73 14.01 1.77 14.5 1.83L13.95 4.77C13.64 4.73 13.32 4.71 13 4.71C12.66 4.71 12.32 4.73 11.99 4.77L11.44 1.83C11.95 1.76 12.47 1.72 13 1.72V1.73ZM10.72 1.96L11.27 4.9C10.23 5.12 9.26 5.54 8.4 6.11L6.72 3.64C7.91 2.84 9.27 2.26 10.72 1.96ZM5.03 5.03C5.37 4.69 5.74 4.36 6.13 4.07L7.81 6.54C7.3 6.95 6.85 7.41 6.45 7.92L3.99 6.22C4.31 5.8 4.65 5.4 5.02 5.03H5.03ZM3.58 6.82L6.04 8.51C5.48 9.38 5.08 10.36 4.87 11.41L1.94 10.86C2.22 9.39 2.79 8.02 3.58 6.81V6.82ZM1.73 13C1.73 12.52 1.76 12.05 1.82 11.59L4.76 12.14C4.73 12.42 4.71 12.71 4.71 13C4.71 13.35 4.73 13.7 4.78 14.05L1.84 14.6C1.77 14.08 1.73 13.55 1.73 13.01V13ZM1.97 15.31L4.91 14.76C5.14 15.8 5.56 16.77 6.14 17.63L3.69 19.33C2.87 18.13 2.28 16.77 1.98 15.31H1.97ZM5.03 20.97C4.7 20.64 4.4 20.29 4.11 19.93L6.56 18.23C6.96 18.72 7.41 19.16 7.91 19.55L6.23 22.03C5.8 21.71 5.4 21.36 5.02 20.98L5.03 20.97ZM10.76 24.05C9.34 23.76 8.01 23.21 6.84 22.44L8.51 19.97C9.35 20.51 10.29 20.91 11.3 21.12L10.75 24.05H10.76ZM13 24.27C12.48 24.27 11.98 24.23 11.48 24.17L12.03 21.23C12.35 21.27 12.67 21.29 13 21.29C13.31 21.29 13.61 21.27 13.91 21.24L14.46 24.18C13.98 24.24 13.49 24.28 13 24.28V24.27ZM15.18 24.06L14.63 21.13C15.65 20.93 16.61 20.53 17.46 19.98L19.14 22.45C17.95 23.22 16.61 23.78 15.18 24.06ZM20.97 20.97C20.59 21.35 20.18 21.71 19.75 22.03L18.07 19.56C18.57 19.17 19.03 18.72 19.44 18.23L21.9 19.93C21.61 20.3 21.31 20.65 20.98 20.97H20.97ZM22.32 19.34L19.86 17.65C20.44 16.79 20.86 15.82 21.09 14.78L24.03 15.33C23.72 16.79 23.13 18.15 22.32 19.34ZM21.22 14.06C21.26 13.71 21.29 13.36 21.29 13C21.29 12.7 21.27 12.41 21.24 12.12L24.18 11.57C24.24 12.04 24.27 12.51 24.27 12.99C24.27 13.54 24.23 14.07 24.15 14.59L21.21 14.04L21.22 14.06Z" fill="#FF7901"/>
<path d="M13 1C6.37 1 1 6.37 1 13C1 19.63 6.37 25 13 25C19.63 25 25 19.63 25 13C25 6.37 19.63 1 13 1ZM24.06 10.86L21.13 11.41C20.92 10.34 20.51 9.35 19.93 8.47L22.38 6.77C23.19 7.99 23.77 9.37 24.06 10.87V10.86ZM20.55 13C20.55 15.09 19.7 16.97 18.34 18.34C16.97 19.71 15.08 20.55 13 20.55C10.91 20.55 9.03 19.7 7.66 18.34C6.29 16.97 5.45 15.08 5.45 13C5.45 10.91 6.3 9.03 7.66 7.66C9.03 6.29 10.92 5.45 13 5.45C15.09 5.45 16.98 6.3 18.34 7.66C19.71 9.03 20.55 10.92 20.55 13ZM20.96 5.03C21.32 5.39 21.65 5.77 21.95 6.17L19.5 7.87C19.1 7.36 18.63 6.89 18.12 6.49L19.8 4.01C20.21 4.32 20.6 4.66 20.97 5.03H20.96ZM15.22 1.95C16.67 2.24 18.02 2.81 19.21 3.59L17.54 6.06C16.68 5.5 15.72 5.09 14.68 4.88L15.23 1.95H15.22ZM13 1.73C13.51 1.73 14.01 1.77 14.5 1.83L13.95 4.77C13.64 4.73 13.32 4.71 13 4.71C12.66 4.71 12.32 4.73 11.99 4.77L11.44 1.83C11.95 1.76 12.47 1.72 13 1.72V1.73ZM10.72 1.96L11.27 4.9C10.23 5.12 9.26 5.54 8.4 6.11L6.72 3.64C7.91 2.84 9.27 2.26 10.72 1.96ZM5.03 5.03C5.37 4.69 5.74 4.36 6.13 4.07L7.81 6.54C7.3 6.95 6.85 7.41 6.45 7.92L3.99 6.22C4.31 5.8 4.65 5.4 5.02 5.03H5.03ZM3.58 6.82L6.04 8.51C5.48 9.38 5.08 10.36 4.87 11.41L1.94 10.86C2.22 9.39 2.79 8.02 3.58 6.81V6.82ZM1.73 13C1.73 12.52 1.76 12.05 1.82 11.59L4.76 12.14C4.73 12.42 4.71 12.71 4.71 13C4.71 13.35 4.73 13.7 4.78 14.05L1.84 14.6C1.77 14.08 1.73 13.55 1.73 13.01V13ZM1.97 15.31L4.91 14.76C5.14 15.8 5.56 16.77 6.14 17.63L3.69 19.33C2.87 18.13 2.28 16.77 1.98 15.31H1.97ZM5.03 20.97C4.7 20.64 4.4 20.29 4.11 19.93L6.56 18.23C6.96 18.72 7.41 19.16 7.91 19.55L6.23 22.03C5.8 21.71 5.4 21.36 5.02 20.98L5.03 20.97ZM10.76 24.05C9.34 23.76 8.01 23.21 6.84 22.44L8.51 19.97C9.35 20.51 10.29 20.91 11.3 21.12L10.75 24.05H10.76ZM13 24.27C12.48 24.27 11.98 24.23 11.48 24.17L12.03 21.23C12.35 21.27 12.67 21.29 13 21.29C13.31 21.29 13.61 21.27 13.91 21.24L14.46 24.18C13.98 24.24 13.49 24.28 13 24.28V24.27ZM15.18 24.06L14.63 21.13C15.65 20.93 16.61 20.53 17.46 19.98L19.14 22.45C17.95 23.22 16.61 23.78 15.18 24.06ZM20.97 20.97C20.59 21.35 20.18 21.71 19.75 22.03L18.07 19.56C18.57 19.17 19.03 18.72 19.44 18.23L21.9 19.93C21.61 20.3 21.31 20.65 20.98 20.97H20.97ZM22.32 19.34L19.86 17.65C20.44 16.79 20.86 15.82 21.09 14.78L24.03 15.33C23.72 16.79 23.13 18.15 22.32 19.34ZM21.22 14.06C21.26 13.71 21.29 13.36 21.29 13C21.29 12.7 21.27 12.41 21.24 12.12L24.18 11.57C24.24 12.04 24.27 12.51 24.27 12.99C24.27 13.54 24.23 14.07 24.15 14.59L21.21 14.04L21.22 14.06Z" stroke="#FF7901" stroke-width="0.4" mask="url(#path-1-outside-1_262_6922)"/>
<path d="M13.63 12.1602L13.34 12.0902V10.0702C14.24 10.1602 15.09 10.6602 15.29 10.8702L16 9.56022C15.35 9.13022 14.46 8.73022 13.45 8.65022V7.47021H12.75V8.66021C11.23 8.78021 10.07 9.67022 10.07 11.2502C10.07 12.5202 10.84 13.0602 12.42 13.5002L12.85 13.6202V15.6302C11.73 15.5102 10.69 14.8902 10.44 14.6402L9.73 16.0302C10.56 16.6302 11.66 17.0002 12.75 17.0802V18.3802H13.45V17.0902C14.98 17.0302 16.29 16.3402 16.29 14.6302C16.29 13.1102 15.26 12.6002 13.62 12.1702L13.63 12.1602ZM12.86 11.9502C12.11 11.7302 11.74 11.5002 11.74 10.9802C11.74 10.4602 12.11 10.1002 12.86 10.0602V11.9602V11.9502ZM13.34 15.6302V13.7302C14.11 13.9802 14.58 14.2302 14.58 14.7702C14.58 15.3102 14.15 15.6002 13.34 15.6202V15.6302Z" fill="#FF7901"/>
</svg>