<svg width="25" height="25" viewBox="0 0 25 25" fill="none" xmlns="http://www.w3.org/2000/svg">
<path fill-rule="evenodd" clip-rule="evenodd" d="M11.2868 2.25946L11.3261 2.25946H14.2776L14.3169 2.25946C15.8939 2.25945 17.131 2.25945 18.1195 2.35344C19.1274 2.44927 19.954 2.64807 20.6831 3.09486C21.4459 3.56231 22.0872 4.20366 22.5547 4.96647C23.0015 5.69557 23.2003 6.52219 23.2961 7.53007C23.3901 8.51859 23.3901 9.7557 23.3901 11.3326V11.372V12.3558V12.3836C23.3901 13.5061 23.3901 14.3868 23.3416 15.0984C23.2921 15.8226 23.19 16.4262 22.9586 16.9848C22.3832 18.3739 21.2796 19.4775 19.8905 20.0529C19.0962 20.3819 18.192 20.4547 16.9571 20.4759C16.5248 20.4834 16.2519 20.4889 16.044 20.5119C15.85 20.5334 15.7763 20.5647 15.7341 20.5892C15.6894 20.6152 15.627 20.6632 15.5173 20.8138C15.3983 20.9771 15.2637 21.2029 15.0497 21.5645L14.5164 22.4656C13.7506 23.7593 11.8531 23.7593 11.0873 22.4656L10.554 21.5645C10.34 21.2029 10.2054 20.9771 10.0864 20.8138C9.97665 20.6632 9.91427 20.6152 9.8696 20.5892C9.82739 20.5647 9.75368 20.5334 9.5597 20.5119C9.35181 20.4889 9.07885 20.4834 8.64663 20.4759C7.41165 20.4547 6.50756 20.3819 5.71326 20.0529C4.32417 19.4775 3.22054 18.3739 2.64516 16.9848C2.41377 16.4262 2.31158 15.8226 2.26217 15.0984C2.21362 14.3868 2.21362 13.5061 2.21362 12.3836V12.3558V11.372L2.21362 11.3327C2.21362 9.7557 2.21361 8.51859 2.3076 7.53007C2.40343 6.52219 2.60223 5.69557 3.04902 4.96647C3.51648 4.20366 4.15782 3.56231 4.92064 3.09486C5.64973 2.64807 6.47635 2.44927 7.48423 2.35344C8.47275 2.25945 9.70987 2.25945 11.2868 2.25946ZM7.62621 3.8467C6.72813 3.93209 6.15818 4.09573 5.70438 4.37382C5.14341 4.71759 4.67175 5.18924 4.32798 5.75022C4.04989 6.20402 3.88626 6.77397 3.80087 7.67205C3.71441 8.5813 3.71362 9.7472 3.71362 11.372V12.3558C3.71362 13.5121 3.71403 14.3417 3.75869 14.9963C3.80289 15.6441 3.88792 16.0654 4.03098 16.4108C4.45412 17.4324 5.26574 18.244 6.28729 18.6671C6.79225 18.8763 7.43734 18.9549 8.67247 18.9762L8.70411 18.9767C9.09535 18.9834 9.439 18.9893 9.72478 19.021C10.0322 19.055 10.3337 19.1239 10.6237 19.2926C10.9113 19.4598 11.1185 19.6832 11.2986 19.9303C11.4649 20.1585 11.6357 20.447 11.8286 20.7731L11.8448 20.8005L12.3782 21.7015C12.5631 22.014 13.0406 22.014 13.2255 21.7015L13.7589 20.8005L13.7751 20.7731C13.968 20.447 14.1388 20.1585 14.3051 19.9303C14.4852 19.6832 14.6924 19.4598 14.9799 19.2926C15.27 19.1239 15.5715 19.055 15.8789 19.021C16.1647 18.9893 16.5083 18.9834 16.8996 18.9767L16.9312 18.9762C18.1664 18.9549 18.8115 18.8763 19.3164 18.6671C20.338 18.244 21.1496 17.4324 21.5727 16.4108C21.7158 16.0654 21.8008 15.6441 21.845 14.9963C21.8897 14.3417 21.8901 13.5121 21.8901 12.3558V11.372C21.8901 9.7472 21.8893 8.5813 21.8029 7.67205C21.7175 6.77397 21.5538 6.20402 21.2757 5.75022C20.932 5.18924 20.4603 4.71759 19.8993 4.37382C19.4455 4.09573 18.8756 3.93209 17.9775 3.8467C17.0683 3.76025 15.9024 3.75946 14.2776 3.75946H11.3261C9.70136 3.75946 8.53546 3.76025 7.62621 3.8467ZM8.11657 9.89623C8.11657 9.48201 8.45235 9.14623 8.86657 9.14623H16.7372C17.1514 9.14623 17.4872 9.48201 17.4872 9.89623C17.4872 10.3104 17.1514 10.6462 16.7372 10.6462H8.86657C8.45235 10.6462 8.11657 10.3104 8.11657 9.89623ZM8.11657 13.3396C8.11657 12.9254 8.45235 12.5896 8.86657 12.5896H14.2776C14.6918 12.5896 15.0276 12.9254 15.0276 13.3396C15.0276 13.7538 14.6918 14.0896 14.2776 14.0896H8.86657C8.45235 14.0896 8.11657 13.7538 8.11657 13.3396Z" fill="#FF7800"/>
</svg>
