<svg width="16" height="16" viewBox="0 0 16 16" fill="none" xmlns="http://www.w3.org/2000/svg">
<g clip-path="url(#clip0_376_361197)">
<path d="M9.92268 9.22652C7.38124 9.22652 5.31494 7.16022 5.31494 4.61878C5.31494 2.07735 7.38124 0 9.92268 0C12.4641 0 14.5304 2.0663 14.5304 4.60773C14.5304 7.14917 12.4641 9.21547 9.92268 9.21547V9.22652ZM9.92268 0.917127C7.87848 0.917127 6.22102 2.57459 6.22102 4.61878C6.22102 6.66298 7.87848 8.32044 9.92268 8.32044C11.9669 8.32044 13.6243 6.66298 13.6243 4.61878C13.6243 2.57459 11.9669 0.917127 9.92268 0.917127Z" fill="#FF7901"/>
<path d="M2.90616 15.5027C2.78462 15.5027 2.67412 15.4585 2.58572 15.3701C2.49732 15.2817 2.45312 15.1712 2.45312 15.0497V11.1381C2.45312 10.8839 2.65202 10.685 2.90616 10.685H4.18793C4.77357 10.1657 5.52495 9.87842 6.32053 9.87842C7.11611 9.87842 7.86749 10.1657 8.45313 10.685H9.73489C10.1216 10.685 10.4752 10.8397 10.7515 11.1049C10.9504 11.3038 11.094 11.558 11.1493 11.8342L12.7625 10.6298C13.1603 10.3315 13.6465 10.1878 14.1437 10.221C14.641 10.2541 15.094 10.4641 15.4476 10.8176C15.6244 10.9944 15.6244 11.2817 15.4476 11.4585L11.8233 15.0828C11.547 15.3591 11.1935 15.5027 10.8067 15.5027H2.90616ZM3.3592 11.5911V14.5856H10.8067C10.9504 14.5856 11.0719 14.5304 11.1714 14.4309L14.4089 11.1933C14.0553 11.0497 13.6354 11.1049 13.315 11.337L10.5084 13.4364C10.431 13.4917 10.3316 13.5248 10.2321 13.5248H7.79014C7.536 13.5248 7.3371 13.3259 7.3371 13.0718C7.3371 12.8176 7.536 12.6187 7.79014 12.6187H9.74594C9.88959 12.6187 10.0111 12.5635 10.1106 12.4641C10.21 12.3646 10.2653 12.232 10.2653 12.0994C10.2653 11.9668 10.21 11.8342 10.1106 11.7348C10.0111 11.6353 9.87854 11.5801 9.74594 11.5801H8.27633C8.15478 11.5801 8.03323 11.5359 7.95589 11.4475C7.52495 11.0165 6.93931 10.7734 6.32053 10.7734C5.70174 10.7734 5.12716 11.0165 4.68517 11.4475C4.59677 11.5359 4.48627 11.5801 4.36473 11.5801H3.3592V11.5911Z" fill="#FF7901"/>
<path d="M2.90608 16H0.453039C0.198895 16 0 15.8011 0 15.547V10.663C0 10.4089 0.198895 10.21 0.453039 10.21H2.89503C3.14917 10.21 3.34807 10.4089 3.34807 10.663V15.547C3.34807 15.8011 3.14917 16 2.89503 16H2.90608ZM0.917127 15.0829H2.45304V11.105H0.917127V15.0829Z" fill="#FF7901"/>
<path fill-rule="evenodd" clip-rule="evenodd" d="M10.5967 6.48597C10.5194 6.56332 10.4199 6.60752 10.3094 6.60752C10.1989 6.60752 10.0995 6.56332 10.0221 6.48597C9.94479 6.40862 9.90059 6.30918 9.90059 6.19868C9.90059 6.08818 9.94479 5.98873 10.0221 5.91139L10.9282 5.00531H7.92269C7.7017 5.00531 7.5249 4.82851 7.5249 4.60752C7.5249 4.38652 7.7017 4.20973 7.92269 4.20973H10.9282L10.0221 3.30365C9.92269 3.2042 9.88954 3.04951 9.92269 2.91691C9.95584 2.78431 10.0663 2.67382 10.21 2.62962C10.3426 2.59647 10.4973 2.62962 10.5967 2.72907L12.1879 4.32023C12.1879 4.32023 12.2431 4.40862 12.2763 4.45282C12.3205 4.54122 12.3205 4.66277 12.2763 4.75117C12.2652 4.79536 12.2321 4.83956 12.1879 4.88376L10.5967 6.47492V6.48597Z" fill="#FF7901"/>
</g>
<defs>
<clipPath id="clip0_376_361197">
<rect width="15.5801" height="16" fill="white"/>
</clipPath>
</defs>
</svg>
