<svg width="16" height="16" viewBox="0 0 16 16" fill="none" xmlns="http://www.w3.org/2000/svg">
<path d="M2.66699 4H6.00033V5.33333H2.66699V4Z" fill="white"/>
<path d="M13.3333 4H10V5.33333H13.3333V4Z" fill="white"/>
<path d="M10 6.66675H13.3333V8.00008H10V6.66675Z" fill="white"/>
<path d="M6.00033 6.66675H2.66699V8.00008H6.00033V6.66675Z" fill="white"/>
<path d="M10 9.33325H13.3333V10.6666H10V9.33325Z" fill="white"/>
<path d="M6.00033 9.33325H2.66699V10.6666H6.00033V9.33325Z" fill="white"/>
<path fill-rule="evenodd" clip-rule="evenodd" d="M16 1.33325H9.33333C8.76881 1.33325 8.29369 1.51699 7.94508 1.84268C7.60983 1.54971 7.16075 1.33325 6.66667 1.33325H0V13.9999H6.66667C6.78317 13.9999 6.95549 14.0649 7.11193 14.2214C7.26836 14.3778 7.33333 14.5501 7.33333 14.6666H8.66667C8.66667 14.4586 8.72973 14.2913 8.82045 14.1866C8.89768 14.0974 9.03955 13.9999 9.33333 13.9999H16V1.33325ZM6.66667 2.66659H1.33333V12.6666H6.66667C7.16075 12.6666 7.60983 12.883 7.94508 13.176C8.29369 12.8503 8.76881 12.6666 9.33333 12.6666H14.6667V2.66659H9.33333C9.03955 2.66659 8.89768 2.76411 8.82045 2.85321C8.72973 2.95789 8.66667 3.12525 8.66667 3.33325V11.3333H7.33333V3.33325C7.33333 3.21675 7.26836 3.04443 7.11193 2.88799C6.95549 2.73156 6.78317 2.66659 6.66667 2.66659Z" fill="white"/>
</svg>
