<svg width="27" height="24" viewBox="0 0 27 24" fill="none" xmlns="http://www.w3.org/2000/svg">
<path d="M13.1719 23.5633C19.5579 23.5633 24.7348 18.3864 24.7348 12.0004C24.7348 5.61438 19.5579 0.4375 13.1719 0.4375C6.78589 0.4375 1.60901 5.61438 1.60901 12.0004C1.60901 18.3864 6.78589 23.5633 13.1719 23.5633Z" fill="#1C2334"/>
<path d="M13.1719 23.9993C6.55483 23.9993 1.17188 18.6163 1.17188 11.9993C1.17188 5.38222 6.55556 0 13.1719 0C19.7882 0 25.1719 5.38295 25.1719 12C25.1719 18.617 19.7889 24 13.1719 24V23.9993ZM13.1719 0.874211C7.0371 0.874211 2.04609 5.86523 2.04609 12C2.04609 18.1348 7.0371 23.1258 13.1719 23.1258C19.3066 23.1258 24.2977 18.1348 24.2977 12C24.2977 5.86523 19.3066 0.874211 13.1719 0.874211Z" fill="#FF7901"/>
<path d="M13.2696 23.3557C19.5414 23.3557 24.6257 18.2714 24.6257 11.9996C24.6257 5.72784 19.5414 0.643555 13.2696 0.643555C6.99786 0.643555 1.91357 5.72784 1.91357 11.9996C1.91357 18.2714 6.99786 23.3557 13.2696 23.3557Z" fill="#1C2334"/>
<path d="M13.2698 23.9993C6.65303 23.9993 1.26978 18.616 1.26978 11.9993C1.26978 5.38254 6.65303 0 13.2698 0C19.8865 0 25.2698 5.38325 25.2698 12C25.2698 18.6167 19.8865 24 13.2698 24V23.9993ZM13.2698 1.28786C7.3635 1.28786 2.55764 6.09301 2.55764 12C2.55764 17.907 7.36278 22.7121 13.2698 22.7121C19.1768 22.7121 23.9819 17.907 23.9819 12C23.9819 6.09301 19.176 1.28786 13.2698 1.28786Z" fill="#FF7901"/>
<path d="M26.6218 3.51855H22.9557V3.94856H26.6218V3.51855Z" fill="url(#paint0_linear_274_112048)"/>
<path d="M24.3311 13.375H17.2543V13.805H24.3311V13.375Z" fill="url(#paint1_linear_274_112048)"/>
<path d="M8.93044 13.8047L3.90564 20.3907H7.90087L12.5264 14.1231L14.5355 20.3907H18.4019L15.9772 13.8047H8.93044Z" fill="#FF7901"/>
<path d="M9.76915 13.806H16.6771L16.0167 11.9879L22.3823 3.51953H18.3635L14.1236 9.57033L12.337 3.51953H8.59863L11.379 11.6717L9.76987 13.8067L9.76915 13.806Z" fill="#FF7901"/>
<path d="M11.0105 13.806H17.9184L17.2581 11.9879L23.6244 3.51953H19.6055L15.3656 9.57033L13.5791 3.51953H9.8407L12.621 11.6717L11.0119 13.8067L11.0105 13.806Z" fill="#00C6FF"/>
<path d="M10.0478 13.8047L5.02161 20.3907H9.01683L13.6424 14.1231L15.6515 20.3907H19.5179L17.0946 13.8047H10.0478Z" fill="#00C6FF"/>
<path d="M9.4276 13.8047L4.40137 20.3907H8.3966L13.0222 14.1231L15.0312 20.3907H18.8977L16.4743 13.8047H9.4276Z" fill="white"/>
<path d="M10.2654 13.806H17.1733L16.5115 11.9879L22.8785 3.51953H18.8597L14.6198 9.57033L12.8332 3.51953H9.09485L11.8752 11.6717L10.2661 13.8067L10.2654 13.806Z" fill="white"/>
<path d="M9.09969 13.8047H4.08276V14.2347H9.09969V13.8047Z" fill="url(#paint2_linear_274_112048)"/>
<path d="M8.94706 3.51855H1.50537V3.93782H8.94706V3.51855Z" fill="url(#paint3_linear_274_112048)"/>
<path d="M4.28929 19.96H0V20.39H4.28929V19.96Z" fill="url(#paint4_linear_274_112048)"/>
<path d="M5.15872 18.9424H1.93835V19.3724H5.15872V18.9424Z" fill="url(#paint5_linear_274_112048)"/>
<defs>
<linearGradient id="paint0_linear_274_112048" x1="22.9528" y1="3.70386" x2="26.943" y2="3.76826" gradientUnits="userSpaceOnUse">
<stop stop-color="#00C6FF"/>
<stop offset="1" stop-color="white" stop-opacity="0"/>
</linearGradient>
<linearGradient id="paint1_linear_274_112048" x1="17.255" y1="13.5904" x2="24.3311" y2="13.5904" gradientUnits="userSpaceOnUse">
<stop stop-color="#00C6FF"/>
<stop offset="1" stop-color="white" stop-opacity="0"/>
</linearGradient>
<linearGradient id="paint2_linear_274_112048" x1="4.08276" y1="14.02" x2="9.09969" y2="14.02" gradientUnits="userSpaceOnUse">
<stop stop-color="white" stop-opacity="0"/>
<stop offset="1" stop-color="#FF7901"/>
</linearGradient>
<linearGradient id="paint3_linear_274_112048" x1="1.50537" y1="3.72819" x2="8.94706" y2="3.72819" gradientUnits="userSpaceOnUse">
<stop stop-color="white" stop-opacity="0"/>
<stop offset="1" stop-color="#FF7901"/>
</linearGradient>
<linearGradient id="paint4_linear_274_112048" x1="0" y1="20.1753" x2="4.28929" y2="20.1753" gradientUnits="userSpaceOnUse">
<stop stop-color="white" stop-opacity="0"/>
<stop offset="1" stop-color="#FF7901"/>
</linearGradient>
<linearGradient id="paint5_linear_274_112048" x1="1.93835" y1="19.1577" x2="5.15872" y2="19.1577" gradientUnits="userSpaceOnUse">
<stop stop-color="white" stop-opacity="0"/>
<stop offset="1" stop-color="#FF7901"/>
</linearGradient>
</defs>
</svg>
