<svg width="16" height="16" viewBox="0 0 16 16" fill="none" xmlns="http://www.w3.org/2000/svg">
<g clip-path="url(#clip0_364_361145)">
<path fill-rule="evenodd" clip-rule="evenodd" d="M3.68837 9.63082C3.59348 9.53594 3.53418 9.39361 3.53418 9.26314C3.53418 9.13268 3.59348 8.99035 3.68837 8.89546C3.78325 8.80058 3.92558 8.74128 4.05605 8.74128C4.18651 8.74128 4.32884 8.80058 4.42373 8.89546L5.60979 10.0815V6.15566C5.60979 5.85914 5.847 5.63379 6.13166 5.63379C6.41631 5.63379 6.65353 5.871 6.65353 6.15566V10.0815L7.83959 8.89546C7.97006 8.765 8.17169 8.71755 8.3496 8.765C8.52751 8.80058 8.65798 8.95477 8.71728 9.13268C8.75286 9.31059 8.71728 9.50036 8.58681 9.64268L6.5112 11.7183C6.5112 11.7183 6.39259 11.8013 6.33329 11.8369C6.21468 11.8962 6.0605 11.8962 5.94189 11.8369C5.88259 11.8132 5.82328 11.7776 5.76398 11.7183L3.68837 9.64268V9.63082Z" fill="white"/>
<path fill-rule="evenodd" clip-rule="evenodd" d="M12.3114 6.36896C12.4063 6.46385 12.4656 6.60618 12.4656 6.73664C12.4656 6.86711 12.4063 7.00944 12.3114 7.10432C12.2166 7.19921 12.0742 7.25851 11.9438 7.25851C11.8133 7.25851 11.671 7.19921 11.5761 7.10432L10.39 5.91826V9.84413C10.39 10.1406 10.1528 10.366 9.86814 10.366C9.58349 10.366 9.34628 10.1288 9.34628 9.84413V5.91826L8.16021 7.10432C8.02975 7.23479 7.82811 7.28223 7.6502 7.23479C7.4723 7.19921 7.34183 7.04502 7.28253 6.86711C7.24694 6.6892 7.28253 6.49943 7.41299 6.3571L9.4886 4.28149C9.4886 4.28149 9.60721 4.19847 9.66651 4.16289C9.78512 4.10358 9.93931 4.10358 10.0579 4.16289C10.1172 4.18661 10.1765 4.22219 10.2358 4.28149L12.3114 6.3571V6.36896Z" fill="white"/>
<path d="M7.99397 15.4899C12.1339 15.4899 15.4899 12.1339 15.4899 7.99397C15.4899 3.85409 12.1339 0.498047 7.99397 0.498047C3.85409 0.498047 0.498047 3.85409 0.498047 7.99397C0.498047 12.1339 3.85409 15.4899 7.99397 15.4899Z" stroke="white" stroke-width="1.00815" stroke-miterlimit="10"/>
</g>
<defs>
<clipPath id="clip0_364_361145">
<rect width="16" height="16" fill="white"/>
</clipPath>
</defs>
</svg>
