<svg width="24" height="24" viewBox="0 0 24 24" fill="none" xmlns="http://www.w3.org/2000/svg">
<mask id="mask0_274_112033" style="mask-type:luminance" maskUnits="userSpaceOnUse" x="1" y="2" width="21" height="21">
<path d="M1.99609 2.00195H21.9961V22.002H1.99609V2.00195Z" fill="white"/>
</mask>
<g mask="url(#mask0_274_112033)">
<path d="M20.2379 9.79441C19.9146 9.79441 19.6516 9.53141 19.6516 9.20813C19.6516 8.88481 19.9146 8.6218 20.2379 8.6218C20.5612 8.6218 20.8242 8.88481 20.8242 9.20813C20.8242 9.53141 20.5612 9.79441 20.2379 9.79441ZM16.1353 14.9463H3.49422C3.31434 14.9463 3.16797 14.7999 3.16797 14.62V13.6431H16.4616V14.62C16.4616 14.7999 16.3152 14.9463 16.1353 14.9463ZM14.307 18.4062H5.32258V16.1181H14.307V18.4062ZM3.49422 5.59797H6.99727V6.44117C6.99727 6.76477 7.25961 7.02711 7.5832 7.02711C7.9068 7.02711 8.16914 6.76477 8.16914 6.44117V5.59797H11.4102V6.49945C11.4102 6.82305 11.6725 7.08539 11.9961 7.08539C12.3197 7.08539 12.582 6.82305 12.582 6.49945V5.59797H16.1353C16.3152 5.59797 16.4616 5.74434 16.4616 5.92422V12.4712H12.582V11.628C12.582 11.3044 12.3197 11.0421 11.9961 11.0421C11.6725 11.0421 11.4102 11.3044 11.4102 11.628V12.4712H8.16914V11.628C8.16914 11.3044 7.9068 11.0421 7.5832 11.0421C7.25961 11.0421 6.99727 11.3044 6.99727 11.628V12.4712H3.16797V5.92422C3.16797 5.74434 3.31434 5.59797 3.49422 5.59797ZM21.9961 9.20813C21.9961 8.23863 21.2074 7.44992 20.2379 7.44992C19.2685 7.44992 18.4797 8.23863 18.4797 9.20813C18.4797 9.97223 18.9697 10.6241 19.652 10.8659V13.5009C19.652 13.6155 19.5587 13.7088 19.4441 13.7088H17.6334V5.92422C17.6334 5.09816 16.9614 4.42609 16.1353 4.42609H3.49422C2.66816 4.42609 1.99609 5.09816 1.99609 5.92422V14.62C1.99609 15.4461 2.66816 16.1182 3.49422 16.1182H4.1507V18.4062H2.58203C2.25844 18.4062 1.99609 18.6686 1.99609 18.9922C1.99609 19.3158 2.25844 19.5781 2.58203 19.5781H17.0475C17.3711 19.5781 17.6334 19.3158 17.6334 18.9922C17.6334 18.6686 17.3711 18.4062 17.0475 18.4062H15.4788V16.1182H16.1353C16.8725 16.1182 17.487 15.5829 17.6107 14.8806H19.4441C20.2049 14.8806 20.8239 14.2617 20.8239 13.5009V10.8659C21.5061 10.6241 21.9961 9.97223 21.9961 9.20813Z" fill="#FF7901"/>
<path d="M8.92255 8.35234H9.45567C9.15227 8.99531 8.99434 9.69738 8.99434 10.418C8.99434 10.7416 9.25669 11.0039 9.58028 11.0039C9.90387 11.0039 10.1662 10.7416 10.1662 10.418C10.1662 9.67566 10.3873 8.95914 10.8056 8.34582L10.9756 8.09652C11.0979 7.91707 11.111 7.68469 11.0095 7.49266C10.9081 7.30062 10.7087 7.18047 10.4915 7.18047H8.92255C8.59895 7.18047 8.33661 7.44281 8.33661 7.76641C8.33661 8.09 8.59895 8.35234 8.92255 8.35234Z" fill="#FF7901"/>
<path d="M4.30792 8.39043H4.84101C4.53773 9.03336 4.37972 9.73551 4.37972 10.4561C4.37972 10.7796 4.64206 11.042 4.96566 11.042C5.28925 11.042 5.55159 10.7796 5.55159 10.4561C5.55159 9.71371 5.77265 8.99719 6.19089 8.38398L6.36097 8.13469C6.48335 7.95523 6.49644 7.72281 6.39499 7.53078C6.29351 7.33871 6.09413 7.21855 5.87691 7.21855H4.30792C3.98433 7.21855 3.72198 7.4809 3.72198 7.80449C3.72198 8.12809 3.98433 8.39043 4.30792 8.39043Z" fill="#FF7901"/>
<path d="M13.429 8.39043H13.9621C13.6588 9.0334 13.5008 9.73551 13.5008 10.4561C13.5008 10.7796 13.7632 11.042 14.0868 11.042C14.4103 11.042 14.6727 10.7796 14.6727 10.4561C14.6727 9.71375 14.8937 8.99727 15.312 8.38398L15.4821 8.13469C15.6044 7.95523 15.6175 7.72281 15.5161 7.53078C15.4146 7.33871 15.2152 7.21855 14.998 7.21855H13.429C13.1054 7.21855 12.8431 7.4809 12.8431 7.80449C12.8431 8.12809 13.1054 8.39043 13.429 8.39043Z" fill="#FF7901"/>
</g>
</svg>
