<svg width="24" height="24" viewBox="0 0 24 24" fill="none" xmlns="http://www.w3.org/2000/svg">
<path d="M4.31802 20.5355C5.63604 22 7.75736 22 12 22C16.2426 22 18.364 22 19.682 20.5355C21 19.0711 21 16.714 21 12C21 7.28595 21 4.92893 19.682 3.46447C18.364 2 16.2426 2 12 2C7.75736 2 5.63604 2 4.31802 3.46447C3 4.92893 3 7.28595 3 12C3 16.714 3 19.0711 4.31802 20.5355Z" stroke="#FF7800" stroke-width="1.5"/>
<path d="M7 8C7 8.25985 7 8.38978 7.05111 8.49638C7.18981 8.78565 7.59413 9.0116 8.11177 9.08911C8.30252 9.11768 8.53501 9.11768 9 9.11768H15C15.465 9.11768 15.6975 9.11768 15.8882 9.08911C16.4059 9.0116 16.8102 8.78565 16.9489 8.49638C17 8.38978 17 8.25985 17 8C17 7.74015 17 7.61022 16.9489 7.50362C16.8102 7.21435 16.4059 6.9884 15.8882 6.91089C15.6975 6.88232 15.465 6.88232 15 6.88232H9C8.53501 6.88232 8.30252 6.88232 8.11177 6.91089C7.59413 6.9884 7.18981 7.21435 7.05111 7.50362C7 7.61022 7 7.74015 7 8Z" stroke="#FF7800" stroke-width="1.5"/>
<path d="M8.5 14V17M7 15.5L10 15.5" stroke="#FF7800" stroke-width="1.5" stroke-linecap="round" stroke-linejoin="round"/>
<path d="M15.8333 13.8333C15.8333 14.0174 15.6841 14.1667 15.5 14.1667C15.3159 14.1667 15.1667 14.0174 15.1667 13.8333C15.1667 13.6492 15.3159 13.5 15.5 13.5C15.6841 13.5 15.8333 13.6492 15.8333 13.8333ZM15.8333 17.1667C15.8333 17.3508 15.6841 17.5 15.5 17.5C15.3159 17.5 15.1667 17.3508 15.1667 17.1667C15.1667 16.9826 15.3159 16.8333 15.5 16.8333C15.6841 16.8333 15.8333 16.9826 15.8333 17.1667ZM14.1667 15.5C14.1667 15.6841 14.0174 15.8333 13.8333 15.8333C13.6492 15.8333 13.5 15.6841 13.5 15.5C13.5 15.3159 13.6492 15.1667 13.8333 15.1667C14.0174 15.1667 14.1667 15.3159 14.1667 15.5ZM17.5 15.5C17.5 15.6841 17.3508 15.8333 17.1667 15.8333C16.9826 15.8333 16.8333 15.6841 16.8333 15.5C16.8333 15.3159 16.9826 15.1667 17.1667 15.1667C17.3508 15.1667 17.5 15.3159 17.5 15.5Z" fill="#FF7800" stroke="#FF7800"/>
</svg>
