<svg width="24" height="25" viewBox="0 0 24 25" fill="none" xmlns="http://www.w3.org/2000/svg">
<mask id="mask0_210_178562" style="mask-type:luminance" maskUnits="userSpaceOnUse" x="1" y="2" width="21" height="21">
<path d="M1.99609 2.21777H21.9961V22.2178H1.99609V2.21777Z" fill="white"/>
</mask>
<g mask="url(#mask0_210_178562)">
<path d="M20.2379 10.0102C19.9146 10.0102 19.6516 9.74723 19.6516 9.42395C19.6516 9.10063 19.9146 8.83762 20.2379 8.83762C20.5612 8.83762 20.8242 9.10063 20.8242 9.42395C20.8242 9.74723 20.5612 10.0102 20.2379 10.0102ZM16.1353 15.1621H3.49422C3.31434 15.1621 3.16797 15.0157 3.16797 14.8359V13.8589H16.4616V14.8359C16.4616 15.0157 16.3152 15.1621 16.1353 15.1621ZM14.307 18.6221H5.32258V16.3339H14.307V18.6221ZM3.49422 5.81379H6.99727V6.65699C6.99727 6.98059 7.25961 7.24293 7.5832 7.24293C7.9068 7.24293 8.16914 6.98059 8.16914 6.65699V5.81379H11.4102V6.71527C11.4102 7.03887 11.6725 7.30121 11.9961 7.30121C12.3197 7.30121 12.582 7.03887 12.582 6.71527V5.81379H16.1353C16.3152 5.81379 16.4616 5.96016 16.4616 6.14004V12.687H12.582V11.8438C12.582 11.5202 12.3197 11.2579 11.9961 11.2579C11.6725 11.2579 11.4102 11.5202 11.4102 11.8438V12.687H8.16914V11.8438C8.16914 11.5202 7.9068 11.2579 7.5832 11.2579C7.25961 11.2579 6.99727 11.5202 6.99727 11.8438V12.687H3.16797V6.14004C3.16797 5.96016 3.31434 5.81379 3.49422 5.81379ZM21.9961 9.42395C21.9961 8.45445 21.2074 7.66574 20.2379 7.66574C19.2685 7.66574 18.4797 8.45445 18.4797 9.42395C18.4797 10.188 18.9697 10.8399 19.652 11.0817V13.7167C19.652 13.8313 19.5588 13.9246 19.4441 13.9246H17.6334V6.14004C17.6334 5.31398 16.9614 4.64191 16.1353 4.64191H3.49422C2.66816 4.64191 1.99609 5.31398 1.99609 6.14004V14.8359C1.99609 15.6619 2.66816 16.334 3.49422 16.334H4.1507V18.6221H2.58203C2.25844 18.6221 1.99609 18.8844 1.99609 19.208C1.99609 19.5316 2.25844 19.7939 2.58203 19.7939H17.0475C17.3711 19.7939 17.6334 19.5316 17.6334 19.208C17.6334 18.8844 17.3711 18.6221 17.0475 18.6221H15.4788V16.334H16.1353C16.8725 16.334 17.487 15.7988 17.6107 15.0964H19.4441C20.2049 15.0964 20.8239 14.4775 20.8239 13.7167V11.0817C21.5061 10.8399 21.9961 10.188 21.9961 9.42395Z" fill="#FF7901"/>
<path d="M8.92236 8.56816H9.45549C9.15209 9.21113 8.99416 9.9132 8.99416 10.6338C8.99416 10.9574 9.2565 11.2197 9.5801 11.2197C9.90369 11.2197 10.166 10.9574 10.166 10.6338C10.166 9.89148 10.3871 9.17496 10.8054 8.56164L10.9754 8.31234C11.0978 8.13289 11.1108 7.90051 11.0094 7.70848C10.9079 7.51645 10.7085 7.39629 10.4913 7.39629H8.92236C8.59877 7.39629 8.33643 7.65863 8.33643 7.98223C8.33643 8.30582 8.59877 8.56816 8.92236 8.56816Z" fill="#FF7901"/>
<path d="M4.30811 8.60625H4.84119C4.53791 9.24918 4.3799 9.95133 4.3799 10.6719C4.3799 10.9955 4.64225 11.2578 4.96584 11.2578C5.28943 11.2578 5.55178 10.9955 5.55178 10.6719C5.55178 9.92953 5.77283 9.21301 6.19107 8.5998L6.36115 8.35051C6.48354 8.17105 6.49662 7.93863 6.39518 7.7466C6.29369 7.55453 6.09432 7.43438 5.87709 7.43438H4.30811C3.98451 7.43438 3.72217 7.69672 3.72217 8.02031C3.72217 8.34391 3.98451 8.60625 4.30811 8.60625Z" fill="#FF7901"/>
<path d="M13.4292 8.60625H13.9623C13.659 9.24922 13.501 9.95133 13.501 10.6719C13.501 10.9955 13.7633 11.2578 14.0869 11.2578C14.4105 11.2578 14.6729 10.9955 14.6729 10.6719C14.6729 9.92957 14.8939 9.21309 15.3122 8.5998L15.4822 8.35051C15.6046 8.17105 15.6177 7.93863 15.5163 7.7466C15.4148 7.55453 15.2154 7.43438 14.9982 7.43438H13.4292C13.1056 7.43438 12.8433 7.69672 12.8433 8.02031C12.8433 8.34391 13.1056 8.60625 13.4292 8.60625Z" fill="#FF7901"/>
</g>
</svg>
