<svg width="24" height="24" viewBox="0 0 24 24" fill="none" xmlns="http://www.w3.org/2000/svg">
<path d="M14.5104 12.6383C14.5104 12.8372 14.3492 12.9984 14.1503 12.9984C13.9514 12.9984 13.7902 12.8372 13.7902 12.6383C13.7902 12.4394 13.9514 12.2782 14.1503 12.2782C14.3492 12.2782 14.5104 12.4394 14.5104 12.6383Z" fill="#FF7901" stroke="#FF7901"/>
<path d="M17.9509 15.8637C17.9509 16.0626 17.7896 16.2238 17.5908 16.2238C17.3919 16.2238 17.2306 16.0626 17.2306 15.8637C17.2306 15.6648 17.3919 15.5036 17.5908 15.5036C17.7897 15.5036 17.9509 15.6648 17.9509 15.8637Z" fill="#FF7901" stroke="#FF7901"/>
<path d="M17.8009 12.3207L17.8009 12.3207C17.8575 12.3773 17.8575 12.4692 17.8009 12.5259L14.1454 16.1814C14.0887 16.238 13.9969 16.238 13.9402 16.1814C13.8835 16.1247 13.8835 16.0328 13.9402 15.9762L13.9402 15.9762L17.5957 12.3207C17.6524 12.264 17.7442 12.264 17.8009 12.3207Z" fill="#FF7901" stroke="#FF7901"/>
<path d="M14.7143 8.48189L14.0605 8.69912C11.779 9.45716 10.1347 11.609 10.1347 14.1437V14.1525V14.339L10.0126 14.4799C9.93409 14.5706 9.85007 14.6551 9.75986 14.7312L9.75979 14.7313C9.49102 14.9578 9.18602 15.0911 8.82957 15.0998L8.82953 15.0998C8.47027 15.1085 8.04383 14.9912 7.53445 14.6885C7.36917 14.5903 7.1491 14.6309 7.04438 14.7986L14.7143 8.48189ZM14.7143 8.48189L14.3051 7.92765L14.7143 8.48189ZM7.04446 21.0481L5.61314 20.0862C3.83196 18.8891 2.68379 16.9054 2.68379 14.5606C2.68379 13.6926 2.90803 12.5367 3.28136 11.3755C3.60231 10.3772 4.02943 9.38743 4.50879 8.58306L4.77361 8.1387L5.20871 8.41846L6.88994 9.49943C6.88994 9.49943 6.88994 9.49943 6.88994 9.49943C7.02805 9.58822 7.1704 9.57553 7.28789 9.49793C7.41266 9.41552 7.48179 9.27731 7.46397 9.13329L7.04446 21.0481ZM7.04446 21.0481L6.34967 19.4697M7.04446 21.0481L6.34967 19.4697M6.34967 19.4697C6.15756 19.0333 6.04912 18.5417 6.04912 18.0076C6.04912 17.5582 6.1585 16.981 6.33515 16.4082C6.51212 15.8345 6.76009 15.254 7.04437 14.7987L6.34967 19.4697ZM9.35271 2.69845L9.69816 3.00036C10.4574 3.66387 12.1302 5.19769 13.663 7.09701C13.663 7.09701 13.6631 7.09701 13.6631 7.09701L13.274 7.41104L9.35271 2.69845ZM9.35271 2.69845L9.02227 3.01673M9.35271 2.69845L9.02227 3.01673M9.02227 3.01673C8.12157 3.88428 7.69031 5.05343 7.50366 6.17939C7.30496 7.37794 7.3868 8.51015 7.46397 9.13328L9.02227 3.01673ZM14.8738 8.22144L15.0405 8.45992L15.3301 8.4329C15.5079 8.41632 15.6882 8.40782 15.8705 8.40782C19.0384 8.40782 21.6064 10.9758 21.6064 14.1437C21.6064 17.3115 19.0384 19.8795 15.8705 19.8795C15.4744 19.8795 15.0883 19.8395 14.7158 19.7633L14.4762 19.7142L14.2905 19.8732C13.0386 20.9441 11.4624 21.5998 9.74219 21.5998C5.69149 21.5998 2.39361 18.6332 2.39361 14.5606C2.39361 13.6514 2.62671 12.4636 3.00509 11.2867L2.52963 11.1339L3.0051 11.2867C3.38377 10.1089 3.912 8.92922 4.51037 8.03724C4.6187 7.87576 4.83587 7.83375 4.99839 7.93824C4.99839 7.93824 4.99839 7.93824 4.9984 7.93824L6.33519 8.79775L7.15497 9.32485L7.10494 8.35152C7.07283 7.72694 7.08268 6.94454 7.21739 6.13193L7.21739 6.13192C7.42228 4.89588 7.9193 3.57069 9.01713 2.62944L8.69169 2.24985L9.01713 2.62944C9.22148 2.45424 9.51539 2.45959 9.71769 2.6333C10.376 3.19867 12.2141 4.83969 13.8889 6.91476C14.2241 7.33011 14.5567 7.76761 14.8738 8.22144ZM12.6801 19.4556L12.8929 19.0671L12.5329 18.809C11.4386 18.0247 10.6325 16.8657 10.3011 15.5214L10.1489 14.9041L9.58489 15.1975C9.36284 15.313 9.11505 15.3831 8.83662 15.3899C8.50027 15.3981 8.13339 15.3135 7.72971 15.1219L7.28892 14.9126L7.06898 15.3482C6.89301 15.6967 6.73592 16.0934 6.61244 16.4938C6.4405 17.0512 6.33929 17.5978 6.33929 18.0076C6.33929 19.9121 7.85479 21.3096 9.74219 21.3096C10.994 21.3096 12.0946 20.5248 12.6801 19.4556ZM15.8705 8.698C12.863 8.698 10.4249 11.1361 10.4249 14.1437C10.4249 17.1512 12.863 19.5894 15.8705 19.5894C18.8781 19.5894 21.3162 17.1512 21.3162 14.1437C21.3162 11.1361 18.8781 8.698 15.8705 8.698Z" fill="#FF7901" stroke="#FF7901"/>
</svg>
