<svg width="24" height="24" viewBox="0 0 24 24" fill="none" xmlns="http://www.w3.org/2000/svg">
<g clip-path="url(#clip0_147_27777)">
<path d="M19.8706 12.3889L19.1249 12.3087V12.3087L19.8706 12.3889ZM19.6872 14.0936L20.4312 14.1882L20.4321 14.181L20.4329 14.1738L19.6872 14.0936ZM4.3128 14.0936L3.5671 14.1738L4.3128 14.0936ZM4.12945 12.3889L4.87514 12.3087L4.12945 12.3889ZM8.76006 10.9344L9.41507 11.2998L8.76006 10.9344ZM10.5495 7.72589L9.89453 7.36057L10.5495 7.72589ZM13.4505 7.72589L12.7954 8.0912L13.4505 7.72589ZM15.2399 10.9344L15.895 10.5691V10.5691L15.2399 10.9344ZM16.0038 11.9596L15.7015 12.646L15.7015 12.646L16.0038 11.9596ZM17.4705 11.2456L16.9412 10.7143L17.4705 11.2456ZM16.4533 12.0224L16.3506 11.2794L16.3506 11.2794L16.4533 12.0224ZM6.5295 11.2456L6.0002 11.777L6.5295 11.2456ZM7.5467 12.0224L7.64943 11.2794L7.64943 11.2794L7.5467 12.0224ZM7.99621 11.9596L8.29846 12.646L8.29846 12.646L7.99621 11.9596ZM5.71208 20.1537L6.21228 19.5948H6.21228L5.71208 20.1537ZM18.8645 9.98061L19.432 9.49031L18.8645 9.98061ZM12.9077 6.78314L12.5668 6.11506L12.9077 6.78314ZM11.0923 6.78314L11.4332 6.11506L11.0923 6.78314ZM19.1249 12.3087L18.9415 14.0134L20.4329 14.1738L20.6163 12.4691L19.1249 12.3087ZM13.0879 20.2505H10.9121V21.7505H13.0879V20.2505ZM5.0585 14.0134L4.87514 12.3087L3.38375 12.4691L3.5671 14.1738L5.0585 14.0134ZM9.41507 11.2998L11.2046 8.09121L9.89453 7.36057L8.10504 10.5691L9.41507 11.2998ZM12.7954 8.0912L14.5849 11.2998L15.895 10.5691L14.1055 7.36057L12.7954 8.0912ZM14.5849 11.2998C14.7467 11.5898 14.8956 11.8587 15.0399 12.0643C15.1885 12.2758 15.3911 12.5094 15.7015 12.646L16.306 11.2732C16.3619 11.2978 16.3524 11.3231 16.2675 11.2023C16.1784 11.0754 16.0727 10.8878 15.895 10.5691L14.5849 11.2998ZM16.9412 10.7143C16.6825 10.972 16.529 11.1236 16.4082 11.2213C16.2931 11.3144 16.2906 11.2877 16.3506 11.2794L16.556 12.7653C16.8918 12.7189 17.1507 12.55 17.3517 12.3874C17.547 12.2294 17.7642 12.0117 17.9998 11.777L16.9412 10.7143ZM15.7015 12.646C15.9698 12.7642 16.2657 12.8054 16.556 12.7653L16.3506 11.2794C16.3353 11.2815 16.3199 11.2793 16.306 11.2732L15.7015 12.646ZM6.0002 11.777C6.23578 12.0117 6.453 12.2294 6.64834 12.3874C6.84933 12.55 7.10824 12.7189 7.44397 12.7653L7.64943 11.2794C7.70944 11.2877 7.7069 11.3144 7.5918 11.2213C7.47104 11.1236 7.31753 10.972 7.05879 10.7143L6.0002 11.777ZM8.10504 10.5691C7.92732 10.8878 7.82158 11.0754 7.7325 11.2023C7.64765 11.3231 7.63814 11.2978 7.69395 11.2732L8.29846 12.646C8.60887 12.5094 8.81155 12.2758 8.96009 12.0643C9.10441 11.8587 9.2533 11.5898 9.41507 11.2998L8.10504 10.5691ZM7.44397 12.7653C7.73429 12.8054 8.03016 12.7642 8.29846 12.646L7.69395 11.2732C7.68011 11.2793 7.66466 11.2815 7.64943 11.2794L7.44397 12.7653ZM10.9121 20.2505C9.47421 20.2505 8.46719 20.2491 7.69857 20.1507C6.9509 20.055 6.52851 19.8779 6.21228 19.5948L5.21187 20.7125C5.84173 21.2763 6.60137 21.5225 7.50819 21.6386C8.39406 21.7519 9.51399 21.7505 10.9121 21.7505V20.2505ZM3.5671 14.1738C3.71526 15.5512 3.83282 16.9004 4.03322 17.9945C4.1343 18.5464 4.26178 19.0664 4.43833 19.5177C4.61339 19.9652 4.8549 20.393 5.21187 20.7125L6.21228 19.5948C6.0962 19.4909 5.96405 19.3005 5.83525 18.9713C5.70795 18.6458 5.60138 18.2304 5.50868 17.7242C5.32149 16.7022 5.21246 15.4448 5.0585 14.0134L3.5671 14.1738ZM10.75 5.00049C10.75 4.31013 11.3096 3.75049 12 3.75049V2.25049C10.4812 2.25049 9.25 3.48171 9.25 5.00049H10.75ZM12 3.75049C12.6904 3.75049 13.25 4.31013 13.25 5.00049H14.75C14.75 3.48171 13.5188 2.25049 12 2.25049V3.75049ZM20.75 9.00049C20.75 9.4147 20.4142 9.75049 20 9.75049V11.2505C21.2426 11.2505 22.25 10.2431 22.25 9.00049H20.75ZM19.25 9.00049C19.25 8.58627 19.5858 8.25049 20 8.25049V6.75049C18.7574 6.75049 17.75 7.75785 17.75 9.00049H19.25ZM20 8.25049C20.4142 8.25049 20.75 8.58627 20.75 9.00049H22.25C22.25 7.75785 21.2426 6.75049 20 6.75049V8.25049ZM4 9.75049C3.58579 9.75049 3.25 9.4147 3.25 9.00049H1.75C1.75 10.2431 2.75736 11.2505 4 11.2505V9.75049ZM3.25 9.00049C3.25 8.58627 3.58579 8.25049 4 8.25049V6.75049C2.75736 6.75049 1.75 7.75785 1.75 9.00049H3.25ZM4 8.25049C4.41421 8.25049 4.75 8.58627 4.75 9.00049H6.25C6.25 7.75785 5.24264 6.75049 4 6.75049V8.25049ZM20 9.75049C19.997 9.75049 19.994 9.75047 19.991 9.75044L19.9736 11.2503C19.9824 11.2504 19.9912 11.2505 20 11.2505V9.75049ZM20.6163 12.4691C20.6646 12.0192 20.707 11.6263 20.7302 11.2985C20.753 10.9774 20.7616 10.6694 20.7256 10.4008L19.2389 10.6C19.2536 10.7098 19.2553 10.8913 19.234 11.1925C19.2131 11.487 19.1743 11.8491 19.1249 12.3087L20.6163 12.4691ZM19.991 9.75044C19.7681 9.74786 19.5689 9.64876 19.432 9.49031L18.2969 10.4709C18.703 10.9409 19.3032 11.2426 19.9736 11.2503L19.991 9.75044ZM19.432 9.49031C19.3181 9.35848 19.25 9.18838 19.25 9.00049H17.75C17.75 9.56192 17.9566 10.077 18.2969 10.4709L19.432 9.49031ZM17.9998 11.777C18.6773 11.1022 19.0262 10.7621 19.2584 10.6188L18.4705 9.3424C18.0506 9.60158 17.547 10.1108 16.9412 10.7143L17.9998 11.777ZM4.75 9.00049C4.75 9.18838 4.68188 9.35848 4.56799 9.49031L5.70307 10.4709C6.0434 10.077 6.25 9.56192 6.25 9.00049H4.75ZM7.05879 10.7143C6.45296 10.1108 5.94936 9.60158 5.52946 9.3424L4.7416 10.6188C4.97377 10.7621 5.32273 11.1022 6.0002 11.777L7.05879 10.7143ZM4.56799 9.49031C4.4311 9.64876 4.23192 9.74786 4.00904 9.75044L4.02639 11.2503C4.69676 11.2426 5.29701 10.9409 5.70307 10.4709L4.56799 9.49031ZM4.00904 9.75044C4.00602 9.75047 4.00301 9.75049 4 9.75049V11.2505C4.00881 11.2505 4.01761 11.2504 4.02639 11.2503L4.00904 9.75044ZM4.87514 12.3087C4.82571 11.8491 4.78687 11.487 4.76601 11.1925C4.74467 10.8913 4.74636 10.7098 4.76107 10.6L3.27435 10.4008C3.23837 10.6694 3.24701 10.9774 3.26976 11.2985C3.29298 11.6263 3.33535 12.0192 3.38375 12.4691L4.87514 12.3087ZM13.25 5.00049C13.25 5.48553 12.9739 5.90738 12.5668 6.11506L13.2485 7.45121C14.1381 6.99734 14.75 6.07102 14.75 5.00049H13.25ZM12.5668 6.11506C12.3975 6.20144 12.2056 6.25049 12 6.25049V7.75049C12.448 7.75049 12.873 7.64279 13.2485 7.45121L12.5668 6.11506ZM14.1055 7.36057C13.8992 6.99069 13.7138 6.65794 13.5437 6.38569L12.2716 7.18059C12.4176 7.41421 12.5828 7.70997 12.7954 8.0912L14.1055 7.36057ZM12 6.25049C11.7944 6.25049 11.6025 6.20144 11.4332 6.11506L10.7515 7.45122C11.127 7.64279 11.552 7.75049 12 7.75049V6.25049ZM11.4332 6.11506C11.0261 5.90738 10.75 5.48553 10.75 5.00049H9.25C9.25 6.07102 9.86186 6.99734 10.7515 7.45122L11.4332 6.11506ZM11.2046 8.09121C11.4172 7.70997 11.5824 7.41421 11.7284 7.18059L10.4563 6.38569C10.2862 6.65794 10.1008 6.99069 9.89453 7.36057L11.2046 8.09121ZM13.0879 21.7505C14.2679 21.7505 15.2447 21.7511 16.0436 21.6851C16.8442 21.619 17.5443 21.4817 18.148 21.1596L17.4419 19.8362C17.1036 20.0167 16.6419 20.1306 15.9202 20.1902C15.1969 20.2499 14.2912 20.2505 13.0879 20.2505V21.7505ZM18.9432 13.999L18.307 19.0041L19.795 19.1932L20.4312 14.1882L18.9432 13.999Z" fill="#FF7901"/>
<path d="M5.02702 17.496H19.027" stroke="#FF7901" stroke-width="1.5" stroke-linecap="round"/>
<path d="M17.2201 1.33697C17.381 0.927389 17.9586 0.927389 18.1195 1.33697L18.5499 2.43226C18.599 2.55731 18.6976 2.65629 18.8222 2.70561L19.9135 3.13759C20.3215 3.29912 20.3215 3.87879 19.9135 4.04033L18.8222 4.4723C18.6976 4.52162 18.599 4.62061 18.5499 4.74565L18.1195 5.84094C17.9586 6.25053 17.381 6.25053 17.2201 5.84094L16.7897 4.74565C16.7406 4.62061 16.6419 4.52162 16.5174 4.4723L15.4261 4.04033C15.018 3.87879 15.018 3.29912 15.4261 3.13759L16.5174 2.70561C16.6419 2.65629 16.7406 2.55731 16.7897 2.43226L17.2201 1.33697Z" stroke="#FF7901"/>
<path d="M6.37729 4.72443C6.53824 4.31484 7.11577 4.31484 7.27671 4.72443L7.43363 5.12377C7.48277 5.24882 7.58139 5.34781 7.70597 5.39712L8.10385 5.55463C8.51193 5.71616 8.51193 6.29583 8.10385 6.45737L7.70597 6.61487C7.58139 6.66418 7.48277 6.76317 7.43363 6.88822L7.27671 7.28757C7.11577 7.69715 6.53824 7.69715 6.37729 7.28757L6.22037 6.88822C6.17124 6.76317 6.07262 6.66418 5.94803 6.61487L5.55015 6.45737C5.14208 6.29583 5.14208 5.71616 5.55015 5.55463L5.94803 5.39712C6.07262 5.34781 6.17124 5.24882 6.22037 5.12377L6.37729 4.72443Z" stroke="#FF7901"/>
<path d="M18.0511 18.4438C18.212 18.0342 18.7895 18.0342 18.9505 18.4438L19.1074 18.8431C19.1565 18.9682 19.2552 19.0672 19.3797 19.1165L19.7776 19.274C20.1857 19.4355 20.1857 20.0152 19.7776 20.1767L19.3797 20.3342C19.2552 20.3835 19.1565 20.4825 19.1074 20.6076L18.9505 21.0069C18.7895 21.4165 18.212 21.4165 18.0511 21.0069L17.8941 20.6076C17.845 20.4825 17.7464 20.3835 17.6218 20.3342L17.2239 20.1767C16.8158 20.0152 16.8158 19.4355 17.2239 19.274L17.6218 19.1165C17.7464 19.0672 17.845 18.9682 17.8941 18.8431L18.0511 18.4438Z" stroke="#FF7901"/>
</g>
<defs>
<clipPath id="clip0_147_27777">
<rect width="24" height="24" fill="white" transform="translate(0 0.000488281)"/>
</clipPath>
</defs>
</svg>
