<svg width="24" height="24" viewBox="0 0 24 24" fill="none" xmlns="http://www.w3.org/2000/svg">
<mask id="mask0_147_27507" style="mask-type:luminance" maskUnits="userSpaceOnUse" x="1" y="2" width="21" height="21">
<path d="M1.99609 2.00214H21.9961V22.0021H1.99609V2.00214Z" fill="white"/>
</mask>
<g mask="url(#mask0_147_27507)">
<path d="M20.2379 9.79438C19.9146 9.79438 19.6516 9.53138 19.6516 9.2081C19.6516 8.88478 19.9146 8.62177 20.2379 8.62177C20.5612 8.62177 20.8242 8.88478 20.8242 9.2081C20.8242 9.53138 20.5612 9.79438 20.2379 9.79438ZM16.1353 14.9463H3.49422C3.31434 14.9463 3.16797 14.7999 3.16797 14.62V13.6431H16.4616V14.62C16.4616 14.7999 16.3152 14.9463 16.1353 14.9463ZM14.307 18.4062H5.32258V16.1181H14.307V18.4062ZM3.49422 5.59794H6.99727V6.44114C6.99727 6.76474 7.25961 7.02708 7.5832 7.02708C7.9068 7.02708 8.16914 6.76474 8.16914 6.44114V5.59794H11.4102V6.49942C11.4102 6.82302 11.6725 7.08536 11.9961 7.08536C12.3197 7.08536 12.582 6.82302 12.582 6.49942V5.59794H16.1353C16.3152 5.59794 16.4616 5.7443 16.4616 5.92419V12.4712H12.582V11.628C12.582 11.3044 12.3197 11.042 11.9961 11.042C11.6725 11.042 11.4102 11.3044 11.4102 11.628V12.4712H8.16914V11.628C8.16914 11.3044 7.9068 11.042 7.5832 11.042C7.25961 11.042 6.99727 11.3044 6.99727 11.628V12.4712H3.16797V5.92419C3.16797 5.7443 3.31434 5.59794 3.49422 5.59794ZM21.9961 9.2081C21.9961 8.2386 21.2074 7.44989 20.2379 7.44989C19.2685 7.44989 18.4797 8.2386 18.4797 9.2081C18.4797 9.9722 18.9697 10.624 19.652 10.8659V13.5009C19.652 13.6155 19.5588 13.7087 19.4441 13.7087H17.6334V5.92419C17.6334 5.09813 16.9614 4.42606 16.1353 4.42606H3.49422C2.66816 4.42606 1.99609 5.09813 1.99609 5.92419V14.62C1.99609 15.4461 2.66816 16.1181 3.49422 16.1181H4.1507V18.4062H2.58203C2.25844 18.4062 1.99609 18.6686 1.99609 18.9922C1.99609 19.3158 2.25844 19.5781 2.58203 19.5781H17.0475C17.3711 19.5781 17.6334 19.3158 17.6334 18.9922C17.6334 18.6686 17.3711 18.4062 17.0475 18.4062H15.4788V16.1181H16.1353C16.8725 16.1181 17.487 15.5829 17.6107 14.8806H19.4441C20.2049 14.8806 20.8239 14.2616 20.8239 13.5009V10.8659C21.5061 10.624 21.9961 9.9722 21.9961 9.2081Z" fill="#FF7901"/>
<path d="M8.92253 8.3521H9.45565C9.15225 8.99507 8.99432 9.69714 8.99432 10.4177C8.99432 10.7413 9.25667 11.0037 9.58026 11.0037C9.90386 11.0037 10.1662 10.7413 10.1662 10.4177C10.1662 9.67542 10.3873 8.9589 10.8055 8.34558L10.9756 8.09628C11.0979 7.91683 11.111 7.68444 11.0095 7.49241C10.908 7.30038 10.7087 7.18022 10.4915 7.18022H8.92253C8.59893 7.18022 8.33659 7.44257 8.33659 7.76616C8.33659 8.08976 8.59893 8.3521 8.92253 8.3521Z" fill="#FF7901"/>
<path d="M4.30794 8.38997H4.84103C4.53775 9.0329 4.37974 9.73505 4.37974 10.4556C4.37974 10.7792 4.64208 11.0415 4.96568 11.0415C5.28927 11.0415 5.55162 10.7792 5.55162 10.4556C5.55162 9.71325 5.77267 8.99673 6.19091 8.38353L6.36099 8.13423C6.48337 7.95478 6.49646 7.72235 6.39501 7.53032C6.29353 7.33825 6.09415 7.2181 5.87693 7.2181H4.30794C3.98435 7.2181 3.72201 7.48044 3.72201 7.80403C3.72201 8.12763 3.98435 8.38997 4.30794 8.38997Z" fill="#FF7901"/>
<path d="M13.429 8.39049H13.9622C13.6588 9.03346 13.5008 9.73557 13.5008 10.4561C13.5008 10.7797 13.7632 11.0421 14.0868 11.0421C14.4104 11.0421 14.6727 10.7797 14.6727 10.4561C14.6727 9.71381 14.8938 8.99733 15.312 8.38405L15.4821 8.13475C15.6045 7.9553 15.6176 7.72287 15.5161 7.53084C15.4146 7.33877 15.2153 7.21862 14.998 7.21862H13.429C13.1054 7.21862 12.8431 7.48096 12.8431 7.80455C12.8431 8.12815 13.1054 8.39049 13.429 8.39049Z" fill="#FF7901"/>
</g>
</svg>
