<?xml version="1.0" encoding="UTF-8"?>
<svg id="Capa_1" data-name="Capa 1" xmlns="http://www.w3.org/2000/svg" xmlns:xlink="http://www.w3.org/1999/xlink" viewBox="0 0 16 13.75">
  <defs>
    <style>
      .cls-1 {
        fill: #fff;
      }

      .cls-2 {
        mask: url(#mask);
      }

      .cls-3 {
        fill: none;
        stroke: #ff7901;
        stroke-miterlimit: 10;
        stroke-width: 1.25px;
      }
    </style>
    <mask id="mask" x="0" y="-1.12" width="16" height="16" maskUnits="userSpaceOnUse">
      <g id="mask0_366_361154" data-name="mask0 366 361154">
        <path class="cls-1" d="M0-1.12h16v16H0V-1.12Z"/>
      </g>
    </mask>
  </defs>
  <g class="cls-2">
    <g>
      <path class="cls-3" d="M12.87,3.12v-1.25c0-.69-.56-1.25-1.25-1.25H1.87c-.69,0-1.25.56-1.25,1.25s.56,1.25,1.25,1.25h12.25c.69,0,1.25.56,1.25,1.25v1.88"/>
      <path class="cls-3" d="M15.37,10v1.88c0,.69-.56,1.25-1.25,1.25H1.87c-.69,0-1.25-.56-1.25-1.25V1.88"/>
      <path class="cls-3" d="M15.37,10h-3.12c-1.04,0-1.88-.84-1.88-1.88s.84-1.88,1.88-1.88h3.12v3.75Z"/>
    </g>
  </g>
</svg>