<svg width="24" height="24" viewBox="0 0 24 24" fill="none" xmlns="http://www.w3.org/2000/svg">
<path d="M13.1058 9.54255L13.1058 15.8945L15.6466 15.8945L15.6466 9.54255L13.1058 9.54255Z" fill="#FF7901"/>
<path d="M13.1058 9.54255L13.1058 15.8945L15.6466 15.8945L15.6466 9.54255L13.1058 9.54255Z" stroke="#FF7901" stroke-width="1.01632" stroke-miterlimit="10" stroke-linecap="round" stroke-linejoin="round"/>
<path d="M14.3756 5.72852V9.5397" stroke="#FF7901" stroke-width="1.01632" stroke-miterlimit="10" stroke-linecap="round" stroke-linejoin="round"/>
<path d="M14.3756 15.8906V19.7018" stroke="#FF7901" stroke-width="1.01632" stroke-miterlimit="10" stroke-linecap="round" stroke-linejoin="round"/>
<path d="M17.8573 5.70564L17.8573 12.0576L20.3981 12.0576L20.3981 5.70564L17.8573 5.70564Z" stroke="#FF7901" stroke-width="1.01632" stroke-miterlimit="10" stroke-linecap="round" stroke-linejoin="round"/>
<path d="M19.1292 1.89062V5.70181" stroke="#FF7901" stroke-width="1.01632" stroke-miterlimit="10" stroke-linecap="round" stroke-linejoin="round"/>
<path d="M19.1292 12.0527V15.8639" stroke="#FF7901" stroke-width="1.01632" stroke-miterlimit="10" stroke-linecap="round" stroke-linejoin="round"/>
<path d="M3.60193 11.9459L3.60193 18.2979L6.14272 18.2979L6.14272 11.9459L3.60193 11.9459Z" fill="#FF7901"/>
<path d="M3.60193 11.9459L3.60193 18.2979L6.14272 18.2979L6.14272 11.9459L3.60193 11.9459Z" stroke="#FF7901" stroke-width="1.01632" stroke-miterlimit="10" stroke-linecap="round" stroke-linejoin="round"/>
<path d="M4.87244 8.13184V11.943" stroke="#FF7901" stroke-width="1.01632" stroke-miterlimit="10" stroke-linecap="round" stroke-linejoin="round"/>
<path d="M4.87244 18.2979V22.109" stroke="#FF7901" stroke-width="1.01632" stroke-miterlimit="10" stroke-linecap="round" stroke-linejoin="round"/>
<path d="M8.35339 7.58748L8.35339 13.9395L10.8942 13.9395L10.8942 7.58748L8.35339 7.58748Z" stroke="#FF7901" stroke-width="1.01632" stroke-miterlimit="10" stroke-linecap="round" stroke-linejoin="round"/>
<path d="M9.62488 3.77539V7.58658" stroke="#FF7901" stroke-width="1.01632" stroke-miterlimit="10" stroke-linecap="round" stroke-linejoin="round"/>
<path d="M9.62488 13.9375V17.7487" stroke="#FF7901" stroke-width="1.01632" stroke-miterlimit="10" stroke-linecap="round" stroke-linejoin="round"/>
</svg>
