<?xml version="1.0" encoding="UTF-8"?>
<svg id="Capa_1" data-name="Capa 1" xmlns="http://www.w3.org/2000/svg" viewBox="0 0 24 24">
  <defs>
    <style>
      .cls-1 {
        stroke: #ff7901;
      }

      .cls-1, .cls-2 {
        fill: #ff7901;
      }
    </style>
  </defs>
  <path class="cls-1" d="M14.51,12.64c0,.2-.16.36-.36.36s-.36-.16-.36-.36.16-.36.36-.36.36.16.36.36Z"/>
  <path class="cls-1" d="M17.95,15.86c0,.2-.16.36-.36.36s-.36-.16-.36-.36.16-.36.36-.36.36.16.36.36Z"/>
  <path class="cls-1" d="M17.8,12.32h0c.06.06.06.15,0,.21l-3.66,3.66c-.06.06-.15.06-.21,0s-.06-.15,0-.21h0l3.66-3.66c.06-.06.15-.06.21,0Z"/>
  <path class="cls-2" d="M16.3,7.97c-.2,0-.39,0-.59.03-.32-.46-.66-.91-1.01-1.33-1.69-2.09-3.52-3.74-4.23-4.35-.24-.21-.55-.28-.84-.23-.22.04-.4.15-.51.23l.02.03-.02-.02s-.03.02-.04.03c-1.01.89-1.67,2.15-1.93,3.76-.12.73-.16,1.51-.12,2.33l-1.34-.86c-.39-.25-.92-.14-1.17.24-.6.89-1.15,2.09-1.57,3.38-.41,1.27-.64,2.49-.64,3.43,0,2.92,1.64,5.4,4.11,6.66.03.01.05.03.08.04,1.09.54,2.33.85,3.66.85,1.78,0,3.46-.64,4.87-1.85.41.08.83.13,1.25.13,3.44,0,6.24-2.8,6.24-6.24s-2.8-6.24-6.24-6.24ZM6.03,19.89c-1.66-1.17-2.71-3.06-2.71-5.27,0-.82.21-1.96.59-3.12v-.02c.37-1.14.85-2.19,1.37-2.99l1.99,1.28s.61.31.81-.55l-.04-.84c-.04-.74,0-1.45.11-2.11.2-1.2.63-2.17,1.3-2.88h0s.38-.32.38-.32c.69.59,2.47,2.19,4.11,4.22.28.35.56.73.83,1.1-2.68.58-4.69,2.96-4.69,5.81,0,.24.02.48.05.71-1.01.6-1.83-.11-2.04-.33v.02c-.38-.32-.74-.08-.94.1-1.46,1.85-1.31,3.96-1.1,5.18ZM11.35,20.64c-.69.42-1.46.48-2.01.45-.14-.01-.28-.02-.41-.04-.02,0-.04,0-.06,0-1.28-.21-1.76-1.04-1.93-1.79-.12-1.02-.1-2.4.77-3.66.18.13.41.27.68.38.49.2,1.18.32,1.94-.03.18.59.46,1.15.8,1.64h0s.06.09.14.24c.15.21.35.44.56.67h-.02s.46.34.5.84c0,0,0,0,0,0,.01.16-.03.33-.13.51-.02.03-.04.07-.07.1-.2.23-.45.47-.76.68ZM16.01,19.15c-2.73,0-4.95-2.22-4.95-4.95s2.22-4.95,4.95-4.95,4.95,2.22,4.95,4.95-2.22,4.95-4.95,4.95Z"/>
</svg>