<svg width="24" height="24" viewBox="0 0 24 24" fill="none" xmlns="http://www.w3.org/2000/svg">
<path d="M20.1807 6.05624V12.3515C20.1807 12.7045 19.8946 12.9906 19.5415 12.9906H16.9851V11.0094H18.9024V9.02812H16.9851V7.04686H18.9024V6.05624C18.9024 5.52759 18.4724 5.09756 17.9438 5.09756H16.9851V7.04686H15.0038V5.09756H13.0226V7.04686H11.0413V5.09756H9.06007V7.04686H7.07882V5.09756H6.05624C5.52759 5.09756 5.09756 5.52759 5.09756 6.05624V7.04686H7.07882V9.02812H5.09756V11.0094H7.07882V12.9906H5.09756V14.8441H7.07882V12.9906H9.06007V14.8441H11.0413V12.9906H13.0226V14.8441H15.0038V12.9906H16.9851V14.8441H17.9438C18.1532 14.8441 18.3519 14.7779 18.5186 14.6527C18.8008 14.4407 19.2014 14.4977 19.4135 14.7799C19.6254 15.0621 19.5685 15.4628 19.2863 15.6748C18.8964 15.9675 18.4322 16.1223 17.9438 16.1223H5.09756V19.5415C5.09756 19.8946 4.81146 20.1807 4.45845 20.1807C4.10544 20.1807 3.81934 19.8946 3.81934 19.5415V6.05624C3.81934 4.82282 4.82282 3.81934 6.05624 3.81934H17.9438C19.1772 3.81934 20.1807 4.82282 20.1807 6.05624ZM15.0038 9.02812V7.04686H13.0226V9.02812H15.0038ZM11.0413 9.02812V7.04686H9.06007V9.02812H11.0413ZM9.06007 9.02812H7.07882V11.0094H9.06007V9.02812ZM11.0413 9.02812V11.0094H13.0226V9.02812H11.0413ZM15.0038 11.0094H16.9851V9.02812H15.0038V11.0094ZM13.0226 11.0094V12.9906H15.0038V11.0094H13.0226ZM9.06007 11.0094V12.9906H11.0413V11.0094H9.06007Z" fill="#FF7901"/>
</svg>
