<svg width="25" height="24" viewBox="0 0 25 24" fill="none" xmlns="http://www.w3.org/2000/svg">
<path d="M13.606 9.54255L13.606 15.8945L16.1467 15.8945L16.1467 9.54255L13.606 9.54255Z" fill="#FF7901"/>
<path d="M13.606 9.54255L13.606 15.8945L16.1467 15.8945L16.1467 9.54255L13.606 9.54255Z" stroke="#FF7901" stroke-width="1.01632" stroke-miterlimit="10" stroke-linecap="round" stroke-linejoin="round"/>
<path d="M14.876 5.72852V9.5397" stroke="#FF7901" stroke-width="1.01632" stroke-miterlimit="10" stroke-linecap="round" stroke-linejoin="round"/>
<path d="M14.876 15.8906V19.7018" stroke="#FF7901" stroke-width="1.01632" stroke-miterlimit="10" stroke-linecap="round" stroke-linejoin="round"/>
<path d="M18.3574 5.70466L18.3574 12.0566L20.8982 12.0566L20.8982 5.70466L18.3574 5.70466Z" stroke="#FF7901" stroke-width="1.01632" stroke-miterlimit="10" stroke-linecap="round" stroke-linejoin="round"/>
<path d="M19.6294 1.89062V5.70181" stroke="#FF7901" stroke-width="1.01632" stroke-miterlimit="10" stroke-linecap="round" stroke-linejoin="round"/>
<path d="M19.6294 12.0527V15.8639" stroke="#FF7901" stroke-width="1.01632" stroke-miterlimit="10" stroke-linecap="round" stroke-linejoin="round"/>
<path d="M4.10205 11.9449L4.10205 18.2969L6.64284 18.2969L6.64284 11.9449L4.10205 11.9449Z" fill="#FF7901"/>
<path d="M4.10205 11.9449L4.10205 18.2969L6.64284 18.2969L6.64284 11.9449L4.10205 11.9449Z" stroke="#FF7901" stroke-width="1.01632" stroke-miterlimit="10" stroke-linecap="round" stroke-linejoin="round"/>
<path d="M5.37256 8.13086V11.942" stroke="#FF7901" stroke-width="1.01632" stroke-miterlimit="10" stroke-linecap="round" stroke-linejoin="round"/>
<path d="M5.37256 18.2969V22.1081" stroke="#FF7901" stroke-width="1.01632" stroke-miterlimit="10" stroke-linecap="round" stroke-linejoin="round"/>
<path d="M8.85352 7.58748L8.85352 13.9395L11.3943 13.9395L11.3943 7.58748L8.85352 7.58748Z" stroke="#FF7901" stroke-width="1.01632" stroke-miterlimit="10" stroke-linecap="round" stroke-linejoin="round"/>
<path d="M10.125 3.77539V7.58658" stroke="#FF7901" stroke-width="1.01632" stroke-miterlimit="10" stroke-linecap="round" stroke-linejoin="round"/>
<path d="M10.125 13.9375V17.7487" stroke="#FF7901" stroke-width="1.01632" stroke-miterlimit="10" stroke-linecap="round" stroke-linejoin="round"/>
</svg>
