<svg width="16" height="16" viewBox="0 0 16 16" fill="none" xmlns="http://www.w3.org/2000/svg">
<g clip-path="url(#clip0_374_361192)">
<path fill-rule="evenodd" clip-rule="evenodd" d="M3.68886 9.63034C3.59397 9.53545 3.53467 9.39312 3.53467 9.26266C3.53467 9.13219 3.59397 8.98986 3.68886 8.89498C3.78374 8.80009 3.92607 8.74079 4.05654 8.74079C4.187 8.74079 4.32933 8.80009 4.42422 8.89498L5.61028 10.081V6.15517C5.61028 5.85865 5.84749 5.6333 6.13215 5.6333C6.4168 5.6333 6.65402 5.87051 6.65402 6.15517V10.081L7.84008 8.89498C7.97055 8.76451 8.17218 8.71707 8.35009 8.76451C8.528 8.80009 8.65846 8.95428 8.71777 9.13219C8.75335 9.3101 8.71777 9.49987 8.5873 9.6422L6.51169 11.7178C6.51169 11.7178 6.39308 11.8008 6.33378 11.8364C6.21517 11.8957 6.06098 11.8957 5.94238 11.8364C5.88307 11.8127 5.82377 11.7771 5.76447 11.7178L3.68886 9.6422V9.63034Z" fill="#FF7800"/>
<path fill-rule="evenodd" clip-rule="evenodd" d="M12.3114 6.36872C12.4063 6.46361 12.4656 6.60593 12.4656 6.7364C12.4656 6.86687 12.4063 7.00919 12.3114 7.10408C12.2166 7.19896 12.0742 7.25827 11.9438 7.25827C11.8133 7.25827 11.671 7.19896 11.5761 7.10408L10.39 5.91802V9.84389C10.39 10.1404 10.1528 10.3658 9.86814 10.3658C9.58349 10.3658 9.34628 10.1285 9.34628 9.84389V5.91802L8.16021 7.10408C8.02975 7.23455 7.82811 7.28199 7.6502 7.23455C7.4723 7.19896 7.34183 7.04478 7.28253 6.86687C7.24694 6.68896 7.28253 6.49919 7.41299 6.35686L9.4886 4.28125C9.4886 4.28125 9.60721 4.19822 9.66651 4.16264C9.78512 4.10334 9.93931 4.10334 10.0579 4.16264C10.1172 4.18636 10.1765 4.22194 10.2358 4.28125L12.3114 6.35686V6.36872Z" fill="#FF7800"/>
<path d="M7.99397 15.4899C12.1339 15.4899 15.4899 12.1339 15.4899 7.99397C15.4899 3.85409 12.1339 0.498047 7.99397 0.498047C3.85409 0.498047 0.498047 3.85409 0.498047 7.99397C0.498047 12.1339 3.85409 15.4899 7.99397 15.4899Z" stroke="#FF7800" stroke-width="1.00815" stroke-miterlimit="10"/>
</g>
<defs>
<clipPath id="clip0_374_361192">
<rect width="16" height="16" fill="white"/>
</clipPath>
</defs>
</svg>
