<svg width="28" height="24" viewBox="0 0 28 24" fill="none" xmlns="http://www.w3.org/2000/svg">
<path d="M13.8607 23.5633C20.2468 23.5633 25.4236 18.3864 25.4236 12.0004C25.4236 5.61438 20.2468 0.4375 13.8607 0.4375C7.47474 0.4375 2.29785 5.61438 2.29785 12.0004C2.29785 18.3864 7.47474 23.5633 13.8607 23.5633Z" fill="#1F272E"/>
<path d="M13.8608 23.9993C7.24379 23.9993 1.86084 18.6163 1.86084 11.9993C1.86084 5.38222 7.24452 0 13.8608 0C20.4772 0 25.8608 5.38295 25.8608 12C25.8608 18.617 20.4779 24 13.8608 24V23.9993ZM13.8608 0.874211C7.72607 0.874211 2.73505 5.86523 2.73505 12C2.73505 18.1348 7.72607 23.1258 13.8608 23.1258C19.9956 23.1258 24.9866 18.1348 24.9866 12C24.9866 5.86523 19.9956 0.874211 13.8608 0.874211Z" fill="#FF7800"/>
<path d="M13.9586 23.3557C20.2304 23.3557 25.3147 18.2714 25.3147 11.9996C25.3147 5.72784 20.2304 0.643555 13.9586 0.643555C7.68682 0.643555 2.60254 5.72784 2.60254 11.9996C2.60254 18.2714 7.68682 23.3557 13.9586 23.3557Z" fill="#1F272E"/>
<path d="M13.9585 23.9993C7.34175 23.9993 1.9585 18.616 1.9585 11.9993C1.9585 5.38254 7.34175 0 13.9585 0C20.5752 0 25.9585 5.38325 25.9585 12C25.9585 18.6167 20.5752 24 13.9585 24V23.9993ZM13.9585 1.28786C8.05222 1.28786 3.24636 6.09301 3.24636 12C3.24636 17.907 8.05151 22.7121 13.9585 22.7121C19.8655 22.7121 24.6706 17.907 24.6706 12C24.6706 6.09301 19.8648 1.28786 13.9585 1.28786Z" fill="#FF7800"/>
<path d="M27.3106 3.51855H23.6445V3.94856H27.3106V3.51855Z" fill="url(#paint0_linear_210_178575)"/>
<path d="M25.0201 13.375H17.9434V13.805H25.0201V13.375Z" fill="url(#paint1_linear_210_178575)"/>
<path d="M9.61953 13.8047L4.59473 20.3907H8.58995L13.2155 14.1231L15.2246 20.3907H19.091L16.6663 13.8047H9.61953Z" fill="#FF7800"/>
<path d="M10.4581 13.806H17.3661L16.7057 11.9879L23.0713 3.51953H19.0524L14.8125 9.57033L13.026 3.51953H9.2876L12.0679 11.6717L10.4588 13.8067L10.4581 13.806Z" fill="#FF7800"/>
<path d="M11.6996 13.806H18.6075L17.9471 11.9879L24.3135 3.51953H20.2946L16.0547 9.57033L14.2682 3.51953H10.5298L13.3101 11.6717L11.701 13.8067L11.6996 13.806Z" fill="#B3C0CC"/>
<path d="M10.7367 13.8047L5.71045 20.3907H9.70568L14.3312 14.1231L16.3403 20.3907H20.2067L17.7834 13.8047H10.7367Z" fill="#B3C0CC"/>
<path d="M10.1166 13.8047L5.09033 20.3907H9.08556L13.7111 14.1231L15.7202 20.3907H19.5866L17.1633 13.8047H10.1166Z" fill="white"/>
<path d="M10.9542 13.806H17.8622L17.2003 11.9879L23.5674 3.51953H19.5485L15.3086 9.57033L13.5221 3.51953H9.78369L12.564 11.6717L10.9549 13.8067L10.9542 13.806Z" fill="white"/>
<path d="M9.7889 13.8047H4.77197V14.2347H9.7889V13.8047Z" fill="url(#paint2_linear_210_178575)"/>
<path d="M9.63602 3.51855H2.19434V3.93782H9.63602V3.51855Z" fill="url(#paint3_linear_210_178575)"/>
<path d="M4.97825 19.96H0.688965V20.39H4.97825V19.96Z" fill="url(#paint4_linear_210_178575)"/>
<path d="M5.84781 18.9424H2.62744V19.3724H5.84781V18.9424Z" fill="url(#paint5_linear_210_178575)"/>
<defs>
<linearGradient id="paint0_linear_210_178575" x1="23.6417" y1="3.70386" x2="27.6319" y2="3.76826" gradientUnits="userSpaceOnUse">
<stop stop-color="#B3C0CC"/>
<stop offset="1" stop-color="white" stop-opacity="0"/>
</linearGradient>
<linearGradient id="paint1_linear_210_178575" x1="17.9441" y1="13.5904" x2="25.0201" y2="13.5904" gradientUnits="userSpaceOnUse">
<stop stop-color="#B3C0CC"/>
<stop offset="1" stop-color="white" stop-opacity="0"/>
</linearGradient>
<linearGradient id="paint2_linear_210_178575" x1="4.77197" y1="14.02" x2="9.7889" y2="14.02" gradientUnits="userSpaceOnUse">
<stop stop-color="white" stop-opacity="0"/>
<stop offset="1" stop-color="#FF7800"/>
</linearGradient>
<linearGradient id="paint3_linear_210_178575" x1="2.19434" y1="3.72819" x2="9.63602" y2="3.72819" gradientUnits="userSpaceOnUse">
<stop stop-color="white" stop-opacity="0"/>
<stop offset="1" stop-color="#FF7800"/>
</linearGradient>
<linearGradient id="paint4_linear_210_178575" x1="0.688965" y1="20.1753" x2="4.97825" y2="20.1753" gradientUnits="userSpaceOnUse">
<stop stop-color="white" stop-opacity="0"/>
<stop offset="1" stop-color="#FF7800"/>
</linearGradient>
<linearGradient id="paint5_linear_210_178575" x1="2.62744" y1="19.1577" x2="5.84781" y2="19.1577" gradientUnits="userSpaceOnUse">
<stop stop-color="white" stop-opacity="0"/>
<stop offset="1" stop-color="#FF7800"/>
</linearGradient>
</defs>
</svg>
