<svg width="24" height="24" viewBox="0 0 24 24" fill="none" xmlns="http://www.w3.org/2000/svg">
<path d="M6.57772 11.973L4.93243 9.7459L6.57772 7.51887L8.22301 9.7459L6.57772 11.973Z" stroke="#FF7901" stroke-width="1.16342" stroke-miterlimit="10"/>
<mask id="mask0_147_27425" style="mask-type:luminance" maskUnits="userSpaceOnUse" x="2" y="1" width="21" height="21">
<path d="M2.25896 1.99988H22.1144V21.8557H2.25896V1.99988Z" fill="white"/>
</mask>
<g mask="url(#mask0_147_27425)">
<path d="M4.24449 16.7274L11.971 18.9051C12.0328 18.9225 12.0971 18.8865 12.1145 18.8247L15.8386 5.61104C15.8561 5.54919 15.82 5.48493 15.7582 5.4675L10.6432 4.02585" stroke="#FF7901" stroke-width="1.16342" stroke-miterlimit="10" stroke-linecap="round"/>
<path d="M7.76988 17.5792L12.8695 21.1248C12.9224 21.1616 12.9951 21.1484 13.0317 21.0953L20.8604 9.73397C20.8968 9.6811 20.8835 9.6087 20.8307 9.57222L15.8251 6.11646" stroke="#FF7901" stroke-width="1.16342" stroke-miterlimit="10" stroke-linecap="round"/>
<path d="M14.0067 7.09987C13.9524 7.28843 13.8472 7.38421 13.7686 7.43094C13.7176 7.4611 13.6037 7.45864 13.5452 7.46772C13.6279 7.54878 13.6947 7.70304 13.6197 7.79408C13.6009 7.81696 13.5778 7.83591 13.5516 7.84984C13.5254 7.86376 13.4968 7.8724 13.4673 7.87525C13.4378 7.8781 13.408 7.87511 13.3797 7.86644C13.3513 7.85778 13.325 7.84362 13.3021 7.82477C13.2434 7.77641 13.1638 7.73593 13.084 7.71352C13.004 7.69118 12.9149 7.68463 12.8395 7.69554C12.7953 7.70201 12.7501 7.69514 12.7098 7.67582C12.6764 7.65984 12.6474 7.63585 12.6254 7.60597C12.6034 7.57609 12.5892 7.54125 12.5839 7.50454C12.5668 7.38651 12.7032 7.28896 12.818 7.26412C12.7739 7.22667 12.678 7.17161 12.6501 7.12151C12.5826 6.99997 12.5704 6.85522 12.6149 6.70303C12.7169 6.35401 13.2428 6.18385 13.4016 6.14001C13.4394 6.12956 13.4793 6.12916 13.5174 6.13885C13.5554 6.14855 13.5903 6.168 13.6185 6.19529C13.7021 6.27615 14.1141 6.6995 14.0087 7.09279L14.0067 7.09987Z" fill="#FF7901"/>
</g>
<path d="M4.6753 4.3598C4.70261 4.37131 4.72738 4.38808 4.74819 4.40917L5.25285 4.91987C5.2949 4.96244 5.31832 5.01997 5.31797 5.07981C5.31761 5.13965 5.29349 5.19689 5.25093 5.23895L4.74023 5.74358C4.71916 5.76441 4.69419 5.78089 4.66675 5.79207C4.63931 5.80325 4.60993 5.80891 4.5803 5.80874C4.55067 5.80856 4.52137 5.80255 4.49406 5.79105C4.46676 5.77955 4.44198 5.76277 4.42116 5.74169L3.91653 5.23096C3.87448 5.18839 3.85105 5.13086 3.85141 5.07102C3.85177 5.01118 3.87588 4.95394 3.91845 4.91188L4.42915 4.40728C4.45022 4.38644 4.47518 4.36996 4.50262 4.35877C4.53006 4.34759 4.55943 4.34193 4.58906 4.3421C4.61869 4.34228 4.648 4.34829 4.6753 4.3598Z" fill="#FF7901"/>
<path d="M8.69093 13.6684C8.71823 13.6799 8.743 13.6967 8.76382 13.7178L9.26847 14.2285C9.31053 14.271 9.33395 14.3286 9.33359 14.3884C9.33323 14.4482 9.30912 14.5055 9.26656 14.5475L8.75586 15.0522C8.73478 15.073 8.70981 15.0895 8.68237 15.1007C8.65493 15.1118 8.62556 15.1175 8.59593 15.1173C8.5663 15.1172 8.53699 15.1111 8.50969 15.0996C8.48238 15.0881 8.45761 15.0714 8.43678 15.0503L7.93216 14.5396C7.8901 14.497 7.86668 14.4395 7.86704 14.3796C7.8674 14.3198 7.89151 14.2625 7.93407 14.2205L8.44478 13.7159C8.46584 13.695 8.49081 13.6786 8.51825 13.6674C8.54569 13.6562 8.57506 13.6505 8.60469 13.6507C8.63432 13.6509 8.66362 13.6569 8.69093 13.6684Z" fill="#FF7901"/>
<mask id="mask1_147_27425" style="mask-type:luminance" maskUnits="userSpaceOnUse" x="1" y="2" width="21" height="21">
<path d="M1.88556 2.14453H21.741V22.0003H1.88556V2.14453Z" fill="white"/>
</mask>
<g mask="url(#mask1_147_27425)">
<path d="M10.6502 16.5669C10.6502 16.6552 10.5786 16.7269 10.4902 16.7269H2.62759C2.53922 16.7269 2.46759 16.6552 2.46759 16.5669V2.887C2.46759 2.79863 2.53922 2.727 2.62759 2.727H10.4902C10.5786 2.727 10.6502 2.79863 10.6502 2.887V16.5669Z" stroke="#FF7901" stroke-width="1.16342" stroke-miterlimit="10"/>
<path d="M17.9921 10.582C17.9591 10.5608 17.9321 10.5314 17.9139 10.4966C17.8375 10.3507 17.6025 9.8503 17.7877 9.53739C17.8685 9.40107 17.9824 9.31115 18.1174 9.27741C18.2458 9.24532 18.3844 9.26903 18.5079 9.34416C18.5736 9.38409 18.5846 9.48739 18.6239 9.54807C18.6863 9.55425 18.7975 9.52067 18.8638 9.56062C19.0293 9.66128 19.0874 9.79143 19.1074 9.88314C19.1358 10.0128 19.1088 10.1481 19.027 10.2851C18.8091 10.6349 18.2186 10.6231 18.1024 10.6173C18.0632 10.6153 18.0252 10.6032 17.9921 10.582Z" fill="#FF7901"/>
</g>
</svg>
