<svg width="24" height="24" viewBox="0 0 24 24" fill="none" xmlns="http://www.w3.org/2000/svg">
<path d="M6.57778 11.9727L4.9325 9.74559L6.57778 7.51856L8.22307 9.74559L6.57778 11.9727Z" stroke="#FF7901" stroke-width="1.16342" stroke-miterlimit="10"/>
<mask id="mask0_271_111983" style="mask-type:luminance" maskUnits="userSpaceOnUse" x="2" y="2" width="21" height="20">
<path d="M2.25903 1.9997H22.1145V21.8555H2.25903V1.9997Z" fill="white"/>
</mask>
<g mask="url(#mask0_271_111983)">
<path d="M4.24451 16.7273L11.971 18.905C12.0328 18.9224 12.0971 18.8864 12.1145 18.8245L15.8386 5.61091C15.8561 5.54907 15.8201 5.48481 15.7582 5.46737L10.6432 4.02573" stroke="#FF7901" stroke-width="1.16342" stroke-miterlimit="10" stroke-linecap="round"/>
<path d="M7.7699 17.5791L12.8695 21.1247C12.9224 21.1615 12.9951 21.1483 13.0317 21.0952L20.8604 9.73385C20.8968 9.68098 20.8835 9.60858 20.8307 9.5721L15.8252 6.11634" stroke="#FF7901" stroke-width="1.16342" stroke-miterlimit="10" stroke-linecap="round"/>
<path d="M14.0068 7.09963C13.9526 7.28819 13.8473 7.38396 13.7687 7.4307C13.7177 7.46085 13.6038 7.4584 13.5453 7.46747C13.628 7.54853 13.6949 7.7028 13.6199 7.79384C13.601 7.81672 13.5779 7.83566 13.5517 7.84959C13.5256 7.86352 13.4969 7.87215 13.4674 7.875C13.4379 7.87785 13.4081 7.87486 13.3798 7.8662C13.3515 7.85754 13.3251 7.84338 13.3022 7.82452C13.2435 7.77617 13.1639 7.73568 13.0841 7.71327C13.0041 7.69094 12.915 7.68438 12.8396 7.69529C12.7954 7.70177 12.7503 7.6949 12.71 7.67557C12.6765 7.65959 12.6475 7.6356 12.6255 7.60572C12.6035 7.57585 12.5893 7.54101 12.584 7.5043C12.5669 7.38626 12.7033 7.28872 12.8182 7.26387C12.774 7.22642 12.6781 7.17137 12.6503 7.12126C12.5827 6.99973 12.5705 6.85498 12.615 6.70278C12.717 6.35376 13.243 6.18361 13.4017 6.13976C13.4396 6.12931 13.4795 6.12891 13.5175 6.13861C13.5555 6.1483 13.5904 6.16776 13.6186 6.19504C13.7022 6.27591 14.1142 6.69926 14.0088 7.09254L14.0068 7.09963Z" fill="#FF7901"/>
</g>
<path d="M4.67542 4.35946C4.70273 4.37097 4.7275 4.38775 4.74831 4.40883L5.25297 4.91953C5.29502 4.9621 5.31844 5.01963 5.31808 5.07947C5.31772 5.13931 5.29361 5.19656 5.25105 5.23862L4.74035 5.74325C4.71928 5.76408 4.69431 5.78056 4.66687 5.79173C4.63943 5.80291 4.61005 5.80858 4.58042 5.8084C4.55079 5.80823 4.52149 5.80222 4.49418 5.79071C4.46687 5.77921 4.4421 5.76244 4.42128 5.74136L3.91665 5.23062C3.87459 5.18806 3.85117 5.13052 3.85153 5.07069C3.85189 5.01085 3.876 4.9536 3.91857 4.91154L4.42927 4.40694C4.45033 4.3861 4.4753 4.36962 4.50274 4.35844C4.53018 4.34726 4.55955 4.34159 4.58918 4.34177C4.61881 4.34194 4.64812 4.34796 4.67542 4.35946Z" fill="#FF7901"/>
<path d="M8.69105 13.6681C8.71835 13.6796 8.74312 13.6963 8.76394 13.7174L9.26859 14.2281C9.31064 14.2707 9.33407 14.3282 9.33371 14.3881C9.33335 14.4479 9.30924 14.5051 9.26667 14.5472L8.75598 15.0518C8.7349 15.0727 8.70993 15.0891 8.68249 15.1003C8.65505 15.1115 8.62568 15.1172 8.59605 15.117C8.56642 15.1168 8.53711 15.1108 8.50981 15.0993C8.4825 15.0878 8.45773 15.071 8.4369 15.05L7.93227 14.5392C7.89022 14.4966 7.8668 14.4391 7.86716 14.3793C7.86752 14.3194 7.89163 14.2622 7.93419 14.2201L8.44489 13.7155C8.46596 13.6947 8.49093 13.6782 8.51837 13.667C8.5458 13.6558 8.57518 13.6502 8.60481 13.6504C8.63444 13.6505 8.66374 13.6565 8.69105 13.6681Z" fill="#FF7901"/>
<mask id="mask1_271_111983" style="mask-type:luminance" maskUnits="userSpaceOnUse" x="1" y="2" width="21" height="20">
<path d="M1.88562 2.14423H21.7411V22H1.88562V2.14423Z" fill="white"/>
</mask>
<g mask="url(#mask1_271_111983)">
<path d="M10.6503 16.5666C10.6503 16.6549 10.5786 16.7266 10.4903 16.7266H2.62765C2.53929 16.7266 2.46765 16.6549 2.46765 16.5666V2.88669C2.46765 2.79833 2.53929 2.72669 2.62765 2.72669H10.4903C10.5786 2.72669 10.6503 2.79833 10.6503 2.88669V16.5666Z" stroke="#FF7901" stroke-width="1.16342" stroke-miterlimit="10"/>
<path d="M17.9922 10.5817C17.9592 10.5605 17.9322 10.5311 17.914 10.4963C17.8376 10.3504 17.6027 9.84996 17.7878 9.53705C17.8686 9.40073 17.9826 9.31082 18.1175 9.27707C18.2459 9.24499 18.3845 9.26869 18.508 9.34382C18.5737 9.38376 18.5847 9.48705 18.6241 9.54773C18.6864 9.55391 18.7976 9.52033 18.8639 9.56028C19.0294 9.66094 19.0875 9.79109 19.1075 9.88281C19.1359 10.0125 19.1089 10.1478 19.0271 10.2847C18.8093 10.6346 18.2187 10.6228 18.1025 10.6169C18.0633 10.615 18.0253 10.6028 17.9922 10.5817Z" fill="#FF7901"/>
</g>
</svg>
