<svg width="24" height="24" viewBox="0 0 24 24" fill="none" xmlns="http://www.w3.org/2000/svg">
<path d="M20.1807 6.05666V12.3519C20.1807 12.705 19.8946 12.9911 19.5415 12.9911H16.9851V11.0098H18.9024V9.02855H16.9851V7.04729H18.9024V6.05666C18.9024 5.52802 18.4724 5.09799 17.9438 5.09799H16.9851V7.04729H15.0038V5.09799H13.0226V7.04729H11.0413V5.09799H9.06007V7.04729H7.07882V5.09799H6.05624C5.52759 5.09799 5.09756 5.52802 5.09756 6.05666V7.04729H7.07882V9.02855H5.09756V11.0098H7.07882V12.9911H5.09756V14.8445H7.07882V12.9911H9.06007V14.8445H11.0413V12.9911H13.0226V14.8445H15.0038V12.9911H16.9851V14.8445H17.9438C18.1532 14.8445 18.3519 14.7783 18.5186 14.6531C18.8008 14.4412 19.2014 14.4981 19.4135 14.7803C19.6254 15.0626 19.5685 15.4633 19.2863 15.6752C18.8964 15.9679 18.4322 16.1227 17.9438 16.1227H5.09756V19.542C5.09756 19.895 4.81146 20.1811 4.45845 20.1811C4.10544 20.1811 3.81934 19.895 3.81934 19.542V6.05666C3.81934 4.82325 4.82282 3.81976 6.05624 3.81976H17.9438C19.1772 3.81976 20.1807 4.82325 20.1807 6.05666ZM15.0038 9.02855V7.04729H13.0226V9.02855H15.0038ZM11.0413 9.02855V7.04729H9.06007V9.02855H11.0413ZM9.06007 9.02855H7.07882V11.0098H9.06007V9.02855ZM11.0413 9.02855V11.0098H13.0226V9.02855H11.0413ZM15.0038 11.0098H16.9851V9.02855H15.0038V11.0098ZM13.0226 11.0098V12.9911H15.0038V11.0098H13.0226ZM9.06007 11.0098V12.9911H11.0413V11.0098H9.06007Z" fill="#FF7901"/>
</svg>
