<svg width="18" height="16" viewBox="0 0 18 16" fill="none" xmlns="http://www.w3.org/2000/svg">
<g clip-path="url(#clip0_364_114113)">
<path d="M15.5867 4.99926H15.0915V3.50184C15.0915 3.10096 14.9382 2.72366 14.6552 2.44068C14.502 2.2874 14.3015 2.16949 14.0893 2.09875V1.49742C14.0893 1.09654 13.936 0.719234 13.653 0.436256C13.37 0.153279 12.9927 0 12.5919 0H3.58375C3.18287 0 2.80556 0.153279 2.52259 0.436256C2.23961 0.719234 2.08633 1.09654 2.08633 1.49742V2.49963V5.37657C1.33172 5.57701 0.659653 6.06043 0.294141 6.81503C-0.366139 8.13559 0.140862 9.72734 1.40247 10.4584C1.20203 10.93 1.08412 11.4606 1.08412 12.0029C1.08412 14.2078 2.87631 16 5.09296 16C7.30962 16 9.10181 14.2078 9.10181 12.0029H13.6059C14.0067 12.0029 14.384 11.8497 14.667 11.5667C14.95 11.2837 15.1033 10.9064 15.1033 10.5055V9.00811H15.5985C16.4238 9.00811 17.0959 8.33604 17.0959 7.51069V6.50847C17.0959 5.68312 16.4238 5.01105 15.5985 5.01105L15.5867 4.99926ZM3.08854 1.49742C3.08854 1.36772 3.1357 1.23803 3.23003 1.1437C3.32435 1.04937 3.45405 1.00221 3.58375 1.00221H12.5919C12.7216 1.00221 12.8513 1.04937 12.9456 1.1437C13.0399 1.23803 13.0871 1.36772 13.0871 1.49742V1.99263H3.08854V1.49742ZM1.04875 7.19234C1.27277 6.74429 1.65007 6.43773 2.08633 6.27266V9.37362C1.992 9.47974 1.89768 9.58585 1.81514 9.70376C0.94263 9.19676 0.6007 8.10022 1.06054 7.18055L1.04875 7.19234ZM5.08117 14.9978C3.41868 14.9978 2.07454 13.6536 2.07454 12.0029C2.07454 11.1894 2.40468 10.4466 2.93526 9.9042C3.47763 9.35004 4.24403 9.00811 5.08117 9.00811C5.28161 9.00811 5.47027 9.03169 5.65892 9.06706C5.70608 9.06706 5.75324 9.09064 5.80041 9.11422C5.94189 9.1496 6.07159 9.18497 6.20129 9.24392C6.26024 9.2675 6.30741 9.29108 6.35457 9.31467C6.47248 9.37362 6.59038 9.43257 6.6965 9.50332C6.74366 9.53869 6.79083 9.57406 6.83799 9.60943C6.9441 9.69197 7.03843 9.76271 7.13276 9.85704C7.16813 9.89241 7.21529 9.93957 7.25066 9.97495C7.34499 10.0693 7.42752 10.1754 7.49827 10.2815C7.53364 10.3287 7.55722 10.3758 7.59259 10.4112C7.66334 10.5291 7.73408 10.647 7.79304 10.7649C7.81662 10.8121 7.8402 10.8592 7.85199 10.9064C7.89915 11.0361 7.94632 11.1776 7.98169 11.3191C7.98169 11.3663 8.00527 11.4134 8.01706 11.4606C8.05243 11.6374 8.07601 11.8261 8.07601 12.0147C8.07601 13.6654 6.73187 15.0096 5.06938 15.0096L5.08117 14.9978ZM14.1011 10.4937C14.1011 10.6234 14.0539 10.7531 13.9596 10.8475C13.8653 10.9418 13.7356 10.9889 13.6059 10.9889H8.97211C8.92494 10.8121 8.86599 10.647 8.79525 10.4819C8.79525 10.4584 8.79525 10.4466 8.77167 10.423C8.66555 10.1872 8.54764 9.96316 8.40615 9.75092C8.40615 9.75092 8.40615 9.73913 8.39436 9.72734C8.26466 9.53869 8.11139 9.36183 7.95811 9.19676C7.91094 9.1496 7.86378 9.11422 7.81662 9.06706C7.68692 8.94915 7.55722 8.83125 7.40394 8.72513C7.34499 8.67797 7.27424 8.64259 7.21529 8.59543C7.0738 8.5129 6.93231 8.43036 6.77903 8.35962C6.70829 8.32425 6.63755 8.28887 6.55501 8.26529C6.38994 8.20634 6.22487 8.15918 6.0598 8.11201C5.98906 8.08843 5.91831 8.06485 5.83578 8.05306C5.59996 8.0059 5.35236 7.98231 5.10475 7.98231C5.10475 7.98231 5.09296 7.98231 5.08117 7.98231C5.08117 7.98231 5.05759 7.98231 5.0458 7.98231C4.80999 7.98231 4.58596 8.0059 4.37373 8.05306C4.30298 8.06485 4.24403 8.07664 4.17329 8.08843C3.96105 8.13559 3.74882 8.19455 3.54838 8.27708C3.50122 8.28887 3.46584 8.31245 3.43047 8.33604C3.31256 8.39499 3.19466 8.44215 3.07675 8.5129V2.99484H13.5823C13.712 2.99484 13.8417 3.042 13.936 3.13633C14.0303 3.23066 14.0775 3.36035 14.0775 3.49005V4.98747H13.5823C12.7569 4.98747 12.0849 5.65954 12.0849 6.48489V7.4871C12.0849 8.31245 12.7569 8.98453 13.5823 8.98453H14.0893V10.4819L14.1011 10.4937ZM16.0937 7.4989C16.0937 7.77008 15.8697 7.99411 15.5985 7.99411H14.6081H13.6059C13.3347 7.99411 13.1106 7.77008 13.1106 7.4989V6.49668C13.1106 6.28445 13.2403 6.10759 13.4172 6.03685C13.4762 6.01326 13.5351 6.00147 13.6059 6.00147H15.6103C15.8815 6.00147 16.1055 6.2255 16.1055 6.49668V7.4989H16.0937Z" fill="white"/>
<path d="M6.23711 11.6487L5.57683 12.309V10.4933C5.57683 10.2221 5.35281 9.99805 5.08162 9.99805C4.81044 9.99805 4.58641 10.2221 4.58641 10.4933V12.2972L3.92613 11.637C3.72569 11.4365 3.41913 11.4365 3.21869 11.637C3.01825 11.8374 3.01825 12.144 3.21869 12.3444L4.71611 13.8418C4.82223 13.9479 4.95193 13.9833 5.08162 13.9833C5.21132 13.9833 5.35281 13.9361 5.44714 13.8418L6.94456 12.3444C7.145 12.144 7.145 11.8374 6.94456 11.637C6.74411 11.4365 6.43756 11.4365 6.23711 11.637V11.6487Z" fill="white"/>
</g>
<defs>
<clipPath id="clip0_364_114113">
<rect width="17.0965" height="16" fill="white"/>
</clipPath>
</defs>
</svg>
