<svg width="24" height="24" viewBox="0 0 24 24" fill="none" xmlns="http://www.w3.org/2000/svg">
<path d="M6.57772 11.9727L4.93243 9.74559L6.57772 7.51856L8.22301 9.74559L6.57772 11.9727Z" stroke="#FF7901" stroke-width="1.16342" stroke-miterlimit="10"/>
<mask id="mask0_273_112012" style="mask-type:luminance" maskUnits="userSpaceOnUse" x="2" y="2" width="21" height="20">
<path d="M2.25897 1.9997H22.1144V21.8555H2.25897V1.9997Z" fill="white"/>
</mask>
<g mask="url(#mask0_273_112012)">
<path d="M4.24451 16.7273L11.971 18.905C12.0328 18.9224 12.0971 18.8864 12.1145 18.8245L15.8386 5.61091C15.8561 5.54907 15.8201 5.48481 15.7582 5.46737L10.6432 4.02573" stroke="#FF7901" stroke-width="1.16342" stroke-miterlimit="10" stroke-linecap="round"/>
<path d="M7.7699 17.5791L12.8695 21.1247C12.9224 21.1615 12.9951 21.1483 13.0317 21.0952L20.8604 9.73385C20.8968 9.68098 20.8835 9.60858 20.8307 9.5721L15.8252 6.11634" stroke="#FF7901" stroke-width="1.16342" stroke-miterlimit="10" stroke-linecap="round"/>
<path d="M14.0067 7.09963C13.9524 7.28819 13.8472 7.38396 13.7686 7.4307C13.7176 7.46085 13.6037 7.4584 13.5452 7.46747C13.6279 7.54853 13.6947 7.7028 13.6198 7.79384C13.6009 7.81672 13.5778 7.83566 13.5516 7.84959C13.5254 7.86352 13.4968 7.87215 13.4673 7.875C13.4378 7.87785 13.408 7.87486 13.3797 7.8662C13.3513 7.85754 13.325 7.84338 13.3021 7.82452C13.2434 7.77617 13.1638 7.73568 13.084 7.71327C13.004 7.69094 12.9149 7.68438 12.8395 7.69529C12.7953 7.70177 12.7501 7.6949 12.7099 7.67557C12.6764 7.65959 12.6474 7.6356 12.6254 7.60572C12.6034 7.57585 12.5892 7.54101 12.5839 7.5043C12.5668 7.38626 12.7032 7.28872 12.818 7.26387C12.7739 7.22642 12.678 7.17137 12.6501 7.12126C12.5826 6.99973 12.5704 6.85498 12.6149 6.70278C12.7169 6.35376 13.2428 6.18361 13.4016 6.13976C13.4394 6.12931 13.4794 6.12891 13.5174 6.13861C13.5554 6.1483 13.5903 6.16776 13.6185 6.19504C13.7021 6.27591 14.1141 6.69926 14.0087 7.09254L14.0067 7.09963Z" fill="#FF7901"/>
</g>
<path d="M4.6753 4.35946C4.7026 4.37097 4.72737 4.38775 4.74819 4.40883L5.25284 4.91953C5.2949 4.9621 5.31832 5.01963 5.31796 5.07947C5.3176 5.13931 5.29349 5.19656 5.25093 5.23862L4.74023 5.74325C4.71916 5.76408 4.69419 5.78056 4.66675 5.79173C4.6393 5.80291 4.60993 5.80858 4.5803 5.8084C4.55067 5.80823 4.52136 5.80222 4.49406 5.79071C4.46675 5.77921 4.44198 5.76244 4.42115 5.74136L3.91653 5.23062C3.87447 5.18806 3.85105 5.13052 3.85141 5.07069C3.85177 5.01085 3.87588 4.9536 3.91844 4.91154L4.42915 4.40694C4.45021 4.3861 4.47518 4.36962 4.50262 4.35844C4.53006 4.34726 4.55943 4.34159 4.58906 4.34177C4.61869 4.34194 4.648 4.34796 4.6753 4.35946Z" fill="#FF7901"/>
<path d="M8.69093 13.6681C8.71823 13.6796 8.743 13.6963 8.76382 13.7174L9.26847 14.2281C9.31052 14.2707 9.33395 14.3282 9.33359 14.3881C9.33323 14.4479 9.30911 14.5051 9.26655 14.5472L8.75585 15.0518C8.73478 15.0727 8.70981 15.0891 8.68237 15.1003C8.65493 15.1115 8.62556 15.1172 8.59592 15.117C8.56629 15.1168 8.53699 15.1108 8.50968 15.0993C8.48238 15.0878 8.4576 15.071 8.43678 15.05L7.93215 14.5392C7.8901 14.4966 7.86667 14.4391 7.86703 14.3793C7.86739 14.3194 7.89151 14.2622 7.93407 14.2201L8.44477 13.7155C8.46584 13.6947 8.4908 13.6782 8.51824 13.667C8.54568 13.6558 8.57506 13.6502 8.60469 13.6504C8.63432 13.6505 8.66362 13.6565 8.69093 13.6681Z" fill="#FF7901"/>
<mask id="mask1_273_112012" style="mask-type:luminance" maskUnits="userSpaceOnUse" x="1" y="2" width="21" height="20">
<path d="M1.88556 2.14423H21.741V22H1.88556V2.14423Z" fill="white"/>
</mask>
<g mask="url(#mask1_273_112012)">
<path d="M10.6502 16.5666C10.6502 16.6549 10.5786 16.7266 10.4902 16.7266H2.62759C2.53922 16.7266 2.46759 16.6549 2.46759 16.5666V2.88669C2.46759 2.79833 2.53922 2.72669 2.62759 2.72669H10.4902C10.5786 2.72669 10.6502 2.79833 10.6502 2.88669V16.5666Z" stroke="#FF7901" stroke-width="1.16342" stroke-miterlimit="10"/>
<path d="M17.9921 10.5817C17.9591 10.5605 17.9321 10.5311 17.9139 10.4963C17.8375 10.3504 17.6025 9.84996 17.7877 9.53705C17.8684 9.40073 17.9824 9.31082 18.1174 9.27707C18.2458 9.24499 18.3844 9.26869 18.5079 9.34382C18.5736 9.38376 18.5846 9.48705 18.6239 9.54773C18.6863 9.55391 18.7975 9.52033 18.8638 9.56028C19.0293 9.66094 19.0874 9.79109 19.1074 9.88281C19.1358 10.0125 19.1088 10.1478 19.027 10.2847C18.8091 10.6346 18.2186 10.6228 18.1024 10.6169C18.0632 10.615 18.0252 10.6028 17.9921 10.5817Z" fill="#FF7901"/>
</g>
</svg>
