<svg width="18" height="16" viewBox="0 0 18 16" fill="none" xmlns="http://www.w3.org/2000/svg">
<g clip-path="url(#clip0_374_361189)">
<path d="M15.5872 4.99926H15.092V3.50184C15.092 3.10096 14.9387 2.72366 14.6557 2.44068C14.5024 2.2874 14.302 2.16949 14.0898 2.09875V1.49742C14.0898 1.09654 13.9365 0.719234 13.6535 0.436256C13.3705 0.153279 12.9932 0 12.5923 0H3.58424C3.18335 0 2.80605 0.153279 2.52307 0.436256C2.2401 0.719234 2.08682 1.09654 2.08682 1.49742V2.49963V5.37657C1.33221 5.57701 0.660141 6.06043 0.294629 6.81503C-0.365651 8.13559 0.14135 9.72734 1.40296 10.4584C1.20251 10.93 1.08461 11.4606 1.08461 12.0029C1.08461 14.2078 2.8768 16 5.09345 16C7.31011 16 9.10229 14.2078 9.10229 12.0029H13.6063C14.0072 12.0029 14.3845 11.8497 14.6675 11.5667C14.9505 11.2837 15.1038 10.9064 15.1038 10.5055V9.00811H15.599C16.4243 9.00811 17.0964 8.33604 17.0964 7.51069V6.50847C17.0964 5.68312 16.4243 5.01105 15.599 5.01105L15.5872 4.99926ZM3.08903 1.49742C3.08903 1.36772 3.13619 1.23803 3.23052 1.1437C3.32484 1.04937 3.45454 1.00221 3.58424 1.00221H12.5923C12.722 1.00221 12.8517 1.04937 12.9461 1.1437C13.0404 1.23803 13.0876 1.36772 13.0876 1.49742V1.99263H3.08903V1.49742ZM1.04924 7.19234C1.27326 6.74429 1.65056 6.43773 2.08682 6.27266V9.37362C1.99249 9.47974 1.89817 9.58585 1.81563 9.70376C0.943118 9.19676 0.601188 8.10022 1.06103 7.18055L1.04924 7.19234ZM5.08166 14.9978C3.41917 14.9978 2.07503 13.6536 2.07503 12.0029C2.07503 11.1894 2.40517 10.4466 2.93575 9.9042C3.47812 9.35004 4.24452 9.00811 5.08166 9.00811C5.2821 9.00811 5.47075 9.03169 5.6594 9.06706C5.70657 9.06706 5.75373 9.09064 5.80089 9.11422C5.94238 9.1496 6.07208 9.18497 6.20178 9.24392C6.26073 9.2675 6.30789 9.29108 6.35506 9.31467C6.47296 9.37362 6.59087 9.43257 6.69699 9.50332C6.74415 9.53869 6.79131 9.57406 6.83848 9.60943C6.94459 9.69197 7.03892 9.76271 7.13324 9.85704C7.16862 9.89241 7.21578 9.93957 7.25115 9.97495C7.34548 10.0693 7.42801 10.1754 7.49876 10.2815C7.53413 10.3287 7.55771 10.3758 7.59308 10.4112C7.66383 10.5291 7.73457 10.647 7.79352 10.7649C7.81711 10.8121 7.84069 10.8592 7.85248 10.9064C7.89964 11.0361 7.9468 11.1776 7.98218 11.3191C7.98218 11.3663 8.00576 11.4134 8.01755 11.4606C8.05292 11.6374 8.0765 11.8261 8.0765 12.0147C8.0765 13.6654 6.73236 15.0096 5.06987 15.0096L5.08166 14.9978ZM14.1016 10.4937C14.1016 10.6234 14.0544 10.7531 13.9601 10.8475C13.8657 10.9418 13.736 10.9889 13.6063 10.9889H8.9726C8.92543 10.8121 8.86648 10.647 8.79574 10.4819C8.79574 10.4584 8.79574 10.4466 8.77215 10.423C8.66604 10.1872 8.54813 9.96316 8.40664 9.75092C8.40664 9.75092 8.40664 9.73913 8.39485 9.72734C8.26515 9.53869 8.11187 9.36183 7.95859 9.19676C7.91143 9.1496 7.86427 9.11422 7.81711 9.06706C7.68741 8.94915 7.55771 8.83125 7.40443 8.72513C7.34548 8.67797 7.27473 8.64259 7.21578 8.59543C7.07429 8.5129 6.9328 8.43036 6.77952 8.35962C6.70878 8.32425 6.63803 8.28887 6.5555 8.26529C6.39043 8.20634 6.22536 8.15918 6.06029 8.11201C5.98954 8.08843 5.9188 8.06485 5.83627 8.05306C5.60045 8.0059 5.35285 7.98231 5.10524 7.98231C5.10524 7.98231 5.09345 7.98231 5.08166 7.98231C5.08166 7.98231 5.05808 7.98231 5.04629 7.98231C4.81047 7.98231 4.58645 8.0059 4.37422 8.05306C4.30347 8.06485 4.24452 8.07664 4.17377 8.08843C3.96154 8.13559 3.74931 8.19455 3.54887 8.27708C3.5017 8.28887 3.46633 8.31245 3.43096 8.33604C3.31305 8.39499 3.19515 8.44215 3.07724 8.5129V2.99484H13.5828C13.7125 2.99484 13.8422 3.042 13.9365 3.13633C14.0308 3.23066 14.078 3.36035 14.078 3.49005V4.98747H13.5828C12.7574 4.98747 12.0853 5.65954 12.0853 6.48489V7.4871C12.0853 8.31245 12.7574 8.98453 13.5828 8.98453H14.0898V10.4819L14.1016 10.4937ZM16.0942 7.4989C16.0942 7.77008 15.8702 7.99411 15.599 7.99411H14.6086H13.6063C13.3352 7.99411 13.1111 7.77008 13.1111 7.4989V6.49668C13.1111 6.28445 13.2408 6.10759 13.4177 6.03685C13.4766 6.01326 13.5356 6.00147 13.6063 6.00147H15.6108C15.882 6.00147 16.106 6.2255 16.106 6.49668V7.4989H16.0942Z" fill="#FF7901"/>
<path d="M3.92613 12.3448L4.58641 11.6845V13.5003C4.58641 13.7715 4.81044 13.9955 5.08162 13.9955C5.35281 13.9955 5.57683 13.7715 5.57683 13.5003V11.6963L6.23711 12.3566C6.43756 12.557 6.74411 12.557 6.94456 12.3566C7.145 12.1562 7.145 11.8496 6.94456 11.6492L5.44714 10.1517C5.34102 10.0456 5.21132 10.0103 5.08162 10.0103C4.95193 10.0103 4.81044 10.0574 4.71611 10.1517L3.21869 11.6492C3.01825 11.8496 3.01825 12.1562 3.21869 12.3566C3.41913 12.557 3.72569 12.557 3.92613 12.3566V12.3448Z" fill="#FF7901"/>
</g>
<defs>
<clipPath id="clip0_374_361189">
<rect width="17.0965" height="16" fill="white"/>
</clipPath>
</defs>
</svg>
