<svg width="24" height="24" viewBox="0 0 24 24" fill="none" xmlns="http://www.w3.org/2000/svg">
<path d="M15.7787 16.0381L13.1804 16.0381L13.1804 9.46294L15.7787 9.46294L15.7787 16.0381Z" fill="#FF7901" stroke="#FF7901" stroke-width="0.0530252"/>
<path d="M13.1539 9.43643L13.1539 16.0646L15.8052 16.0646L15.8052 9.43643L13.1539 9.43643Z" stroke="#FF7901" stroke-width="1.0605" stroke-miterlimit="10" stroke-linecap="round" stroke-linejoin="round"/>
<path d="M14.4789 5.45633L14.4789 9.43322" stroke="#FF7901" stroke-width="1.0605" stroke-miterlimit="10" stroke-linecap="round" stroke-linejoin="round"/>
<path d="M14.4789 16.06L14.4789 20.0369" stroke="#FF7901" stroke-width="1.0605" stroke-miterlimit="10" stroke-linecap="round" stroke-linejoin="round"/>
<path d="M18.112 5.43246L18.112 12.0606L20.7633 12.0606L20.7633 5.43246L18.112 5.43246Z" stroke="#FF7901" stroke-width="1.0605" stroke-miterlimit="10" stroke-linecap="round" stroke-linejoin="round"/>
<path d="M19.4391 1.45175L19.4391 5.42864" stroke="#FF7901" stroke-width="1.0605" stroke-miterlimit="10" stroke-linecap="round" stroke-linejoin="round"/>
<path d="M19.4392 12.0554L19.4392 16.0323" stroke="#FF7901" stroke-width="1.0605" stroke-miterlimit="10" stroke-linecap="round" stroke-linejoin="round"/>
<path d="M5.86153 18.5459L3.2633 18.5459L3.2633 11.9708L5.86153 11.9708L5.86153 18.5459Z" fill="#FF7901" stroke="#FF7901" stroke-width="0.0530252"/>
<path d="M3.23678 11.9442L3.23678 18.5724L5.88804 18.5724L5.88804 11.9442L3.23678 11.9442Z" stroke="#FF7901" stroke-width="1.0605" stroke-miterlimit="10" stroke-linecap="round" stroke-linejoin="round"/>
<path d="M4.56253 7.96417L4.56253 11.9411" stroke="#FF7901" stroke-width="1.0605" stroke-miterlimit="10" stroke-linecap="round" stroke-linejoin="round"/>
<path d="M4.56253 18.5724L4.56253 22.5493" stroke="#FF7901" stroke-width="1.0605" stroke-miterlimit="10" stroke-linecap="round" stroke-linejoin="round"/>
<path d="M8.19488 7.39718L8.19488 14.0253L10.8461 14.0253L10.8461 7.39718L8.19488 7.39718Z" stroke="#FF7901" stroke-width="1.0605" stroke-miterlimit="10" stroke-linecap="round" stroke-linejoin="round"/>
<path d="M9.52164 3.41891L9.52164 7.3958" stroke="#FF7901" stroke-width="1.0605" stroke-miterlimit="10" stroke-linecap="round" stroke-linejoin="round"/>
<path d="M9.52166 14.0226L9.52166 17.9995" stroke="#FF7901" stroke-width="1.0605" stroke-miterlimit="10" stroke-linecap="round" stroke-linejoin="round"/>
</svg>
