<svg width="16" height="16" viewBox="0 0 16 16" fill="none" xmlns="http://www.w3.org/2000/svg">
<g clip-path="url(#clip0_367_361178)">
<path d="M16.0002 1.68006C16.0802 0.880061 14.9602 0.480061 14.5602 1.20006L11.6002 5.92006L8.64017 1.20006C8.32017 0.720061 7.60017 0.720061 7.28017 1.20006L4.40017 5.84006L1.44017 1.12006C1.04017 0.400061 -0.0798321 0.800061 0.000167868 1.68006L0.800168 11.2801V14.4801C0.800168 14.9601 1.12017 15.2801 1.60017 15.2801H14.4002C14.8802 15.2801 15.2002 14.9601 15.2002 14.4801V11.3601L16.0002 1.68006ZM3.76017 7.76006C4.08017 8.24006 4.80017 8.24006 5.12017 7.76006L8.00017 3.12006L10.9602 7.84006C11.2802 8.32006 12.0002 8.32006 12.3202 7.84006L14.1602 4.80006L13.6802 10.4001H2.32017L1.84017 4.80006L3.76017 7.76006ZM2.40017 13.6001V12.0001H13.6002V13.6001H2.40017Z" fill="#FF7901"/>
</g>
<defs>
<clipPath id="clip0_367_361178">
<rect width="16" height="16" fill="white"/>
</clipPath>
</defs>
</svg>
