<svg width="16" height="16" viewBox="0 0 16 16" fill="none" xmlns="http://www.w3.org/2000/svg">
<g clip-path="url(#clip0_364_114087)">
<path d="M7.5499 11.7473H1.91113V6.10855" stroke="white" stroke-width="0.939794" stroke-miterlimit="10" stroke-linecap="round" stroke-linejoin="round"/>
<path d="M11.3086 6.10869V7.98828" stroke="white" stroke-width="0.939794" stroke-miterlimit="10" stroke-linecap="round" stroke-linejoin="round"/>
<path d="M10.3691 12.75L12.2487 10.8704" stroke="white" stroke-width="0.939794" stroke-miterlimit="10" stroke-linecap="round" stroke-linejoin="round"/>
<mask id="mask0_364_114087" style="mask-type:luminance" maskUnits="userSpaceOnUse" x="0" y="0" width="17" height="17">
<path d="M0 -9.53674e-05H16.0392V16.0391H0V-9.53674e-05Z" fill="white"/>
</mask>
<g mask="url(#mask0_364_114087)">
<path d="M12.7181 12.7498C12.7181 13.0093 12.5077 13.2197 12.2482 13.2197C11.9887 13.2197 11.7783 13.0093 11.7783 12.7498C11.7783 12.4903 11.9887 12.2799 12.2482 12.2799C12.5077 12.2799 12.7181 12.4903 12.7181 12.7498Z" fill="white"/>
<path d="M10.8382 10.8702C10.8382 11.1297 10.6278 11.3401 10.3683 11.3401C10.1088 11.3401 9.89844 11.1297 9.89844 10.8702C9.89844 10.6107 10.1088 10.4003 10.3683 10.4003C10.6278 10.4003 10.8382 10.6107 10.8382 10.8702Z" fill="white"/>
<path d="M14.2728 12.6045L15.0672 11.8102L14.2728 11.0158L14.5636 9.93057L13.4784 9.6398L13.1876 8.55459L12.1024 8.84536L11.308 8.05098L10.5136 8.84536L9.42842 8.55459L9.13768 9.6398L8.05246 9.93057L8.34324 11.0158L7.54883 11.8102L8.34324 12.6045L8.05246 13.6897L9.13768 13.9805L9.42842 15.0657L10.5136 14.7749L11.308 15.5693L12.1024 14.7749L13.1876 15.0657L13.4784 13.9805L14.5636 13.6897L14.2728 12.6045Z" stroke="white" stroke-width="0.939794" stroke-miterlimit="10" stroke-linecap="round" stroke-linejoin="round"/>
<path d="M12.2482 6.10864H0.970703V3.28926H12.2482V6.10864Z" stroke="white" stroke-width="0.939794" stroke-miterlimit="10" stroke-linecap="round" stroke-linejoin="round"/>
<path d="M6.60938 3.28916V11.7473" stroke="white" stroke-width="0.939794" stroke-miterlimit="10" stroke-linecap="round" stroke-linejoin="round"/>
<path d="M8.01907 3.28931C8.79762 3.28931 9.42876 2.65817 9.42876 1.87962C9.42876 1.10106 8.79762 0.469923 8.01907 0.469923C7.24051 0.469923 6.60938 1.10106 6.60938 1.87962V3.28931" stroke="white" stroke-width="0.939794" stroke-miterlimit="10" stroke-linecap="round" stroke-linejoin="round"/>
<path d="M5.19973 3.28931C4.42117 3.28931 3.79004 2.65817 3.79004 1.87962C3.79004 1.10106 4.42117 0.469923 5.19973 0.469923C5.97829 0.469923 6.60942 1.10106 6.60942 1.87962" stroke="white" stroke-width="0.939794" stroke-miterlimit="10" stroke-linecap="round" stroke-linejoin="round"/>
</g>
</g>
<defs>
<clipPath id="clip0_364_114087">
<rect width="16" height="16" fill="white"/>
</clipPath>
</defs>
</svg>
