<svg width="51" height="50" viewBox="0 0 51 50" fill="none" xmlns="http://www.w3.org/2000/svg">
<rect x="0.0600586" width="50" height="50" rx="25" fill="white"/>
<rect x="1.16006" y="1.1" width="47.8" height="47.8" rx="23.9" stroke="black" stroke-opacity="0.2" stroke-width="2.2"/>
<path d="M32.7755 17.4817C31.1028 17.4817 29.2711 18.3933 27.3392 20.1915C26.4275 21.0362 25.6246 21.9562 25.0392 22.6838C25.0392 22.6838 25.9759 23.7627 27.0046 24.9253C27.565 24.2227 28.3595 23.2693 29.2879 22.4078C31.0024 20.802 32.1231 20.4758 32.7671 20.4758C35.1758 20.4758 37.1329 22.4998 37.1329 25.0005C37.1329 27.4761 35.1758 29.5001 32.7671 29.5252C32.65 29.5252 32.5162 29.5085 32.3489 29.475C33.0515 29.8012 33.8125 30.0354 34.5234 30.0354C38.9394 30.0354 39.8092 26.9827 39.8594 26.7652C39.9848 26.2049 40.0601 25.6194 40.0601 25.0173C40.0517 20.8606 36.79 17.4817 32.7755 17.4817Z" fill="url(#paint0_linear_28_1536)"/>
<path d="M17.3446 32.5183C19.0174 32.5183 20.849 31.6067 22.7809 29.8085C23.6926 28.9638 24.4955 28.0438 25.0809 27.3162C25.0809 27.3162 24.1442 26.2373 23.1155 25.0747C22.5551 25.7773 21.7606 26.7307 20.8322 27.5922C19.1177 29.1813 17.9886 29.5242 17.353 29.5242C14.9443 29.5242 12.9872 27.5002 12.9872 24.9995C12.9872 22.5239 14.9443 20.4999 17.353 20.4748C17.4701 20.4748 17.6039 20.4915 17.7712 20.525C17.0686 20.1988 16.3076 19.9646 15.5967 19.9646C11.1807 19.9562 10.3109 23.0089 10.2607 23.2348C10.1353 23.7951 10.06 24.3806 10.06 24.9827C10.06 29.1394 13.3218 32.5183 17.3446 32.5183Z" fill="url(#paint1_linear_28_1536)"/>
<path fill-rule="evenodd" clip-rule="evenodd" d="M20.7068 22.4747C20.2217 22.0064 17.8632 20.0911 15.605 20.0242C11.5738 19.9238 10.3946 22.8511 10.2858 23.2275C11.0636 19.9489 13.9407 17.4984 17.353 17.4817C20.1381 17.4817 22.9566 20.2166 25.0391 22.6838L25.0475 22.6755C25.0475 22.6755 25.9842 23.7544 27.0129 24.9169C27.0129 24.9169 28.1838 26.2969 29.4216 27.5096C29.9067 27.978 32.2569 29.8681 34.515 29.935C38.655 30.0521 39.8008 26.9576 39.8593 26.7234C39.0982 30.027 36.2128 32.4859 32.7838 32.5026C29.9987 32.5026 27.1802 29.7678 25.0893 27.3005C25.0893 27.3089 25.0809 27.3089 25.0809 27.3172C25.0809 27.3172 24.1442 26.2383 23.1155 25.0758C23.1239 25.0758 21.953 23.6874 20.7068 22.4747Z" fill="#29ABE2"/>
<defs>
<linearGradient id="paint0_linear_28_1536" x1="28.8601" y1="18.6732" x2="39.1708" y2="29.0687" gradientUnits="userSpaceOnUse">
<stop offset="0.21" stop-color="#F15A24"/>
<stop offset="0.6841" stop-color="#FBB03B"/>
</linearGradient>
<linearGradient id="paint1_linear_28_1536" x1="21.2626" y1="31.3285" x2="10.952" y2="20.933" gradientUnits="userSpaceOnUse">
<stop offset="0.21" stop-color="#ED1E79"/>
<stop offset="0.8929" stop-color="#522785"/>
</linearGradient>
</defs>
</svg>
