<svg width="68" height="34" viewBox="0 0 68 34" fill="none" xmlns="http://www.w3.org/2000/svg">
<path d="M18.6604 33.3817C27.7075 33.3817 35.0417 26.0475 35.0417 17.0004C35.0417 7.95328 27.7075 0.619141 18.6604 0.619141C9.6133 0.619141 2.27916 7.95328 2.27916 17.0004C2.27916 26.0475 9.6133 33.3817 18.6604 33.3817Z" fill="#111928"/>
<path d="M18.6607 34C9.28624 34 1.66016 26.3739 1.66016 16.9995C1.66016 7.62505 9.28727 0 18.6607 0C28.0341 0 35.6612 7.62608 35.6612 17.0005C35.6612 26.375 28.0351 34.001 18.6607 34.001V34ZM18.6607 1.2385C9.96948 1.2385 2.89866 8.30932 2.89866 17.0005C2.89866 25.6917 9.96948 32.7625 18.6607 32.7625C27.3519 32.7625 34.4227 25.6917 34.4227 17.0005C34.4227 8.30932 27.3519 1.2385 18.6607 1.2385Z" fill="#FF7901"/>
<path d="M18.799 33.0886C27.6843 33.0886 34.8872 25.8856 34.8872 17.0004C34.8872 8.11506 27.6843 0.912109 18.799 0.912109C9.91368 0.912109 2.71073 8.11506 2.71073 17.0004C2.71073 25.8856 9.91368 33.0886 18.799 33.0886Z" fill="#111928"/>
<path d="M18.7993 34C9.42534 34 1.79883 26.3735 1.79883 16.9995C1.79883 7.6255 9.42534 0 18.7993 0C28.1733 0 35.7998 7.62651 35.7998 17.0005C35.7998 26.3745 28.1733 34.001 18.7993 34.001V34ZM18.7993 1.82452C10.4319 1.82452 3.62335 8.63202 3.62335 17.0005C3.62335 25.369 10.4309 32.1765 18.7993 32.1765C27.1678 32.1765 33.9753 25.369 33.9753 17.0005C33.9753 8.63202 27.1668 1.82452 18.7993 1.82452Z" fill="#FF7901"/>
<path d="M37.7154 4.98438H32.5216V5.59356H37.7154V4.98438Z" fill="url(#paint0_linear_1200_53276)"/>
<path d="M34.4701 18.9482H24.4443V19.5574H34.4701V18.9482Z" fill="url(#paint1_linear_1200_53276)"/>
<path d="M12.6517 19.5576L5.53307 28.888H11.1931L17.7462 20.0087L20.5925 28.888H26.0701L22.6349 19.5576H12.6517Z" fill="#FF7901"/>
<path d="M13.84 19.5582H23.6265L22.691 16.9826L31.7092 4.98535H26.0156L20.0089 13.5576L17.4779 4.98535H12.1817L16.1206 16.5346L13.841 19.5592L13.84 19.5582Z" fill="#FF7901"/>
<path d="M15.5987 19.5582H25.3853L24.4497 16.9826L33.4689 4.98535H27.7754L21.7687 13.5576L19.2376 4.98535H13.9415L17.8804 16.5346L15.6008 19.5592L15.5987 19.5582Z" fill="#00C6FF"/>
<path d="M14.2351 19.5576L7.11436 28.888H12.7744L19.3275 20.0087L22.1738 28.888H27.6514L24.2183 19.5576H14.2351Z" fill="#00C6FF"/>
<path d="M13.3561 19.5576L6.23537 28.888H11.8954L18.4485 20.0087L21.2948 28.888H26.7724L23.3393 19.5576H13.3561Z" fill="white"/>
<path d="M14.5432 19.5582H24.3297L23.3921 16.9826L32.4124 4.98535H26.7188L20.7121 13.5576L18.1811 4.98535H12.8849L16.8238 16.5346L14.5442 19.5592L14.5432 19.5582Z" fill="white"/>
<path d="M12.8917 19.5576H5.78416V20.1668H12.8917V19.5576Z" fill="url(#paint2_linear_1200_53276)"/>
<path d="M12.6754 4.98438H2.13271V5.57836H12.6754V4.98438Z" fill="url(#paint3_linear_1200_53276)"/>
<path d="M6.07668 28.2773H0V28.8865H6.07668V28.2773Z" fill="url(#paint4_linear_1200_53276)"/>
<path d="M7.3084 26.8359H2.74608V27.4451H7.3084V26.8359Z" fill="url(#paint5_linear_1200_53276)"/>
<path d="M58.3648 13.7059C57.6806 13.5305 56.9366 13.4434 56.1348 13.4434C55.333 13.4434 54.5931 13.5589 53.9373 13.792C53.2815 14.0252 52.7179 14.3546 52.2496 14.7834C51.7813 15.2121 51.4215 15.7149 51.1701 16.2947C50.9187 16.8725 50.792 17.512 50.792 18.2125C50.792 18.9129 50.9228 19.5504 51.1853 20.0826C51.4478 20.6148 51.7823 21.081 52.1918 21.4804C52.5993 21.8818 53.0199 22.2366 53.4538 22.5518C53.5795 22.645 53.7001 22.7353 53.8156 22.8234H58.2492C58.0647 22.3926 57.8113 21.9882 57.4839 21.6132C57.1048 21.1804 56.6274 20.7759 56.0517 20.3978C55.6473 20.1262 55.3016 19.8778 55.0127 19.6538C54.7259 19.4298 54.5059 19.1845 54.3529 18.92C54.2008 18.6554 54.1238 18.3382 54.1238 17.9672C54.1238 17.6955 54.1734 17.4522 54.2728 17.2384C54.3721 17.0245 54.512 16.841 54.6924 16.687C54.8728 16.5329 55.0857 16.4153 55.331 16.3332C55.5753 16.2511 55.8429 16.2106 56.1338 16.2106C56.6234 16.2106 57.118 16.2775 57.6188 16.4082C58.1185 16.541 58.6445 16.7397 59.2 17.0032L60.3606 14.5056C59.7159 14.1488 59.049 13.8823 58.3648 13.7069L58.3628 13.7049L58.3648 13.7059Z" fill="#FF7901"/>
<path d="M29.8848 23.3418L28.6562 29.0363H31.8826L33.1091 23.3418H29.8848Z" fill="#FF7901"/>
<path d="M31.4585 22.9209H26.7715V23.3426H31.4585V22.9209Z" fill="url(#paint6_linear_1200_53276)"/>
<path d="M40.301 22.9209H35.7012V23.3426H40.301V22.9209Z" fill="url(#paint7_linear_1200_53276)"/>
<path d="M53.402 22.8203H49.6729V23.242H53.402V22.8203Z" fill="url(#paint8_linear_1200_53276)"/>
<path d="M67.6939 22.2197H58.998V22.8289H67.6939V22.2197Z" fill="url(#paint9_linear_1200_53276)"/>
<path d="M67.7292 16.3887H60.6582V16.9999H67.7292V16.3887Z" fill="url(#paint10_linear_1200_53276)"/>
<path d="M58.902 22.8204H54.6215C54.7583 22.9258 54.8861 23.0272 55.0057 23.1265C55.2854 23.3576 55.5054 23.608 55.6655 23.8776C55.8247 24.1473 55.9048 24.4818 55.9048 24.8811C55.9048 25.1609 55.8409 25.4062 55.7132 25.617C55.5855 25.8268 55.4081 26.0022 55.181 26.1421C54.954 26.2819 54.6864 26.3853 54.3782 26.4522C54.0701 26.5191 53.7346 26.5516 53.3737 26.5516C52.721 26.5516 52.0834 26.4522 51.463 26.2526C50.8427 26.0529 50.2082 25.7741 49.5625 25.4173V28.2981C50.0095 28.592 50.5569 28.8231 51.2076 28.9914C51.8563 29.1596 52.5719 29.2438 53.3524 29.2438C54.1329 29.2438 54.9084 29.1475 55.6138 28.9549C56.3193 28.7623 56.9417 28.4694 57.4769 28.0771C58.0121 27.6848 58.4327 27.1912 58.7388 26.5941C59.0439 25.9991 59.196 25.2967 59.196 24.4909C59.196 23.8888 59.1017 23.3384 58.9142 22.8397C58.9101 22.8326 58.9071 22.8255 58.9051 22.8174L58.901 22.8204H58.902Z" fill="#00C6FF"/>
<path d="M38.3774 23.3418H33.6377V23.7635H38.3774V23.3418Z" fill="url(#paint11_linear_1200_53276)"/>
<path d="M41.5793 23.3418H38.3316L37.1143 29.0363H45.8101L46.3849 26.3452H40.9346L41.5803 23.3418H41.5793Z" fill="#FF7901"/>
<path d="M42.9856 23.3418H39.7369L38.5195 29.0363H47.2154L47.7901 26.3452H42.3409L42.9866 23.3418H42.9856Z" fill="#00C6FF"/>
<path d="M49.7643 16.3836L50.339 13.6641H41.632L39.5986 23.3432H42.8473L43.0156 22.5414H48.0918L48.6787 19.8218H43.6004L44.315 16.3846H49.7643V16.3836Z" fill="#FF7901"/>
<path d="M42.1067 23.3418H38.859L37.6396 29.0363H46.3355L46.9103 26.3452H41.461L42.1067 23.3418Z" fill="white"/>
<path d="M51.3473 16.3836L51.922 13.6641H43.215L41.1816 23.3432H44.4293L44.5996 22.5414H49.6758L50.2607 19.8218H45.1844L45.897 16.3846H51.3473V16.3836Z" fill="#00C6FF"/>
<path d="M57.1433 22.8204H52.8627C52.9996 22.9258 53.1273 23.0272 53.2469 23.1265C53.5267 23.3576 53.7466 23.608 53.9068 23.8776C54.0659 24.1473 54.146 24.4818 54.146 24.8811C54.146 25.1609 54.0821 25.4062 53.9544 25.617C53.8267 25.8268 53.6493 26.0022 53.4223 26.1421C53.1952 26.2819 52.9276 26.3853 52.6195 26.4522C52.3113 26.5191 51.9758 26.5516 51.614 26.5516C50.9612 26.5516 50.3236 26.4522 49.7033 26.2526C49.0829 26.0529 48.4484 25.7741 47.8027 25.4173V28.2981C48.2497 28.592 48.7971 28.8231 49.4478 28.9914C50.0966 29.1596 50.8132 29.2438 51.5927 29.2438C52.3722 29.2438 53.1486 29.1475 53.8541 28.9549C54.5596 28.7623 55.1819 28.4694 55.7171 28.0771C56.2523 27.6848 56.673 27.1912 56.9791 26.5941C57.2842 25.9991 57.4362 25.2967 57.4362 24.4909C57.4362 23.8888 57.3419 23.3384 57.1544 22.8397C57.1504 22.8326 57.1473 22.8255 57.1453 22.8174L57.1423 22.8204H57.1433Z" fill="#FF7901"/>
<path d="M50.4684 16.3836L51.0431 13.6641H42.3361L40.3027 23.3432H43.5504L43.7207 22.5414H48.7969L49.3818 19.8218H44.3055L45.0181 16.3846H50.4684V16.3836Z" fill="white"/>
<path d="M59.8218 13.7059C59.1376 13.5305 58.3936 13.4434 57.5918 13.4434C56.7901 13.4434 56.0501 13.5589 55.3943 13.792C54.7385 14.0252 54.1749 14.3546 53.7066 14.7834C53.2383 15.2121 52.8785 15.7149 52.6271 16.2947C52.3757 16.8725 52.249 17.512 52.249 18.2125C52.249 18.9129 52.3798 19.5504 52.6423 20.0826C52.9048 20.6148 53.2393 21.081 53.6488 21.4804C54.0563 21.8818 54.477 22.2366 54.9108 22.5518C55.0365 22.645 55.1571 22.7353 55.2727 22.8234H59.7063C59.5218 22.3926 59.2684 21.9882 58.941 21.6132C58.5619 21.1804 58.0845 20.7759 57.5087 20.3978C57.1043 20.1262 56.7586 19.8778 56.4698 19.6538C56.1829 19.4298 55.9629 19.1845 55.8099 18.92C55.6578 18.6554 55.5808 18.3382 55.5808 17.9672C55.5808 17.6955 55.6305 17.4522 55.7298 17.2384C55.8291 17.0245 55.969 16.841 56.1495 16.687C56.3299 16.5329 56.5427 16.4153 56.788 16.3332C57.0323 16.2511 57.2999 16.2106 57.5908 16.2106C58.0804 16.2106 58.5751 16.2775 59.0758 16.4082C59.5755 16.541 60.1016 16.7397 60.657 17.0032L61.8176 14.5056C61.173 14.1488 60.506 13.8823 59.8218 13.7069L59.8198 13.7049L59.8218 13.7059Z" fill="#00C6FF"/>
<path d="M57.6716 22.8204H53.391C53.5279 22.9258 53.6556 23.0272 53.7752 23.1265C54.055 23.3576 54.2749 23.608 54.4351 23.8776C54.5942 24.1473 54.6743 24.4818 54.6743 24.8811C54.6743 25.1609 54.6104 25.4062 54.4827 25.617C54.355 25.8268 54.1776 26.0022 53.9505 26.1421C53.7235 26.2819 53.4559 26.3853 53.1478 26.4522C52.8396 26.5191 52.5041 26.5516 52.1433 26.5516C51.4905 26.5516 50.8529 26.4522 50.2326 26.2526C49.6122 26.0529 48.9777 25.7741 48.332 25.4173V28.2981C48.779 28.592 49.3264 28.8231 49.9771 28.9914C50.6259 29.1596 51.3415 29.2438 52.122 29.2438C52.9025 29.2438 53.6779 29.1475 54.3834 28.9549C55.0889 28.7623 55.7112 28.4694 56.2464 28.0771C56.7816 27.6848 57.2023 27.1912 57.5084 26.5941C57.8135 25.9991 57.9655 25.2967 57.9655 24.4909C57.9655 23.8888 57.8712 23.3384 57.6837 22.8397C57.6797 22.8326 57.6766 22.8255 57.6746 22.8174L57.6706 22.8204H57.6716Z" fill="white"/>
<path d="M58.9419 13.7059C58.2577 13.5305 57.5137 13.4434 56.7119 13.4434C55.9101 13.4434 55.1702 13.5589 54.5144 13.792C53.8586 14.0252 53.295 14.3546 52.8267 14.7834C52.3584 15.2121 51.9986 15.7149 51.7472 16.2947C51.4958 16.8725 51.3701 17.512 51.3701 18.2125C51.3701 18.9129 51.5009 19.5504 51.7634 20.0826C52.0259 20.6148 52.3604 21.081 52.7699 21.4804C53.1774 21.8818 53.5981 22.2366 54.0319 22.5518C54.1576 22.645 54.2782 22.7353 54.3938 22.8234H58.8274C58.6429 22.3926 58.3895 21.9882 58.0621 21.6132C57.683 21.1804 57.2056 20.7759 56.6298 20.3978C56.2254 20.1262 55.8797 19.8778 55.5909 19.6538C55.304 19.4298 55.084 19.1845 54.931 18.92C54.7789 18.6554 54.7019 18.3382 54.7019 17.9672C54.7019 17.6955 54.7516 17.4522 54.8509 17.2384C54.9502 17.0245 55.0901 16.841 55.2705 16.687C55.451 16.5329 55.6638 16.4153 55.9091 16.3332C56.1534 16.2511 56.421 16.2106 56.7119 16.2106C57.2015 16.2106 57.6962 16.2775 58.1969 16.4082C58.6966 16.541 59.2237 16.7397 59.7781 17.0032L60.9387 14.5056C60.2931 14.1488 59.6271 13.8823 58.9429 13.7069L58.9409 13.7049L58.9419 13.7059Z" fill="white"/>
<path d="M49.6471 23.3418H42.0977V23.7635H49.6471V23.3418Z" fill="url(#paint12_linear_1200_53276)"/>
<path d="M31.1152 23.3418L29.8867 29.0363H33.1131L34.3396 23.3418H31.1152Z" fill="#00C6FF"/>
<path d="M30.412 23.3418L29.1855 29.0363H32.4099L33.6384 23.3418H30.412Z" fill="white"/>
<path d="M31.1523 23.3422H34.3766L34.3807 23.332L40.9571 13.6631H37.3182L33.3366 20.0023L31.9632 13.6631H28.6436L31.1553 23.332L31.1533 23.3422H31.1523Z" fill="#FF7901"/>
<path d="M32.5586 23.3422H35.7849L35.787 23.332L42.3654 13.6631H38.7244L34.7429 20.0023L33.3705 13.6631H30.0488L32.5606 23.332L32.5586 23.3422Z" fill="#00C6FF"/>
<path d="M31.6786 23.3422H34.905L34.907 23.332L41.4844 13.6631H37.8435L33.864 20.0023L32.4905 13.6631H29.1709L31.6827 23.332L31.6786 23.3422Z" fill="white"/>
<defs>
<linearGradient id="paint0_linear_1200_53276" x1="32.5175" y1="5.2469" x2="38.1705" y2="5.33813" gradientUnits="userSpaceOnUse">
<stop stop-color="#00C6FF"/>
<stop offset="1" stop-color="white" stop-opacity="0"/>
</linearGradient>
<linearGradient id="paint1_linear_1200_53276" x1="24.4453" y1="19.2533" x2="34.4701" y2="19.2533" gradientUnits="userSpaceOnUse">
<stop stop-color="#00C6FF"/>
<stop offset="1" stop-color="white" stop-opacity="0"/>
</linearGradient>
<linearGradient id="paint2_linear_1200_53276" x1="5.78416" y1="19.8627" x2="12.8917" y2="19.8627" gradientUnits="userSpaceOnUse">
<stop stop-color="white" stop-opacity="0"/>
<stop offset="1" stop-color="#FF7901"/>
</linearGradient>
<linearGradient id="paint3_linear_1200_53276" x1="2.13271" y1="5.28137" x2="12.6754" y2="5.28137" gradientUnits="userSpaceOnUse">
<stop stop-color="white" stop-opacity="0"/>
<stop offset="1" stop-color="#FF7901"/>
</linearGradient>
<linearGradient id="paint4_linear_1200_53276" x1="0" y1="28.5824" x2="6.07668" y2="28.5824" gradientUnits="userSpaceOnUse">
<stop stop-color="white" stop-opacity="0"/>
<stop offset="1" stop-color="#FF7901"/>
</linearGradient>
<linearGradient id="paint5_linear_1200_53276" x1="2.74608" y1="27.141" x2="7.3084" y2="27.141" gradientUnits="userSpaceOnUse">
<stop stop-color="white" stop-opacity="0"/>
<stop offset="1" stop-color="#FF7901"/>
</linearGradient>
<linearGradient id="paint6_linear_1200_53276" x1="26.7725" y1="23.1317" x2="31.4585" y2="23.1317" gradientUnits="userSpaceOnUse">
<stop stop-color="white" stop-opacity="0"/>
<stop offset="1" stop-color="#FF7901"/>
</linearGradient>
<linearGradient id="paint7_linear_1200_53276" x1="35.7012" y1="23.1317" x2="40.301" y2="23.1317" gradientUnits="userSpaceOnUse">
<stop stop-color="white" stop-opacity="0"/>
<stop offset="1" stop-color="#FF7901"/>
</linearGradient>
<linearGradient id="paint8_linear_1200_53276" x1="49.6729" y1="23.0322" x2="53.402" y2="23.0322" gradientUnits="userSpaceOnUse">
<stop stop-color="white" stop-opacity="0"/>
<stop offset="1" stop-color="#FF7901"/>
</linearGradient>
<linearGradient id="paint9_linear_1200_53276" x1="58.997" y1="22.5248" x2="67.6939" y2="22.5248" gradientUnits="userSpaceOnUse">
<stop stop-color="#00C6FF"/>
<stop offset="1" stop-color="white" stop-opacity="0"/>
</linearGradient>
<linearGradient id="paint10_linear_1200_53276" x1="60.6582" y1="16.6938" x2="67.7292" y2="16.6938" gradientUnits="userSpaceOnUse">
<stop stop-color="#00C6FF"/>
<stop offset="1" stop-color="white" stop-opacity="0"/>
</linearGradient>
<linearGradient id="paint11_linear_1200_53276" x1="33.6377" y1="23.5536" x2="38.3774" y2="23.5536" gradientUnits="userSpaceOnUse">
<stop stop-color="#00C6FF"/>
<stop offset="1" stop-color="white" stop-opacity="0"/>
</linearGradient>
<linearGradient id="paint12_linear_1200_53276" x1="42.0977" y1="23.5536" x2="49.6471" y2="23.5536" gradientUnits="userSpaceOnUse">
<stop stop-color="#00C6FF"/>
<stop offset="1" stop-color="white" stop-opacity="0"/>
</linearGradient>
</defs>
</svg>
