<svg width="68" height="40" viewBox="0 0 68 40" fill="none" xmlns="http://www.w3.org/2000/svg">
<path d="M18.6604 36.3812C27.7075 36.3812 35.0417 29.047 35.0417 19.9999C35.0417 10.9528 27.7075 3.61865 18.6604 3.61865C9.6133 3.61865 2.27916 10.9528 2.27916 19.9999C2.27916 29.047 9.6133 36.3812 18.6604 36.3812Z" fill="#1F272E"/>
<path d="M18.6607 36.9995C9.28624 36.9995 1.66016 29.3734 1.66016 19.999C1.66016 10.6246 9.28727 2.99951 18.6607 2.99951C28.0341 2.99951 35.6612 10.6256 35.6612 20C35.6612 29.3745 28.0351 37.0005 18.6607 37.0005V36.9995ZM18.6607 4.23801C9.96948 4.23801 2.89866 11.3088 2.89866 20C2.89866 28.6912 9.96948 35.762 18.6607 35.762C27.3519 35.762 34.4227 28.6912 34.4227 20C34.4227 11.3088 27.3519 4.23801 18.6607 4.23801Z" fill="#FF7800"/>
<path d="M18.799 36.0881C27.6843 36.0881 34.8872 28.8852 34.8872 19.9999C34.8872 11.1146 27.6843 3.91162 18.799 3.91162C9.91368 3.91162 2.71072 11.1146 2.71072 19.9999C2.71072 28.8852 9.91368 36.0881 18.799 36.0881Z" fill="#1F272E"/>
<path d="M18.7993 36.9995C9.42534 36.9995 1.79883 29.373 1.79883 19.999C1.79883 10.625 9.42534 2.99951 18.7993 2.99951C28.1733 2.99951 35.7998 10.626 35.7998 20C35.7998 29.374 28.1733 37.0005 18.7993 37.0005V36.9995ZM18.7993 4.82404C10.4319 4.82404 3.62335 11.6315 3.62335 20C3.62335 28.3685 10.4309 35.176 18.7993 35.176C27.1678 35.176 33.9753 28.3685 33.9753 20C33.9753 11.6315 27.1668 4.82404 18.7993 4.82404Z" fill="#FF7800"/>
<path d="M37.7154 7.98389H32.5216V8.59308H37.7154V7.98389Z" fill="url(#paint0_linear_251_224251)"/>
<path d="M34.4701 21.9478H24.4443V22.5569H34.4701V21.9478Z" fill="url(#paint1_linear_251_224251)"/>
<path d="M12.6517 22.5571L5.53307 31.8875H11.1931L17.7462 23.0082L20.5925 31.8875H26.0701L22.6349 22.5571H12.6517Z" fill="#FF7800"/>
<path d="M13.84 22.5577H23.6265L22.6909 19.9821L31.7092 7.98486H26.0156L20.0089 16.5571L17.4779 7.98486H12.1817L16.1206 19.5341L13.841 22.5588L13.84 22.5577Z" fill="#FF7800"/>
<path d="M15.5987 22.5577H25.3853L24.4497 19.9821L33.4689 7.98486H27.7754L21.7687 16.5571L19.2376 7.98486H13.9415L17.8804 19.5341L15.6008 22.5588L15.5987 22.5577Z" fill="#B3C0CC"/>
<path d="M14.2351 22.5571L7.11436 31.8875H12.7744L19.3275 23.0082L22.1738 31.8875H27.6514L24.2183 22.5571H14.2351Z" fill="#B3C0CC"/>
<path d="M13.3561 22.5571L6.23537 31.8875H11.8954L18.4485 23.0082L21.2948 31.8875H26.7724L23.3393 22.5571H13.3561Z" fill="white"/>
<path d="M14.5432 22.5577H24.3297L23.3921 19.9821L32.4124 7.98486H26.7188L20.7121 16.5571L18.1811 7.98486H12.8849L16.8238 19.5341L14.5442 22.5588L14.5432 22.5577Z" fill="white"/>
<path d="M12.8917 22.5571H5.78416V23.1663H12.8917V22.5571Z" fill="url(#paint2_linear_251_224251)"/>
<path d="M12.6754 7.98389H2.13271V8.57787H12.6754V7.98389Z" fill="url(#paint3_linear_251_224251)"/>
<path d="M6.07668 31.2769H0V31.886H6.07668V31.2769Z" fill="url(#paint4_linear_251_224251)"/>
<path d="M7.3084 29.8354H2.74608V30.4446H7.3084V29.8354Z" fill="url(#paint5_linear_251_224251)"/>
<path d="M58.3648 16.7054C57.6806 16.53 56.9366 16.4429 56.1348 16.4429C55.333 16.4429 54.5931 16.5584 53.9373 16.7916C53.2815 17.0247 52.7179 17.3541 52.2496 17.7829C51.7813 18.2116 51.4215 18.7144 51.1701 19.2942C50.9187 19.872 50.792 20.5116 50.792 21.212C50.792 21.9124 50.9228 22.55 51.1853 23.0821C51.4478 23.6143 51.7823 24.0805 52.1918 24.4799C52.5993 24.8813 53.0199 25.2361 53.4538 25.5513C53.5795 25.6446 53.7001 25.7348 53.8156 25.823H58.2492C58.0647 25.3922 57.8113 24.9877 57.4839 24.6127C57.1048 24.1799 56.6274 23.7754 56.0517 23.3973C55.6473 23.1257 55.3016 22.8774 55.0127 22.6533C54.7259 22.4293 54.5059 22.184 54.3529 21.9195C54.2008 21.6549 54.1238 21.3377 54.1238 20.9667C54.1238 20.695 54.1734 20.4518 54.2728 20.2379C54.3721 20.024 54.512 19.8405 54.6924 19.6865C54.8728 19.5324 55.0857 19.4148 55.331 19.3327C55.5753 19.2506 55.8429 19.2101 56.1338 19.2101C56.6234 19.2101 57.118 19.277 57.6188 19.4077C58.1185 19.5405 58.6445 19.7392 59.2 20.0027L60.3606 17.5052C59.7159 17.1484 59.049 16.8818 58.3648 16.7064L58.3628 16.7044L58.3648 16.7054Z" fill="#FF7800"/>
<path d="M29.8848 26.3413L28.6562 32.0358H31.8826L33.1091 26.3413H29.8848Z" fill="#FF7800"/>
<path d="M31.4585 25.9204H26.7715V26.3421H31.4585V25.9204Z" fill="url(#paint6_linear_251_224251)"/>
<path d="M40.301 25.9204H35.7012V26.3421H40.301V25.9204Z" fill="url(#paint7_linear_251_224251)"/>
<path d="M53.8973 25.8198H50.1682V26.2415H53.8973V25.8198Z" fill="url(#paint8_linear_251_224251)"/>
<path d="M67.6939 25.2192H58.998V25.8284H67.6939V25.2192Z" fill="url(#paint9_linear_251_224251)"/>
<path d="M67.7292 19.3882H60.6582V19.9994H67.7292V19.3882Z" fill="url(#paint10_linear_251_224251)"/>
<path d="M58.902 25.8199H54.6215C54.7583 25.9254 54.8861 26.0267 55.0057 26.126C55.2854 26.3572 55.5054 26.6075 55.6655 26.8771C55.8247 27.1468 55.9048 27.4813 55.9048 27.8806C55.9048 28.1604 55.8409 28.4057 55.7132 28.6165C55.5855 28.8263 55.4081 29.0017 55.181 29.1416C54.954 29.2815 54.6864 29.3849 54.3782 29.4518C54.0701 29.5186 53.7346 29.5511 53.3737 29.5511C52.721 29.5511 52.0834 29.4517 51.463 29.2521C50.8427 29.0524 50.2082 28.7736 49.5625 28.4168V31.2976C50.0095 31.5915 50.5569 31.8226 51.2076 31.9909C51.8563 32.1591 52.5719 32.2433 53.3524 32.2433C54.1329 32.2433 54.9084 32.147 55.6138 31.9544C56.3193 31.7618 56.9417 31.4689 57.4769 31.0766C58.0121 30.6843 58.4327 30.1907 58.7388 29.5937C59.0439 28.9987 59.196 28.2962 59.196 27.4904C59.196 26.8883 59.1017 26.3379 58.9142 25.8392C58.9101 25.8321 58.9071 25.825 58.9051 25.8169L58.901 25.8199H58.902Z" fill="#B3C0CC"/>
<path d="M38.3774 26.3413H33.6377V26.763H38.3774V26.3413Z" fill="url(#paint11_linear_251_224251)"/>
<path d="M41.5793 26.3413H38.3316L37.1143 32.0358H45.8101L46.3849 29.3447H40.9346L41.5803 26.3413H41.5793Z" fill="#FF7800"/>
<path d="M42.9856 26.3413H39.7369L38.5195 32.0358H47.2154L47.7901 29.3447H42.3409L42.9866 26.3413H42.9856Z" fill="#B3C0CC"/>
<path d="M49.7643 19.3831L50.339 16.6636H41.632L39.5986 26.3427H42.8473L43.0156 25.5409H48.0918L48.6787 22.8213H43.6004L44.315 19.3841H49.7643V19.3831Z" fill="#FF7800"/>
<path d="M42.1067 26.3413H38.859L37.6396 32.0358H46.3355L46.9103 29.3447H41.461L42.1067 26.3413Z" fill="white"/>
<path d="M51.3473 19.3831L51.922 16.6636H43.215L41.1816 26.3427H44.4293L44.5996 25.5409H49.6758L50.2607 22.8213H45.1844L45.897 19.3841H51.3473V19.3831Z" fill="#B3C0CC"/>
<path d="M57.5732 25.8199H53.2927C53.4295 25.9254 53.5572 26.0267 53.6768 26.126C53.9566 26.3572 54.1766 26.6075 54.3367 26.8771C54.4958 27.1468 54.5759 27.4813 54.5759 27.8806C54.5759 28.1604 54.5121 28.4057 54.3843 28.6165C54.2566 28.8263 54.0792 29.0017 53.8522 29.1416C53.6251 29.2815 53.3575 29.3849 53.0494 29.4518C52.7413 29.5186 52.4057 29.5511 52.0439 29.5511C51.3911 29.5511 50.7535 29.4517 50.1332 29.2521C49.5129 29.0524 48.8783 28.7736 48.2327 28.4168V31.2976C48.6797 31.5915 49.227 31.8226 49.8778 31.9909C50.5265 32.1591 51.2431 32.2433 52.0226 32.2433C52.8021 32.2433 53.5785 32.147 54.284 31.9544C54.9895 31.7618 55.6118 31.4689 56.147 31.0766C56.6822 30.6843 57.1029 30.1907 57.409 29.5937C57.7141 28.9987 57.8661 28.2962 57.8661 27.4904C57.8661 26.8883 57.7719 26.3379 57.5844 25.8392C57.5803 25.8321 57.5773 25.825 57.5752 25.8169L57.5722 25.8199H57.5732Z" fill="#FF7800"/>
<path d="M50.4684 19.3831L51.0431 16.6636H42.3361L40.3027 26.3427H43.5504L43.7207 25.5409H48.7969L49.3818 22.8213H44.3055L45.0181 19.3841H50.4684V19.3831Z" fill="white"/>
<path d="M59.8218 16.7054C59.1376 16.53 58.3936 16.4429 57.5918 16.4429C56.7901 16.4429 56.0501 16.5584 55.3943 16.7916C54.7385 17.0247 54.1749 17.3541 53.7066 17.7829C53.2383 18.2116 52.8785 18.7144 52.6271 19.2942C52.3757 19.872 52.249 20.5116 52.249 21.212C52.249 21.9124 52.3798 22.55 52.6423 23.0821C52.9048 23.6143 53.2393 24.0805 53.6488 24.4799C54.0563 24.8813 54.477 25.2361 54.9108 25.5513C55.0365 25.6446 55.1571 25.7348 55.2727 25.823H59.7063C59.5218 25.3922 59.2684 24.9877 58.941 24.6127C58.5619 24.1799 58.0845 23.7754 57.5087 23.3973C57.1043 23.1257 56.7586 22.8774 56.4698 22.6533C56.1829 22.4293 55.9629 22.184 55.8099 21.9195C55.6578 21.6549 55.5808 21.3377 55.5808 20.9667C55.5808 20.695 55.6305 20.4518 55.7298 20.2379C55.8291 20.024 55.969 19.8405 56.1495 19.6865C56.3299 19.5324 56.5427 19.4148 56.788 19.3327C57.0323 19.2506 57.2999 19.2101 57.5908 19.2101C58.0804 19.2101 58.5751 19.277 59.0758 19.4077C59.5755 19.5405 60.1016 19.7392 60.657 20.0027L61.8176 17.5052C61.173 17.1484 60.506 16.8818 59.8218 16.7064L59.8198 16.7044L59.8218 16.7054Z" fill="#B3C0CC"/>
<path d="M58.1015 25.8199H53.821C53.9578 25.9254 54.0855 26.0267 54.2051 26.126C54.4849 26.3572 54.7048 26.6075 54.865 26.8771C55.0241 27.1468 55.1042 27.4813 55.1042 27.8806C55.1042 28.1604 55.0403 28.4057 54.9126 28.6165C54.7849 28.8263 54.6075 29.0017 54.3805 29.1416C54.1534 29.2815 53.8858 29.3849 53.5777 29.4518C53.2695 29.5186 52.934 29.5511 52.5732 29.5511C51.9204 29.5511 51.2828 29.4517 50.6625 29.2521C50.0422 29.0524 49.4076 28.7736 48.762 28.4168V31.2976C49.209 31.5915 49.7563 31.8226 50.4071 31.9909C51.0558 32.1591 51.7714 32.2433 52.5519 32.2433C53.3324 32.2433 54.1078 32.147 54.8133 31.9544C55.5188 31.7618 56.1411 31.4689 56.6763 31.0766C57.2115 30.6843 57.6322 30.1907 57.9383 29.5937C58.2434 28.9987 58.3954 28.2962 58.3954 27.4904C58.3954 26.8883 58.3012 26.3379 58.1137 25.8392C58.1096 25.8321 58.1066 25.825 58.1045 25.8169L58.1005 25.8199H58.1015Z" fill="white"/>
<path d="M58.9419 16.7054C58.2577 16.53 57.5137 16.4429 56.7119 16.4429C55.9101 16.4429 55.1702 16.5584 54.5144 16.7916C53.8586 17.0247 53.295 17.3541 52.8267 17.7829C52.3584 18.2116 51.9986 18.7144 51.7472 19.2942C51.4958 19.872 51.3701 20.5116 51.3701 21.212C51.3701 21.9124 51.5009 22.55 51.7634 23.0821C52.0259 23.6143 52.3604 24.0805 52.7699 24.4799C53.1774 24.8813 53.5981 25.2361 54.0319 25.5513C54.1576 25.6446 54.2782 25.7348 54.3938 25.823H58.8274C58.6429 25.3922 58.3895 24.9877 58.0621 24.6127C57.683 24.1799 57.2056 23.7754 56.6298 23.3973C56.2254 23.1257 55.8797 22.8774 55.5909 22.6533C55.304 22.4293 55.084 22.184 54.931 21.9195C54.7789 21.6549 54.7019 21.3377 54.7019 20.9667C54.7019 20.695 54.7516 20.4518 54.8509 20.2379C54.9502 20.024 55.0901 19.8405 55.2705 19.6865C55.451 19.5324 55.6638 19.4148 55.9091 19.3327C56.1534 19.2506 56.421 19.2101 56.7119 19.2101C57.2015 19.2101 57.6962 19.277 58.1969 19.4077C58.6966 19.5405 59.2237 19.7392 59.7781 20.0027L60.9387 17.5052C60.2931 17.1484 59.6271 16.8818 58.9429 16.7064L58.9409 16.7044L58.9419 16.7054Z" fill="white"/>
<path d="M49.6471 26.3413H42.0977V26.763H49.6471V26.3413Z" fill="url(#paint12_linear_251_224251)"/>
<path d="M31.1152 26.3413L29.8867 32.0358H33.1131L34.3396 26.3413H31.1152Z" fill="#B3C0CC"/>
<path d="M30.412 26.3413L29.1855 32.0358H32.4099L33.6384 26.3413H30.412Z" fill="white"/>
<path d="M31.1523 26.3417H34.3766L34.3807 26.3316L40.9571 16.6626H37.3182L33.3366 23.0018L31.9632 16.6626H28.6436L31.1553 26.3316L31.1533 26.3417H31.1523Z" fill="#FF7800"/>
<path d="M32.5586 26.3417H35.7849L35.787 26.3316L42.3654 16.6626H38.7244L34.7429 23.0018L33.3705 16.6626H30.0488L32.5606 26.3316L32.5586 26.3417Z" fill="#B3C0CC"/>
<path d="M31.6786 26.3417H34.905L34.907 26.3316L41.4844 16.6626H37.8435L33.864 23.0018L32.4905 16.6626H29.1709L31.6827 26.3316L31.6786 26.3417Z" fill="white"/>
<defs>
<linearGradient id="paint0_linear_251_224251" x1="32.5175" y1="8.24642" x2="38.1705" y2="8.33764" gradientUnits="userSpaceOnUse">
<stop stop-color="#B3C0CC"/>
<stop offset="1" stop-color="white" stop-opacity="0"/>
</linearGradient>
<linearGradient id="paint1_linear_251_224251" x1="24.4453" y1="22.2529" x2="34.4701" y2="22.2529" gradientUnits="userSpaceOnUse">
<stop stop-color="#B3C0CC"/>
<stop offset="1" stop-color="white" stop-opacity="0"/>
</linearGradient>
<linearGradient id="paint2_linear_251_224251" x1="5.78416" y1="22.8622" x2="12.8917" y2="22.8622" gradientUnits="userSpaceOnUse">
<stop stop-color="white" stop-opacity="0"/>
<stop offset="1" stop-color="#FF7800"/>
</linearGradient>
<linearGradient id="paint3_linear_251_224251" x1="2.13271" y1="8.28088" x2="12.6754" y2="8.28088" gradientUnits="userSpaceOnUse">
<stop stop-color="white" stop-opacity="0"/>
<stop offset="1" stop-color="#FF7800"/>
</linearGradient>
<linearGradient id="paint4_linear_251_224251" x1="0" y1="31.582" x2="6.07668" y2="31.582" gradientUnits="userSpaceOnUse">
<stop stop-color="white" stop-opacity="0"/>
<stop offset="1" stop-color="#FF7800"/>
</linearGradient>
<linearGradient id="paint5_linear_251_224251" x1="2.74608" y1="30.1406" x2="7.3084" y2="30.1406" gradientUnits="userSpaceOnUse">
<stop stop-color="white" stop-opacity="0"/>
<stop offset="1" stop-color="#FF7800"/>
</linearGradient>
<linearGradient id="paint6_linear_251_224251" x1="26.7725" y1="26.1312" x2="31.4585" y2="26.1312" gradientUnits="userSpaceOnUse">
<stop stop-color="white" stop-opacity="0"/>
<stop offset="1" stop-color="#FF7800"/>
</linearGradient>
<linearGradient id="paint7_linear_251_224251" x1="35.7012" y1="26.1312" x2="40.301" y2="26.1312" gradientUnits="userSpaceOnUse">
<stop stop-color="white" stop-opacity="0"/>
<stop offset="1" stop-color="#FF7800"/>
</linearGradient>
<linearGradient id="paint8_linear_251_224251" x1="50.1682" y1="26.0317" x2="53.8973" y2="26.0317" gradientUnits="userSpaceOnUse">
<stop stop-color="white" stop-opacity="0"/>
<stop offset="1" stop-color="#FF7800"/>
</linearGradient>
<linearGradient id="paint9_linear_251_224251" x1="58.997" y1="25.5243" x2="67.6939" y2="25.5243" gradientUnits="userSpaceOnUse">
<stop stop-color="#B3C0CC"/>
<stop offset="1" stop-color="white" stop-opacity="0"/>
</linearGradient>
<linearGradient id="paint10_linear_251_224251" x1="60.6582" y1="19.6933" x2="67.7292" y2="19.6933" gradientUnits="userSpaceOnUse">
<stop stop-color="#B3C0CC"/>
<stop offset="1" stop-color="white" stop-opacity="0"/>
</linearGradient>
<linearGradient id="paint11_linear_251_224251" x1="33.6377" y1="26.5532" x2="38.3774" y2="26.5532" gradientUnits="userSpaceOnUse">
<stop stop-color="#B3C0CC"/>
<stop offset="1" stop-color="white" stop-opacity="0"/>
</linearGradient>
<linearGradient id="paint12_linear_251_224251" x1="42.0977" y1="26.5532" x2="49.6471" y2="26.5532" gradientUnits="userSpaceOnUse">
<stop stop-color="#B3C0CC"/>
<stop offset="1" stop-color="white" stop-opacity="0"/>
</linearGradient>
</defs>
</svg>
