<svg width="51" height="50" viewBox="0 0 51 50" fill="none" xmlns="http://www.w3.org/2000/svg">
<rect x="0.0600586" width="50" height="50" rx="25" fill="#345D9D"/>
<rect x="1.16006" y="1.1" width="47.8" height="47.8" rx="23.9" stroke="black" stroke-opacity="0.5" stroke-width="2.2" style="mix-blend-mode:soft-light"/>
<path d="M22.5602 34.7217L24.949 26.6665L28.6711 25.6109L29.4489 22.9444L25.7823 24.0554L29.6711 10.8337V10.6226C29.6682 10.538 29.6487 10.4547 29.6136 10.3776C29.5786 10.3005 29.5286 10.2311 29.4667 10.1733C29.4048 10.1155 29.3321 10.0705 29.2528 10.0408C29.1735 10.0112 29.0891 9.99743 29.0044 10.0004H24.0602C23.873 9.99463 23.6893 10.0517 23.5382 10.1624C23.3872 10.2731 23.2776 10.4312 23.2269 10.6115L18.6159 26.2776L14.9494 27.3886L14.1161 29.9441L17.7826 28.833L14.505 39.9993H34.0598C34.2474 40.0071 34.4321 39.9508 34.5835 39.8398C34.7349 39.7287 34.8441 39.5695 34.8931 39.3882L36.0042 35.555V35.3439C36.0013 35.2593 35.9818 35.176 35.9467 35.0989C35.9117 35.0218 35.8617 34.9524 35.7998 34.8946C35.7379 34.8368 35.6652 34.7918 35.5859 34.7622C35.5066 34.7325 35.4222 34.7187 35.3375 34.7217H22.5602Z" fill="white"/>
</svg>
