<svg width="51" height="50" viewBox="0 0 51 50" fill="none" xmlns="http://www.w3.org/2000/svg">
<rect x="0.0600586" width="50" height="50" rx="25" fill="#172852"/>
<rect x="1.16006" y="1.1" width="47.8" height="47.8" rx="23.9" stroke="black" stroke-opacity="0.5" stroke-width="2.2" style="mix-blend-mode:soft-light"/>
<path d="M20.0544 10.8715C23.0602 9.74718 26.4433 9.74461 29.5056 10.6687C33.492 11.9059 36.8571 14.9143 38.6154 18.6902C39.1006 19.7657 39.5652 20.8874 39.6114 22.0836C37.3705 20.7847 34.914 19.9428 32.4524 19.1753C28.5148 17.7558 24.3924 16.7701 20.6653 14.8193C19.7977 14.3008 18.6914 13.7695 18.4552 12.6888C18.3603 11.7545 19.3485 11.2334 20.0544 10.8715Z" fill="#FFD83D"/>
<path d="M10.9805 19.9582C11.8507 17.5967 13.2778 15.4045 15.2158 13.7797C15.7087 17.8328 17.4336 21.7499 20.2828 24.6966C23.6993 28.2466 28.5661 30.4259 33.5176 30.3437C35.4838 30.4053 37.4064 29.951 39.3239 29.5839C37.4372 36.4015 29.9651 40.9269 23.0422 39.8386C18.8634 39.3047 15.0054 36.8302 12.6772 33.3367C10.0513 29.4761 9.38904 24.3501 10.9805 19.9582Z" fill="#FFD83D"/>
<path d="M32.4523 19.1752C34.9139 19.9427 37.3704 20.7847 39.6113 22.0835L39.7627 22.1631C39.9707 23.7263 40.1221 25.3203 39.8449 26.8861C38.718 26.4087 37.8042 25.5693 36.8493 24.8275C35.0115 23.2976 33.1351 21.547 32.4523 19.1752Z" fill="#FF6F03"/>
</svg>
