<svg width="51" height="50" viewBox="0 0 51 50" fill="none" xmlns="http://www.w3.org/2000/svg">
<rect x="0.0600586" width="50" height="50" rx="25" fill="white"/>
<rect x="1.16006" y="1.1" width="47.8" height="47.8" rx="23.9" stroke="black" stroke-opacity="0.2" stroke-width="2.2"/>
<path d="M34.1 11.5333L27.8403 20.8333C27.4075 21.4667 28.2399 22.2333 28.8392 21.7L34.999 16.3333C35.1655 16.2 35.3986 16.3 35.3986 16.5333V33.3C35.3986 33.5333 35.0989 33.6333 34.9657 33.4667L16.3198 11.1333C15.7204 10.4 14.8547 10 13.8891 10H13.2232C11.4918 10 10.0601 11.4333 10.0601 13.2V36.8C10.0601 38.5667 11.4918 40 13.2565 40C14.3553 40 15.3875 39.4333 15.9868 38.4667L22.2465 29.1667C22.6794 28.5333 21.847 27.7667 21.2476 28.3L15.0878 33.6333C14.9213 33.7667 14.6882 33.6667 14.6882 33.4333V16.7C14.6882 16.4667 14.9879 16.3667 15.1211 16.5333L33.767 38.8667C34.3664 39.6 35.2654 40 36.1977 40H36.8636C38.6283 40 40.0601 38.5667 40.0601 36.8V13.2C40.0601 11.4333 38.6283 10 36.8636 10C35.7315 10 34.6993 10.5667 34.1 11.5333Z" fill="black"/>
</svg>
