<svg width="51" height="50" viewBox="0 0 51 50" fill="none" xmlns="http://www.w3.org/2000/svg">
<rect x="0.0600586" width="50" height="50" rx="25" fill="#3D8130"/>
<rect x="1.16006" y="1.1" width="47.8" height="47.8" rx="23.9" stroke="black" stroke-opacity="0.5" stroke-width="2.2" style="mix-blend-mode:soft-light"/>
<path d="M33.6147 32.3081L33.606 32.2993L33.6147 32.3081Z" fill="#3D8130"/>
<path d="M15.9533 20.3467L14.9449 22.311L13.9013 24.3718L13.1647 26.3011L12.6736 28.3531L12.3667 30.5981L12.1825 32.5361L11.972 33.8077L12.1825 34.7986L12.5421 35.6492L13.2085 36.8243L14.7519 37.789L15.892 38.2362C16.1726 38.3239 16.4707 38.4116 16.725 38.4905L18.0755 38.7361L20.0048 38.8237H21.6008C21.785 38.8237 23.3985 38.7361 23.4073 38.7273L25.4593 38.7624L27.4412 38.5168L28.3006 38.1573L28.8882 37.4557L28.9145 36.5262C28.8794 36.4472 28.7654 36.1491 28.7303 36.0351C28.704 35.9562 28.3094 35.4914 27.9498 35.088L27.9411 35.0792C27.7832 34.8512 27.5289 34.4566 27.5289 34.3251C27.5289 34.1935 27.6867 33.8077 27.7218 33.7375L27.7394 33.7024L28.5637 33.4657L29.1074 33.8603L29.5985 33.5884L30.1509 33.036L31.1156 32.3256L31.9925 31.8258L32.6853 31.6943L33.5973 32.3169L33.5359 32.2467L33.913 31.9135L34.2638 31.3347V30.7296L34.1936 30.5542L33.7464 30.9138L32.9484 31.1418H32.9308L31.7031 31.1155L29.9229 31.2996L29.3617 31.361L28.932 31.2996L27.7832 31.1418L26.4853 30.8962L24.3895 30.5542H24.3807L22.3725 29.7211L20.6099 28.7039L19.5312 27.976L19.426 27.4586L19.5663 26.9763L19.996 26.6606L20.9957 26.8886L23.1793 27.5639C24.2492 27.7831 25.8803 28.1076 25.9855 28.1164C26.0381 28.1164 26.2486 28.1514 26.7747 28.2391C27.336 28.3268 28.1077 28.4584 28.2655 28.4584C28.5374 28.4584 30.6333 28.5724 30.756 28.5811C30.87 28.5811 32.5713 28.546 32.7554 28.546C32.8782 28.546 33.5359 28.3268 33.9305 28.1865L34.5269 27.4762L35.0969 26.4852C35.1319 26.1959 35.0969 25.9065 34.9916 25.6346C34.8513 25.2663 34.5882 24.9506 34.255 24.7401C34.0796 25.0734 33.8516 25.2838 33.5885 25.3803C33.4921 25.4154 33.3781 25.4329 33.2728 25.4329C33.115 25.4329 32.9571 25.3978 32.8256 25.3277L32.9133 25.1698C33.1062 25.2663 33.3255 25.2838 33.5359 25.2137C33.7727 25.126 33.9744 24.9155 34.1322 24.5911C33.9393 24.6612 33.7288 24.7051 33.5184 24.7051C33.3868 24.7051 33.2553 24.6963 33.1238 24.6612L33.1413 24.5735L33.1588 24.4858C33.1676 24.4858 33.8428 24.6525 34.3515 24.2578C34.711 23.986 34.9127 23.4949 34.9478 22.8197L34.3602 23.5124L33.6499 23.8369C33.3342 23.9158 32.2819 24.1789 32.1854 24.1789C32.1504 24.1789 32.01 24.1614 31.668 24.1C31.2383 24.0298 30.5982 23.9334 30.4316 23.9334C30.1334 23.9334 29.7125 23.6089 29.6686 23.5738L29.616 23.5387L29.9492 22.5653L30.87 21.5218L31.8434 20.829H33.0536L34.1936 20.9518L34.6847 21.513L34.9215 21.8638V20.9167L33.9744 20.5747C33.8692 20.5572 32.9308 20.4256 32.7028 20.4256C32.4836 20.4256 31.6417 20.5572 31.5014 20.5747L30.2825 21.3639L30.186 21.2149L31.4313 20.4081H31.4488C31.4927 20.3993 32.4397 20.2502 32.6941 20.2502C32.9396 20.2502 33.9568 20.3993 34.0007 20.4081L34.0182 20.4168L35.0442 20.7939L35.1407 20.8465L35.1495 20.7764L34.6672 20.3555L33.799 19.9345L32.7467 19.8468L31.5365 20.0573L31.0542 20.2678L30.984 20.1011L31.4927 19.8819L32.7379 19.6627L33.8428 19.7591L33.8867 19.7855L33.5535 19.2681L32.6151 18.4437L32.6239 18.435L28.9758 18.5402C28.9758 18.5402 28.5023 18.6016 27.9586 18.6717L28.476 19.4171L28.7391 19.8819L28.6075 20.3467L28.4321 20.2941L28.5461 19.8995L28.3181 19.5048L27.7657 18.7068L27.8008 18.6805C27.1167 18.7682 26.3889 18.8559 26.345 18.8559C26.2661 18.8559 23.3371 19.0751 23.2144 19.0751C22.9688 19.0576 22.7233 19.0313 22.4865 18.9787C22.4427 18.9524 20.4871 18.242 20.4169 18.1982C20.3468 18.1544 19.6628 17.4966 19.6628 17.4966L18.3298 17.0845L17.1635 18.5227L15.9533 20.3467ZM30.186 24.3718C30.3614 24.4508 30.5193 24.5472 30.6859 24.6437L31.6856 24.7577L32.2556 24.6349L32.2907 24.8103L31.6944 24.9331L31.0016 24.8541C31.2997 25.0734 31.5716 25.3189 31.8171 25.5995C31.9925 25.8012 32.1504 26.0205 32.2819 26.2485L32.1241 26.3362C31.9662 26.0731 31.782 25.8188 31.5628 25.5995C31.2734 25.3014 30.949 25.0295 30.5982 24.8103L30.0896 24.5209L30.186 24.3718ZM20.1626 21.0921L20.9606 20.3292L21.6534 19.7591L22.6444 19.5662L23.6879 19.5311H24.8016L25.7224 19.5662L27.5903 19.6013L28.1778 19.9608L28.8969 20.6185L29.3091 21.1272L29.502 22.162L29.3266 22.197L29.1425 21.2061L28.7654 20.7325L28.0726 20.1011L27.5464 19.7767L26.082 19.7504L26.7221 20.1011C27.0641 20.2765 27.6517 20.5922 27.7131 20.7238C27.7569 20.7939 28.2217 21.2499 28.6514 21.6533L28.6602 21.6621L29.3179 22.5127L29.4143 23.2143L29.2389 23.2406L29.1512 22.5916L28.5286 21.7849C28.3094 21.5832 27.6254 20.9342 27.564 20.8115C27.5114 20.7413 27.0554 20.4782 26.652 20.2678L25.7136 19.7504L24.8104 19.7241H23.7055L22.6707 19.7504L21.7499 19.9258L21.0922 20.4607L20.3468 21.1798L20.2679 21.6533L20.4257 21.7936L20.8203 21.5832L21.4693 20.7764L22.6444 20.3292L24.1702 20.1713L25.4593 20.2941L27.1343 21.1622L27.8271 21.5744L28.4935 22.4601L28.8005 23.4247L29.2477 23.7141V24.1087L28.8355 24.4858L28.0989 24.7928L27.7832 25.0558L27.45 25.5995L27.2834 25.8714L27.2658 25.8802C27.0466 25.9942 26.6607 26.1959 26.5555 26.1959C26.4766 26.2134 25.9855 26.4326 25.547 26.6519L25.5032 26.6606C25.4681 26.6694 24.6964 26.9062 24.5035 26.9413L24.4772 26.7659C24.6438 26.7396 25.3716 26.5203 25.4418 26.494C25.8803 26.2836 26.424 26.0292 26.5204 26.0292C26.7309 25.9503 26.9326 25.8539 27.1343 25.7399L27.2132 25.6083L27.6166 24.9506L27.7131 24.8717C27.4324 24.8454 27.0641 24.8015 26.9677 24.7489C26.9238 24.7314 26.6607 24.6963 25.2839 24.6963C24.9419 24.6963 24.1352 24.5121 24.0212 24.4771C23.9335 24.4508 23.1091 24.2052 23.1004 24.2052L23.0828 24.1964L23.0653 24.1789C23.0565 24.1701 22.2936 23.4423 21.7324 23.1178L21.82 22.96C22.3637 23.2757 23.0565 23.9246 23.1793 24.0386C23.3108 24.0737 23.9948 24.2841 24.0825 24.3104C24.179 24.3455 24.9682 24.5209 25.2839 24.5209C26.9414 24.5209 27.0115 24.5648 27.0554 24.5998C27.1167 24.6349 27.5114 24.6788 27.8446 24.7051L27.8358 24.7665L27.9674 24.6525L28.704 24.3455L29.0285 24.0474V23.8281L28.8005 23.6791L28.8092 23.7054L28.0463 23.986L26.994 24.1087C26.9414 24.1087 26.7134 24.1175 26.459 24.1175C26.1609 24.1175 25.8364 24.1087 25.74 24.0737C25.5996 24.0298 24.7139 23.8369 24.2755 23.7404H24.2667L24.2579 23.7317C23.7055 23.4335 23.0214 23.0564 22.9688 22.96C22.925 22.9073 22.583 22.732 22.2936 22.5916H22.2848L21.3114 22.0216L21.1799 22.0479L21.1623 21.9339L20.8554 21.7586L20.3819 22.0129L20.0486 21.7235L20.1626 21.0921ZM20.566 25.2926L20.6099 25.468L20.0136 25.6083L19.7154 25.6785L19.6979 25.6083L19.6715 25.5031L20.566 25.2926ZM20.9431 26.1257L20.8993 26.3011C20.6976 26.2572 20.4871 26.266 20.2854 26.3011C19.9522 26.3625 19.4611 26.5554 18.9875 27.0991L18.856 26.9851C19.8294 25.8451 20.8993 26.1082 20.9431 26.1257Z" fill="#3D8130"/>
<path d="M22.1444 21.6891C22.197 21.6804 23.4422 21.5313 23.6001 21.5313C23.6615 21.5313 23.8368 21.5488 24.0648 21.5664C24.3718 21.5927 24.8892 21.6365 24.9681 21.6278C25.0909 21.5927 26.3186 21.4874 26.4589 21.4699L27.1867 21.4173L27.0377 21.3296L25.3978 20.479L24.1613 20.3562L22.6705 20.5053L21.5656 20.9262L21.0043 21.6278L21.3639 21.8382L22.1444 21.6891Z" fill="#3D8130"/>
<path d="M26.4676 21.6535C25.9239 21.7061 25.0908 21.785 25.0031 21.8026C24.9242 21.8201 24.6435 21.8026 24.0472 21.75C23.8455 21.7324 23.6526 21.7149 23.6 21.7149C23.4772 21.7149 22.5301 21.8289 22.1706 21.864L21.5918 21.9692L22.381 22.434C22.6266 22.548 23.0475 22.7584 23.1177 22.8637C23.1878 22.9338 23.7841 23.2758 24.3366 23.574C24.4769 23.6003 25.6345 23.8546 25.8099 23.916C25.9326 23.9599 26.6079 23.9511 27.0025 23.9423L28.0373 23.8195L28.6599 23.5828L28.6248 23.5652L28.3091 22.5655L27.6865 21.7324L27.3182 21.5132L27.327 21.6009L26.4676 21.6535Z" fill="#3D8130"/>
<path d="M34.5704 21.5826L34.132 21.0915L33.0621 20.9688H31.9221L31.0013 21.6265L30.1244 22.6174L29.8438 23.433C29.9841 23.5382 30.2647 23.7136 30.4488 23.7136C30.633 23.7136 31.2293 23.81 31.7116 23.889C31.9396 23.924 32.1676 23.9591 32.2027 23.9591C32.2816 23.9503 33.106 23.7487 33.6146 23.6259L34.2635 23.3277L34.7809 22.7314L34.7371 22.4508L33.141 21.8019L31.0978 21.7405L31.1065 21.5651L33.1849 21.6265L34.9037 22.328L34.9738 22.7753C34.9738 22.7489 34.9738 22.7226 34.9738 22.6963V22.2052L34.5704 21.5826Z" fill="#3D8130"/>
<path d="M32.6589 31.8696L32.0626 31.9836L31.2207 32.466L30.2736 33.1675L30.0105 33.4306L30.6068 33.8515L30.6507 34.1848L30.2473 34.5881L30.1245 34.4654L30.4665 34.1234L30.449 33.9568L29.8878 33.5621L29.7211 33.7287L29.3704 33.9217L29.2739 34.3952L29.765 34.8249L30.4753 34.7986C30.6068 34.7021 30.8261 34.5618 30.9313 34.5531C31.0365 34.4917 31.1418 34.4215 31.2382 34.3426C31.475 34.1584 31.5715 34.0971 31.6416 34.0971C31.8521 33.9918 32.0538 33.8778 32.2467 33.7463L32.273 33.7287L33.1324 33.8252L33.4306 34.1234L33.3692 34.1848C33.185 34.3864 32.9746 34.6495 32.9658 34.7109C32.9658 34.7548 32.957 34.7986 32.9395 34.8337L33.1412 34.7197L34.0883 34.0444L34.1935 34.1935L33.2289 34.8775L32.7816 35.1231C32.7641 35.1494 32.7466 35.1757 32.7378 35.1845L32.7027 35.1582L32.0187 35.5352L31.5452 36.2192L31.3785 36.6226L31.7205 37.105L32.0976 37.5347L32.5449 37.5873L32.957 37.4996L32.9483 37.4119L33.4043 36.6928L34.2637 35.8597L34.3864 35.9912L33.5358 36.8156L33.1236 37.4557L33.15 37.938L33.5884 38.2362L34.1672 38.2976L34.4917 38.2011L34.4303 38.1047L34.4741 38.052C34.4917 38.0257 34.9652 37.4908 35.0617 37.4031C35.1318 37.333 35.5352 36.8682 35.7369 36.6402L35.8685 36.7542C35.8422 36.7805 35.2809 37.4382 35.1844 37.5259C35.1143 37.596 34.7723 37.9731 34.6495 38.1134L34.9564 38.5694H35.4738L35.9211 38.3677L36.2894 37.824L36.7805 37.2979L36.912 37.4207L36.4209 37.938L36.0438 38.5081L35.5089 38.7448H34.86L34.5881 38.3414L34.176 38.4642L33.5183 38.4028L32.9746 38.0257L32.957 37.675L32.5449 37.7627L32.0012 37.6925L31.589 37.219L30.9752 36.8506L30.335 36.1403L30.1771 35.0354L30.3525 35.0091L30.4841 35.9562L31.247 35.3511L32.0713 34.5618L32.5449 33.9129L32.3169 33.8866C32.0626 34.0532 31.7644 34.2374 31.6592 34.2549C31.5539 34.3163 31.4487 34.3865 31.3522 34.4654C31.1067 34.6495 31.0102 34.7109 30.9488 34.7109C30.8173 34.7723 30.6858 34.8512 30.5718 34.9389L30.5455 34.9565L29.7124 34.9915L29.0897 34.4391L29.1774 34.0181L29.116 34.0532L28.5548 33.6498L27.8971 33.8427C27.827 34.0006 27.7743 34.1584 27.7393 34.3251C27.748 34.3952 27.941 34.7197 28.1163 34.974C28.3531 35.2371 28.8968 35.8597 28.9319 35.9912C28.9582 36.0877 29.0722 36.3683 29.116 36.4736L29.1248 36.4911L29.0985 37.6837L29.4405 38.1924C29.6159 38.2976 30.905 39.0518 31.0541 39.1394C31.1593 39.2008 32.0889 39.4639 32.6589 39.6218L34.5794 39.8059L36.1228 39.5955L37.4469 38.9904L38.166 38.2976L37.9994 37.6837L37.1137 36.0351L36.4735 35.0617L35.3598 33.8515L33.72 32.9483L33.4744 32.4221L32.6589 31.8696Z" fill="#3D8130"/>
<path d="M34.0532 28.3188L34.0269 28.3275C33.8515 28.3889 32.957 28.7046 32.7641 28.7046C32.58 28.7046 30.7822 28.7309 30.7647 28.7397C30.7384 28.7397 28.5461 28.6169 28.2742 28.6169C28.0988 28.6169 27.3885 28.5029 26.7571 28.3977C26.4063 28.3363 26.0468 28.2837 25.9942 28.2837C25.8714 28.2837 23.6001 27.8189 23.1441 27.7312H23.1354L20.9518 27.056L20.0398 26.8543L19.7241 27.0911L19.6188 27.4682L19.6978 27.8715L20.715 28.5556L22.4601 29.564L24.442 30.3883L26.5203 30.7216L27.8182 30.9671L29.3704 31.1776L31.703 30.932H31.7118L32.9307 30.9584L33.6674 30.7479L34.29 30.248L34.7986 29.4676L34.9126 29.108L34.746 28.7046C34.0094 29.3711 33.9304 29.3974 33.8866 29.4062L33.1324 29.5903L31.0366 29.6868H31.0278L28.8354 29.564L26.6606 29.1694L24.9068 29.2045H24.898L23.074 28.7397L21.4604 28.1785L20.601 27.6523L20.6975 27.5032L21.5481 28.0206L23.1354 28.5731L24.9331 29.0291L26.6869 28.994H26.6957L28.8705 29.3886L31.0453 29.5114L33.1237 29.4237L33.8515 29.2396C33.8954 29.222 34.1409 29.0291 34.6583 28.5556C34.7285 28.4942 34.7723 28.4503 34.7898 28.4328L35.4563 27.5208L35.6843 27.0911C35.6492 26.942 35.6142 26.8017 35.5966 26.6526C35.5089 26.5123 35.4125 26.3895 35.2985 26.2667C35.2985 26.3457 35.2985 26.4246 35.2809 26.5035V26.5211L34.6758 27.5646L34.0532 28.3188Z" fill="#983B1F"/>
<path d="M38.1396 37.6239L37.2451 35.9578L36.5962 34.9668L35.4737 33.7128L33.8514 32.8271L33.6146 32.3185L33.5707 32.3448C33.5707 32.3448 33.7198 32.8885 33.8251 32.9411C33.9303 32.9937 35.3334 33.7128 35.4035 33.7479C35.4737 33.783 36.6926 35.2387 36.6926 35.2387L37.6748 36.9487L38.2624 38.2641C38.2624 38.2641 37.5082 39.0358 37.4643 39.0446C37.4205 39.0534 35.9648 39.7637 35.9209 39.7637C35.8771 39.7637 34.4652 39.9215 34.3863 39.904C34.3074 39.8777 32.571 39.7286 32.4395 39.7198C32.2992 39.7111 30.6944 39.0709 30.6944 39.0709L29.3088 38.2378L28.9142 37.6239L28.3617 38.2466C28.3617 38.2466 27.5813 38.6412 27.476 38.6412C27.3708 38.6412 25.4591 38.8955 25.31 38.8955H21.4602C21.4602 38.8955 17.6543 38.8253 17.4877 38.7464C17.4351 38.7201 17.1282 38.6236 16.7248 38.4921L16.4003 38.4307L15.8917 38.2378C15.2691 38.0449 14.7078 37.8783 14.7078 37.8783L13.1381 36.861C13.1381 36.861 12.4804 35.721 12.4541 35.6596C12.4278 35.5982 12.0244 34.6424 12.0244 34.5985C12.0244 34.5547 11.8841 33.7917 11.8841 33.7917L12.1647 32.0466L12.2875 30.2138L12.5857 28.2144C12.5857 28.2144 13.0855 26.2062 13.0943 26.1185C13.103 26.0221 13.9098 24.0402 13.9098 24.0402L14.7605 22.5056L15.8829 20.1904L17.1194 18.4453L18.3208 17.0159L18.3997 17.0422L18.2594 16.9282L17.0931 18.3752L15.7952 20.2606L14.778 22.2425L13.7344 24.2945L12.989 26.2413L12.4892 28.3109L12.1823 30.5734L11.9981 32.5114L11.7789 33.818L11.9981 34.8528L12.3752 35.7298L13.068 36.9575L14.6552 37.9572L16.3302 38.6149L18.0402 38.9306L19.9958 39.027H21.5918C21.7759 39.027 23.3106 38.9393 23.4071 38.9306L25.4679 38.9657H25.4766L27.4848 38.7201H27.4936L28.4144 38.3343L28.8879 37.7643L29.2825 38.3518L29.3001 38.3606C29.3176 38.3693 30.7821 39.22 30.9312 39.3164C31.089 39.4129 32.4307 39.7812 32.5886 39.8163L34.5529 40.0004L36.1314 39.7812H36.1402L37.5082 39.1586L37.5257 39.1498L38.3413 38.3606L38.1396 37.6239Z" fill="black"/>
<path d="M17.1195 18.4455L15.883 20.1906L14.7605 22.5058L13.9099 24.0404C13.9099 24.0404 13.1031 26.0223 13.0943 26.1187C13.0856 26.2152 12.5857 28.2146 12.5857 28.2146L12.2875 30.214L12.1648 32.0468L11.8842 33.7919C11.8842 33.7919 12.0245 34.5549 12.0245 34.5987C12.0245 34.6426 12.4279 35.5984 12.4542 35.6598C12.4805 35.7212 13.1382 36.8612 13.1382 36.8612L14.7079 37.8784C14.7079 37.8784 15.2691 38.0451 15.8918 38.238L14.7517 37.7908L13.2083 36.8261L12.5419 35.651L12.1823 34.8004L11.9718 33.8095L12.1823 32.5379L12.3665 30.5999L12.6734 28.3549L13.1645 26.3029L13.9011 24.3736L14.9447 22.3128L15.9531 20.3485L17.2422 18.4806L18.4086 17.0424L18.3296 17.0161L17.1195 18.4455Z" fill="black"/>
<path d="M32.6939 31.6863L32.0011 31.8178L31.1242 32.3177L30.1595 33.028L29.6071 33.5805L29.116 33.8523L28.5723 33.4577L27.748 33.6945L27.7304 33.7295C27.6953 33.8085 27.5375 34.1855 27.5375 34.3171C27.5375 34.4486 27.8006 34.852 27.9497 35.0713L27.9584 35.08C28.318 35.4834 28.7126 35.9482 28.7389 36.0271C28.7652 36.1411 28.888 36.4393 28.9231 36.5182L28.8968 37.4478L28.3092 38.1493L27.4498 38.5088L25.4679 38.7544L23.4159 38.7193C23.3984 38.7193 21.7848 38.8158 21.6094 38.8158H20.0134L18.0841 38.7281L16.7336 38.4825C17.1283 38.6053 17.444 38.7105 17.4966 38.7368C17.6544 38.8158 21.4691 38.8859 21.4691 38.8859H25.3189C25.4679 38.8859 27.3884 38.6316 27.4849 38.6316C27.5901 38.6316 28.3706 38.237 28.3706 38.237L28.9231 37.6144L29.3177 38.2282L30.7032 39.0613C30.7032 39.0613 32.308 39.6927 32.4483 39.7102C32.5887 39.719 34.3162 39.8681 34.3951 39.8944C34.4741 39.9207 35.8859 39.7541 35.9298 39.7541C35.9736 39.7541 37.4293 39.0525 37.4732 39.035C37.517 39.0262 38.2712 38.2545 38.2712 38.2545L37.6837 36.9391L36.7015 35.2291C36.7015 35.2291 35.4825 33.7734 35.4124 33.7383C35.3422 33.7032 33.9391 32.9841 33.8339 32.9315C33.7287 32.8789 33.5796 32.3352 33.5796 32.3352L33.6234 32.3089V32.3001L32.6939 31.6863ZM33.7111 32.9491L35.351 33.8523L36.4472 35.0625L37.0873 36.0359L37.973 37.6845L38.1397 38.2984L37.4206 38.9912L36.0964 39.5962L34.553 39.8067L32.6325 39.6226C32.0625 39.4647 31.1329 39.2016 31.0277 39.1402C30.8786 39.0525 29.5895 38.2984 29.4141 38.1931L29.0721 37.6845L29.0984 36.4919V36.4831C29.0546 36.3779 28.9406 36.0973 28.9143 36.0008C28.8792 35.8693 28.3355 35.2466 28.0987 34.9836C27.9234 34.7205 27.7217 34.396 27.7217 34.3346C27.7567 34.168 27.8094 34.0102 27.8795 33.8523L28.5372 33.6594L29.0984 34.0628L29.1598 34.0277L29.0721 34.4486L29.6948 35.0011L30.5279 34.966L30.5542 34.9485C30.6682 34.8608 30.7997 34.7819 30.9312 34.7205C31.0014 34.7205 31.0891 34.6591 31.3346 34.4749C31.4311 34.396 31.5363 34.3259 31.6416 34.2645C31.7468 34.2557 32.0537 34.0628 32.2993 33.8962L32.5273 33.9225L32.0537 34.5714L31.2294 35.3606L30.4665 35.9657L30.3349 35.0186L30.1595 35.0449L30.3174 36.1499L30.9576 36.8602L31.5714 37.2285L31.9836 37.7021L32.5273 37.7722L32.9394 37.6845L32.957 38.0353L33.5007 38.4124L34.1584 38.4738L34.5705 38.351L34.8424 38.7544H35.4913L36.0262 38.5176L36.4033 37.9476L36.8944 37.4302L36.7629 37.3074L36.2718 37.8336L35.9035 38.3773L35.4562 38.579H34.9388L34.6319 38.123C34.7547 37.9827 35.0967 37.6056 35.1668 37.5354C35.2633 37.439 35.8246 36.7901 35.8509 36.7637L35.7193 36.6497C35.5176 36.8865 35.1142 37.3425 35.0441 37.4127C34.9476 37.5091 34.4741 38.0441 34.4565 38.0616L34.4127 38.1142L34.4741 38.2107L34.1496 38.3071L33.5708 38.2458L33.1324 37.9476L33.106 37.4653L33.5182 36.8251L34.3688 36.0008L34.2461 35.8693L33.3867 36.7024L32.9307 37.4214L32.9394 37.5091L32.5273 37.5968L32.08 37.5442L31.703 37.1145L31.3609 36.6322L31.5276 36.2288L32.0011 35.5448L32.6851 35.1677L32.7202 35.194C32.729 35.1765 32.7465 35.1589 32.764 35.1326L33.2113 34.8871L34.1759 34.2031L34.0707 34.054L33.1236 34.7292L32.9219 34.8432C32.9394 34.8082 32.9482 34.7643 32.9482 34.7205C32.957 34.6503 33.1674 34.396 33.3516 34.1943L33.413 34.1329L33.1148 33.8348L32.2554 33.7383L32.2291 33.7558C32.0362 33.8874 31.8345 34.0102 31.624 34.1066C31.5539 34.1066 31.4574 34.1768 31.2206 34.3522C31.1242 34.4311 31.0189 34.5012 30.9137 34.5626C30.8085 34.5714 30.598 34.7117 30.4577 34.8082L29.7474 34.8345L29.2563 34.4048L29.3528 33.9312L29.7035 33.7383L29.8702 33.5717L30.4314 33.9663L30.4489 34.1329L30.1069 34.4749L30.2297 34.5977L30.6331 34.1943L30.5892 33.8611L29.9929 33.4402L30.256 33.1771L31.2031 32.4755L32.045 31.9932L32.6413 31.8792L33.4481 32.4317L33.7111 32.9491ZM31.3083 36.869L31.0716 36.7287L30.5454 36.1499L31.3522 35.5185L32.1853 34.7117L32.729 33.9575L33.0359 33.9926L33.1674 34.1242C33.0008 34.3083 32.7728 34.5802 32.7728 34.7029C32.7465 34.8082 32.6939 34.9046 32.6325 34.9836L31.8696 35.4045L31.3609 36.1323L31.1505 36.6585L31.3083 36.869Z" fill="black"/>
<path d="M33.4569 18.9969L33.9042 19.5845C33.9042 19.5845 34.1234 19.9265 34.2023 19.9528C34.2813 19.9791 35.0091 20.4 35.0091 20.4L35.3073 20.7332L35.2459 20.9262L35.0179 20.856L35.053 21.9873H35.1231V20.97L35.3248 21.084L35.3774 20.6543L34.8074 20.1545L34.1936 19.8563L34.2199 19.8388L33.7463 19.0934L32.7905 18.2515L32.6852 18.3743H32.7817L33.4569 18.9969Z" fill="black"/>
<path d="M34.9477 23.6184C34.9477 23.6184 34.6233 24.2673 34.5882 24.2848C34.5531 24.3112 34.2637 24.4339 34.2637 24.4339L34.29 24.5918C34.4216 24.6882 34.5531 24.7935 34.6671 24.9075C34.6847 24.9338 34.8776 25.3196 35.0354 25.609H35.1933C35.0442 25.1706 34.746 24.7935 34.3514 24.5567C34.369 24.5216 34.3865 24.4778 34.404 24.4427C34.4304 24.4252 34.4654 24.4076 34.4917 24.3813C34.9214 24.0568 35.1407 23.4956 35.167 22.7064V22.1539L35.0617 21.996L35.0881 22.8467L34.9477 23.6184Z" fill="black"/>
<path d="M33.6146 19.2251L33.9479 19.7424L33.904 19.7161L32.7991 19.6197L31.5538 19.8389L31.0452 20.0581L31.1154 20.2248L31.5977 20.0143L32.8078 19.8038L33.8602 19.8915L34.7283 20.3125L35.2107 20.7334L35.2019 20.8035L35.1054 20.7509L34.0794 20.3738L34.0619 20.3651C34.018 20.3563 33.0095 20.2072 32.7552 20.2072C32.5009 20.2072 31.5538 20.3563 31.51 20.3651H31.4924L30.2472 21.1718L30.3437 21.3209L31.5626 20.5317C31.7029 20.5141 32.5448 20.3826 32.764 20.3826C32.992 20.3826 33.9303 20.5229 34.0356 20.5317L34.9827 20.8737V21.8383L34.7459 21.4875L34.2548 20.9263L33.1148 20.8035H31.9046L30.9312 21.4963L30.0104 22.5399L29.6772 23.5133L29.7298 23.5483C29.7736 23.5834 30.1946 23.9079 30.4927 23.9079C30.6594 23.9079 31.3083 24.0131 31.7292 24.0745C32.0712 24.1271 32.2115 24.1534 32.2466 24.1534C32.3431 24.1534 33.3954 23.8904 33.7111 23.8114L34.4214 23.487L35.009 22.7942C34.9739 23.4694 34.7722 23.9605 34.4126 24.2324C33.8952 24.627 33.22 24.4604 33.22 24.4604L33.2025 24.5481L33.1849 24.6357C33.3165 24.6621 33.448 24.6796 33.5796 24.6796C33.79 24.6796 34.0005 24.6445 34.1934 24.5656C34.0356 24.8901 33.8339 25.1005 33.5971 25.1882C33.3954 25.2584 33.1674 25.2408 32.9745 25.1444L32.8868 25.3022C33.0271 25.3724 33.1849 25.4075 33.334 25.4075C33.4392 25.4075 33.5445 25.3899 33.6497 25.3548C33.9128 25.2584 34.132 25.0479 34.3162 24.7147C34.6494 24.9251 34.9125 25.2408 35.0528 25.6091H35.0791C34.93 25.3198 34.7283 24.9339 34.7108 24.9076C34.588 24.7936 34.4653 24.6884 34.3337 24.5919L34.3074 24.4341C34.3074 24.4341 34.5968 24.3113 34.6319 24.285C34.667 24.2587 34.9914 23.6185 34.9914 23.6185L35.1317 22.8556L35.1054 22.0049L35.0703 20.8737L35.2983 20.9438L35.3597 20.7509L35.0616 20.4177C35.0616 20.4177 34.3337 19.988 34.2548 19.9704C34.1759 19.9441 33.9566 19.6021 33.9566 19.6021L33.5094 19.0146L32.8254 18.4007H32.7289L32.7202 18.4095L33.6146 19.2251ZM34.9827 22.7766L34.9125 22.3294L33.1937 21.6279L31.1154 21.5665L31.1066 21.7419L33.1499 21.8032L34.7459 22.4522L34.7897 22.7328L34.2723 23.3291L33.6234 23.6273C33.1148 23.75 32.2905 23.9517 32.2115 23.9605C32.1765 23.9605 31.9484 23.9254 31.7204 23.8904C31.2381 23.8114 30.6418 23.715 30.4577 23.715C30.2823 23.715 30.0017 23.5396 29.8526 23.4343L30.1332 22.6188L31.0101 21.6279L31.9309 20.9702H33.0709L34.1408 21.0929L34.5793 21.584L34.9914 22.2066V22.6977C34.9827 22.724 34.9827 22.7503 34.9827 22.7766Z" fill="black"/>
<path d="M29.379 31.3451L29.9402 31.2837H28.9493L29.379 31.3451Z" fill="black"/>
<path d="M34.3689 31.3188C34.3426 31.3626 33.834 32.1869 33.834 32.1869L33.606 32.3097L33.6586 32.3711L34.062 32.0203L34.4478 31.3714V31.2837H34.3689C34.3777 31.3012 34.3777 31.31 34.3689 31.3188Z" fill="black"/>
<path d="M34.3687 31.3188C34.3687 31.31 34.3775 31.2925 34.3775 31.2837H34.281V31.3188L33.9302 31.8976L33.5532 32.2308L33.6145 32.3009L33.6233 32.3097L33.8513 32.1869C33.8426 32.1869 34.3512 31.3714 34.3687 31.3188Z" fill="black"/>
<path d="M35.2108 25.9431L35.2897 26.0571C35.2722 25.908 35.2459 25.759 35.1932 25.6099H35.0354C35.1319 25.794 35.2108 25.9431 35.2108 25.9431Z" fill="black"/>
<path d="M35.7808 26.9233C35.772 26.9671 35.6668 27.3179 35.6405 27.3705C35.6142 27.4319 34.7898 28.5632 34.7898 28.5632L34.9828 28.9578C34.9828 28.9578 35.0178 29.2384 34.9915 29.2822C34.9652 29.3261 34.2374 30.4573 34.2374 30.4573L34.3514 30.773C34.3514 30.773 34.3777 31.1676 34.3689 31.2904H34.4478V30.6853L34.3514 30.4223L34.4303 30.3609L34.9652 29.5365L35.1055 29.0893L34.8951 28.5719C34.9126 28.5544 34.9214 28.5456 34.9214 28.5456L35.6054 27.6073L35.8772 27.1074L35.8685 27.0724C35.8334 26.932 35.7983 26.783 35.7808 26.6339C35.7808 26.5988 35.7808 26.5023 35.3248 26.02L35.2897 26.0551L35.5615 26.441C35.5615 26.441 35.7895 26.8794 35.7808 26.9233Z" fill="black"/>
<path d="M35.0352 25.6099H35.0089C35.1141 25.8817 35.1492 26.1711 35.1141 26.4605L34.5354 27.4514L33.939 28.1618C33.5357 28.3021 32.8779 28.5213 32.7639 28.5213C32.5798 28.5213 30.8785 28.5476 30.7645 28.5564C30.633 28.5476 28.5459 28.4336 28.274 28.4336C28.1162 28.4336 27.3445 28.3108 26.7832 28.2144C26.2658 28.1267 26.0466 28.0916 25.994 28.0916C25.88 28.0828 24.2577 27.7584 23.1878 27.5391L21.0042 26.8639L20.0045 26.6359L19.5748 26.9516L19.4345 27.4339L19.5397 27.9513L20.6184 28.6792L22.381 29.6964L24.3892 30.5295H24.398L26.4938 30.8715L27.7917 31.117L28.9405 31.2749H29.9402L31.7204 31.0907L32.9481 31.117H32.9656L33.7637 30.889L34.2109 30.5295L34.281 30.7049V31.2749H34.3775C34.3863 31.1521 34.36 30.7575 34.36 30.7575L34.246 30.4418C34.246 30.4418 34.9738 29.3106 35.0001 29.2667C35.0264 29.2229 34.9914 28.9422 34.9914 28.9422L34.7984 28.5476C34.7984 28.5476 35.6315 27.4164 35.6491 27.355C35.6754 27.2936 35.7718 26.9516 35.7894 26.9077C35.7981 26.8639 35.5701 26.4254 35.5701 26.4254L35.2983 26.0396L35.2194 25.9256C35.2106 25.9431 35.1317 25.794 35.0352 25.6099ZM35.2895 26.5044C35.2983 26.4254 35.3071 26.3465 35.3071 26.2676C35.4211 26.3816 35.5175 26.5131 35.6052 26.6534C35.6228 26.8025 35.6491 26.9516 35.6929 27.0919L35.4649 27.5216L34.7984 28.4336C34.7809 28.4512 34.7283 28.495 34.6669 28.5564C34.1495 29.0299 33.9127 29.2141 33.8601 29.2404L33.1323 29.4246L31.0539 29.5122L28.8791 29.3895L26.7043 28.9949H26.6955L24.9417 29.0299L23.144 28.5739L21.5567 28.0215L20.7061 27.5041L20.6096 27.6531L21.469 28.1793L23.0826 28.7405L24.9066 29.2053H24.9154L26.6692 29.1702L28.844 29.5649L31.0364 29.6876H31.0452L33.141 29.5912L33.8952 29.407C33.9303 29.3982 34.018 29.3719 34.7546 28.7055L34.9212 29.1089L34.8072 29.4684L34.2986 30.2489L33.676 30.7487L32.9393 30.9592L31.7204 30.9329H31.7116L29.379 31.1784L27.8268 30.968L26.5289 30.7224L24.4506 30.3892L22.4687 29.5649L20.7236 28.5564L19.7064 27.8724L19.6274 27.469L19.7327 27.0919L20.0484 26.8551L20.9604 27.0568L23.144 27.7321H23.1527C23.6087 27.8285 25.8712 28.2845 26.0028 28.2845C26.0466 28.2845 26.4149 28.3459 26.7657 28.3985C27.3971 28.5038 28.1074 28.6178 28.2828 28.6178C28.5547 28.6178 30.747 28.7405 30.7733 28.7405C30.7908 28.7405 32.5886 28.7055 32.7727 28.7055C32.9656 28.7055 33.8601 28.3898 34.0355 28.3284L34.0618 28.3196L34.6932 27.5654L35.2983 26.5219L35.2895 26.5044Z" fill="black"/>
<path d="M20.2853 26.3031C20.487 26.2593 20.6975 26.2593 20.8992 26.3031L20.943 26.1277C20.8992 26.1189 19.8293 25.8471 18.8559 26.9871L18.9874 27.1011C19.461 26.5486 19.9521 26.3645 20.2853 26.3031Z" fill="black"/>
<path d="M20.0046 25.6082L20.6009 25.4679L20.5658 25.2925L19.6713 25.503L19.6976 25.6082H20.0046Z" fill="black"/>
<path d="M19.7151 25.68L20.0045 25.6099H19.6976L19.7151 25.68Z" fill="black"/>
<path d="M30.6155 24.8203C30.9663 25.0483 31.2908 25.3114 31.5801 25.6096H31.8257C31.5801 25.3289 31.3083 25.0834 31.0101 24.8642L31.7029 24.9431L32.2992 24.8203L32.2642 24.6449L31.6941 24.7677L30.6944 24.6537C30.5366 24.5485 30.37 24.4608 30.1946 24.3819L30.1157 24.5397L30.6155 24.8203Z" fill="black"/>
<path d="M32.1327 26.3465L32.2905 26.2588C32.159 26.0308 32.0011 25.8116 31.8257 25.6099H31.5802C31.7907 25.8379 31.9748 26.0834 32.1327 26.3465Z" fill="black"/>
<path d="M20.8552 21.7592L21.1621 21.9346L21.1797 22.0486L21.3112 22.0223L22.2846 22.5923H22.2934C22.5828 22.7326 22.9248 22.908 22.9686 22.9606C23.03 23.0483 23.7052 23.4254 24.2577 23.7323L24.2665 23.7411H24.2753C24.7225 23.8376 25.5994 24.0305 25.7397 24.0743C25.845 24.1094 26.1694 24.1182 26.4588 24.1182C26.7131 24.1182 26.9499 24.1094 26.9938 24.1094L28.0461 23.9866L28.809 23.706L28.8002 23.6797L29.0283 23.8288V24.048L28.7038 24.3462L27.9672 24.6531L27.8356 24.7671L27.8444 24.7057C27.5112 24.6794 27.1165 24.6268 27.0551 24.6005C27.0113 24.5742 26.9411 24.5216 25.2837 24.5216C24.968 24.5216 24.1788 24.3462 24.0823 24.3111C23.9946 24.2848 23.3106 24.0743 23.1791 24.0393C23.0651 23.9253 22.3723 23.2851 21.8198 22.9606L21.7321 23.1185C22.3021 23.4517 23.0651 24.1708 23.0651 24.1796L23.0826 24.1971L23.1002 24.2059C23.1089 24.2059 23.9333 24.4514 24.0209 24.4777C24.1262 24.5128 24.933 24.697 25.2837 24.697C26.6605 24.697 26.9148 24.732 26.9675 24.7496C27.0639 24.8022 27.4322 24.846 27.7128 24.8723L27.6164 24.9513L27.213 25.609H27.4235L27.7567 25.0653L28.0724 24.8022L28.809 24.4953L29.2212 24.1182V23.7236L28.7739 23.4342L28.467 22.4695L27.8005 21.5838L27.1078 21.1717L25.4328 20.3035L24.1437 20.1807L22.6178 20.3386L21.4428 20.7858L20.7938 21.5926L20.3992 21.8031L20.2413 21.6628L20.3203 21.1892L21.0657 20.4701L21.7234 19.9352L22.6442 19.7598L23.6789 19.7335H24.7839L25.6871 19.7598L26.6254 20.2772C27.0288 20.4877 27.4936 20.7507 27.5375 20.8209C27.5988 20.9437 28.2829 21.5926 28.5021 21.7943L29.1247 22.6011L29.2124 23.25L29.3878 23.2237L29.2913 22.5222L28.6336 21.6715L28.6249 21.6628C28.1952 21.2681 27.7304 20.8121 27.6865 20.7332C27.6252 20.6017 27.0376 20.286 26.6956 20.1106L26.0554 19.7598L27.5199 19.7861L28.0461 20.1106L28.7389 20.742L29.1159 21.2155L29.3001 22.2065L29.4755 22.1714L29.2826 21.1366L28.8704 20.628L28.1513 19.9703L27.5638 19.6107L25.6959 19.5757L24.7751 19.5406H23.6614L22.6178 19.5757L21.6269 19.7686L20.9341 20.3386L20.1361 21.1015L20.0309 21.7329L20.3641 22.0223L20.8552 21.7592ZM27.6953 21.7241L28.3179 22.5572L28.6336 23.5569L28.6687 23.5745L28.0461 23.8113L27.0113 23.934C26.6167 23.9428 25.9414 23.9516 25.8187 23.9077C25.6433 23.8463 24.4857 23.6008 24.3454 23.5657C23.7929 23.2676 23.1879 22.9256 23.1265 22.8554C23.0563 22.7589 22.6354 22.5485 22.3898 22.4257L21.6006 21.9609L22.1794 21.8557C22.5389 21.8118 23.486 21.7066 23.6088 21.7066C23.6614 21.7066 23.8543 21.7241 24.056 21.7417C24.6523 21.7943 24.933 21.8118 25.0119 21.7943C25.0996 21.7768 25.9327 21.6891 26.4764 21.6452L27.3358 21.5838L27.327 21.4961L27.6953 21.7241ZM21.5568 20.9349L22.6617 20.514L24.1525 20.3649L25.389 20.4877L27.0288 21.3383L27.1779 21.426L26.4501 21.4786C26.3097 21.4874 25.082 21.6014 24.9593 21.6365C24.8803 21.654 24.3717 21.6014 24.056 21.5751C23.828 21.5575 23.6526 21.54 23.5912 21.54C23.4334 21.54 22.1881 21.6891 22.1355 21.6978L21.3463 21.8469L20.9867 21.6365L21.5568 20.9349Z" fill="black"/>
<path d="M27.1341 25.7407C26.9324 25.8547 26.7307 25.9423 26.5203 26.03C26.4238 26.03 25.8801 26.2844 25.4416 26.4948C25.3627 26.5211 24.6436 26.7404 24.477 26.7667L24.5033 26.9421C24.6875 26.907 25.4679 26.6702 25.503 26.6614L25.5118 26.6527C25.9502 26.4422 26.4501 26.2142 26.5203 26.1967C26.6255 26.1879 27.0113 25.995 27.2306 25.881L27.2481 25.8722L27.4147 25.6003H27.2043L27.1341 25.7407Z" fill="black"/>
<path d="M27.9759 18.5585L27.8619 18.6375C27.9146 18.6287 27.9672 18.6287 28.0198 18.6199L27.9759 18.5585Z" fill="black"/>
<path d="M28.3879 19.463L28.6159 19.8576L28.5019 20.2522L28.6772 20.3048L28.8088 19.8401L28.5457 19.3753L28.0283 18.6299C27.9757 18.6387 27.9231 18.6387 27.8705 18.6474L27.8354 18.6737L28.3879 19.463Z" fill="black"/>
<path d="M33.755 19.252L34.5355 19.173C34.5355 19.173 36.4823 19.7518 36.5612 19.8307C36.6401 19.9097 37.6223 20.3394 37.6223 20.3394L38.2011 20.392L38.28 19.8658L37.8503 19.252L36.6138 18.3399L35.2019 17.6559L34.3162 17.349L34.0005 12.8766L33.2551 11.7629L32.1414 10.8509L30.7033 10.1406L29.2125 10.1143L26.4063 10.465L23.8281 10.9737L23.679 10.5352C23.4773 10.4826 23.2756 10.4475 23.0739 10.4212C22.9248 10.4212 21.5568 10.8421 21.5568 10.8421L20.7237 11.2806L20.5483 11.7892L19.3557 12.4469L18.3911 13.6571L17.8386 14.8234C17.8386 14.8234 17.558 15.9897 17.558 16.0599C17.558 16.1301 17.7071 16.7702 17.8123 16.8141C17.9175 16.8579 18.698 17.0684 18.698 17.0684L19.724 17.577L21.206 18.4364L23.0476 19.0415C23.0476 19.0415 24.7927 18.9187 24.9681 18.9187C25.1435 18.9187 27.7743 18.6381 27.9234 18.6381C28.0725 18.6381 30.9576 18.4101 31.0365 18.4101C31.1154 18.4101 32.8342 18.3838 32.8342 18.3838L33.5182 18.9889L33.755 19.252Z" fill="#C82727"/>
<path d="M33.0709 21.734L33.2989 22.2163L33.4392 22.7688L33.3691 23.1195L33.0709 23.8825L32.1238 24.0403L30.598 23.7685L30.4138 23.2335L30.484 22.7512L30.6418 21.9883L31.0364 21.5498L31.2908 21.6901L32.9745 21.734" fill="black"/>
<path d="M26.1256 21.664L26.4062 22.199L26.4326 22.8479L26.2922 23.4267L25.9941 23.8914L25.5118 23.9177L23.6614 23.3653L22.9248 22.7163L23.0213 22.3042L23.2756 21.9096L23.6176 21.6377L24.9155 21.6728C24.8979 21.664 26.073 21.7605 26.1256 21.664Z" fill="black"/>
<path d="M38.0433 19.3214L37.3242 18.69L36.2895 17.9972L34.5882 17.3746L34.3514 17.2781L34.2813 15.8136C34.1936 15.0946 34.0708 14.0072 34.0708 13.9195C34.0708 13.7967 34.0094 12.9022 34.0094 12.8671V12.8496L33.5008 11.9288L32.6502 11.0519L31.3435 10.3065L30.2561 9.99956H28.7653L27.3009 10.1837C26.7133 10.2802 25.7925 10.4293 25.6873 10.4293C25.5294 10.4293 24.3017 10.7099 24.1614 10.7362L23.7317 10.8502L23.8019 10.8151L23.6616 10.5345L23.2056 10.3591L22.5391 10.4205L21.4692 10.6836L20.6624 11.201L20.4958 11.6307L20.6098 11.6745L20.1626 11.7885H20.1451L19.198 12.3848L18.5403 13.1302L17.9439 14.1299L17.4704 15.761V16.3486L17.7773 16.8923L19.6978 17.5763L20.338 18.1551L21.7674 18.804L23.0302 19.1197L25.3891 18.9619L28.8004 18.5935L31.2295 18.4094L33.2465 18.4357L35.3774 18.7426L37.0612 19.5406L37.1401 19.3828L35.4388 18.576L33.2728 18.2691L31.2295 18.234L28.7916 18.4181L25.3804 18.7865L23.0565 18.9355L21.8463 18.6374L20.452 17.9972L19.803 17.4097L17.9089 16.7344L17.6633 16.296V15.7786L18.1193 14.2001L18.6981 13.2355L19.3295 12.5164L20.2327 11.9464L24.214 10.9028C24.7314 10.7888 25.5996 10.5959 25.7048 10.5959C25.8627 10.5959 27.1956 10.3766 27.3447 10.3503L28.7829 10.1662H30.2386L31.2646 10.4643L32.5362 11.1922L33.3517 12.0341L33.8253 12.9022C33.8428 13.2267 33.8867 13.8318 33.8867 13.9195C33.8867 14.0422 34.0796 15.6558 34.1059 15.8312L34.176 17.208L33.1413 16.8134L31.098 16.5941L29.5546 16.4363L28.0375 16.559L26.2836 16.7432L24.2403 17.208L22.7057 17.5763L21.6797 17.6377L20.3643 17.3746L21.0308 17.8569L21.5745 18.1726L22.8197 18.4795L24.0387 18.5146H24.0474L25.1348 18.3918L26.6695 18.1463L28.169 17.9008L29.8527 17.778L31.0191 17.7166L32.4222 17.8043L34.3251 18.0498L36.7805 18.5146L37.2102 18.7952L37.8942 19.3916L38.0872 19.8388L38.0433 20.172L37.675 20.1983L36.9559 19.8651L35.6318 19.3389L34.5882 19.0232L33.6762 19.1197L33.6937 19.2951L34.5707 19.2074L35.5616 19.5056L36.877 20.0229L37.6399 20.3737L38.1924 20.3386L38.2713 19.8125L38.0433 19.3214ZM20.68 11.6482L20.8115 11.315L21.5394 10.8502L22.5654 10.6046L23.188 10.5433L23.5388 10.6748L23.6353 10.8677L20.68 11.6482ZM34.3514 17.9095L32.4309 17.664L31.0103 17.5675L29.8352 17.6289L28.1427 17.7517L26.6256 17.9972L25.091 18.2428L24.0211 18.3655L22.8373 18.3392L21.6271 18.0411L21.1185 17.7429H21.1097L21.6446 17.8481L22.7057 17.7868L24.2579 17.4184L26.2836 16.9624L28.0287 16.7783L29.5283 16.6555L31.0541 16.8046L33.0711 17.0151L34.5093 17.5675L36.193 18.1814L36.3859 18.3129L34.3514 17.9095Z" fill="black"/>
<path d="M25.5477 23.1158C25.8401 23.0288 26.0179 22.7588 25.9447 22.5128C25.8715 22.2668 25.5751 22.1378 25.2827 22.2248C24.9902 22.3118 24.8124 22.5818 24.8856 22.8278C24.9588 23.0739 25.2552 23.2028 25.5477 23.1158Z" fill="white"/>
<path d="M24.1175 23.0654C24.2434 23.0654 24.3455 22.9633 24.3455 22.8374C24.3455 22.7115 24.2434 22.6094 24.1175 22.6094C23.9915 22.6094 23.8895 22.7115 23.8895 22.8374C23.8895 22.9633 23.9915 23.0654 24.1175 23.0654Z" fill="white"/>
<path d="M23.9771 22.3549C24.103 22.3549 24.2051 22.2529 24.2051 22.1269C24.2051 22.001 24.103 21.8989 23.9771 21.8989C23.8512 21.8989 23.7491 22.001 23.7491 22.1269C23.7491 22.2529 23.8512 22.3549 23.9771 22.3549Z" fill="white"/>
<path d="M31.4049 23.3553C31.5211 23.3553 31.6153 23.261 31.6153 23.1448C31.6153 23.0286 31.5211 22.9343 31.4049 22.9343C31.2886 22.9343 31.1944 23.0286 31.1944 23.1448C31.1944 23.261 31.2886 23.3553 31.4049 23.3553Z" fill="white"/>
<path d="M31.3785 22.5575C31.5044 22.5575 31.6065 22.4554 31.6065 22.3295C31.6065 22.2036 31.5044 22.1015 31.3785 22.1015C31.2525 22.1015 31.1505 22.2036 31.1505 22.3295C31.1505 22.4554 31.2525 22.5575 31.3785 22.5575Z" fill="white"/>
<path d="M32.6326 23.2063C32.8602 23.2063 33.0447 23.0218 33.0447 22.7941C33.0447 22.5665 32.8602 22.382 32.6326 22.382C32.4049 22.382 32.2204 22.5665 32.2204 22.7941C32.2204 23.0218 32.4049 23.2063 32.6326 23.2063Z" fill="white"/>
</svg>
