<svg width="51" height="50" viewBox="0 0 51 50" fill="none" xmlns="http://www.w3.org/2000/svg">
<rect x="0.0600586" width="50" height="50" rx="25" fill="#0645F7"/>
<rect x="1.16006" y="1.1" width="47.8" height="47.8" rx="23.9" stroke="black" stroke-opacity="0.5" stroke-width="2.2" style="mix-blend-mode:soft-light"/>
<path fill-rule="evenodd" clip-rule="evenodd" d="M38.9561 39.6901C38.3364 39.6901 37.8522 39.2059 37.8522 38.5862C37.8522 37.9664 38.3557 37.4822 38.9561 37.4822C39.5759 37.4822 40.0601 37.9664 40.0601 38.5862C40.0601 39.2059 39.5565 39.6901 38.9561 39.6901ZM38.3945 27.7405C37.7747 27.7405 37.2712 27.2369 37.2712 26.6365C37.2712 26.0168 37.7747 25.5132 38.3945 25.5132C39.0142 25.5132 39.5178 26.0168 39.5178 26.6365C39.5178 27.2563 39.0142 27.7405 38.3945 27.7405ZM38.3945 24.3899C37.7747 24.3899 37.2712 23.8864 37.2712 23.286C37.2712 22.6662 37.7747 22.1821 38.3945 22.1821C39.0142 22.1821 39.5178 22.6856 39.5178 23.286C39.5178 23.9057 39.0142 24.3899 38.3945 24.3899ZM36.1285 22.3951V24.4287H33.8625V22.0852V21.9109C33.8625 21.6204 33.9787 21.3299 34.1918 21.1168L36.8451 18.5023C37.1937 18.1536 37.736 18.0374 38.1814 18.2699C38.9174 18.6378 39.0142 19.5481 38.4719 20.071L36.1285 22.3757V22.3951ZM38.1814 31.7108C37.736 31.9432 37.1937 31.8076 36.8451 31.4784L34.1918 28.8638C33.9593 28.6507 33.8625 28.3602 33.8625 28.0697V27.8954V25.552H36.1285V27.5855L38.4719 29.8903C39.0142 30.4132 38.898 31.3234 38.1814 31.6914V31.7108ZM32.7392 20.8844V24.9128V28.9413L39.1885 35.3518C39.5371 35.7005 39.6533 36.2427 39.4403 36.6688C39.0723 37.4048 38.1427 37.5016 37.6004 36.9787L30.8025 30.2195C30.5701 29.9871 30.4732 29.7159 30.4732 29.4254V28.9606V24.9322V20.9038V20.439C30.4732 20.1485 30.5894 19.858 30.8025 19.6449L34.9664 15.5003C35.3151 15.1517 35.8573 15.0355 36.3028 15.2679C37.0194 15.6553 37.1162 16.5655 36.5933 17.0691L32.7392 20.9038V20.8844ZM30.1246 18.8509C29.8922 19.0833 29.6017 19.1801 29.3306 19.1801H28.8657H24.818H20.7702H20.3054C20.0149 19.1801 19.7244 19.0639 19.5113 18.8509L15.3473 14.7063C14.9987 14.3577 14.8825 13.8154 15.0956 13.3893C15.4635 12.6727 16.3932 12.5565 16.9161 13.0794L20.7702 16.9141H24.818H28.8657L32.6811 13.1181C33.0297 12.7695 33.572 12.6533 34.0175 12.8857C34.734 13.2731 34.8309 14.1833 34.308 14.6869L30.1246 18.8509ZM28.8851 15.4616C28.6527 15.694 28.3622 15.7908 28.091 15.7908H27.9167H25.5346V13.5442H27.6069L29.9309 11.2395C30.2796 10.8909 30.8218 10.7747 31.2673 11.0071C31.9839 11.3944 32.0807 12.3047 31.5578 12.8083L28.8851 15.4616ZM26.4836 12.5178C25.8638 12.5178 25.3603 12.0142 25.3603 11.4138C25.3603 10.7941 25.8638 10.3099 26.4836 10.3099C27.1033 10.3099 27.6069 10.8134 27.6069 11.4138C27.6069 12.0336 27.1033 12.5178 26.4836 12.5178ZM21.8741 15.7908C21.5836 15.7908 21.2931 15.6746 21.0801 15.4616L18.4267 12.8083C18.0781 12.4597 17.9619 11.9174 18.175 11.4913C18.543 10.7747 19.4726 10.6585 19.9955 11.1814L22.3389 13.5055H24.4113V15.7521H22.0291H21.8548L21.8741 15.7908ZM23.1136 12.5178C22.4939 12.5178 21.9903 12.0142 21.9903 11.4138C21.9903 10.7941 22.4939 10.3099 23.1136 10.3099C23.7334 10.3099 24.2369 10.8134 24.2369 11.4138C24.2369 12.0336 23.7334 12.5178 23.1136 12.5178ZM19.124 20.4196V20.8844V24.9128V28.9413V29.4061C19.124 29.6966 19.0078 29.9871 18.7947 30.2001L14.6307 34.3447C14.2821 34.6933 13.7399 34.8096 13.2944 34.5771C12.5778 34.1898 12.481 33.2795 13.0039 32.776L16.858 28.9413V24.9128V20.8844L13.0233 17.0884C12.6746 16.7398 12.5584 16.1975 12.7715 15.7715C13.1395 15.0355 14.0691 14.9387 14.6114 15.4616L18.7947 19.6256C19.0271 19.8386 19.124 20.1291 19.124 20.4196ZM15.3861 21.1362C15.6185 21.3493 15.7153 21.6398 15.7153 21.9303V22.1046V24.448H13.43V22.4145L11.1059 20.1291C10.7573 19.7805 10.6217 19.2382 10.8541 18.8121C11.2415 18.0955 12.1517 17.9987 12.6746 18.5216L15.3473 21.1556L15.3861 21.1362ZM11.1834 22.1433C11.8031 22.1433 12.3067 22.6469 12.3067 23.2473C12.3067 23.867 11.8031 24.3512 11.1834 24.3512C10.5636 24.3512 10.0601 23.8476 10.0601 23.2473C10.0601 22.6275 10.5636 22.1433 11.1834 22.1433ZM11.1834 25.4939C11.8031 25.4939 12.3067 25.9974 12.3067 26.5978C12.3067 27.2176 11.8031 27.7017 11.1834 27.7017C10.5636 27.7017 10.0601 27.1982 10.0601 26.5978C10.0601 25.9781 10.5636 25.4939 11.1834 25.4939ZM13.43 27.6049V25.5713H15.696V27.9148V28.0891C15.696 28.3796 15.5797 28.6701 15.3667 28.8832L12.7134 31.4977C12.3648 31.8464 11.8225 31.9626 11.377 31.7301C10.6411 31.3622 10.5442 30.4519 11.0865 29.929L13.43 27.6243V27.6049ZM19.4532 30.7811C19.6856 30.5487 19.9761 30.4519 20.2473 30.4519H20.7121H24.7599H28.8076H29.2725C29.563 30.4519 29.8535 30.5681 30.0665 30.7811L36.8257 37.5016C37.1743 37.8502 37.2905 38.3925 37.0775 38.8186C36.7095 39.5352 35.7799 39.6514 35.257 39.1285L28.8076 32.6985H24.7599H20.7121L16.8967 36.4945C16.5481 36.8431 16.0058 36.9593 15.5604 36.7269C14.8438 36.3396 14.747 35.4293 15.2699 34.9258L19.4532 30.7618V30.7811ZM21.0607 34.1511C21.2931 33.9187 21.5836 33.8218 21.8548 33.8218H22.0291H24.4113V36.0684H22.3389L20.0149 38.3731C19.6663 38.7218 19.124 38.838 18.6785 38.6056C17.9619 38.2182 17.8651 37.3079 18.388 36.8044L21.0607 34.1511ZM23.0943 37.3467C23.714 37.3467 24.2176 37.8502 24.2176 38.4506C24.2176 39.0704 23.714 39.5739 23.0943 39.5739C22.4745 39.5739 21.971 39.0704 21.971 38.4506C21.971 37.8309 22.4745 37.3467 23.0943 37.3467ZM28.0717 33.8218C28.3622 33.8218 28.6527 33.938 28.8657 34.1511L31.5191 36.8044C31.8677 37.153 31.9839 37.6953 31.7708 38.1214C31.4029 38.838 30.4732 38.9542 29.9503 38.4312L27.6069 36.1072H25.5346V33.8606H27.9167H28.0717V33.8218ZM26.4642 37.3467C27.0839 37.3467 27.5875 37.8502 27.5875 38.4506C27.5875 39.0704 27.0839 39.5739 26.4642 39.5739C25.8444 39.5739 25.3409 39.0704 25.3409 38.4506C25.3409 37.8309 25.8444 37.3467 26.4642 37.3467Z" fill="white"/>
</svg>
