<svg width="51" height="50" viewBox="0 0 51 50" fill="none" xmlns="http://www.w3.org/2000/svg">
<rect x="0.0600586" width="50" height="50" rx="25" fill="#0089DB"/>
<rect x="1.16006" y="1.1" width="47.8" height="47.8" rx="23.9" stroke="black" stroke-opacity="0.5" stroke-width="2.2" style="mix-blend-mode:soft-light"/>
<path fill-rule="evenodd" clip-rule="evenodd" d="M37.0132 15.9531C34.7397 13.0469 31.4116 11.1953 27.7319 11.1953C20.6069 11.1953 15.3804 17.8281 15.3804 25C15.3804 29.9922 18.7085 33.7422 22.3882 33.7422C22.7397 33.7422 23.0679 33.7188 23.4194 33.6484C20.9351 31.8438 19.3647 28.5625 19.3647 25C19.3647 19.3281 23.2085 14.8984 27.7319 14.8984C32.6772 14.8984 36.0991 19.7969 36.0991 25C36.0757 28.8438 34.7163 32.6641 32.3022 35.4766C30.1929 37.9375 27.4741 39.4844 24.4741 39.9766C24.4741 39.9766 24.7319 40 25.0601 40C33.3335 40 40.0601 33.2734 40.0601 25C40.0601 21.6016 38.9351 18.4609 37.0132 15.9531ZM34.7397 25C34.7397 20.0078 31.4116 16.2578 27.7319 16.2578C27.3804 16.2578 27.0522 16.2812 26.7007 16.3516C29.1851 18.1562 30.7554 21.4375 30.7554 25C30.7554 30.6719 26.9116 35.1016 22.3882 35.1016C17.4429 35.1016 14.021 30.2031 14.021 25C14.0444 21.1562 15.4038 17.3359 17.8179 14.5234C19.9272 12.0625 22.646 10.5156 25.646 10.0234C25.646 10.0234 25.3882 10 25.0601 10C16.7866 10 10.0601 16.7266 10.0601 25C10.0601 28.3984 11.1851 31.5391 13.1069 34.0469C15.3804 36.9531 18.7085 38.7812 22.3882 38.7812C29.5132 38.8047 34.7397 32.1719 34.7397 25Z" fill="white"/>
</svg>
