<svg width="51" height="50" viewBox="0 0 51 50" fill="none" xmlns="http://www.w3.org/2000/svg">
<rect x="0.0600586" width="50" height="50" rx="25" fill="#F00500"/>
<rect x="1.16006" y="1.1" width="47.8" height="47.8" rx="23.9" stroke="black" stroke-opacity="0.5" stroke-width="2.2" style="mix-blend-mode:soft-light"/>
<path d="M31.9425 12.6408C31.1706 13.4127 30.4634 14.2493 29.8348 15.1413L29.6361 15.0766C28.4898 14.7022 27.3019 14.4711 26.1048 14.3925C25.7443 14.3648 24.3993 14.3648 23.9602 14.3925C22.6337 14.4804 21.6168 14.6791 20.4613 15.0812C20.4151 15.0997 20.3735 15.1136 20.3319 15.1274C19.6802 14.24 18.9545 13.408 18.1549 12.6454C21.9912 10.681 26.4792 10.4453 30.4958 11.9937C30.9256 12.1555 31.3462 12.345 31.7576 12.5483L31.9425 12.6408Z" fill="#F00500"/>
<path d="M39.0973 30.1723C38.5149 31.8316 37.6414 33.3708 36.509 34.7112C35.8942 35.4322 35.2148 36.0932 34.4845 36.694C32.7743 38.0714 30.7776 39.0559 28.6469 39.5736C26.2896 40.1421 23.8307 40.1421 21.4734 39.5736C19.338 39.0559 17.3459 38.0714 15.6358 36.694C14.9055 36.0932 14.2261 35.4322 13.6113 34.7112C10.3528 30.861 9.36365 25.5733 11.023 20.808C11.3373 19.9252 11.7301 19.0747 12.2016 18.2659C12.4188 17.8961 12.6869 17.4801 12.8163 17.3091C13.26 19.218 13.8054 20.8958 14.0088 21.5013C13.9949 21.5337 13.9765 21.5706 13.958 21.603C12.881 23.7846 12.2987 25.8876 12.16 28.1247C12.16 28.1525 12.1554 28.1848 12.1554 28.2125C12.1184 28.8827 12.1369 29.2017 12.2478 29.6223C12.5945 30.9396 13.6622 32.3909 15.3353 33.8145C18.0762 36.144 21.7923 37.8264 24.6072 38.0206C27.5422 38.2193 31.873 36.5045 34.7572 33.9994C35.2102 33.5972 35.6354 33.172 36.0329 32.7191C36.3195 32.3863 36.7447 31.8131 36.7123 31.8131C36.7031 31.8131 36.7123 31.8039 36.7308 31.7946C36.7447 31.7854 36.7586 31.7715 36.7493 31.7623C36.7447 31.7577 36.7539 31.7438 36.7678 31.7392C36.7817 31.7346 36.7909 31.7253 36.7863 31.7161C36.7817 31.7068 36.7863 31.6976 36.8048 31.693C36.8186 31.6883 36.8233 31.6745 36.8186 31.6652C36.814 31.656 36.8186 31.6467 36.8279 31.6467C36.8371 31.6467 36.8464 31.6329 36.8464 31.6236C36.8464 31.6144 36.8556 31.6005 36.8649 31.6005C36.8741 31.6005 36.8834 31.5913 36.8834 31.582C36.8972 31.545 36.9203 31.5081 36.9434 31.4757C37.0128 31.3694 37.2901 30.8748 37.3271 30.7916C37.5905 30.1954 37.7569 29.6639 37.8355 29.1323C37.8725 28.8781 37.8956 28.4113 37.8771 28.3004C37.8725 28.2819 37.8725 28.2495 37.8678 28.1987C37.8586 28.1062 37.854 27.9676 37.8447 27.8289C37.8355 27.6209 37.817 27.3297 37.8031 27.1864C37.6044 25.088 37.0682 23.3732 36.0514 21.5568C36.0098 21.4874 35.9728 21.4181 35.9497 21.3626C35.9405 21.3488 35.9358 21.3349 35.9312 21.3257C36.0745 20.8958 36.6615 19.0978 37.1283 17.041L37.1376 17.0503L37.2069 17.1427C37.3271 17.3045 37.646 17.7852 37.7893 18.0163C38.441 19.0793 38.9494 20.221 39.3099 21.4135C40.1465 24.2838 40.0772 27.3436 39.0973 30.1723Z" fill="#F00500"/>
<path d="M33.098 24.65C33.0841 24.7239 32.8669 24.9458 32.6496 25.1076C32.0118 25.5744 30.8702 26.0089 29.71 26.2169C29.0491 26.337 28.3881 26.3555 28.1894 26.2585C28.0599 26.1937 28.0415 26.1429 28.0877 25.9765C28.1847 25.6299 28.499 25.2508 28.989 24.8949C29.2386 24.7147 30.2508 24.1 30.7222 23.8411C31.4988 23.4159 32.1273 23.1617 32.5526 23.1016C32.6866 23.0831 32.8484 23.0785 32.8992 23.1016C32.9824 23.1339 33.0749 23.3789 33.1118 23.6747C33.1303 23.8319 33.1211 24.5252 33.098 24.65Z" fill="black"/>
<path d="M22.2083 26.1788C22.1805 26.2343 22.0419 26.2943 21.8847 26.3174C21.7276 26.3406 21.2469 26.3267 20.9742 26.2943C19.9943 26.1649 18.9543 25.8645 18.1963 25.4947C17.7711 25.2867 17.466 25.0787 17.2396 24.8523L17.1101 24.7182L17.0963 24.5426C17.0732 24.2375 17.0778 23.7568 17.1148 23.5858C17.1379 23.4425 17.1887 23.3039 17.2581 23.1791C17.295 23.1328 17.295 23.1328 17.4614 23.1328C17.6648 23.1328 17.8358 23.1652 18.1131 23.253C18.6816 23.4287 19.5275 23.8539 20.5582 24.4732C21.4087 24.9817 21.7276 25.2313 21.9725 25.5733C22.1389 25.7859 22.2499 26.0863 22.2083 26.1788Z" fill="black"/>
<path d="M28.7533 32.614C28.7533 32.6279 28.6979 32.8498 28.6285 33.1132C28.5592 33.3767 28.5037 33.5893 28.5037 33.5985C28.4529 33.6032 28.4067 33.6078 28.3558 33.6032H28.2079L28.0046 34.0839C27.8936 34.3473 27.7919 34.5923 27.7781 34.6293L27.7503 34.694L27.6533 34.5368L27.5562 34.3797V33.0994L27.5192 33.1086C27.4407 33.1271 26.8814 33.201 26.6364 33.2242C25.6242 33.3258 24.6073 33.3027 23.5997 33.1594C23.438 33.1363 23.2993 33.1178 23.2947 33.1225C23.2901 33.1271 23.2947 33.4229 23.3039 33.788L23.3178 34.4444L23.2392 34.5646C23.1976 34.6293 23.156 34.6847 23.156 34.6893C23.1422 34.7032 23.0959 34.6293 22.9896 34.4166C22.8741 34.1948 22.7909 33.9591 22.7308 33.7141L22.6984 33.5801L22.5552 33.5893L22.4119 33.6032L22.3749 33.4321C22.3564 33.3397 22.3333 33.1964 22.324 33.1178L22.3102 32.9699L22.19 32.8636C22.1207 32.8035 22.0514 32.7435 22.0375 32.7342C22.0144 32.7157 22.0051 32.6834 22.0051 32.6556V32.6002L22.5829 32.6048L23.1606 32.6094L23.1791 32.6695L23.1976 32.7296L23.3964 32.7388C23.5073 32.7435 23.8586 32.7527 24.1729 32.7619L24.7506 32.7758L24.8985 32.5447L25.0511 32.3136H25.2452L25.2406 31.8329L25.2359 31.3522L24.9817 31.2413C24.1636 30.8808 23.6829 30.4694 23.5027 29.9702C23.4657 29.8685 23.4657 29.8316 23.4565 29.3694C23.4518 28.9118 23.4518 28.8702 23.4842 28.7685C23.5489 28.5374 23.7292 28.3571 23.9603 28.297C24.0388 28.2739 24.2468 28.2739 25.3376 28.2739L26.6226 28.2785L26.7658 28.3479C26.9369 28.4311 27.0154 28.4912 27.1125 28.6206C27.2234 28.7685 27.2558 28.884 27.2558 29.166C27.2558 29.5681 27.2281 29.9148 27.1865 30.0534C27.1264 30.2429 27.0339 30.4232 26.9184 30.585C26.6873 30.8808 26.2667 31.1766 25.883 31.3106L25.7721 31.3522L25.7767 31.8375L25.7813 32.3229L25.883 32.3321L25.9847 32.3413L26.1234 32.5493L26.2574 32.7573H26.8768C27.2188 32.7573 27.5192 32.7619 27.547 32.7666C27.5932 32.7758 27.6024 32.7712 27.6487 32.6926L27.7041 32.6094H28.2357C28.6332 32.5909 28.7533 32.6002 28.7533 32.614Z" fill="black"/>
<path d="M26.3128 33.9402C26.2249 33.9911 26.1649 34.0142 26.151 34.0049C26.1371 34.0003 26.0724 33.9449 26.0031 33.894L25.8783 33.7923L25.7489 33.931C25.4669 34.236 25.4577 34.2499 25.3745 34.2545C25.2451 34.2684 25.2173 34.2453 25.0602 34.0096C24.977 33.8894 24.9123 33.7877 24.9123 33.7877C24.9123 33.7877 24.8522 33.7785 24.7829 33.7738L24.6534 33.76L24.5934 33.8848L24.5333 34.0096L24.427 33.9772C24.3438 33.9495 24.2606 33.9171 24.182 33.8801L24.0433 33.8108V33.5474L25.2728 33.552L26.5023 33.5566L26.5069 33.6814C26.5115 33.8293 26.5161 33.8247 26.3128 33.9402Z" fill="black"/>
<path d="M37.8677 28.3003C37.8631 28.2818 37.8631 28.2495 37.8585 28.1986C36.7492 28.0784 33.5831 28.0045 30.6435 30.4311C30.6435 30.4311 29.6959 26.0863 25.2588 26.0863C20.8216 26.0863 19.1761 30.4311 19.1761 30.4311C16.6895 27.7549 13.3616 27.949 12.1599 28.1247C12.1599 28.1524 12.1552 28.1847 12.1552 28.2125C12.1183 28.8827 12.1368 29.2016 12.2477 29.6222C12.5943 30.9395 13.662 32.3908 15.3352 33.8144C18.0761 36.1439 21.7922 37.8264 24.6071 38.0205C27.5421 38.2192 31.8729 36.5045 34.7571 33.9993C35.21 33.5972 35.6353 33.1719 36.0328 32.719C36.3193 32.3862 36.7446 31.8131 36.7122 31.8131C36.703 31.8131 36.7122 31.8038 36.7307 31.7946C36.7446 31.7853 36.7584 31.7715 36.7492 31.7622C36.7446 31.7576 36.7538 31.7437 36.7677 31.7391C36.7815 31.7345 36.7908 31.7252 36.7862 31.716C36.7815 31.7068 36.7862 31.6975 36.8047 31.6929C36.8185 31.6883 36.8231 31.6744 36.8185 31.6652C36.8139 31.6559 36.8185 31.6467 36.8278 31.6467C36.837 31.6467 36.8463 31.6328 36.8463 31.6236C36.8463 31.6143 36.8555 31.6004 36.8647 31.6004C36.874 31.6004 36.8832 31.5912 36.8832 31.582C36.8971 31.545 36.9202 31.508 36.9433 31.4757C37.0126 31.3693 37.29 30.8748 37.3269 30.7916C37.5904 30.1953 37.7568 29.6638 37.8354 29.1323C37.8631 28.8781 37.8862 28.4112 37.8677 28.3003ZM26.3126 33.9392C26.2248 33.9901 26.1647 34.0132 26.1508 34.0039C26.137 33.9993 26.0722 33.9438 26.0029 33.893L25.8781 33.7913L25.7487 33.93C25.4668 34.235 25.4575 34.2489 25.3743 34.2535C25.2449 34.2674 25.2172 34.2443 25.06 34.0085C24.9768 33.8884 24.9121 33.7867 24.9121 33.7867C24.9121 33.7867 24.852 33.7774 24.7827 33.7728L24.6533 33.759L24.5932 33.8837L24.5331 34.0085L24.4268 33.9762C24.3436 33.9485 24.2604 33.9161 24.1818 33.8791L24.0432 33.8098V33.5463L25.2726 33.551L26.5021 33.5556L26.5067 33.6804C26.5113 33.8283 26.516 33.8237 26.3126 33.9392ZM28.6236 33.1072C28.5543 33.3707 28.4988 33.5833 28.4988 33.5926C28.448 33.5972 28.4018 33.6018 28.3509 33.5972H28.203L28.0043 34.0825C27.8933 34.346 27.7916 34.5909 27.7778 34.6279L27.7501 34.6926L27.653 34.5355L27.5559 34.3783V33.098L27.5189 33.1072C27.4404 33.1257 26.8811 33.1997 26.6361 33.2228C25.6239 33.3245 24.6071 33.3014 23.5994 33.1581C23.4377 33.135 23.299 33.1165 23.2944 33.1211C23.2898 33.1257 23.2944 33.4215 23.3036 33.7867L23.3175 34.443L23.2389 34.5632C23.1973 34.6279 23.1557 34.6834 23.1557 34.688C23.1419 34.7019 23.0956 34.6279 22.9893 34.4153C22.8738 34.1934 22.7906 33.9577 22.7305 33.7127L22.6981 33.5787L22.5549 33.5879L22.4116 33.6018L22.3746 33.4308C22.3561 33.3383 22.333 33.1951 22.3238 33.1165L22.3099 32.9686L22.1897 32.8623C22.1204 32.8022 22.0511 32.7421 22.0372 32.7329C22.0141 32.7144 22.0048 32.682 22.0048 32.6543V32.5988L22.5826 32.6034L23.1604 32.6081L23.1788 32.6681L23.1973 32.7282L23.3961 32.7375C23.507 32.7421 23.8583 32.7513 24.1726 32.7606L24.7503 32.7745L24.8982 32.5433L25.0508 32.3122H25.2449L25.2403 31.8316L25.2357 31.3509L24.9814 31.2399C24.1633 30.8794 23.6826 30.468 23.5024 29.9689C23.4654 29.8672 23.4654 29.8302 23.4562 29.368C23.4515 28.9104 23.4515 28.8688 23.4839 28.7671C23.5486 28.536 23.7289 28.3558 23.96 28.2957C24.0385 28.2726 24.2465 28.2726 25.3373 28.2726L26.6223 28.2772L26.7656 28.3465C26.9366 28.4297 27.0151 28.4898 27.1122 28.6192C27.2231 28.7671 27.2555 28.8827 27.2555 29.1646C27.2555 29.5667 27.2278 29.9134 27.1862 30.0521C27.1261 30.2416 27.0336 30.4218 26.9181 30.5836C26.687 30.8794 26.2664 31.1752 25.8827 31.3093L25.7718 31.3509L25.7764 31.8362L25.7811 32.3215L25.8827 32.3307L25.9844 32.34L26.1231 32.548L26.2571 32.756H26.8765C27.2185 32.756 27.5189 32.7606 27.5467 32.7652C27.5929 32.7745 27.6021 32.7698 27.6484 32.6913L27.7038 32.6081H28.2354C28.6467 32.6081 28.7669 32.6127 28.7669 32.6265C28.753 32.6219 28.693 32.8484 28.6236 33.1072Z" fill="white"/>
<path d="M37.8308 27.829C37.8215 27.621 37.803 27.3298 37.7892 27.1866C37.5904 25.0881 37.0543 23.3734 36.0374 21.5569C35.9958 21.4876 35.9588 21.4182 35.9357 21.3628C35.9265 21.3489 35.9218 21.335 35.9172 21.3258C36.0605 20.8959 36.6475 19.0979 37.1143 17.0411C37.7476 14.2494 38.1497 10.9862 36.9202 10.0064C36.9202 10.0064 34.7941 9.8492 31.9469 12.6409C31.175 13.4128 30.4678 14.2494 29.8392 15.1415L29.6405 15.0768C28.4942 14.7024 27.3063 14.4713 26.1092 14.3927C25.7487 14.365 24.4037 14.365 23.9646 14.3927C22.6381 14.4805 21.6212 14.6793 20.4657 15.0814C20.4195 15.0999 20.3779 15.1137 20.3363 15.1276C19.6846 14.2402 18.9589 13.4082 18.1593 12.6455C15.1966 9.83996 12.9918 10.0017 12.9918 10.0017C11.6884 11.014 12.1321 14.425 12.807 17.3092C13.2507 19.2181 13.7961 20.8959 13.9995 21.5014C13.9856 21.5338 13.9671 21.5707 13.9486 21.6031C12.8717 23.7847 12.2893 25.8878 12.1506 28.1248C13.357 27.9492 16.6802 27.7504 19.1715 30.4312C19.1715 30.4312 20.817 26.0865 25.2542 26.0865C29.6913 26.0865 30.6388 30.4312 30.6388 30.4312C33.5785 28.0047 36.7446 28.0832 37.8539 28.1988C37.8492 28.1063 37.84 27.9677 37.8308 27.829ZM14.873 19.7589C14.873 19.7589 13.1444 15.4373 13.5881 12.9691C13.662 12.5531 13.8007 12.188 14.0179 11.9106C14.0179 11.9106 15.9777 12.1048 19.1392 15.6175C19.1392 15.6175 18.5383 15.9087 17.7341 16.5281C17.7341 16.5281 17.7295 16.5327 17.7248 16.5327C16.8513 17.2029 15.7327 18.266 14.873 19.7589ZM22.2082 26.1789C22.1805 26.2344 22.0418 26.2945 21.8847 26.3176C21.7275 26.3407 21.2468 26.3269 20.9741 26.2945C19.9943 26.1651 18.9543 25.8646 18.1963 25.4949C17.7711 25.2869 17.466 25.0789 17.2395 24.8524L17.1101 24.7184L17.0962 24.5427C17.0731 24.2377 17.0777 23.757 17.1147 23.586C17.1378 23.4427 17.1887 23.304 17.258 23.1792C17.295 23.133 17.295 23.133 17.4614 23.133C17.6647 23.133 17.8358 23.1654 18.1131 23.2532C18.6816 23.4288 19.5274 23.854 20.5581 24.4734C21.4086 24.9818 21.7275 25.2314 21.9725 25.5735C22.1389 25.7861 22.2498 26.0865 22.2082 26.1789ZM33.0978 24.649C33.0839 24.723 32.8667 24.9449 32.6494 25.1066C32.0116 25.5735 30.8699 26.0079 29.7098 26.2159C29.0489 26.3361 28.3879 26.3546 28.1892 26.2575C28.0597 26.1928 28.0413 26.142 28.0875 25.9756C28.1845 25.6289 28.4988 25.2499 28.9888 24.894C29.2384 24.7138 30.2506 24.099 30.722 23.8402C31.4985 23.415 32.1271 23.1607 32.5524 23.1007C32.6864 23.0822 32.8482 23.0775 32.899 23.1007C32.9822 23.133 33.0747 23.378 33.1116 23.6738C33.1301 23.8309 33.1209 24.5242 33.0978 24.649ZM32.3305 16.5281L32.3213 16.5235C31.5448 15.9041 30.9624 15.6129 30.9624 15.6129C34.0176 12.1001 35.908 11.906 35.908 11.906C36.116 12.188 36.25 12.5485 36.324 12.9645C36.7538 15.4327 35.0853 19.7589 35.0853 19.7589C34.3873 18.5156 33.449 17.4155 32.3305 16.5281Z" fill="#FFA409"/>
<path d="M36.3288 12.9647C35.9683 12.9185 34.2628 12.9092 32.3308 16.5283L32.3215 16.5237C31.545 15.9043 30.9626 15.6131 30.9626 15.6131C34.0178 12.1004 35.9082 11.9062 35.9082 11.9062C36.1209 12.1882 36.2549 12.5487 36.3288 12.9647Z" fill="#FF9300"/>
<path d="M35.0901 19.7602C34.3875 18.5122 33.4538 17.4168 32.3307 16.5293C34.2627 12.9103 35.9636 12.9195 36.3288 12.9657C36.7586 15.4385 35.0901 19.7602 35.0901 19.7602Z" fill="#FF8300"/>
<path d="M36.3979 12.9802C36.3748 12.9756 36.3517 12.9709 36.3286 12.9663L36.3979 12.9802Z" fill="#FF8300"/>
<path d="M19.1394 15.6131C19.1394 15.6131 18.5386 15.9043 17.7343 16.5237C17.7343 16.5237 17.7297 16.5283 17.7251 16.5283C15.7237 12.9046 13.9627 12.9185 13.5837 12.9647C13.6577 12.5487 13.7964 12.1836 14.0136 11.9063C14.0182 11.9063 15.978 12.1004 19.1394 15.6131Z" fill="#FF9300"/>
<path d="M17.7298 16.5293C16.8516 17.2042 15.7331 18.2626 14.8734 19.7602C14.8734 19.7602 13.1447 15.4385 13.5885 12.9657C13.9628 12.9195 15.7285 12.9103 17.7298 16.5293Z" fill="#FF8300"/>
<path d="M13.5884 12.9663C13.5652 12.9709 13.5375 12.9756 13.5144 12.9802L13.5884 12.9663Z" fill="#FF8300"/>
<path d="M30.4125 22.1576C30.4125 22.1576 28.9334 22.25 29.1183 21.0945C29.3032 19.939 30.4587 19.8003 30.7822 19.8466C31.1058 19.8928 32.3999 20.355 32.1688 21.3256C31.9377 22.2962 31.6142 22.1114 31.4293 22.1576C31.2444 22.2038 30.4125 22.1576 30.4125 22.1576Z" fill="white"/>
<path d="M19.5045 22.1576C19.5045 22.1576 18.0254 22.25 18.2103 21.0945C18.3952 19.939 19.5507 19.8003 19.8743 19.8466C20.1978 19.8928 21.492 20.355 21.2609 21.3256C21.0298 22.2962 20.7062 22.1114 20.5214 22.1576C20.3365 22.2038 19.5045 22.1576 19.5045 22.1576Z" fill="white"/>
</svg>
