<svg width="51" height="50" viewBox="0 0 51 50" fill="none" xmlns="http://www.w3.org/2000/svg">
<rect x="0.0600586" width="50" height="50" rx="25" fill="url(#paint0_linear_28_1801)"/>
<rect x="1.16006" y="1.1" width="47.8" height="47.8" rx="23.9" stroke="black" stroke-opacity="0.5" stroke-width="2.2" style="mix-blend-mode:soft-light"/>
<g clip-path="url(#clip0_28_1801)">
<path d="M14.9329 31.1895C15.1139 31.0084 15.3629 30.9028 15.6269 30.9028H39.5696C40.0071 30.9028 40.2258 31.4309 39.9165 31.7401L35.1869 36.4698C35.0058 36.6509 34.7569 36.7565 34.4929 36.7565H10.5502C10.1127 36.7565 9.89392 36.2285 10.2032 35.9192L14.9329 31.1895Z" fill="white"/>
<path d="M14.9329 13.5308C15.1215 13.3497 15.3704 13.2441 15.6269 13.2441H39.5696C40.0071 13.2441 40.2258 13.7722 39.9165 14.0815L35.1869 18.8111C35.0058 18.9922 34.7569 19.0978 34.4929 19.0978H10.5502C10.1127 19.0978 9.89392 18.5698 10.2032 18.2605L14.9329 13.5308Z" fill="white"/>
<path d="M35.1868 22.3029C35.0058 22.1218 34.7568 22.0162 34.4928 22.0162H10.5501C10.1126 22.0162 9.89385 22.5442 10.2031 22.8535L14.9328 27.5832C15.1139 27.7643 15.3628 27.8699 15.6268 27.8699H39.5695C40.007 27.8699 40.2258 27.3418 39.9165 27.0326L35.1868 22.3029Z" fill="white"/>
</g>
<defs>
<linearGradient id="paint0_linear_28_1801" x1="47.2601" y1="-7.6" x2="4.06006" y2="52.2" gradientUnits="userSpaceOnUse">
<stop stop-color="#00FFA3"/>
<stop offset="1" stop-color="#DC1FFF"/>
</linearGradient>
<clipPath id="clip0_28_1801">
<rect width="30" height="23.5127" fill="white" transform="translate(10.0601 13.2437)"/>
</clipPath>
</defs>
</svg>
