<svg width="51" height="50" viewBox="0 0 51 50" fill="none" xmlns="http://www.w3.org/2000/svg">
<rect x="0.0600586" width="50" height="50" rx="25" fill="#0088CC"/>
<rect x="1.16006" y="1.1" width="47.8" height="47.8" rx="23.9" stroke="black" stroke-opacity="0.5" stroke-width="2.2" style="mix-blend-mode:soft-light"/>
<path fill-rule="evenodd" clip-rule="evenodd" d="M14.8049 12.517H35.3493C36.1344 12.517 36.7887 12.6479 37.5738 13.0404C38.4898 13.433 39.0132 14.0873 39.2749 14.6107C39.2749 14.6107 39.2749 14.7416 39.4058 14.7416C39.7983 15.3958 40.0601 16.181 40.0601 17.097C40.0601 17.8821 39.9292 18.6672 39.4058 19.4524L26.4511 41.6978C26.1894 42.2213 25.6659 42.483 25.0117 42.483C24.4882 42.483 23.9648 42.2213 23.5722 41.6978L10.8792 19.4524C10.6175 18.9289 10.0941 18.2747 10.0941 17.2278C9.96324 16.3118 10.225 15.5267 10.6175 14.7416C11.0101 13.9564 11.6644 13.3022 12.5804 13.0404C13.3655 12.517 14.2815 12.517 14.8049 12.517ZM23.4414 15.6576H14.8049C14.2815 15.6576 14.0198 15.6576 13.8889 15.7884C13.6272 15.9193 13.4963 16.0501 13.3655 16.3118C13.2346 16.4427 13.2346 16.7044 13.2346 16.9661C13.2346 17.097 13.3655 17.2278 13.6272 17.7512L23.4414 34.7625V15.6576ZM26.5819 15.6576V34.8933L36.527 17.7512C36.6578 17.4895 36.6578 17.2278 36.6578 16.9661C36.6578 16.7044 36.6578 16.4427 36.527 16.3118C36.3961 16.181 36.3961 16.0501 36.2652 16.0501L36.1344 15.9193C35.8727 15.7884 35.611 15.7884 35.2184 15.7884H26.5819V15.6576Z" fill="white"/>
</svg>
