<svg width="51" height="50" viewBox="0 0 51 50" fill="none" xmlns="http://www.w3.org/2000/svg">
<rect x="0.0600586" width="50" height="50" rx="25" fill="#FF060A"/>
<rect x="1.16006" y="1.1" width="47.8" height="47.8" rx="23.9" stroke="black" stroke-opacity="0.5" stroke-width="2.2" style="mix-blend-mode:soft-light"/>
<path d="M38.9287 19.0377C37.5224 17.7393 35.5771 15.7564 33.9927 14.3502L33.899 14.2846C33.743 14.1593 33.5671 14.0611 33.3787 13.994C29.5584 13.2815 11.7787 9.95801 11.4318 10.0002C11.3346 10.0138 11.2417 10.0491 11.1599 10.1033L11.0709 10.1736C10.9612 10.285 10.8779 10.4196 10.8271 10.5674L10.8037 10.6283V10.9611V11.0127C12.8052 16.5861 20.7084 34.844 22.2646 39.1283C22.3584 39.419 22.5365 39.9721 22.8693 40.0002H22.9443C23.1224 40.0002 23.8818 38.9971 23.8818 38.9971C23.8818 38.9971 37.4568 22.5346 38.8302 20.7814C39.008 20.5655 39.165 20.3332 39.299 20.0877C39.3332 19.8956 39.3171 19.6979 39.2522 19.5139C39.1873 19.3299 39.0758 19.1658 38.9287 19.0377ZM27.3646 20.9549L33.1584 16.1502L36.5568 19.2814L27.3646 20.9549ZM25.1146 20.6408L15.1396 12.4658L31.2787 15.4424L25.1146 20.6408ZM26.0146 22.783L36.224 21.1377L24.5521 35.2002L26.0146 22.783ZM13.7849 13.2814L24.2802 22.1877L22.7615 35.2096L13.7849 13.2814Z" fill="white"/>
</svg>
