<svg width="51" height="50" viewBox="0 0 51 50" fill="none" xmlns="http://www.w3.org/2000/svg">
<rect x="0.0600586" width="50" height="50" rx="25" fill="#2775CA"/>
<rect x="1.16006" y="1.1" width="47.8" height="47.8" rx="23.9" stroke="black" stroke-opacity="0.5" stroke-width="2.2" style="mix-blend-mode:soft-light"/>
<path d="M20.8215 36.635C14.3391 34.3082 11.0147 27.0778 13.425 20.6783C14.6716 17.1878 17.4142 14.5284 20.8215 13.2818C21.154 13.1156 21.3202 12.8663 21.3202 12.4506V11.2872C21.3202 10.9547 21.154 10.7054 20.8215 10.6224C20.7384 10.6224 20.5722 10.6224 20.489 10.7054C12.5939 13.1986 8.27219 21.5926 10.7654 29.4878C12.2614 34.1418 15.8351 37.7155 20.489 39.2115C20.8215 39.3776 21.154 39.2114 21.237 38.879C21.3202 38.796 21.3202 38.7128 21.3202 38.5467V37.383C21.3202 37.1337 21.0709 36.8014 20.8215 36.635ZM29.6311 10.7054C29.2986 10.5392 28.9661 10.7054 28.8831 11.0379C28.7999 11.121 28.7999 11.204 28.7999 11.3704V12.5338C28.7999 12.8663 29.0492 13.1986 29.2986 13.365C35.781 15.6918 39.1053 22.9222 36.6951 29.3217C35.4485 32.8122 32.7059 35.4716 29.2986 36.7182C28.9661 36.8844 28.7999 37.1337 28.7999 37.5494V38.7128C28.7999 39.0453 28.9661 39.2946 29.2986 39.3776C29.3817 39.3776 29.5479 39.3776 29.6311 39.2946C37.5262 36.8014 41.8479 28.4074 39.3547 20.5122C37.8587 15.775 34.2019 12.2013 29.6311 10.7054Z" fill="white"/>
<path d="M30.625 27.9486C30.625 25.0399 28.8797 24.0426 25.3892 23.6271C22.8959 23.2946 22.3973 22.6298 22.3973 21.4662C22.3973 20.3025 23.2284 19.5548 24.8905 19.5548C26.3864 19.5548 27.2176 20.0534 27.6331 21.3C27.7162 21.5494 27.9656 21.7155 28.2149 21.7155H29.5445C29.877 21.7155 30.1263 21.4662 30.1263 21.1339V21.0507C29.7938 19.2223 28.2979 17.8095 26.3864 17.6434V15.6488C26.3864 15.3163 26.1371 15.0669 25.7217 14.9838H24.475C24.1425 14.9838 23.8932 15.2331 23.81 15.6488V17.5602C21.3168 17.8927 19.7379 19.5548 19.7379 21.6325C19.7379 24.3751 21.4 25.4554 24.8905 25.871C27.2176 26.2865 27.9656 26.7852 27.9656 28.115C27.9656 29.4447 26.8019 30.3589 25.223 30.3589C23.0621 30.3589 22.3141 29.4445 22.0648 28.1979C21.9818 27.8656 21.7325 27.6993 21.4831 27.6993H20.0702C19.7379 27.6993 19.4886 27.9486 19.4886 28.2811V28.3643C19.8209 30.4418 21.1506 31.9378 23.8932 32.3535V34.348C23.8932 34.6803 24.1425 34.9297 24.558 35.0128H25.8046C26.1371 35.0128 26.3864 34.7635 26.4696 34.348V32.3535C28.9629 31.9378 30.625 30.1925 30.625 27.9486Z" fill="white"/>
</svg>
