<svg width="51" height="50" viewBox="0 0 51 50" fill="none" xmlns="http://www.w3.org/2000/svg">
<rect x="0.0600586" width="50" height="50" rx="25" fill="#50AF95"/>
<rect x="1.16006" y="1.1" width="47.8" height="47.8" rx="23.9" stroke="black" stroke-opacity="0.5" stroke-width="2.2" style="mix-blend-mode:soft-light"/>
<path fill-rule="evenodd" clip-rule="evenodd" d="M28.1121 26.0431C27.9416 26.056 27.0609 26.1088 25.0963 26.1088C23.5337 26.1088 22.4243 26.0617 22.0351 26.0431C15.9964 25.7761 11.4891 24.7194 11.4891 23.4542C11.4891 22.1891 15.9964 21.1338 22.0351 20.8625V24.9907C22.43 25.0193 23.5607 25.0864 25.1233 25.0864C26.9984 25.0864 27.9373 25.0079 28.1064 24.9921V20.8654C34.1322 21.1353 38.6296 22.1919 38.6296 23.4542C38.6296 24.7165 34.1336 25.7732 28.1064 26.0417L28.1121 26.0431ZM28.1121 20.4384V16.7443H36.5215V11.1111H13.6256V16.7443H22.0336V20.437C15.1995 20.7526 10.0601 22.1134 10.0601 23.7441C10.0601 25.3748 15.1995 26.7342 22.0336 27.0512V38.8889H28.1106V27.047C34.9291 26.7314 40.0601 25.372 40.0601 23.7427C40.0601 22.1134 34.9334 20.754 28.1106 20.437L28.1121 20.4384Z" fill="white"/>
</svg>
