<svg width="51" height="50" viewBox="0 0 51 50" fill="none" xmlns="http://www.w3.org/2000/svg">
<rect x="0.0600586" width="50" height="50" rx="25" fill="#82BE00"/>
<rect x="1.16006" y="1.1" width="47.8" height="47.8" rx="23.9" stroke="black" stroke-opacity="0.5" stroke-width="2.2" style="mix-blend-mode:soft-light"/>
<path d="M40.06 11.3356H37.3828C36.73 11.3356 36.1311 11.7129 35.8496 12.2999L28.8063 26.9555L28.8003 26.9375L26.9256 30.8425L26.9316 30.8605L25.057 34.7654L15.6899 15.2466H18.3611C19.0139 15.2466 19.6128 15.6239 19.8943 16.2108L26.0093 28.872L27.8839 24.9671L22.9488 14.7495C21.9486 12.6652 19.8404 11.3356 17.5286 11.3356H10.06L11.9286 15.2466H11.9346L23.1764 38.6644H26.9256L40.06 11.3356Z" fill="white"/>
</svg>
