<svg width="51" height="51" viewBox="0 0 51 51" fill="none" xmlns="http://www.w3.org/2000/svg">
<path d="M25.678 49.3589C38.7442 49.3589 49.3365 38.7667 49.3365 25.7005C49.3365 12.6343 38.7442 2.04199 25.678 2.04199C12.6118 2.04199 2.01953 12.6343 2.01953 25.7005C2.01953 38.7667 12.6118 49.3589 25.678 49.3589Z" fill="#D4AF37"/>
<path d="M25.6787 50.6997C11.8938 50.6997 0.678711 39.4846 0.678711 25.6997C0.678711 11.9148 11.8938 0.701172 25.6787 0.701172C39.4636 0.701172 50.6787 11.9163 50.6787 25.7012C50.6787 39.4861 39.4636 50.7012 25.6787 50.7012V50.6997ZM25.6787 3.38422C13.374 3.38422 3.36175 13.3949 3.36175 25.7012C3.36175 38.0074 13.3725 48.0181 25.6787 48.0181C37.9849 48.0181 47.9957 38.0074 47.9957 25.7012C47.9957 13.3949 37.9834 3.38422 25.6787 3.38422Z" fill="url(#paint0_linear_8567_129677)"/>
<path d="M16.6383 29.4609L6.16992 43.1817H14.4933L24.1299 30.1242L28.3155 43.1817H36.3706L31.319 29.4609H16.6383Z" fill="#B8860B"/>
<path d="M18.3839 29.4613H32.7754L31.3996 25.6737L44.6613 8.03125H36.2887L27.4556 20.6371L23.7336 8.03125H15.9453L21.7377 25.0149L18.3854 29.4628L18.3839 29.4613Z" fill="#B8860B"/>
<path d="M20.9703 29.4613H35.3618L33.986 25.6737L47.2492 8.03125H38.8766L30.0435 20.6371L26.3215 8.03125H18.5332L24.3256 25.0149L20.9733 29.4628L20.9703 29.4613Z" fill="#F9E79F"/>
<path d="M18.9645 29.4609L8.49316 43.1817H16.8166L26.4532 30.1242L30.6387 43.1817H38.6938L33.6452 29.4609H18.9645Z" fill="#F9E79F"/>
<path d="M17.6725 29.4609L7.20117 43.1817H15.5246L25.1612 30.1242L29.3467 43.1817H37.4018L32.3532 29.4609H17.6725Z" fill="url(#paint1_linear_8567_129677)"/>
<path d="M19.4171 29.4613H33.8086L32.4299 25.6737L45.6945 8.03125H37.3219L28.4888 20.6371L24.7668 8.03125H16.9785L22.7709 25.0149L19.4186 29.4628L19.4171 29.4613Z" fill="url(#paint2_linear_8567_129677)"/>
<defs>
<linearGradient id="paint0_linear_8567_129677" x1="50.8582" y1="25.0073" x2="0.29663" y2="25.0073" gradientUnits="userSpaceOnUse">
<stop stop-color="#F9E79F"/>
<stop offset="1" stop-color="#B8860B"/>
</linearGradient>
<linearGradient id="paint1_linear_8567_129677" x1="16.5332" y1="29.209" x2="35.6184" y2="29.209" gradientUnits="userSpaceOnUse">
<stop stop-color="#B8860B"/>
<stop offset="1" stop-color="#F9E79F"/>
</linearGradient>
<linearGradient id="paint2_linear_8567_129677" x1="16.1056" y1="29.4628" x2="38.3954" y2="29.4628" gradientUnits="userSpaceOnUse">
<stop stop-color="#B8860B"/>
<stop offset="1" stop-color="#F9E79F"/>
</linearGradient>
</defs>
</svg>
