<svg width="51" height="50" viewBox="0 0 51 50" fill="none" xmlns="http://www.w3.org/2000/svg">
<rect x="0.0600586" width="50" height="50" rx="25" fill="black"/>
<rect x="1.16006" y="1.1" width="47.8" height="47.8" rx="23.9" stroke="black" stroke-opacity="0.5" stroke-width="2.2" style="mix-blend-mode:soft-light"/>
<path d="M35.8258 15.6305L32.2136 17.4709L14.7702 26.3557C14.7113 25.9058 14.6816 25.4526 14.6814 24.9989C14.6838 23.1885 15.1591 21.4102 16.0602 19.8401C16.9613 18.2699 18.257 16.9625 19.819 16.0472C21.3809 15.1319 23.1548 14.6405 24.9651 14.6218C26.7753 14.603 28.559 15.0575 30.1396 15.9402L32.2072 14.8867L32.5156 14.7294C30.6216 13.3546 28.3843 12.5303 26.0511 12.3476C23.7178 12.1649 21.3795 12.6308 19.2945 13.6939C17.2095 14.757 15.4591 16.3759 14.2366 18.3717C13.0142 20.3674 12.3673 22.6623 12.3676 25.0027C12.3676 25.3259 12.3798 25.6479 12.4044 25.9686C12.4387 26.4227 12.338 26.8769 12.1149 27.2739C11.8917 27.671 11.5562 27.9931 11.1503 28.1999L10.0601 28.7558V31.3489L13.27 29.7129L14.3095 29.1823L15.3338 28.6606L33.7227 19.291L35.789 18.2388L40.0601 16.0621V13.4703L35.8258 15.6305Z" fill="white"/>
<path d="M40.0601 18.6565L16.3784 30.7144L14.312 31.7691L10.0601 33.9357V36.5263L14.2829 34.3749L17.8951 32.5345L35.3562 23.637C35.4152 24.0899 35.4449 24.5461 35.4451 25.0028C35.4439 26.8152 34.9688 28.5958 34.0668 30.1679C33.1648 31.7399 31.8673 33.0487 30.3031 33.9643C28.7389 34.8799 26.9625 35.3704 25.1501 35.3872C23.3378 35.404 21.5525 34.9465 19.9716 34.0601L19.8447 34.1274L17.6032 35.2697C19.4968 36.6445 21.7337 37.469 24.0665 37.6522C26.3994 37.8354 28.7375 37.3701 30.8225 36.3077C32.9075 35.2453 34.6582 33.6272 35.8812 31.6321C37.1042 29.6371 37.7518 27.3428 37.7526 25.0028C37.7526 24.6766 37.7399 24.3504 37.7158 24.028C37.6814 23.574 37.782 23.12 38.0049 22.723C38.2278 22.326 38.563 22.0037 38.9685 21.7966L40.0601 21.2407V18.6565Z" fill="white"/>
</svg>
