<svg width="51" height="50" viewBox="0 0 51 50" fill="none" xmlns="http://www.w3.org/2000/svg">
<rect x="0.0600586" width="50" height="50" rx="25" fill="white"/>
<rect x="1.16006" y="1.1" width="47.8" height="47.8" rx="23.9" stroke="black" stroke-opacity="0.2" stroke-width="2.2"/>
<g clip-path="url(#clip0_28_1467)">
<path d="M35.6655 12.5781H40.0014L30.978 21.5125C27.7102 24.7463 22.4122 24.7463 19.1421 21.5125L10.1151 12.5781H14.4546L21.31 19.365C22.3089 20.3495 23.655 20.9013 25.0574 20.9013C26.4598 20.9013 27.8059 20.3495 28.8048 19.365L35.6655 12.5781Z" fill="#23292F"/>
<path d="M14.3989 37.4207H10.0601L19.1421 28.4312C22.4099 25.1974 27.7079 25.1974 30.978 28.4312L40.0601 37.4207H35.7241L28.8101 30.5787C27.8112 29.5942 26.4651 29.0424 25.0627 29.0424C23.6603 29.0424 22.3142 29.5942 21.3153 30.5787L14.3989 37.4207Z" fill="#23292F"/>
</g>
<defs>
<clipPath id="clip0_28_1467">
<rect width="30" height="24.8438" fill="white" transform="translate(10.0601 12.5781)"/>
</clipPath>
</defs>
</svg>
