<svg width="51" height="50" viewBox="0 0 51 50" fill="none" xmlns="http://www.w3.org/2000/svg">
<rect x="0.0600586" width="50" height="50" rx="25" fill="#2C7DF7"/>
<rect x="1.16006" y="1.1" width="47.8" height="47.8" rx="23.9" stroke="black" stroke-opacity="0.5" stroke-width="2.2" style="mix-blend-mode:soft-light"/>
<path d="M28.2753 40C26.1346 40 24.5721 39.4844 23.5878 38.4531C22.6759 37.5801 22.1468 36.3817 22.116 35.1198C22.1049 34.7364 22.1938 34.3567 22.3738 34.0181C22.5418 33.7254 22.7844 33.4827 23.0768 33.3145C23.4168 33.1449 23.7915 33.0567 24.1714 33.0567C24.5513 33.0567 24.926 33.1449 25.2659 33.3145C25.5579 33.482 25.7993 33.725 25.965 34.0181C26.1502 34.3551 26.2424 34.7353 26.232 35.1198C26.2511 35.5789 26.1194 36.0316 25.8571 36.4088C25.6383 36.7167 25.3257 36.9455 24.9661 37.0608C25.3178 37.5086 25.8154 37.8188 26.3723 37.9375C26.9954 38.1184 27.6406 38.2115 28.2894 38.2139C29.1484 38.2214 29.9897 37.9699 30.7036 37.4921C31.4441 36.9689 31.9964 36.221 32.2785 35.3593C32.6362 34.3337 32.8107 33.2532 32.7942 32.1672C32.823 31.035 32.632 29.9079 32.2316 28.8484C31.9305 28.001 31.3589 27.2762 30.6051 26.7859C29.9044 26.3424 29.091 26.1098 28.2618 26.1156C27.5392 26.1768 26.8425 26.4134 26.232 26.8047L24.7269 27.5593V26.8047L31.491 17.7307H22.116V27.1469C22.0895 27.8264 22.2693 28.498 22.6316 29.0734C22.807 29.3242 23.0441 29.5254 23.32 29.6576C23.5959 29.7898 23.9013 29.8485 24.2066 29.828C24.7706 29.8166 25.3161 29.6244 25.7627 29.2796C26.2689 28.9087 26.7094 28.4555 27.0659 27.939C27.098 27.8484 27.1572 27.7699 27.2354 27.7141C27.2982 27.6598 27.3784 27.6299 27.4614 27.6297C27.6243 27.6446 27.7784 27.7101 27.9021 27.8171C28.0587 27.9922 28.144 28.2197 28.141 28.4546C28.1229 28.6125 28.0948 28.769 28.0567 28.9233C27.7236 29.7294 27.1654 30.4225 26.4488 30.9196C25.7832 31.37 24.997 31.6088 24.1934 31.6047C22.1636 31.6047 20.7575 31.2047 19.9749 30.4047C19.5727 29.9625 19.2627 29.4446 19.0631 28.8811C18.8635 28.3177 18.7783 27.7201 18.8124 27.1233V17.7307H14.0441V15.9811H18.8346V11.9921L17.7378 10.8945V9.99998H20.9205L22.116 10.6188V15.9811L34.5002 15.9435L35.7331 17.181L28.1394 24.8117C28.5981 24.6272 29.0813 24.5103 29.5736 24.4648C30.5481 24.5074 31.4989 24.7789 32.3491 25.257C33.3337 25.725 34.1634 26.4654 34.7399 27.3906C35.2565 28.1737 35.6222 29.0465 35.8181 29.964C35.9791 30.6877 36.0655 31.4261 36.0759 32.1674C36.0809 33.5822 35.7601 34.9792 35.1384 36.2501C34.5488 37.4807 33.5565 38.4731 32.3258 39.0627C31.066 39.6835 29.6797 40.0043 28.2753 40Z" fill="white"/>
</svg>
